<svg width="81" height="64" viewBox="0 0 81 64" fill="none" xmlns="http://www.w3.org/2000/svg">
<path d="M69.1429 42.9342C67.3637 44.9453 65.7953 45.9668 63.182 46.6174C61.3113 47.0836 57.0593 46.5093 56.4166 45.7655C55.9165 48.9018 54.2757 51.9449 51.5922 53.6572C48.9086 55.3695 45.1461 55.503 42.62 53.5682C42.3582 53.369 42.0922 53.1401 41.7666 53.0893C41.1643 52.996 40.6685 53.5216 40.245 53.9581C38.2041 56.0667 35.1034 57.0987 32.1985 56.6368C29.2958 56.1727 26.6718 54.2252 25.397 51.5868C24.6139 53.2228 22.9263 54.3947 21.1131 54.5642C19.2999 54.7316 17.4272 53.8924 16.3503 52.4281C16.1354 52.1378 15.9375 51.8093 15.614 51.6483C15.231 51.4554 14.7755 51.5402 14.352 51.6037C9.2275 52.3772 4.07955 48.9739 1.76202 44.3583C1.00866 42.8558 0.493652 41.1732 0.693703 39.5076C0.857567 38.1428 1.57475 36.7972 2.69839 36.0385C3.04102 35.8054 3.06444 35.3243 2.7516 35.0531C0.755417 33.3217 -0.312904 30.5499 0.0807953 27.9348C0.504295 25.1439 2.57071 22.6708 5.23087 21.7172C5.41389 21.6515 5.46922 21.4332 5.34154 21.2891C3.24532 18.9093 2.8644 15.1499 4.49667 12.4225C6.09702 9.74816 9.48926 8.29865 12.5431 8.90473C12.8432 8.96407 13.1284 8.74368 13.1539 8.44276C13.339 6.29392 14.5351 4.24045 16.3418 3.04101C18.1763 1.82461 20.5853 1.52369 22.6688 2.22301C22.9667 2.32261 23.2902 2.29506 23.5477 2.11917C23.9733 1.83097 24.6628 1.37959 25.2757 1.07231C28.0998 -0.347533 33.7031 -0.680242 36.9357 2.09798C37.3337 2.44129 37.9019 2.50698 38.3467 2.22937C41.69 0.129278 45.942 -0.497994 49.7471 0.58278C53.8459 1.75044 57.3339 4.87408 58.9257 8.80937C59.1534 9.37095 59.3449 9.97915 59.3556 10.5768C59.3641 11.0345 59.7003 11.4138 60.16 11.435C62.7372 11.5622 65.2739 12.6874 66.9466 14.6392C68.8172 16.8262 69.4748 20.0409 68.4086 22.7132C72.152 25.4151 73.2374 31.1517 70.7389 35.0255C70.7389 35.0255 71.737 40.0077 69.145 42.9342H69.1429Z" fill="#FFCFCA"/>
<path d="M64.5762 26.492C64.5762 26.492 64.9209 25.2141 62.5438 24.8221C60.1646 24.43 57.3959 24.8941 58.2109 26.7611C59.0281 28.6302 64.9571 28.5454 64.5762 26.492Z" fill="#FFA59B"/>
<path d="M35.1315 31.6643C35.1315 31.6643 35.4784 30.3865 33.0991 29.9944C30.7199 29.6024 27.9512 30.0665 28.7684 31.9335C29.5835 33.8026 35.5124 33.7178 35.1315 31.6643Z" fill="#FFA59B"/>
<path d="M20.6987 17.695C18.511 18.087 17.1809 20.1575 17.8449 22.2957C18.1705 23.3489 16.7149 23.8448 16.1403 23.012C15.3443 21.857 13.6887 22.9039 12.9949 23.5841C12.0564 24.506 11.0349 25.9555 11.9138 27.2397C12.5905 28.2315 10.9753 29.1597 10.3049 28.1785C7.62137 24.2559 14.7591 17.7374 17.7491 22.0753C17.1809 22.3126 16.6127 22.5521 16.0445 22.7916C15.1017 19.7548 17.0383 16.4722 20.2007 15.9085C20.6966 15.8195 21.2073 16.042 21.3478 16.5549C21.4712 17.0041 21.1967 17.6081 20.6987 17.6971V17.695Z" fill="#FFA59B"/>
<path d="M28.7701 47.374L29.1149 47.3168C30.3045 47.1154 30.7301 48.6688 29.6086 49.1053C25.7992 50.593 21.2344 49.5885 18.3423 46.7298C17.491 45.8885 18.8083 44.5767 19.6617 45.418C22.1218 47.8508 25.9035 48.5692 29.1149 47.3146C29.2787 47.9101 29.4447 48.5077 29.6086 49.1032L29.266 49.1626C28.768 49.2452 28.2615 49.0312 28.1189 48.5141C27.9955 48.0691 28.27 47.4566 28.768 47.3719L28.7701 47.374Z" fill="#FFA59B"/>
<path d="M55.6932 12.6029C55.6868 12.5817 55.657 12.4355 55.6315 12.427C55.6868 12.5499 55.6932 12.5669 55.6528 12.4736L55.6251 12.4164C55.5655 12.2998 55.5017 12.1854 55.4272 12.0794C55.391 12.0222 55.3527 11.9671 55.3123 11.9142C55.1803 11.7277 55.4421 12.0583 55.2867 11.8845C55.1931 11.7785 55.0995 11.6704 54.9995 11.5687C54.8973 11.467 54.7845 11.3632 54.6738 11.2657C54.6185 11.2148 54.5589 11.1682 54.4993 11.1195C54.4823 11.1046 54.3142 10.9754 54.4142 11.0495C54.5079 11.1216 54.3121 10.9775 54.2908 10.9605C54.2269 10.916 54.1631 10.8715 54.0971 10.827C53.9652 10.7401 53.8332 10.6554 53.697 10.5727C53.4374 10.4159 53.1714 10.2697 52.899 10.1341C52.7585 10.0641 52.6159 9.99843 52.4712 9.93485C52.4457 9.92214 52.2052 9.82466 52.4116 9.9073C52.3414 9.87976 52.2712 9.85009 52.1988 9.82254C51.6881 9.62546 51.1646 9.4644 50.6261 9.36692C50.1452 9.28003 49.8302 8.67183 49.9749 8.22469C50.1431 7.71185 50.607 7.4851 51.122 7.57835C52.4074 7.80721 53.6758 8.36243 54.7739 9.05328C55.9358 9.78227 57.0616 10.7677 57.4915 12.1112C57.6383 12.5732 57.317 13.1433 56.8403 13.2535C56.3317 13.3679 55.8528 13.0988 55.6953 12.605L55.6932 12.6029Z" fill="#FFA59B"/>
<path d="M50.9885 30.3701C48.0815 32.5507 43.904 32.8664 40.7288 31.0673C40.2947 30.8193 40.0435 30.3277 40.2627 29.8424C40.4543 29.4207 41.0544 29.1303 41.4928 29.3783C44.1147 30.8659 47.4665 30.6964 49.884 28.8782C50.8438 28.1598 51.9419 29.6517 50.9885 30.3701Z" fill="black"/>
<path d="M54.0073 20.5054C54.5287 20.2342 55.2033 20.5372 55.5332 21.0204C55.8652 21.5035 55.9354 22.116 55.978 22.6987C56.012 23.1819 56.0312 23.6863 55.8311 24.1292C55.6311 24.57 55.1459 24.9217 54.6713 24.8094C54.0073 24.6505 53.8392 23.8028 53.803 23.1247C53.7839 22.7835 53.7668 22.4423 53.7477 22.1011C53.7264 21.6943 53.7073 21.2683 53.8839 20.8996C54.0605 20.533 54.5053 20.2596 54.8862 20.4101" fill="black"/>
<path d="M53.5372 19.704C54.1693 19.4052 54.7949 19.4285 55.4227 19.7273C55.9462 19.9774 56.3378 20.4563 56.557 20.9797C56.7911 21.5286 56.8635 22.1071 56.906 22.6984C56.9529 23.3256 56.9188 23.9402 56.6634 24.5251C56.1505 25.6927 54.5736 26.1886 53.6138 25.235C52.8605 24.489 52.886 23.3341 52.8328 22.3551C52.7966 21.6706 52.7562 20.931 53.1435 20.3249C53.5521 19.6828 54.3714 19.2568 55.1312 19.5175C55.5909 19.6743 55.942 20.1575 55.7803 20.6555C55.6334 21.1069 55.1312 21.4714 54.6374 21.3018C54.5566 21.2743 54.5289 21.2976 54.7098 21.2934C54.6672 21.2934 54.5991 21.3103 54.7162 21.2828C54.863 21.2467 54.7311 21.2891 54.6949 21.2934C54.6013 21.3103 54.7736 21.2722 54.7779 21.2594C54.7736 21.27 54.6736 21.3061 54.6715 21.3251L54.7183 21.2912C54.7779 21.2446 54.7779 21.2467 54.7183 21.3018C54.7013 21.3379 54.68 21.3972 54.7119 21.3039C54.7609 21.1598 54.6864 21.3548 54.6864 21.3696C54.6864 21.3569 54.7417 21.1704 54.6992 21.359C54.6928 21.3951 54.6843 21.4353 54.6715 21.4692C54.6289 21.5964 54.6779 21.3145 54.6715 21.448C54.6715 21.4862 54.6651 21.5243 54.6651 21.5646C54.6545 21.7723 54.6694 21.9821 54.68 22.1898C54.7013 22.5754 54.7098 22.9654 54.7481 23.3532C54.7524 23.3807 54.7566 23.4104 54.7566 23.4379C54.7651 23.5609 54.7204 23.2451 54.7481 23.3659C54.763 23.4316 54.7736 23.4994 54.7885 23.5651C54.8034 23.6329 54.8205 23.6965 54.8417 23.7601C54.8503 23.7876 54.8588 23.813 54.8694 23.8406C54.9205 24.0122 54.7949 23.7198 54.8503 23.7982C54.8652 23.8173 54.9439 23.9338 54.9439 23.9593C54.9482 23.8745 54.8098 23.8152 54.8928 23.8957C54.9056 23.9063 54.9652 23.9593 54.9652 23.9656C54.9652 23.972 54.7992 23.8448 54.8779 23.8978C54.9141 23.9232 55.0141 23.9593 54.8801 23.9126C54.7204 23.8575 54.8503 23.9042 54.8673 23.9042C55.0567 23.8999 54.7034 23.9211 54.8269 23.9063C54.863 23.902 55.0035 23.902 54.8566 23.9126C54.7162 23.9211 54.8269 23.9042 54.8545 23.9042C54.9716 23.8978 54.846 23.8173 54.8056 23.9275C54.8077 23.9169 54.8758 23.8851 54.8864 23.8808C54.995 23.8321 54.7673 23.9974 54.8524 23.9105C54.8737 23.8872 54.8992 23.8639 54.9226 23.8448C55.0567 23.7261 54.9056 23.883 54.9013 23.8851C54.9375 23.866 54.9716 23.7812 54.9865 23.7495C54.9971 23.7304 55.0312 23.6859 55.0312 23.6647C55.0184 23.6922 55.0056 23.7177 54.9928 23.7452L55.0141 23.6732C55.0248 23.6244 55.0418 23.5715 55.0524 23.5248C55.0567 23.5079 55.078 23.3786 55.0588 23.4973C55.0375 23.6244 55.0588 23.4634 55.0631 23.4316C55.0652 23.3934 55.0673 23.3553 55.0673 23.315C55.0716 23.2133 55.0695 23.1095 55.0652 23.0078C55.0567 22.8191 55.0439 22.6327 55.0248 22.4441C55.0226 22.408 55.0184 22.3699 55.0141 22.3339C54.9971 22.1558 55.0205 22.3296 55.0205 22.3593C55.0163 22.2639 54.9865 22.1622 54.9652 22.069C54.9418 21.963 54.912 21.857 54.8758 21.7532C54.8673 21.7257 54.8566 21.6748 54.8375 21.6515C54.9503 21.7956 54.8545 21.7002 54.8247 21.6451C54.8056 21.6133 54.7864 21.5816 54.7694 21.5498C54.6651 21.359 54.8545 21.6282 54.7822 21.5561C54.7524 21.5286 54.7268 21.4968 54.6992 21.4671C54.6268 21.3972 54.5757 21.4163 54.7204 21.4714C54.6502 21.4459 54.5757 21.3802 54.5098 21.3421C54.4097 21.2828 54.4778 21.3824 54.5651 21.3654C54.5396 21.3696 54.4736 21.34 54.448 21.3315C54.2863 21.2828 54.5055 21.3548 54.5204 21.3357C54.514 21.3463 54.3842 21.3357 54.3736 21.3357C54.2821 21.3251 54.4629 21.3336 54.4757 21.323C54.4459 21.3294 54.4183 21.3357 54.3906 21.3463C54.3225 21.3696 54.3523 21.3569 54.4736 21.3103C54.0373 21.518 53.45 21.4438 53.2031 20.9776C52.9839 20.5644 53.0669 19.935 53.5372 19.7103V19.704Z" fill="black"/>
<path d="M35.1784 24.5677C35.7019 24.2964 36.3765 24.5994 36.7064 25.0826C37.0384 25.5658 37.1065 26.1782 37.1491 26.761C37.1852 27.2442 37.2044 27.7485 37.0043 28.1914C36.8043 28.6322 36.3191 28.984 35.8445 28.8717C35.1805 28.7127 35.0124 27.8651 34.9762 27.1869C34.9571 26.8458 34.9379 26.5046 34.9209 26.1634C34.8996 25.7565 34.8805 25.3306 35.0571 24.9639C35.2337 24.5952 35.6764 24.3218 36.0573 24.4723" fill="black"/>
<path d="M34.7097 23.7687C35.3418 23.4699 35.9675 23.4932 36.5953 23.792C37.1188 24.0399 37.5082 24.521 37.7296 25.0444C37.9509 25.5678 38.036 26.1718 38.0786 26.7631C38.1233 27.3903 38.0913 28.0049 37.8338 28.5898C37.3231 29.7574 35.7461 30.2533 34.7864 29.2997C34.033 28.5537 34.0585 27.3988 34.0053 26.4197C33.9692 25.7353 33.9287 24.9957 34.316 24.3896C34.7246 23.7475 35.544 23.3215 36.3037 23.5822C36.7634 23.739 37.1145 24.2222 36.9528 24.7202C36.806 25.1716 36.3037 25.5361 35.81 25.3665C35.7291 25.339 35.7015 25.3623 35.8823 25.358C35.8398 25.358 35.7717 25.375 35.8887 25.3475C36.0356 25.3093 35.9036 25.3517 35.8675 25.358C35.7738 25.3729 35.9441 25.3369 35.9504 25.3241C35.9462 25.3347 35.8462 25.3708 35.844 25.3898L35.8909 25.3559C35.9504 25.3093 35.9504 25.3114 35.8909 25.3665C35.8738 25.4025 35.8526 25.4619 35.8845 25.3686C35.9334 25.2245 35.8589 25.4195 35.8589 25.4322C35.8589 25.4216 35.9143 25.2351 35.8717 25.4237C35.8632 25.4598 35.8568 25.5 35.844 25.5339C35.7994 25.6611 35.8483 25.3792 35.844 25.5127C35.844 25.5509 35.8377 25.589 35.8377 25.6293C35.827 25.837 35.8419 26.0447 35.8526 26.2545C35.8738 26.6401 35.8802 27.0301 35.9207 27.4158C35.9228 27.4454 35.9292 27.4751 35.9292 27.5026C35.9377 27.6256 35.8909 27.3098 35.9207 27.4306C35.9356 27.4963 35.9441 27.5641 35.9611 27.6298C35.976 27.6976 35.993 27.7612 36.0143 27.8248C36.0228 27.8523 36.0313 27.8777 36.042 27.9053C36.093 28.0769 35.9653 27.7845 36.0228 27.8629C36.0356 27.882 36.1164 27.9964 36.1164 28.024C36.1207 27.9392 35.9824 27.8799 36.0654 27.9604C36.0781 27.971 36.1377 28.024 36.1377 28.0303C36.1377 28.0345 35.9717 27.9095 36.0505 27.9625C36.0866 27.9879 36.1845 28.024 36.0526 27.9752C35.8909 27.9222 36.0228 27.9689 36.0398 27.9689C36.2292 27.9646 35.876 27.9858 35.9994 27.971C36.0356 27.9646 36.176 27.9667 36.0292 27.9752C35.8887 27.9858 35.9973 27.9689 36.0249 27.9689C36.1441 27.9625 36.0185 27.8799 35.976 27.9922C35.9802 27.9816 36.0483 27.9498 36.059 27.9434C36.1675 27.8968 35.9398 28.0621 36.0249 27.9752C36.0462 27.9519 36.0718 27.9286 36.0952 27.9095C36.2292 27.7908 36.0781 27.9477 36.0739 27.9498C36.1101 27.9307 36.142 27.8459 36.159 27.8142C36.1696 27.7951 36.2016 27.7506 36.2016 27.7294L36.1633 27.8099L36.1867 27.7357C36.1952 27.6891 36.2122 27.6361 36.2228 27.5895C36.2292 27.5705 36.2505 27.4433 36.2314 27.562C36.2101 27.687 36.2314 27.5281 36.2335 27.4963C36.2377 27.4581 36.2399 27.42 36.2399 27.3797C36.2441 27.278 36.242 27.1742 36.2377 27.0724C36.2292 26.8838 36.2165 26.6952 36.1973 26.5088C36.1952 26.4727 36.1909 26.4346 36.1867 26.3964C36.1696 26.2205 36.1909 26.3943 36.1909 26.424C36.1888 26.3286 36.159 26.2269 36.1377 26.1337C36.1143 26.0277 36.0845 25.9217 36.0483 25.8179C36.0398 25.7904 36.0292 25.7395 36.01 25.7162C36.1228 25.8603 36.0271 25.7649 35.9973 25.7098C35.9781 25.678 35.959 25.6463 35.9419 25.6145C35.8377 25.4237 36.0249 25.6929 35.9547 25.6208C35.9249 25.5912 35.8994 25.5594 35.8696 25.5318C35.7994 25.4619 35.7461 25.481 35.893 25.5361C35.8228 25.5106 35.7461 25.4449 35.6823 25.4068C35.5802 25.3475 35.6504 25.4471 35.7355 25.4301C35.7121 25.4343 35.644 25.4047 35.6206 25.3962C35.4567 25.3475 35.678 25.4195 35.6929 25.4004C35.6866 25.411 35.5567 25.4004 35.5461 25.4004C35.4546 25.3898 35.6355 25.3983 35.6483 25.3877C35.6185 25.3941 35.5908 25.4004 35.5631 25.411C35.495 25.4322 35.5248 25.4216 35.6461 25.3729C35.2099 25.5806 34.6225 25.5085 34.3756 25.0423C34.1564 24.6291 34.2394 23.9975 34.7076 23.775L34.7097 23.7687Z" fill="black"/>
<path d="M45.5975 17.1442C45.2591 14.0481 42.8692 11.3758 39.8771 10.56C39.262 10.3947 39.062 9.72713 39.3195 9.19733C40.4134 6.9595 37.9256 4.89967 36.4316 3.64937C35.5102 2.87799 36.836 1.57047 37.7489 2.33548C40.0388 4.25121 42.4713 6.98069 40.9305 10.134C40.7432 9.67838 40.5581 9.22488 40.3729 8.76926C44.2248 9.81825 47.0318 13.2153 47.4596 17.1421C47.5894 18.3288 45.723 18.3182 45.5954 17.1421L45.5975 17.1442Z" fill="#FFA59B"/>
<path d="M22.4562 7.75835C23.7459 7.4426 25.0994 7.44472 26.3805 7.80709C27.0083 7.98722 27.6276 8.25 28.1873 8.58695C28.315 8.66535 28.5172 8.7586 28.6129 8.86667L28.7747 8.98747C28.647 9.05316 28.5193 9.11885 28.3916 9.18455C28.3597 9.12945 29.0875 8.5594 29.1684 8.49582C31.0305 7.0336 33.6417 6.13507 35.9401 7.06539C36.4104 7.25399 36.7317 7.67994 36.5913 8.20761C36.4742 8.6484 35.9103 9.04468 35.4442 8.85396C33.314 7.99358 31.2773 9.09554 29.6663 10.5345C28.5555 11.5305 27.5042 10.2081 26.4614 9.78851C25.342 9.33925 24.1162 9.25872 22.9478 9.54481C21.7774 9.82877 21.2858 8.03808 22.452 7.75411L22.4562 7.75835Z" fill="#FFA59B"/>
<path d="M30.8727 51.0636C27.5251 52.191 24.2989 50.3494 21.5706 48.5927C20.5683 47.9463 21.5025 46.3379 22.5134 46.9885C24.8096 48.4697 27.5358 50.2308 30.3789 49.2729C31.5175 48.8893 32.007 50.6822 30.8727 51.0615V51.0636Z" fill="#FFA59B"/>
<path d="M6.88225 20.4821C6.46513 19.8018 6.09697 18.8037 6.07356 18.0408C6.05015 17.2376 6.14804 16.4472 6.24168 15.6483C6.40342 14.2708 7.14613 13.012 8.06974 11.8889C8.09315 11.8592 8.12507 11.8317 8.15061 11.802C8.45068 11.4523 8.86141 11.1472 9.10827 10.9904C10.3851 10.1724 11.6046 9.85236 13.2049 10.219C14.6733 10.5559 14.9436 11.607 14.3818 12.9972C14.1136 13.6584 13.5816 14.1373 13.0879 14.6523C12.6005 15.1566 12.1834 15.7118 11.8259 16.3031C11.4811 16.8689 11.1981 17.4602 10.9853 18.0832C10.7491 18.7719 10.6554 19.5136 10.2873 20.16C9.47431 21.5968 7.76755 21.9231 6.88225 20.4821Z" fill="white"/>
<path d="M4.13271 25.8222C3.8071 26.5681 3.58578 27.4434 4.04971 28.1639C4.28593 28.5305 4.6541 28.8399 5.08824 28.9374C5.55217 29.0433 5.98418 28.9628 6.40555 28.7615C7.08655 28.4394 7.49302 27.704 7.62284 26.992C7.68668 26.6381 7.74201 26.2587 7.74414 25.8964C7.74414 25.3517 7.49302 24.8664 7.03335 24.5698C6.64603 24.3197 6.17997 24.2794 5.73519 24.3578C5.36702 24.4214 4.98609 24.5634 4.71794 24.8135C4.503 25.0127 4.37318 25.2754 4.13271 25.8222Z" fill="white"/>
<path d="M60.8946 19.935C60.703 19.064 60.4285 18.6783 59.7581 18.121C59.0771 17.5552 57.7534 17.0233 58.1344 15.9022C58.5089 14.8024 60.0433 15.2304 60.7626 15.6818C61.599 16.2053 62.4353 17.0084 62.7396 17.9409C63.0142 18.7822 62.9886 18.9496 62.9035 19.5535C62.8609 19.8396 62.7056 20.3694 62.3098 20.6809C62.3098 20.6809 61.9182 21.0433 61.4628 20.8971C61.0095 20.7509 60.9648 20.2444 60.8967 19.935H60.8946Z" fill="white"/>
<path d="M32.2666 19.6996C32.7028 19.8543 32.8539 20.2569 32.8816 20.6956C32.9284 21.3695 32.3559 21.8866 31.9069 22.3041C31.4196 22.7554 30.8939 23.1708 30.347 23.548C30.1086 23.7091 29.8639 23.885 29.6043 24.0121C29.1169 24.2516 28.6168 23.9994 28.4338 23.512C28.3231 23.2174 28.3721 22.9038 28.4338 22.605C28.4955 22.3168 28.5998 22.0413 28.7211 21.7743C28.9445 21.2784 29.2872 20.8164 29.6936 20.454C30.115 20.0768 30.7109 19.7505 31.2897 19.636C31.7771 19.5386 32.0367 19.617 32.2666 19.6996ZM31.6388 20.7338C31.6388 20.7338 31.6388 20.7359 31.6388 20.738C31.6388 20.7338 31.6388 20.7338 31.6409 20.7316C31.6409 20.7295 31.6409 20.7316 31.6409 20.7295C31.6409 20.7295 31.6409 20.7295 31.6388 20.7316V20.7338ZM29.6085 23.1221C29.6085 23.1221 29.6085 23.1284 29.6106 23.1305C29.6255 23.1602 29.6192 23.1432 29.6085 23.1221Z" fill="white"/>
<path d="M53.7354 4.95265C53.7354 4.95265 53.9695 4.42286 53.1694 3.56884C52.3692 2.7127 49.9835 1.41153 48.281 1.13392C46.5785 0.856311 45.5868 0.943197 45.755 2.16595C45.9252 3.39083 48.962 3.70023 49.9686 4.01174C50.9753 4.32114 53.2779 5.79396 53.7354 4.95265Z" fill="white"/>
<path d="M65.776 41.8937C65.776 41.8937 68.0488 39.0731 65.1248 37.1468C62.2007 35.2247 59.6576 38.3844 58.983 39.1452C58.3062 39.906 56.4803 40.0861 53.735 39.8636C50.9876 39.6411 49.4064 43.3136 47.7209 43.9726C46.0354 44.6296 44.9437 44.7864 42.5538 43.2818C40.1661 41.7772 37.4357 43.7332 35.6332 44.7207C33.8285 45.7082 29.4914 46.096 27.4441 44.2524C25.3969 42.4087 26.1119 42.3006 24.9585 41.7284C23.8029 41.1584 21.7726 42.2625 19.0018 41.5356C16.231 40.8066 13.5666 37.8313 12.5642 35.8626C10.6425 32.0947 6.79062 32.6754 5.02001 34.2436C3.59842 35.5023 2.74504 37.9415 3.29836 41.4869C3.85167 45.0301 7.66953 49.8893 11.6981 49.9868C15.7288 50.0843 15.1733 49.7537 15.1733 49.7537C15.1733 49.7537 16.7375 52.462 20.1404 52.3878C23.5432 52.3115 24.3243 50.2454 25.25 50.4785C26.1757 50.7095 28.4784 54.4561 33.4944 55.0813C38.5104 55.7086 41.2408 51.3685 41.2408 51.3685C41.2408 51.3685 45.0437 52.7968 48.6488 52.1166C52.256 51.4363 55.1098 45.8142 54.9012 45.1064C54.9012 45.1064 56.9357 45.1255 58.202 43.7183C58.202 43.7183 63.2095 45.5048 65.776 41.8937Z" fill="#FFBDC5"/>
<path d="M49.4241 34.7226C50.6179 36.3692 50.7882 38.5986 50.0817 40.4804C49.739 41.3874 49.2368 42.199 48.6196 42.9471C48.311 43.32 47.9727 43.6697 47.6109 43.9897C47.43 44.1508 47.2406 44.3033 47.0512 44.4559C46.9405 44.5386 46.8299 44.6255 46.7213 44.7145C46.7086 44.1486 46.7703 43.9961 46.9044 44.261C47.181 44.511 47.3619 45.204 47.4534 45.5494C47.579 46.0368 47.6364 46.5645 47.6194 47.0688C47.5832 48.0225 47.3193 48.9655 46.8639 49.8047C45.9212 51.5488 44.2059 52.7524 42.4353 53.5556C41.3499 54.0473 40.4029 52.4473 41.4925 51.9535C42.9822 51.2796 44.4655 50.3472 45.2551 48.868C45.653 48.1178 45.8467 47.2257 45.7296 46.3822C45.6232 45.6236 44.9252 44.9857 44.9954 44.2271C45.0699 43.4239 45.9382 43.0128 46.4723 42.5148C47.0938 41.9341 47.63 41.2814 48.028 40.5291C48.8558 38.9715 48.8665 37.1088 47.8152 35.6593C47.1108 34.6887 48.7282 33.7626 49.4241 34.7226Z" fill="#FFA59B"/>
<path d="M69.3024 31.3237C69.8962 33.1123 69.711 34.9242 68.8193 36.5835C67.9574 38.1877 66.5188 39.402 64.8163 40.0398C64.346 40.2157 63.7948 39.8449 63.6693 39.3935C63.5267 38.8722 63.848 38.4272 64.3205 38.2513C65.5378 37.7935 66.5763 36.8251 67.2083 35.6489C67.8404 34.4707 67.9553 33.1759 67.502 31.8175C67.3445 31.3407 67.685 30.8045 68.1532 30.6753C68.6597 30.5354 69.1407 30.8469 69.3003 31.3237H69.3024Z" fill="#FFA59B"/>
<path d="M53.8249 29.3059C57.0341 30.908 61.0499 29.5178 62.9312 26.5637C64.8869 23.4931 64.7869 18.8097 62.231 16.0717C59.9475 13.6241 55.4827 12.7765 52.6374 14.7197C51.4265 15.5462 50.3837 16.6439 49.724 17.9578C48.8621 19.6764 48.9047 21.6176 49.2963 23.4549C49.624 25.0083 50.2156 26.5362 51.3605 27.6742C52.0735 28.382 52.9417 28.8503 53.8249 29.308C54.8911 29.859 53.9484 31.4611 52.8843 30.9101C51.8607 30.3803 50.8668 29.8082 50.0411 28.988C48.8196 27.7695 48.0556 26.1717 47.6299 24.5166C47.0681 22.3212 46.9128 19.9477 47.7661 17.8073C48.4684 16.0442 49.7006 14.6074 51.2073 13.4715C52.9715 12.1428 55.0997 11.702 57.2853 11.897C59.4198 12.0856 61.1882 12.8082 62.8652 14.1412C66.4426 16.9851 66.9342 22.6963 65.0465 26.5955C62.8971 31.033 57.3619 33.148 52.8843 30.9122C51.8117 30.3761 52.7545 28.774 53.8249 29.308V29.3059Z" fill="#5E4D5C"/>
<path d="M30.7853 34.2138C33.9945 35.8159 38.0103 34.4236 39.8916 31.4716C41.8452 28.401 41.7473 23.7176 39.1893 20.9797C36.9058 18.532 32.4431 17.6844 29.5978 19.6255C28.3848 20.4541 27.3441 21.5497 26.6844 22.8657C25.8225 24.5844 25.8651 26.5255 26.2545 28.3628C26.5844 29.9162 27.1739 31.442 28.3188 32.5821C29.0317 33.2899 29.9 33.7561 30.7853 34.2138C31.8494 34.7669 30.9088 36.369 29.8447 35.818C28.8189 35.2861 27.8251 34.7161 27.0015 33.896C25.7778 32.6774 25.0138 31.0796 24.5903 29.4245C24.0264 27.2291 23.8732 24.8556 24.7244 22.7131C25.4267 20.9521 26.6589 19.5153 28.1677 18.3795C29.9298 17.0486 32.0579 16.61 34.2435 16.8028C36.378 16.9935 38.1487 17.7162 39.8256 19.0491C43.403 21.893 43.8925 27.6021 42.007 31.5013C39.8575 35.941 34.3223 38.0559 29.8447 35.8202C28.7721 35.284 29.7149 33.6819 30.7853 34.216V34.2138Z" fill="#5E4D5C"/>
<path d="M66.7953 16.8261C66.8038 16.8028 66.8102 16.7774 66.8144 16.754L66.7804 17.002C66.7846 16.9638 66.7846 16.9299 66.7804 16.8939L66.8144 17.1397C66.808 17.1037 66.7995 17.0719 66.7889 17.038L66.8825 17.2584C66.8634 17.2139 66.8399 17.1715 66.8123 17.1313C66.8591 17.1927 66.908 17.2563 66.957 17.3199C66.9166 17.2669 66.8719 17.2245 66.8208 17.1842C66.8825 17.233 66.9464 17.2817 67.0102 17.3305C66.9549 17.2923 66.8974 17.2605 66.8357 17.2351L67.057 17.3283C67.0081 17.3114 66.957 17.2965 66.9038 17.2859L67.1528 17.3199C67.0826 17.3114 67.0187 17.3114 66.9506 17.3199L67.1975 17.2859C67.123 17.3008 67.0506 17.3199 66.9783 17.3474L67.1996 17.252C67.0698 17.3071 66.9527 17.3792 66.8399 17.4661C66.9017 17.4173 66.9676 17.3686 67.0294 17.3199C66.7186 17.5614 66.4526 17.856 66.1483 18.1061C65.9057 18.3074 65.6716 18.5108 65.4439 18.727C65.0928 19.0639 64.4713 19.1021 64.1245 18.727C63.7882 18.3625 63.7478 17.7734 64.1245 17.4131C64.3458 17.2012 64.5756 17.002 64.8118 16.8091C65.1055 16.5697 65.3609 16.2878 65.6546 16.0505C66.1802 15.6245 66.8485 15.2939 67.5358 15.5292C68.2786 15.7813 68.8297 16.5209 68.5957 17.322C68.4595 17.7861 67.9338 18.1251 67.4486 17.9683C66.974 17.8157 66.6505 17.3262 66.7995 16.8261H66.7953Z" fill="#5E4D5C"/>
<path d="M32.7269 50.3472C38.2813 54.2762 44.3103 57.4676 49.8626 61.3965C49.4391 61.5067 49.0135 61.6191 48.5879 61.7314C49.2433 60.2861 50.3159 58.2157 52.012 57.8173C52.7845 57.6371 53.5783 57.9762 53.9656 58.6649C54.404 59.4448 54.1423 60.3391 53.8167 61.102C53.3719 62.1467 52.7292 63.6301 51.4949 63.9459C50.5968 64.1748 49.869 63.6386 49.2369 63.0813C49.0114 62.8821 48.8837 62.4625 48.9965 62.1785C49.2412 61.5576 49.5242 61.0003 50.0924 60.6167C50.567 60.3009 51.099 60.1081 51.563 59.7648C52.3695 59.1714 53.2272 60.2882 52.8377 61.0342C52.4483 61.7801 51.9418 62.2972 51.2821 62.7549C50.6841 63.1724 49.8881 62.6108 49.8796 61.956C49.8669 60.8795 50.2414 59.9513 50.9331 59.1375C51.3523 58.6416 52.3972 58.8684 52.4908 59.5465C52.6951 61.0236 52.3312 62.3544 51.3417 63.486C50.5542 64.3888 49.2391 63.0728 50.0243 62.1743C50.5287 61.5957 50.799 60.8095 50.6926 60.0403C51.2118 60.1759 51.7311 60.3136 52.2504 60.4493C51.8758 60.8879 51.7375 61.3881 51.7439 61.956C51.2778 61.689 50.8096 61.422 50.3414 61.155C50.7415 60.8773 51.0054 60.5256 51.2289 60.0996C51.6524 60.5213 52.078 60.9452 52.5036 61.369C51.9184 61.7992 51.0735 61.9581 50.7926 62.6702L50.5542 61.7695C50.7117 61.9094 50.8054 61.9857 50.8692 62.0344C50.9394 62.0853 51.0182 62.1213 51.0927 62.1637C50.9777 62.1001 51.1544 62.1213 51.0054 62.1467C51.0735 62.1361 51.0203 62.1933 51.1012 62.0937C51.3182 61.8267 51.5076 61.5873 51.6779 61.2821C51.9226 60.8392 52.095 60.3815 52.2865 59.9174C52.3185 59.822 52.3376 59.7266 52.3397 59.6249C52.4717 59.6122 52.493 59.6143 52.3993 59.6355C52.2589 59.6016 51.9992 59.8792 51.9056 59.9661C51.148 60.6803 50.6245 61.7335 50.201 62.6659C50.0052 63.0961 49.305 63.2678 48.9262 63.0007C43.3718 59.0697 37.3428 55.8782 31.7884 51.9493C30.8201 51.2627 31.7501 49.6521 32.7312 50.3472H32.7269Z" fill="#FFA59B"/>
<path d="M69.1151 43.4663C72.0413 44.0576 74.9462 44.7484 77.8235 45.541C77.4319 45.8398 77.0382 46.1386 76.6445 46.4374C76.6296 46.0898 76.5679 46.075 76.4082 45.7656C76.1954 45.3503 76.2103 44.9073 76.3742 44.475C76.4423 44.297 76.5295 44.1275 76.6062 43.9537C76.6019 43.9664 76.5061 44.2038 76.5679 44.0406C76.6232 43.905 76.67 43.7651 76.7253 43.6295C76.8977 43.1993 77.0829 42.767 77.334 42.3749C77.9192 41.4573 78.9726 40.4762 80.1027 41.1882C81.3987 42.0062 81.0837 43.5214 80.4496 44.6488C79.8899 45.6427 79.1791 46.6387 78.0661 47.0498C77.4957 47.2596 76.8445 47.1897 76.4614 46.6768C76.0805 46.1619 76.1465 45.5367 76.3465 44.9773C76.5466 44.4178 76.8147 43.8181 77.1212 43.2777C77.4297 42.7352 77.8107 41.9935 78.3831 41.6883C79.0003 41.3599 79.7686 41.6565 80.0133 42.305C80.2261 42.8793 80.0665 43.6019 79.9707 44.1932C79.8026 45.2422 79.2195 46.8718 78.1065 47.249C77.3489 47.5033 76.5636 47.0032 76.504 46.2C76.4678 45.7063 76.4721 45.0409 76.6445 44.5746C76.819 44.1063 77.2765 43.7863 77.7915 43.9262C78.2448 44.0512 78.6194 44.5958 78.4427 45.0684C78.3406 45.3418 78.3321 45.861 78.3683 46.2022L78.2406 45.7338L78.3129 45.861L77.9767 45.5261L78.0852 45.5897C77.9277 45.5473 77.7702 45.5049 77.6128 45.4626C77.3936 45.452 77.4042 45.5728 77.5808 45.3015C77.6404 45.2083 77.6979 45.1129 77.7532 45.0154C77.8724 44.7993 77.9639 44.5852 78.032 44.3479C78.098 44.1233 78.1427 43.8965 78.1767 43.6655C78.1937 43.5426 78.2044 43.4197 78.2172 43.2968C78.2235 43.212 78.181 42.7903 78.298 43.0192L78.6321 43.3519L78.5321 43.2841C78.6896 43.3264 78.845 43.3688 79.0024 43.4112L78.8535 43.4197L79.3238 43.2904C79.1599 43.4006 79.0322 43.7164 78.928 43.8838C78.7747 44.1275 78.6364 44.3797 78.5066 44.6361C78.398 44.8501 78.298 45.0663 78.2129 45.2909C78.164 45.4138 78.1405 45.6173 78.0639 45.7126C77.9128 45.9012 78.6683 45.8228 77.8405 45.435L77.3702 45.3079C78.0448 45.3418 78.6875 44.0088 78.9365 43.5405C79.0493 43.3328 79.1259 43.14 79.1748 42.9111C79.1812 42.8835 79.1344 42.7839 79.1365 42.7776C79.0365 42.7077 79.0854 42.6928 79.2833 42.7373C79.4876 42.7013 79.5323 42.714 79.4174 42.7733C79.3961 42.8539 79.1769 42.9916 79.1216 43.0616C78.9982 43.2099 78.8982 43.3815 78.8024 43.5511C78.5342 44.0321 78.4257 44.6022 78.1342 45.0705C77.9384 45.3863 78.1959 44.8268 78.0469 44.8798C78.0575 44.8756 78.1852 45.0938 78.1959 45.1129C78.4215 45.5261 78.4917 45.9712 78.5087 46.4353C78.5342 47.0413 77.8937 47.4864 77.3297 47.3295C74.4504 46.537 71.5476 45.844 68.6214 45.2528C67.4467 45.0175 67.9425 43.2268 69.1151 43.4642V43.4663Z" fill="#FFA59B"/>
<path d="M24.2398 27.4006C22.4437 26.8793 20.6135 26.4746 18.7599 26.2224C17.8448 26.0995 16.9233 26.0126 16.0018 25.9575C15.5698 25.9321 15.14 25.9109 14.7058 25.9024C14.5611 25.9003 14.4121 25.8918 14.2674 25.9024C13.9376 25.9299 14.1504 25.9236 14.1504 25.9299C14.1993 26.4301 13.6886 26.8581 13.2183 26.8581C12.6735 26.8581 12.3351 26.4301 12.2861 25.9299C12.1733 24.7856 13.2651 24.1181 14.2759 24.0502C15.4081 23.974 16.5977 24.1244 17.7214 24.2431C20.0985 24.4931 22.4437 24.9466 24.7357 25.6121C25.887 25.9448 25.3975 27.7376 24.242 27.4006H24.2398Z" fill="#5E4D5C"/>
<path d="M48.4786 25.1014C46.5378 26.1334 44.3905 26.4958 42.2155 26.1928C41.7325 26.125 41.4239 25.485 41.5665 25.0505C41.7388 24.5208 42.1943 24.33 42.7135 24.4021C42.5582 24.3809 42.9114 24.4233 42.9434 24.4254C43.0391 24.4339 43.137 24.4402 43.2328 24.4466C43.4584 24.4593 43.684 24.4635 43.9074 24.4593C44.416 24.4487 44.6863 24.4212 45.1013 24.3449C45.5461 24.2622 45.9845 24.1457 46.4143 23.9973C46.8442 23.849 47.0847 23.7409 47.538 23.4993C47.9657 23.2705 48.5723 23.3785 48.8127 23.832C49.0405 24.2643 48.9362 24.8577 48.4765 25.1014H48.4786Z" fill="#5E4D5C"/>
<path d="M70.0962 33.078C70.3346 32.6775 75.5698 23.7092 76.8978 23.4146C78.2257 23.1201 79.8452 23.6393 78.8131 25.9894C77.7788 28.3374 74.0461 35.3561 73.3395 37.3566C73.2267 37.6766 68.4512 47.6642 65.7293 51.8877C64.9206 53.1465 64.1503 52.6824 63.6267 52.6336C62.4435 52.5234 47.7019 47.9355 46.2271 47.2001C44.7545 46.4669 44.6055 46.1723 44.4587 44.7037C44.3097 43.2373 48.5872 27.8182 49.7662 26.3497C50.9473 24.8832 51.6837 24.7349 53.1585 25.6164C54.6333 26.498 69.0173 34.8984 70.0984 33.0759L70.0962 33.078Z" fill="#B6C9E0"/>
<path d="M60.5814 47.2637C60.5814 47.2637 61.056 46.7593 61.4752 45.0852C61.6561 44.3647 60.9475 43.9896 60.6623 43.7077C60.2516 43.303 51.0176 40.3849 51.0176 40.3849C51.0176 40.3849 49.6641 39.8466 49.1215 41.1054C48.5788 42.3642 48.2553 43.2267 48.2553 43.2267C48.2553 43.2267 47.4211 44.6889 49.6492 45.6107C51.4752 46.3673 55.3398 47.4481 57.6212 48.1834C58.5427 48.4801 59.7195 49.243 60.5814 47.2637Z" fill="white"/>
<path d="M61.0667 38.4607C59.1705 37.7127 57.2743 36.9625 55.3782 36.2123C55.1037 36.1042 54.8291 35.9962 54.5546 35.8881C54.0885 35.7037 53.7608 35.2672 53.9055 34.7458C54.0268 34.3029 54.5801 33.9109 55.0526 34.0974C56.9466 34.8476 58.8449 35.5956 60.7411 36.3479C61.0156 36.4539 61.2901 36.5641 61.5647 36.6722C62.0307 36.8565 62.3584 37.291 62.2137 37.8144C62.0924 38.2573 61.537 38.6472 61.0667 38.4607Z" fill="white"/>
<path d="M59.6095 41.2688C58.6455 40.9022 57.6814 40.5334 56.7174 40.1668C56.5791 40.1138 56.4429 40.0608 56.3067 40.01C56.0726 39.921 55.8789 39.8044 55.7491 39.584C55.6299 39.3848 55.5831 39.0903 55.6533 38.8678C55.7959 38.427 56.3131 38.0328 56.8004 38.2193C57.7644 38.588 58.7285 38.9568 59.6946 39.3234C59.8308 39.3742 59.9692 39.4272 60.1054 39.4781C60.3373 39.5692 60.531 39.6836 60.6629 39.904C60.78 40.1032 60.8289 40.3978 60.7566 40.6203C60.614 41.0632 60.0969 41.4553 59.6095 41.2688Z" fill="white"/>
<path d="M70.2394 36.0703C69.6925 37.702 69.3051 39.3825 68.8731 41.0461C68.2858 43.3009 67.6048 45.5302 66.7918 47.7172C66.379 48.8255 64.5786 48.3466 64.9957 47.2234C65.8065 45.0365 66.4896 42.8113 67.0749 40.5523C67.509 38.8888 67.8942 37.2104 68.4411 35.5786C68.8199 34.4512 70.6203 34.9344 70.2394 36.0703Z" fill="white"/>
<path d="M22.9919 35.8097C24.3666 39.0139 27.9398 40.3723 31.066 41.3005C34.388 42.2859 38.1441 42.146 41.5449 41.6374C42.3536 41.5166 43.1559 41.3577 43.939 41.1182C45.0265 40.7855 46.2438 40.457 47.2483 41.186C47.7675 41.5632 47.8442 42.1481 47.4356 42.644C46.895 43.3073 46.0438 43.4345 45.2351 43.3497C44.5881 43.2798 43.6156 42.9068 43.0218 43.2734C42.9473 42.7076 42.8728 42.1418 42.7984 41.576C43.7028 41.9511 44.6732 42.3028 45.6607 42.3367C46.1353 42.3537 46.6013 42.252 47.0716 42.2562C47.4802 42.2604 47.7846 42.3304 48.174 42.2922C48.506 42.2604 48.8082 42.4957 48.9784 42.7521C49.3892 43.3688 48.955 44.2376 48.3741 44.5661C47.7335 44.9242 46.8759 44.7928 46.1778 44.7187C44.6328 44.5513 43.0857 44.1719 41.8918 43.1272C41.3257 42.6334 41.7449 41.4382 42.5515 41.5421C44.2072 41.7582 45.7628 42.324 47.3823 42.697C48.5549 42.9661 48.057 44.7378 46.8886 44.4856C46.1842 44.3351 45.4755 44.5894 44.7733 44.4559C43.8156 44.2758 43.9582 42.9237 44.7733 42.6673C46.0991 42.2456 47.3653 42.0401 48.506 42.9873C49.1125 43.4917 48.6273 44.6297 47.8463 44.5703C45.8395 44.422 43.8539 44.3203 42.0812 43.2734C41.049 42.6652 41.9854 41.0589 43.0218 41.6692C44.5009 42.5444 46.1757 42.591 47.8463 42.7161L47.1866 44.2991C46.6865 43.8837 45.8033 44.2885 45.267 44.458V42.6673C45.2585 42.6673 45.8969 42.591 46.0714 42.5826C46.5162 42.5614 46.9482 42.6038 47.3823 42.6991L46.8865 44.4877C45.4394 44.155 44.0284 43.5934 42.5494 43.4006C42.7686 42.8729 42.9899 42.3431 43.2091 41.8154C43.7943 42.3283 44.5732 42.5614 45.3223 42.7203C45.6756 42.7966 46.0331 42.8517 46.3928 42.8856C46.5992 42.9047 46.8056 42.9174 47.0142 42.928L47.2291 42.9365C47.4845 42.8962 47.51 42.928 47.3079 43.0276C47.3398 43.2649 47.3717 43.5044 47.4036 43.7439L47.3675 43.6909C47.6356 43.8435 47.9037 43.996 48.1719 44.1486C47.8761 44.1783 47.4568 44.1296 47.0716 44.1147C46.5119 44.0935 45.9693 44.2249 45.4053 44.1804C44.3242 44.0914 43.2985 43.782 42.3004 43.3688C41.5832 43.07 41.3427 42.1269 42.0791 41.6713C42.7984 41.2284 43.6028 41.2496 44.4094 41.3662C44.8839 41.4319 45.765 41.7646 46.1161 41.3323L46.3055 42.7902C45.6075 42.2838 44.5307 42.9026 43.7837 43.0912C42.9686 43.2946 42.1365 43.4218 41.3044 43.5319C39.3976 43.7778 37.4653 43.8731 35.5414 43.818C31.8257 43.7121 27.9376 42.6716 24.8114 40.6181C23.3387 39.6496 22.0789 38.3781 21.3809 36.7485C20.9148 35.6614 22.5194 34.7141 22.9897 35.8097H22.9919Z" fill="#FFA59B"/>
<path d="M73.7521 32.8281C73.9138 32.2284 74.2309 31.6711 74.6629 31.2218C74.9055 30.9717 75.2396 30.7408 75.578 30.8298L74.6629 31.2218C74.8566 31.1031 75.412 30.2851 75.9973 30.4949C76.2101 30.5733 76.3378 30.8128 76.3527 31.0396C76.3654 31.2642 76.2654 31.4761 76.1675 31.6774C75.8313 32.364 75.5801 32.8133 74.8396 33.6016C74.6629 33.7881 74.5395 33.7627 74.3011 33.8559C74.2139 33.8898 73.9202 33.8792 73.8393 33.8347C73.784 33.8029 73.7521 33.7415 73.7308 33.6822C73.635 33.4088 73.6776 33.1057 73.7521 32.8281Z" fill="#FFA59B"/>
<path d="M72.8524 32.5802C73.0354 31.9275 73.3567 31.3468 73.7802 30.8192C73.9845 30.567 74.2207 30.3445 74.4932 30.1665C74.8954 29.9058 75.3593 29.8337 75.8254 29.9333C76.1829 30.0075 76.4468 30.3635 76.4936 30.7047C76.5383 31.0459 76.3829 31.4846 76.0488 31.6287C75.7445 31.7601 75.4402 31.8915 75.1337 32.0228C74.8932 32.1246 74.6783 32.1881 74.4144 32.1161C74.1973 32.0567 73.9632 31.8893 73.8568 31.6901C73.6078 31.2239 73.7568 30.7068 74.191 30.4208C74.2654 30.3699 73.9611 30.6221 74.0888 30.4928C74.1207 30.4631 74.1526 30.4335 74.1824 30.4017C74.2654 30.3169 74.3463 30.2343 74.4314 30.158C74.7081 29.91 75.0337 29.6685 75.404 29.5816C75.9147 29.4629 76.4681 29.5773 76.8383 29.963C77.2448 30.3826 77.3704 30.9993 77.2172 31.5545C77.1193 31.9084 76.9235 32.2559 76.7511 32.5802C76.6277 32.8069 76.4936 33.0252 76.3446 33.235C76.1233 33.5423 75.8828 33.8368 75.6274 34.1166C75.4827 34.2755 75.3274 34.4344 75.1337 34.5362C74.9571 34.6294 74.7613 34.6824 74.5719 34.7417C74.0824 34.8964 73.4716 34.7926 73.112 34.4239C72.6481 33.9513 72.6991 33.1672 72.8524 32.5802C72.9758 32.1097 73.5249 31.7791 73.9994 31.9317C74.4761 32.0864 74.7826 32.5717 74.6506 33.0739C74.6336 33.1396 74.623 33.2075 74.6038 33.2731C74.5761 33.3685 74.6145 33.1714 74.6145 33.1693C74.6187 33.2053 74.6081 33.2498 74.6059 33.2859C74.6059 33.3261 74.623 33.555 74.6038 33.3897C74.5868 33.2456 74.5974 33.3516 74.6102 33.3791C74.7081 33.5995 74.2867 33.0167 74.3101 33.0337C74.142 32.915 74.0718 32.9468 74.1654 32.9638C74.1867 32.968 73.9122 32.9447 74.0079 32.9426C74.0548 32.9426 74.0994 32.9489 74.1484 32.9468C74.325 32.9426 74.0441 32.9595 74.042 32.9638C74.0569 32.9362 74.1803 32.9192 74.2122 32.9087C74.2335 32.9023 74.3357 32.8599 74.3463 32.8684C74.3484 32.8705 74.142 32.9574 74.2101 32.9256C74.2442 32.9087 74.3229 32.8472 74.2016 32.9383C74.0675 33.0379 74.2165 32.9065 74.2463 32.8747C74.3037 32.8133 74.357 32.754 74.4102 32.6925C74.4974 32.5971 74.5804 32.4997 74.6613 32.4001C74.7868 32.2454 74.5613 32.5357 74.6528 32.4128C74.6889 32.3619 74.7272 32.3132 74.7634 32.2623C74.9975 31.9317 75.1869 31.5736 75.3636 31.2091C75.3593 31.2154 75.4189 31.1031 75.4168 31.0989C75.4125 31.0925 75.3529 31.279 75.3827 31.1773C75.3997 31.1222 75.4125 31.0205 75.4423 30.9739C75.4231 31.0056 75.4402 31.19 75.421 31.0374C75.421 31.0268 75.47 31.2599 75.438 31.1709C75.4317 31.154 75.421 31.1222 75.4189 31.1052C75.4849 31.2451 75.5019 31.2833 75.4678 31.2197C75.4614 31.207 75.4551 31.1921 75.4444 31.1794C75.4125 31.0989 75.5253 31.279 75.5232 31.2769C75.4359 31.1709 75.5998 31.3278 75.6083 31.3362C75.5828 31.315 75.4934 31.279 75.6402 31.3468C75.8275 31.4295 75.5359 31.3511 75.7573 31.3786C75.9786 31.4083 75.6211 31.4104 75.8509 31.3786C76.0403 31.3511 75.8573 31.3892 75.8083 31.404C75.7062 31.4316 76.0126 31.2981 75.9211 31.3574C75.8998 31.3723 75.8743 31.3829 75.8509 31.3977C75.8168 31.4189 75.653 31.5376 75.7956 31.4295C75.9382 31.3193 75.7828 31.4443 75.7487 31.474C75.7126 31.5079 75.6743 31.5439 75.6381 31.5799C75.4721 31.741 75.3274 31.8957 75.1337 32.025C74.8188 31.4909 74.5059 30.9569 74.191 30.4229C74.4974 30.2915 74.8017 30.1601 75.1082 30.0287C75.1827 30.5945 75.255 31.1603 75.3295 31.7262C75.4806 31.7389 75.5189 31.7452 75.4444 31.741C75.3699 31.741 75.4082 31.7346 75.5593 31.7198C75.5338 31.724 75.5083 31.7304 75.4827 31.7368C75.4125 31.7579 75.4444 31.7431 75.5785 31.6923C75.5572 31.7198 75.4636 31.7558 75.4317 31.7728C75.2891 31.8512 75.5402 31.6732 75.4614 31.7474C75.3848 31.8215 75.3104 31.8872 75.2423 31.9656C75.2039 32.008 75.1678 32.0504 75.1316 32.0928C74.9996 32.2475 75.2508 31.919 75.1401 32.0843C75.0273 32.2496 74.9081 32.4276 74.8166 32.6162C74.7911 32.6649 74.7698 32.72 74.7421 32.7688C74.8656 32.5505 74.7762 32.6904 74.7507 32.7561C74.7102 32.862 74.6783 32.9701 74.6464 33.0782C74.5166 33.5465 73.9824 33.8835 73.5014 33.7266C73.0205 33.5719 72.7076 33.0845 72.8502 32.5844L72.8524 32.5802Z" fill="#FFA59B"/>
</svg>
