<svg width="88" height="32" viewBox="0 0 88 32" fill="none" xmlns="http://www.w3.org/2000/svg">
<path d="M12.8647 6.99616C12.4794 6.33201 11.5203 6.33201 11.1349 6.99616L8.42083 11.6735C8.23045 12.0016 7.90141 12.2254 7.52634 12.2821L2.44003 13.0503C1.58575 13.1793 1.28609 14.258 1.95139 14.8092L5.74048 17.9484C6.09123 18.239 6.25615 18.6973 6.17094 19.1448L5.17978 24.3499C5.02309 25.1727 5.88688 25.812 6.62803 25.4218L11.4174 22.9C11.782 22.708 12.2177 22.708 12.5822 22.9L17.3716 25.4218C18.1128 25.812 18.9765 25.1727 18.8199 24.3499L17.8287 19.1448C17.7435 18.6973 17.9084 18.239 18.2591 17.9484L22.0482 14.8092C22.7135 14.258 22.4139 13.1793 21.5596 13.0503L16.4733 12.2821C16.0982 12.2254 15.7692 12.0016 15.5788 11.6735L12.8647 6.99616Z" fill="#FF8904"/>
<path d="M45.1538 3.99496C44.64 3.10943 43.3612 3.10942 42.8473 3.99496L39.2286 10.2314C38.9748 10.6688 38.536 10.9673 38.0359 11.0429L31.2542 12.0672C30.1151 12.2392 29.7156 13.6774 30.6027 14.4123L35.6548 18.5979C36.1224 18.9854 36.3423 19.5965 36.2287 20.1931L34.9072 27.1333C34.6983 28.2304 35.85 29.0828 36.8382 28.5625L43.2241 25.2001C43.7101 24.9441 44.291 24.9441 44.7771 25.2001L51.163 28.5625C52.1512 29.0828 53.3029 28.2304 53.094 27.1333L51.7724 20.1931C51.6588 19.5965 51.8787 18.9854 52.3463 18.5979L57.3985 14.4123C58.2855 13.6774 57.886 12.2392 56.7469 12.0672L49.9652 11.0429C49.4651 10.9673 49.0264 10.6688 48.7726 10.2314L45.1538 3.99496Z" fill="#FF8904"/>
<path d="M76.8647 6.99616C76.4794 6.33201 75.5203 6.33201 75.1349 6.99616L72.4208 11.6735C72.2305 12.0016 71.9014 12.2254 71.5263 12.2821L66.44 13.0503C65.5857 13.1793 65.2861 14.258 65.9514 14.8092L69.7405 17.9484C70.0912 18.239 70.2561 18.6973 70.1709 19.1448L69.1798 24.3499C69.0231 25.1727 69.8869 25.812 70.628 25.4218L75.4174 22.9C75.782 22.708 76.2177 22.708 76.5822 22.9L81.3716 25.4218C82.1128 25.812 82.9765 25.1727 82.8199 24.3499L81.8287 19.1448C81.7435 18.6973 81.9084 18.239 82.2591 17.9484L86.0482 14.8092C86.7135 14.258 86.4139 13.1793 85.5596 13.0503L80.4733 12.2821C80.0982 12.2254 79.7692 12.0016 79.5788 11.6735L76.8647 6.99616Z" fill="#FF8904"/>
</svg>
