<svg width="200" height="112" viewBox="0 0 200 112" fill="none" xmlns="http://www.w3.org/2000/svg">
<path d="M77.1612 85.6535C71.1664 86.0273 65.3226 87.6056 59.9685 90.3261C57.3122 91.676 54.781 93.3062 52.4789 95.1908C50.6612 96.6809 50.0987 99.3183 51.7705 101.177C53.557 103.155 57.3695 103.145 59.833 103.321C63.1716 103.56 66.5362 103.513 69.8851 103.555C76.9789 103.648 84.0778 103.737 91.1716 103.825C92.1716 103.84 94.5674 103.467 95.3955 104.276C95.9059 104.775 94.4268 106.919 93.9997 107.402C93.7445 107.698 93.4632 107.906 93.1299 108.108C92.8799 108.259 92.3174 108.352 92.1351 108.534C96.3643 104.328 93.7757 109.172 93.4059 109.536C93.5205 109.416 93.6143 108.908 93.6976 108.715C94.3955 107.21 95.3226 105.777 96.1091 104.313C95.1247 104.183 94.1403 104.058 93.1507 103.929C93.3747 104.848 93.0987 106.26 92.3278 107.272C91.0778 108.928 93.8851 110.533 95.1195 108.897C96.3486 107.267 96.7445 105.055 96.2705 103.072C95.9528 101.748 93.9632 101.478 93.3122 102.688C92.5934 104.027 91.8487 105.356 91.1247 106.696C90.5778 107.703 89.9476 108.944 90.2445 110.133C90.9632 113.04 94.6716 111.223 96.0205 109.946C96.9789 109.043 97.5778 107.838 98.1664 106.685C98.833 105.388 99.1039 103.949 98.2705 102.657C96.6872 100.185 92.8643 100.627 90.3747 100.596C82.833 100.502 75.2914 100.409 67.7549 100.31C64.1091 100.268 60.3955 100.372 56.7914 99.7596C56.031 99.6298 53.9216 99.635 53.9841 98.4409C54.0414 97.47 56.2497 96.3279 56.9632 95.8398C62.9372 91.7695 69.932 89.3137 77.1612 88.862C79.2289 88.7323 79.2445 85.5185 77.1612 85.6483V85.6535Z" fill="#FFA59B"/>
<path d="M124.99 88.6499C129.47 91.1005 134.933 91.6871 139.751 93.2551C142.402 94.1117 145.381 95.1605 147.553 96.9568C148.209 97.502 148.464 98.3742 147.881 99.0958C147.032 100.15 144.589 99.9992 143.386 100.093C139.433 100.389 135.449 100.316 131.49 100.363C127.412 100.415 123.329 100.466 119.251 100.518C117.298 100.544 115.345 100.57 113.397 100.591C111.579 100.617 109.683 100.482 107.891 100.814C106.678 101.043 105.391 101.588 104.699 102.663C103.761 104.121 104.256 105.643 105.006 107.06C105.824 108.597 106.652 109.973 108.204 110.886C109.355 111.561 111.095 112.247 112.199 111.115C113.141 110.144 112.782 108.618 112.287 107.522C111.532 105.866 110.511 104.298 109.652 102.694C108.678 100.866 105.886 102.491 106.865 104.319C107.548 105.596 108.261 106.863 108.954 108.14C109.011 108.244 109.548 109.537 109.563 109.537C109.777 109.37 109.985 109.204 110.199 109.038C110.954 108.721 111.074 108.529 110.563 108.462C110.334 108.187 109.683 108.046 109.371 107.797C108.813 107.34 108.501 106.754 108.173 106.131C107.964 105.747 107.235 104.848 107.391 104.423C107.678 103.665 110.204 103.852 110.735 103.846C118.183 103.748 125.636 103.659 133.089 103.561C136.683 103.519 140.303 103.582 143.886 103.27C146.673 103.026 149.943 102.844 151.11 99.8538C153.162 94.5738 145.61 91.9052 141.886 90.5917C139.048 89.5897 136.126 88.8628 133.22 88.0944C131.001 87.5077 128.652 86.9886 126.626 85.8827C124.803 84.8807 123.173 87.6583 124.996 88.6551L124.99 88.6499Z" fill="#FFA59B"/>
<path d="M106.563 89.5795C106.563 89.5795 110.433 94.0133 118.746 94.0445C131.923 94.1016 135.292 86.1477 135.292 86.1477C135.292 86.1477 145.558 90.7529 152.173 83.8426C158.792 76.9323 157.204 68.1685 157.204 68.1685C161.959 65.339 165.246 60.194 165.798 54.7062C166.35 49.2185 164.157 43.5283 160.063 39.811C161.121 31.2653 153.725 22.6417 145.068 22.3354C144.256 14.9734 139.579 8.14101 132.996 4.68327C126.412 1.22554 118.105 1.24111 111.532 4.71962C109.214 2.38331 107.496 0.467536 102.397 0.0573836C94.1102 -0.607166 90.1623 4.71962 90.1623 4.71962C83.5893 1.24111 75.282 1.22554 68.6987 4.68327C62.1102 8.14101 57.4383 14.9734 56.6206 22.3354C47.9695 22.6417 40.5685 31.2653 41.631 39.811C37.5321 43.5283 35.3393 49.2185 35.8966 54.7062C36.4487 60.194 39.7352 65.339 44.4904 68.1685C44.4904 68.1685 42.9018 76.9323 49.5164 83.8426C56.1362 90.7529 66.3966 86.1477 66.3966 86.1477C66.3966 86.1477 73.3602 94.87 82.9435 94.0445C91.2248 93.3332 95.1258 89.5795 95.1258 89.5795C95.1258 89.5795 99.5581 92.8348 106.563 89.5795Z" fill="#FFCFCA"/>
<path d="M78.318 42.4273C82.7086 43.2009 87.1513 43.1334 91.5107 42.1989C92.3596 42.012 92.8596 41.0255 92.6357 40.2208C92.3909 39.3434 91.5055 38.9125 90.6461 39.0994C86.8857 39.9093 82.969 39.9975 79.1773 39.3278C78.318 39.1772 77.4378 39.5562 77.1878 40.4492C76.9742 41.228 77.4534 42.2715 78.318 42.4273Z" fill="black"/>
<path d="M59.4417 38.5067C59.499 33.7822 63.7282 30.7554 68.2959 31.5861C69.3376 31.773 70.3167 31.15 70.3428 30.0337C70.4001 27.8064 71.1448 25.7193 72.8428 24.2553C74.8428 22.5316 77.5146 21.7424 80.1032 22.3758C82.124 22.8742 82.9834 19.7747 80.9626 19.2763C77.3063 18.3781 73.6657 19.4165 70.7959 21.784C68.3323 23.814 67.1865 26.8875 67.1084 30.0337C67.7907 29.5197 68.473 29.0006 69.1553 28.4866C65.6188 27.8428 62.2178 28.5022 59.4938 30.9371C57.3271 32.8736 56.2438 35.6409 56.2126 38.5067C56.1865 40.5731 59.4209 40.5731 59.4417 38.5067Z" fill="#FFA59B"/>
<path d="M59.2911 71.839C61.0307 75.0891 63.4525 78.0484 66.6296 79.9849C69.989 82.0409 74.2129 82.7937 78.0098 81.6048C79.989 80.9869 79.1452 77.8822 77.1504 78.5053C70.614 80.5508 64.9525 75.5875 62.0827 70.2192C61.1088 68.3916 58.3171 70.0115 59.2911 71.839Z" fill="#FFA59B"/>
<path d="M131.816 21.7016C132.775 22.1689 133.723 22.6673 134.624 23.2384C135.051 23.5083 135.473 23.7939 135.879 24.1054C135.697 23.9652 135.895 24.121 135.968 24.1781C136.066 24.256 136.165 24.339 136.264 24.4221C136.473 24.5986 136.671 24.7803 136.869 24.962C137.207 25.2839 137.525 25.6162 137.827 25.9693C137.9 26.0575 137.973 26.151 138.046 26.2392C138.332 26.5923 137.869 25.9796 138.129 26.3535C138.264 26.5404 138.4 26.7273 138.52 26.9245C138.77 27.3139 138.994 27.7189 139.191 28.1342C139.212 28.181 139.363 28.5911 139.244 28.2536C139.28 28.3627 139.327 28.4717 139.369 28.5755C139.452 28.8196 139.525 29.0584 139.593 29.3024C139.811 30.1123 140.749 30.6938 141.582 30.4238C142.41 30.1538 142.947 29.318 142.707 28.4457C141.468 23.8925 137.53 20.8969 133.447 18.924C132.686 18.5606 131.66 18.6956 131.233 19.5055C130.853 20.2219 131.004 21.3122 131.816 21.7016Z" fill="#FFA59B"/>
<path d="M67.015 46.5752C67.015 46.5752 66.567 43.8703 71.5618 43.5588C76.5566 43.2473 82.1712 44.7841 80.0931 48.465C78.0098 52.146 65.7962 50.7287 67.015 46.5752Z" fill="#FFA59B"/>
<path d="M131.031 47.2557C131.031 47.2557 130.312 44.6079 135.244 43.7928C140.182 42.9829 145.921 43.9434 144.234 47.8113C142.536 51.6843 130.239 51.5078 131.031 47.2557Z" fill="#FFA59B"/>
<path d="M94.2283 50.0228C101.843 52.3124 110.452 53.953 117.687 49.6283C119.468 48.564 117.848 45.7812 116.056 46.8507C109.593 50.7186 101.843 48.9585 95.0876 46.9233C93.0876 46.3263 92.2387 49.4258 94.2283 50.0228Z" fill="black"/>
<path d="M120.11 41.2079C124.162 43.5494 129.302 43.9803 133.651 42.1944C134.453 41.8621 135.031 41.1248 134.776 40.2163C134.568 39.4583 133.599 38.7574 132.787 39.0949C129.156 40.5901 125.13 40.3928 121.74 38.4355C119.938 37.3919 118.307 40.1696 120.104 41.2131L120.11 41.2079Z" fill="black"/>
<path d="M65.8333 21.2814C65.177 22.1277 61.25 23.8773 60.6875 18.239C60.1302 12.6059 67.6302 3.87335 75.1145 4.65212C82.6041 5.4257 74.8281 10.6902 71.552 13.3017C68.2656 15.9183 67.4062 19.267 65.8333 21.2814Z" fill="white"/>
<path d="M127.791 8.70153C126.599 6.24581 121.854 6.09006 119.198 6.50021C118.901 6.54174 118.583 6.60924 118.375 6.82729C118.099 7.11284 118.109 7.59048 118.302 7.93833C118.494 8.28618 118.833 8.5302 119.172 8.74825C121.562 10.2643 124.588 10.7471 127.338 10.0566C127.666 9.97352 128.041 9.81776 128.104 9.48549C128.13 9.32454 128.067 9.15841 127.994 9.01304C127.541 8.15639 126.442 7.68913 125.505 7.9591" fill="white"/>
<path d="M129.188 7.8907C128.324 6.19298 126.386 5.33634 124.595 4.99368C122.714 4.64064 120.803 4.64583 118.918 4.92619C118.24 5.02483 117.621 5.26884 117.152 5.78802C116.553 6.44738 116.412 7.40786 116.688 8.23855C117.115 9.5365 118.47 10.2945 119.647 10.8241C122.053 11.904 124.699 12.231 127.293 11.7067C128.11 11.5457 128.933 11.2498 129.402 10.5074C129.933 9.6663 129.746 8.63313 129.173 7.86474C128.214 6.59275 126.636 6.00608 125.079 6.40585C124.256 6.61352 123.683 7.56881 123.949 8.38392C124.225 9.22499 125.058 9.7286 125.938 9.50535C126.235 9.42747 125.959 9.48458 125.897 9.48977C125.985 9.48458 126.074 9.48977 126.162 9.48458C126.1 9.48977 125.829 9.40151 126.126 9.47939C126.183 9.49496 126.256 9.52612 126.319 9.5365C126.527 9.57803 126.126 9.40151 126.298 9.53131C126.339 9.55727 126.589 9.69225 126.418 9.58323C126.261 9.48458 126.433 9.5988 126.459 9.61957C126.798 9.88954 126.23 9.40151 126.537 9.70264C126.746 9.90512 126.407 10.4814 126.808 9.14192C126.876 8.91868 126.944 8.69543 127.011 8.46699C126.876 8.53967 126.86 8.55006 126.97 8.49814C127.136 8.44622 126.678 8.55525 126.6 8.57083C126.386 8.62274 126.168 8.65909 125.954 8.69024C126.214 8.65389 125.938 8.69024 125.897 8.69543C125.761 8.70581 125.626 8.72139 125.49 8.73177C125.079 8.75773 124.668 8.75773 124.261 8.73696C124.043 8.72658 123.829 8.70581 123.61 8.68505C123.647 8.68505 123.829 8.7162 123.636 8.68505C123.501 8.66428 123.365 8.64351 123.23 8.61755C122.829 8.53967 122.433 8.44103 122.043 8.31643C121.834 8.25413 121.626 8.18144 121.423 8.10356C121.35 8.07241 121.272 8.04646 121.199 8.0153C121.444 8.11914 120.985 7.90628 120.985 7.90628C120.642 7.74533 120.308 7.55843 119.99 7.35075C119.907 7.29884 119.819 7.24173 119.735 7.18462C119.954 7.35595 119.735 7.17942 119.72 7.14827C119.803 7.30403 119.709 7.24173 119.699 7.12231C119.709 7.25211 119.787 7.35075 119.767 7.50132C119.725 7.79206 119.543 7.8907 119.355 8.05165C119.11 8.24893 119.183 8.11914 119.329 8.10356C119.49 8.0828 119.673 8.05684 119.829 8.0153C119.793 8.02569 119.423 8.06203 119.709 8.03607C119.782 8.02569 119.85 8.0205 119.923 8.01011C120.069 7.99454 120.22 7.98415 120.371 7.97377C121.011 7.92185 121.657 7.91147 122.303 7.94262C122.595 7.95819 122.886 7.97896 123.178 8.01011C123.261 8.0153 123.345 8.03088 123.428 8.03607C123.058 7.99973 123.287 8.0153 123.371 8.03088C123.553 8.06203 123.74 8.09318 123.923 8.12952C124.251 8.20221 124.584 8.28528 124.907 8.3943C124.98 8.41507 125.058 8.44103 125.126 8.46699C125.162 8.48257 125.464 8.63313 125.251 8.51372C125.048 8.40469 125.261 8.5241 125.313 8.55006C125.392 8.59159 125.475 8.63313 125.553 8.67466C125.694 8.75254 125.824 8.85118 125.959 8.92906C126.115 9.01732 125.834 8.85118 125.839 8.83561C125.845 8.83561 126.058 9.0277 126.069 9.03809C126.105 9.07443 126.136 9.11077 126.173 9.14712C126.402 9.36517 126.121 9.16269 126.142 9.09001C126.131 9.12116 126.381 9.4742 126.402 9.51573C126.782 10.2634 127.907 10.5385 128.61 10.092C129.381 9.5988 129.6 8.69543 129.188 7.8907Z" fill="white"/>
<path d="M149.099 61.5442C148.208 62.4579 146.828 65.033 150.495 66.4504C154.156 67.8729 159.458 64.3996 161.802 58.3045C164.146 52.2145 160.891 50.5998 158.26 50.5843C155.641 50.5739 152.714 57.8632 149.104 61.5442H149.099Z" fill="#FFBDC5"/>
<path d="M104.994 14.9732C105.26 15.0562 105.526 15.1549 105.786 15.2587C105.52 15.1549 105.812 15.2691 105.911 15.3158C106.015 15.3626 106.125 15.4145 106.224 15.4664C106.708 15.7 107.171 15.97 107.619 16.2659C107.734 16.3386 107.849 16.4217 107.963 16.4996C108.02 16.5411 108.354 16.7903 108.083 16.5826C108.286 16.7384 108.484 16.8993 108.677 17.0707C109.078 17.4237 109.458 17.8027 109.812 18.2025C109.906 18.3063 110 18.4101 110.088 18.5192C110.114 18.5503 110.354 18.8411 110.224 18.6801C110.109 18.5399 110.364 18.8722 110.395 18.9086C110.463 19.002 110.531 19.0955 110.593 19.1941C110.911 19.6562 111.192 20.1338 111.447 20.6322C111.5 20.7361 111.546 20.8399 111.599 20.9437C111.619 20.9853 111.796 21.3747 111.713 21.1981C111.63 21.0009 111.776 21.3539 111.791 21.3902C111.843 21.52 111.89 21.6498 111.932 21.7796C112.114 22.3092 112.26 22.8439 112.369 23.3891C112.536 24.2198 113.567 24.7649 114.359 24.5105C115.239 24.2301 115.666 23.4202 115.484 22.5376C114.489 17.5795 110.656 13.4364 105.854 11.8633C105.052 11.6037 104.057 12.1696 103.869 12.9847C103.666 13.8725 104.135 14.6824 104.994 14.9628V14.9732Z" fill="#FFA59B"/>
<path d="M113.964 27.2517C114.422 26.7169 114.922 26.2185 115.464 25.772C115.526 25.7201 115.589 25.6734 115.646 25.6215C115.484 25.7409 115.88 25.4294 115.646 25.6215C115.792 25.5228 115.932 25.4138 116.078 25.3203C116.37 25.123 116.667 24.9361 116.979 24.7648C117.266 24.6039 117.568 24.4533 117.87 24.3131C117.953 24.2716 118.047 24.2249 118.135 24.1937C118.036 24.2301 117.891 24.2924 118.078 24.2249C118.24 24.1626 118.406 24.0951 118.573 24.038C119.26 23.8043 119.964 23.6278 120.677 23.5188C121.516 23.3838 122.057 22.3039 121.807 21.5407C121.516 20.6321 120.719 20.2739 119.818 20.4193C116.698 20.9073 113.724 22.5843 111.677 24.9777C111.13 25.6215 111 26.6339 111.677 27.2569C112.281 27.802 113.38 27.937 113.964 27.2569V27.2517Z" fill="#FFA59B"/>
<path d="M53.9067 79.8341C52.1411 77.8975 48.6723 72.2593 54.0057 67.4568C59.339 62.6492 68.0317 66.8857 69.589 69.8658C69.589 69.8658 74.0525 70.3123 77.5629 74.1698C77.5629 74.1698 85.2296 68.4381 93.089 71.304C100.954 74.1698 101.417 77.368 103.849 77.7574C106.287 78.1467 108.323 73.7233 114.454 74.2477C120.584 74.7721 122.386 79.9535 122.386 79.9535C122.386 79.9535 129.974 78.1987 131.433 74.04C132.886 69.8762 139.735 68.2668 143.245 71.522C146.761 74.7721 146.693 81.1216 141.875 82.8297C137.068 84.5378 134.334 82.3313 133.943 82.8297C133.547 83.3334 129.303 89.605 121.599 90.4409C111.146 91.5779 107.016 86.5419 107.016 86.5419C107.016 86.5419 100.631 88.9509 94.6254 86.0175C94.6254 86.0175 93.7036 86.111 91.2556 87.2635C85.9171 89.7712 77.8859 90.3319 72.8338 87.2635C67.7869 84.19 67.0369 82.4404 65.8702 81.5526C65.5004 81.2722 65.0525 81.132 64.5942 81.1476C62.4015 81.1891 56.8234 83.0426 53.9015 79.8341H53.9067Z" fill="#FFBDC5"/>
<path d="M68.3232 70.4938C71.4221 74.3876 76.9846 76.049 81.7503 74.6576C82.5888 74.4136 83.1148 73.531 82.8805 72.6795C82.6513 71.8488 81.7346 71.3141 80.8909 71.5581C80.4013 71.7035 79.8961 71.8229 79.3857 71.8904C79.6096 71.8592 79.2971 71.8904 79.219 71.9007C79.1044 71.9111 78.9951 71.9163 78.8805 71.9215C78.6253 71.9371 78.3701 71.9423 78.1096 71.9423C77.8544 71.9371 77.5992 71.9215 77.344 71.9007C77.1982 71.8852 77.0576 71.8748 76.9169 71.854C77.094 71.88 76.9117 71.854 76.8388 71.8384C76.3023 71.7398 75.7763 71.6204 75.2555 71.4594C74.344 71.1687 73.6148 70.8209 72.719 70.2186C72.0159 69.7461 71.2555 69.0297 70.6096 68.225C70.068 67.5448 68.8909 67.659 68.3232 68.225C67.6461 68.8947 67.7815 69.8136 68.3232 70.499V70.4938Z" fill="#FFA59B"/>
<path d="M43.9779 58.9734C45.5456 61.372 47.4727 63.4955 50.0561 64.8194C52.655 66.1485 55.5769 66.6469 58.4779 66.2783C59.3425 66.1693 60.0925 65.6189 60.0925 64.674C60.0925 63.8901 59.3477 62.9555 58.4779 63.0646C57.1446 63.2359 55.7488 63.2515 54.5248 63.0074C53.9675 62.8932 53.4206 62.7479 52.8842 62.561C52.7592 62.5142 52.629 62.4623 52.4988 62.4156C52.4154 62.3844 52.1602 62.2702 52.3686 62.3637C52.1394 62.265 51.9154 62.156 51.6915 62.0418C49.5925 60.9723 48.0509 59.3057 46.7748 57.3536C46.3009 56.6267 45.3425 56.3256 44.5613 56.7773C43.8373 57.1978 43.5092 58.2466 43.9831 58.9734H43.9779Z" fill="#FFA59B"/>
<path d="M141.579 56.3933C141.058 60.6817 137.053 64.2225 132.761 64.4146C131.553 64.4666 130.725 65.7437 131.365 66.834C132.558 68.864 131.693 71.4236 130.167 73.0382C128.287 75.0267 125.641 76.091 123.167 77.1345C122.355 77.472 122.193 78.6453 122.584 79.3307C123.063 80.1614 123.995 80.2392 124.792 79.907C127.98 78.5727 131.251 77.0826 133.344 74.2271C135.245 71.6312 135.824 68.0541 134.152 65.2142C133.688 66.0189 133.225 66.8236 132.761 67.6284C138.964 67.3532 144.074 62.4781 144.813 56.3933C144.917 55.5263 143.99 54.7942 143.193 54.789C142.235 54.7787 141.683 55.5367 141.579 56.3933Z" fill="#FFA59B"/>
<mask id="mask0_6061_44205" style="mask-type:luminance" maskUnits="userSpaceOnUse" x="0" y="50" width="14" height="9">
<path d="M0 50.3553H14V58.3299H0V50.3553Z" fill="white"/>
</mask>
<g mask="url(#mask0_6061_44205)">
<path d="M0.651419 53.5795C2.141 55.1059 3.98996 56.2429 6.03683 56.8711C8.12017 57.5097 10.292 57.5461 12.4275 57.2346C13.266 57.11 13.8025 56.0145 13.5577 55.2565C13.2608 54.3427 12.4691 54.0001 11.5681 54.1351C11.4743 54.1455 11.3285 54.161 11.5108 54.1403C11.4014 54.1558 11.292 54.1662 11.1879 54.1766C10.9691 54.1974 10.7504 54.2129 10.5368 54.2233C10.0837 54.2389 9.62538 54.2389 9.17225 54.2078C8.96392 54.1974 8.75038 54.1714 8.54204 54.1506C8.27121 54.1195 8.766 54.187 8.50038 54.1403C8.39621 54.1247 8.29204 54.1091 8.18788 54.0883C7.75038 54.0105 7.31808 53.9014 6.89621 53.7716C6.69829 53.7093 6.50038 53.6419 6.30246 53.5744C6.2035 53.538 6.10975 53.4965 6.01079 53.4601C6.17225 53.5276 6.06288 53.4809 5.96913 53.4342C5.58892 53.2577 5.21392 53.0656 4.85975 52.8527C4.67746 52.7437 4.50038 52.6295 4.3285 52.51C4.21913 52.4374 4.10975 52.3595 4.00559 52.2816C3.79204 52.1207 4.16183 52.4114 3.9535 52.2401C3.59934 51.9441 3.26079 51.6326 2.93788 51.3055C2.34934 50.7033 1.23996 50.6721 0.651419 51.3055C0.0524606 51.9597 0.0264193 52.9358 0.651419 53.5795Z" fill="#FFA59B"/>
</g>
<path d="M2.06806 59.5716C4.09931 60.3867 6.01598 61.1083 8.23473 61.2433C9.75035 61.3368 11.0629 60.9578 12.4274 60.3659C15.1618 59.177 18.0212 56.9809 18.5628 53.8866C18.7139 53.0299 18.3337 52.1525 17.4378 51.9085C16.6566 51.6956 15.6045 52.1681 15.4483 53.0299C15.2347 54.2552 14.7243 54.9561 13.7399 55.8283C13.4326 56.0983 13.4118 56.1086 13.1358 56.3007C12.8858 56.4773 12.6306 56.6382 12.3701 56.794C11.8649 57.0899 11.3389 57.3599 10.7972 57.5883C11.1149 57.4533 10.4847 57.7025 10.3806 57.7337C10.1878 57.8064 9.99514 57.8635 9.79722 57.9206C9.16702 58.0919 8.74514 58.0763 7.94827 58.0037C6.16702 57.8531 4.56285 57.1314 2.92744 56.4721C2.12015 56.145 1.1566 56.8251 0.943061 57.5935C0.687853 58.5124 1.25556 59.2445 2.06806 59.5716Z" fill="#FFA59B"/>
<path d="M15.9426 53.9428C16.2082 53.7247 15.7499 54.0622 15.6926 54.0933C15.6457 54.1193 15.2134 54.327 15.3801 54.2595C15.552 54.1972 15.0884 54.3477 15.0416 54.3633C14.8593 54.41 14.6718 54.4516 14.4843 54.4827C14.7759 54.4412 14.4686 54.4723 14.3488 54.4775C14.1561 54.4879 13.9686 54.4723 13.7759 54.4671C13.4009 54.462 13.9791 54.5294 13.6405 54.4568C13.453 54.41 13.2655 54.3737 13.0832 54.3218C13.0311 54.3062 12.5832 54.1401 12.7395 54.2127C12.8957 54.2802 12.4582 54.0674 12.4113 54.0414C12.2395 53.9428 12.078 53.8389 11.9166 53.7299C11.6353 53.5586 12.052 53.8701 11.7811 53.6313C11.5259 53.4028 11.2811 53.1744 11.052 52.92C10.9895 52.8473 10.927 52.7746 10.8645 52.6967C10.9686 52.8317 10.9634 52.8213 10.8541 52.676C10.7551 52.5306 10.6613 52.3904 10.5676 52.2451C10.3801 51.9335 10.1978 51.6117 10.0624 51.2742C10.1666 51.5338 9.99989 51.0925 9.98947 51.0509C9.91656 50.8381 9.85406 50.6252 9.80718 50.402C9.80718 50.3864 9.74468 49.8984 9.76551 50.1683C9.74989 49.9503 9.74468 49.727 9.76551 49.5038C9.74468 49.7789 9.80197 49.3636 9.8176 49.3013C9.83843 49.2079 9.86968 49.1248 9.90093 49.0365C9.8176 49.213 9.81239 49.2234 9.89051 49.0625C9.91656 49.0261 10.1613 48.616 10.0259 48.8185C9.89572 49.0158 10.1718 48.6679 10.2082 48.6316C10.2655 48.5796 10.3228 48.5277 10.3801 48.481C10.1978 48.6212 10.177 48.6368 10.3176 48.5329C10.4113 48.481 10.4999 48.4187 10.5936 48.3668C10.6561 48.3356 10.953 48.2318 10.9738 48.1851C10.7447 48.2785 10.7082 48.2941 10.8697 48.2318L10.9634 48.2006C11.1874 48.1228 11.4166 48.0605 11.6509 48.0085C12.4738 47.8113 13.0416 46.8352 12.7759 46.0305C12.4999 45.1738 11.6718 44.7014 10.7863 44.909C9.8176 45.1323 8.82802 45.6203 8.09364 46.2953C7.22906 47.0844 6.99468 48.4706 6.93739 49.5817C6.82802 51.783 7.85406 53.9999 9.58843 55.3601C11.5051 56.8554 14.1197 57.3797 16.3541 56.2375C17.2603 55.7755 18.0884 54.9656 18.5311 54.0466C19.1249 52.8058 19.1197 51.4974 18.8436 50.1787C18.3749 47.9722 17.0207 45.7501 14.9166 44.7637C14.1509 44.4002 13.1353 44.5249 12.7082 45.34C12.328 46.0512 12.4686 47.1519 13.2863 47.5361C13.5832 47.6763 13.8749 47.8372 14.1353 48.0345C13.8749 47.832 14.2863 48.1955 14.3384 48.2422C14.4738 48.372 14.5936 48.5122 14.7134 48.6575C14.5207 48.4239 14.7916 48.7666 14.8384 48.8444C14.9322 48.9846 15.0155 49.1248 15.0988 49.2702C15.1822 49.4155 15.2447 49.5713 15.3228 49.7166C15.4426 49.9347 15.2499 49.4986 15.3332 49.727C15.3749 49.8413 15.4218 49.9503 15.4582 50.0645C15.5676 50.3812 15.6561 50.7031 15.7238 51.025C15.7499 51.1444 15.7759 51.2586 15.7916 51.378C15.7863 51.3417 15.7707 51.2067 15.7916 51.3936C15.8124 51.6532 15.828 51.9335 15.7916 52.1983C15.8176 52.0114 15.7082 52.432 15.6978 52.4891C15.6666 52.6552 15.7186 52.4527 15.7395 52.4164C15.6978 52.4995 15.6561 52.5773 15.6145 52.6552C15.5832 52.7123 15.5311 52.7694 15.5051 52.8265C15.4061 53.029 15.6718 52.6604 15.5103 52.8265C15.3853 52.9563 15.2551 53.0809 15.1301 53.2107C14.9686 53.3769 15.3332 53.1017 15.1301 53.2107C15.0728 53.2471 15.0155 53.2886 14.9582 53.3249C14.8801 53.3769 14.4061 53.5742 14.7291 53.4651C14.5624 53.5222 14.4009 53.5742 14.2343 53.6105C14.1561 53.6313 14.078 53.6468 13.9947 53.6572C14.2759 53.6157 13.9218 53.652 13.8697 53.652C13.6822 53.6572 13.4947 53.652 13.3072 53.6365C13.5832 53.6624 13.0988 53.5845 13.0207 53.569C12.8384 53.5222 12.6561 53.4651 12.4791 53.3976C12.703 53.4807 12.453 53.3872 12.4166 53.3717C12.3072 53.3146 12.1926 53.2523 12.0832 53.19C11.9374 53.1069 11.802 53.0134 11.6613 52.92C11.9009 53.0861 11.552 52.8213 11.4843 52.7642C11.3593 52.65 11.2447 52.5306 11.1301 52.4112C11.0624 52.3385 11.0051 52.2658 10.9374 52.1931C11.0468 52.3125 11.0051 52.2866 10.927 52.1776C10.8228 52.0218 10.7134 51.8609 10.6249 51.6895C10.5884 51.6272 10.552 51.5649 10.5207 51.5026C10.4999 51.4611 10.3749 51.1911 10.453 51.3676C10.5259 51.5338 10.4374 51.3157 10.427 51.295C10.3905 51.1911 10.3541 51.0873 10.3228 50.9783C10.2603 50.7654 10.203 50.5421 10.1718 50.3241C10.2082 50.5681 10.1718 50.2929 10.1718 50.2566C10.1718 50.1164 10.1613 49.9762 10.1613 49.8361C10.1613 49.753 10.1613 49.6699 10.1666 49.5869C10.1666 49.592 10.2082 49.1611 10.1874 49.3013C10.1613 49.4519 10.2134 49.1819 10.2134 49.1819C10.2447 49.0469 10.2759 48.9119 10.3124 48.7769C10.3436 48.6679 10.3853 48.5641 10.4166 48.4602C10.4582 48.3512 10.453 48.3512 10.4113 48.4602C10.3749 48.5589 10.3176 48.6471 10.2291 48.7198C10.2551 48.7198 10.677 48.3824 10.328 48.6056C10.4791 48.507 10.6301 48.4135 10.7811 48.3252C10.8645 48.2785 10.9478 48.2422 11.0363 48.2006C11.302 48.0605 10.927 48.2214 11.0936 48.1747C11.2759 48.1176 11.453 48.0553 11.6405 48.0085C11.3541 46.9754 11.0676 45.9422 10.7811 44.909C9.67697 45.1738 8.53114 45.6722 7.7551 46.5289C6.56239 47.858 6.30718 49.6388 6.70822 51.3417C7.39572 54.2906 9.8853 57.1357 12.9895 57.5978C14.9113 57.8833 16.7082 57.4472 18.2238 56.2272C18.8853 55.6924 18.8228 54.4983 18.2238 53.948C17.5259 53.3146 16.6405 53.3821 15.9374 53.948L15.9426 53.9428Z" fill="#FFA59B"/>
<path d="M16.0419 56.7724C21.5836 58.4494 27.594 57.9302 32.9117 55.7081C37.4481 53.8131 42.1981 50.5786 44.0002 45.8281C44.7346 43.8916 41.6096 43.0557 40.8856 44.9767C39.4273 48.8134 34.8804 51.5235 31.2294 52.9409C26.6513 54.7217 21.6304 55.1059 16.9013 53.6729C14.9065 53.0655 14.0575 56.1702 16.0419 56.7724Z" fill="#FFA59B"/>
<mask id="mask1_6061_44205" style="mask-type:luminance" maskUnits="userSpaceOnUse" x="186" y="54" width="14" height="9">
<path d="M186 54.3429H200V62.3175H186V54.3429Z" fill="white"/>
</mask>
<g mask="url(#mask1_6061_44205)">
<path d="M197.01 55.8589C196.708 56.1704 196.391 56.4663 196.057 56.7415C195.995 56.7934 195.87 56.8921 196.005 56.7882C195.901 56.8661 195.792 56.944 195.687 57.0219C195.51 57.1413 195.339 57.2555 195.156 57.3697C194.802 57.5878 194.432 57.7799 194.052 57.9564C194.026 57.9668 193.75 58.0914 193.885 58.0343C194.026 57.9771 193.745 58.0914 193.719 58.1017C193.5 58.1848 193.276 58.2627 193.052 58.3302C192.656 58.4496 192.25 58.5534 191.833 58.6313C191.745 58.6469 191.214 58.73 191.49 58.6988C191.276 58.7248 191.068 58.7455 190.854 58.7559C190.401 58.7871 189.948 58.7974 189.495 58.7767C189.276 58.7715 189.062 58.7559 188.849 58.7403C188.74 58.73 188.63 58.7196 188.521 58.7092C188.224 58.6728 188.901 58.7663 188.38 58.6884C187.552 58.5638 186.604 58.8961 186.396 59.8098C186.219 60.573 186.63 61.6529 187.521 61.7879C189.661 62.1046 191.828 62.0683 193.911 61.4245C195.995 60.7807 197.812 59.6593 199.302 58.1329C199.891 57.5255 199.948 56.4559 199.302 55.8589C198.661 55.2774 197.641 55.2099 197.016 55.8589H197.01Z" fill="#FFA59B"/>
</g>
<path d="M197.015 61.0298C195.379 61.6891 193.77 62.4108 191.994 62.5665C191.713 62.5873 191.426 62.6029 191.145 62.6029C191.077 62.6029 190.395 62.5562 190.655 62.5925C190.499 62.5717 190.348 62.5302 190.192 62.4887C189.999 62.4419 189.806 62.3796 189.614 62.3173C189.494 62.2758 189.379 62.2291 189.26 62.1875C189.223 62.1772 188.806 62.0058 189.14 62.146C188.624 61.928 188.124 61.6736 187.64 61.3932C187.03 61.035 186.619 60.7494 186.202 60.3808C185.749 59.9862 185.338 59.5293 185.124 59.2023C184.728 58.5948 184.624 58.3404 184.494 57.5876C184.343 56.731 183.286 56.2481 182.504 56.4662C181.593 56.7102 181.223 57.5824 181.374 58.4391C181.921 61.5334 184.775 63.7399 187.515 64.9184C188.885 65.5103 190.192 65.8893 191.707 65.801C193.921 65.6712 195.843 64.9444 197.869 64.1293C198.676 63.8022 199.249 63.0598 198.999 62.1512C198.786 61.388 197.822 60.7027 197.01 61.0298H197.015Z" fill="#FFA59B"/>
<path d="M181.713 60.7754C184.364 62.9144 187.979 62.577 190.505 60.412C192.781 58.4547 194.562 54.3584 192.624 51.6327C191.786 50.4593 190.546 49.7896 189.156 49.4573C188.874 50.4905 188.583 51.5288 188.301 52.5568C188.442 52.5931 188.583 52.6295 188.718 52.6762C188.765 52.6918 189.031 52.7904 188.843 52.7177C188.671 52.6503 188.885 52.7333 188.906 52.7489C189.072 52.8268 189.239 52.915 189.395 53.0085C189.453 53.0396 189.505 53.0864 189.562 53.1123C189.734 53.2006 189.374 52.915 189.567 53.1175C189.588 53.1383 189.708 53.2629 189.713 53.2629C189.656 53.2681 189.562 53.0448 189.531 53.0033C189.395 52.8268 189.557 53.0916 189.583 53.1642C189.609 53.2421 189.63 53.3252 189.65 53.4031C189.682 53.5121 189.703 53.6211 189.729 53.7301C189.729 53.7301 189.781 54.0001 189.755 53.8444C189.729 53.673 189.765 54.0105 189.77 54.0468C189.781 54.187 189.786 54.3272 189.786 54.4674C189.786 54.5505 189.781 54.6335 189.775 54.7166C189.775 54.7529 189.739 55.0956 189.765 54.9191C189.786 54.7633 189.744 55.0333 189.744 55.0385C189.718 55.1475 189.697 55.2565 189.671 55.3656C189.624 55.5525 189.551 55.7238 189.494 55.9107C189.426 56.1391 189.609 55.7082 189.489 55.9211C189.432 56.0249 189.385 56.1391 189.328 56.243C189.244 56.3883 189.156 56.5285 189.062 56.6687C189.02 56.7258 188.979 56.7829 188.937 56.84C188.979 56.7881 189.119 56.6272 188.916 56.8504C188.801 56.975 188.692 57.0996 188.567 57.2138C188.515 57.2658 188.463 57.3125 188.411 57.3644C188.411 57.3644 188.088 57.6188 188.239 57.5098C188.39 57.4007 188.145 57.5721 188.109 57.5928C188.046 57.6292 187.989 57.6707 187.926 57.7071C187.755 57.8109 187.572 57.9095 187.385 57.9874C187.598 57.8992 187.156 58.0601 187.088 58.0809C187.01 58.1016 186.932 58.1224 186.854 58.1432C186.859 58.1432 186.426 58.2159 186.593 58.1951C186.775 58.1743 186.442 58.2055 186.406 58.2055C186.322 58.2055 186.244 58.2107 186.161 58.2107C186.057 58.2107 185.947 58.2003 185.843 58.1951C185.88 58.1951 186.057 58.2418 185.874 58.1951C185.687 58.1536 185.525 58.1172 185.348 58.0653C185.067 57.977 185.291 58.0445 185.354 58.0757C185.255 58.0238 185.15 57.9718 185.051 57.9147C184.958 57.8628 184.64 57.6136 184.874 57.8161C184.755 57.7123 184.635 57.6032 184.531 57.4838C184.494 57.4475 184.328 57.2242 184.437 57.3852C184.546 57.5357 184.421 57.3488 184.411 57.3281C184.364 57.2502 184.322 57.1723 184.275 57.0944C184.192 56.9491 184.239 56.9698 184.275 57.1048C184.255 57.0373 184.14 56.5804 184.161 56.7518C184.135 56.5493 184.14 56.3312 184.15 56.1288C184.156 56.0405 184.161 55.947 184.171 55.8588C184.15 56.0665 184.192 55.7757 184.192 55.7549C184.234 55.5577 184.275 55.3604 184.328 55.1631C184.385 54.9554 184.447 54.7529 184.52 54.5453C184.546 54.4778 184.572 54.4103 184.593 54.3428C184.749 53.9274 184.51 54.4881 184.63 54.2649C184.828 53.9067 185.005 53.5536 185.239 53.2162C185.249 53.2006 185.39 53.0137 185.281 53.1539C185.156 53.3096 185.4 53.0189 185.426 52.9877C185.551 52.8527 185.692 52.7229 185.828 52.5931C186.041 52.3907 185.88 52.536 185.828 52.5828C185.916 52.5101 186.015 52.4478 186.114 52.3855C186.291 52.2713 186.479 52.1726 186.671 52.0843C187.437 51.7261 187.697 50.5683 187.255 49.883C186.749 49.0991 185.864 48.9225 185.046 49.3067C183.145 50.1997 181.89 52.0843 181.296 54.0313C180.942 55.1994 180.77 56.5026 181.083 57.6967C181.374 58.8181 182.109 59.7422 183.031 60.4172C184.926 61.8086 187.604 61.6528 189.562 60.4743C191.546 59.2906 192.781 57.2346 192.999 54.9606C193.119 53.6834 192.906 52.0792 192.067 51.0616C191.395 50.2413 190.182 49.6909 189.166 49.4521C188.348 49.26 187.38 49.7065 187.182 50.5735C186.989 51.399 187.426 52.3387 188.307 52.5516C188.525 52.6035 188.739 52.6606 188.947 52.7281C188.994 52.7437 189.041 52.7593 189.088 52.7749C189.249 52.8372 189.213 52.8216 188.984 52.7281C189.005 52.7749 189.301 52.8787 189.359 52.9098C189.458 52.9618 189.546 53.0241 189.64 53.0812C189.781 53.1798 189.76 53.1591 189.578 53.0241C189.635 53.076 189.692 53.1227 189.744 53.1746C189.833 53.2525 189.906 53.3408 189.984 53.429C189.703 53.1123 190.015 53.5277 190.062 53.6055C190.14 53.7665 190.14 53.7613 190.057 53.5796C190.078 53.6419 190.098 53.7094 190.119 53.7769C190.135 53.834 190.213 54.322 190.187 54.0468C190.208 54.2649 190.203 54.4881 190.187 54.7114C190.208 54.4414 190.156 54.9035 190.145 54.945C190.098 55.1631 190.036 55.3811 189.968 55.594C189.968 55.5992 189.781 56.0924 189.895 55.8172C189.755 56.1495 189.578 56.4766 189.385 56.7881C189.296 56.9335 189.197 57.0737 189.104 57.2138C188.989 57.3644 188.984 57.3748 189.088 57.2398C189.031 57.3125 188.963 57.3904 188.9 57.463C188.676 57.7174 188.432 57.9511 188.171 58.1743C187.833 58.4703 188.416 58.029 188.036 58.273C187.88 58.3768 187.718 58.4858 187.546 58.5793C187.416 58.652 187.286 58.7195 187.156 58.7766C187.468 58.6312 186.937 58.8493 186.869 58.8648C186.708 58.9167 186.546 58.9531 186.385 58.9842C186.312 58.9998 186.244 59.0102 186.171 59.0206C186.364 58.9946 186.369 58.9946 186.176 59.0102C185.984 59.0102 185.796 59.0258 185.604 59.0206C185.557 59.0206 185.093 58.9739 185.468 59.0258C185.14 58.9791 184.817 58.8856 184.51 58.7766C184.848 58.896 184.328 58.6779 184.26 58.6416C184.203 58.6052 183.744 58.273 184.01 58.491C183.354 57.9563 182.354 57.8057 181.723 58.491C181.182 59.0777 181.02 60.1939 181.723 60.765L181.713 60.7754Z" fill="#FFA59B"/>
<path d="M183.047 58.2257C178.317 59.6586 173.297 59.2744 168.719 57.4988C165.062 56.0763 160.515 53.3713 159.062 49.5346C158.338 47.6136 155.208 48.4443 155.948 50.3861C157.75 55.1366 162.5 58.3659 167.036 60.266C172.354 62.4829 178.359 63.0073 183.906 61.3304C185.89 60.7281 185.047 57.6286 183.047 58.2309V58.2257Z" fill="#FFA59B"/>
</svg>
