<svg width="200" height="175" viewBox="0 0 200 175" fill="none" xmlns="http://www.w3.org/2000/svg">
<path d="M80.3457 125.712C79.7751 129.101 80.2985 132.548 80.6283 135.943C80.9738 139.572 81.3716 143.191 81.8165 146.81C82.7012 154.012 83.769 161.187 85.0095 168.331C85.4492 170.839 89.2704 169.776 88.8359 167.283C87.6529 160.483 86.627 153.662 85.7842 146.815C85.3655 143.41 84.9886 140 84.6536 136.584C84.35 133.424 83.6434 129.925 84.1668 126.765C84.5856 124.272 80.7644 123.198 80.3457 125.712Z" fill="#FFA59B"/>
<mask id="mask0_6087_66053" style="mask-type:luminance" maskUnits="userSpaceOnUse" x="70" y="165" width="20" height="10">
<path d="M70.6875 165.363H89.4478V174.999H70.6875V165.363Z" fill="white"/>
</mask>
<g mask="url(#mask0_6087_66053)">
<path d="M86.6889 166.61C83.768 166.37 80.7792 166.307 77.9264 167.084C75.6808 167.694 70.394 169.811 72.0847 172.977C72.8699 174.442 74.5659 174.708 76.0682 174.854C77.5914 175.005 79.1355 174.844 80.6326 174.557C81.9831 174.296 83.3022 173.895 84.5951 173.425C85.888 172.956 87.0134 172.534 87.9294 171.496C88.4947 170.865 88.9292 170.203 88.9972 169.342C89.0915 168.127 88.2487 167.095 87.0867 166.823C86.2806 166.631 85.4221 166.823 84.6474 167.058C84.37 167.142 84.0978 167.241 83.8204 167.324C83.6738 167.366 83.522 167.397 83.3755 167.444C82.9776 167.58 83.6686 167.444 83.2603 167.47C82.2291 167.517 81.2293 168.346 81.2764 169.446C81.3235 170.479 82.1506 171.48 83.2603 171.428C83.946 171.397 84.5951 171.235 85.2441 171.021C85.5163 170.933 85.7885 170.839 86.066 170.766C86.1759 170.74 86.2963 170.719 86.4114 170.682C86.1811 170.703 86.1392 170.714 86.2806 170.703C86.5109 170.703 86.3853 170.656 85.9142 170.578L85.197 169.869C85.4326 168.56 85.4169 168.158 85.1499 168.659C85.0348 168.831 85.0452 168.821 85.1813 168.628C85.0505 168.779 84.9039 168.915 84.7678 169.061C84.705 169.118 84.6474 169.17 84.5794 169.227C84.7783 169.081 84.794 169.066 84.6265 169.181C84.4694 169.264 84.4852 169.264 84.6736 169.175C84.5584 169.222 84.4485 169.264 84.3386 169.306C83.2394 169.728 82.1244 170.109 80.9938 170.411C79.9155 170.698 78.9733 170.875 77.9683 170.927C77.4134 170.959 76.8586 170.953 76.3037 170.912C76.3718 170.917 75.6285 170.823 75.885 170.865C75.7279 170.839 75.5709 170.807 75.4139 170.776C75.1992 170.708 75.1888 170.719 75.3877 170.807C75.1835 170.688 75.1783 170.698 75.3667 170.828C74.9846 172.45 75.0422 173.029 75.5395 172.565C75.6285 172.492 75.6285 172.487 75.55 172.544C75.6651 172.461 75.7803 172.372 75.9007 172.294C76.3194 172.007 76.7591 171.751 77.2145 171.532C77.8688 171.209 78.9052 170.886 79.837 170.688C81.9988 170.239 84.4223 170.375 86.6941 170.562C87.7305 170.651 88.7251 169.592 88.6779 168.586C88.6256 167.439 87.8038 166.693 86.6941 166.604L86.6889 166.61Z" fill="#FFA59B"/>
</g>
<path d="M120.489 126.765C121.023 129.925 120.317 133.424 120.002 136.584C119.673 139.999 119.296 143.41 118.877 146.815C118.04 153.662 117.008 160.483 115.825 167.283C115.391 169.77 119.212 170.839 119.647 168.331C120.892 161.187 121.96 154.011 122.845 146.81C123.274 143.3 123.661 139.786 124.007 136.261C124.347 132.767 124.902 129.2 124.316 125.711C123.897 123.203 120.071 124.267 120.489 126.759V126.765Z" fill="#FFA59B"/>
<mask id="mask1_6087_66053" style="mask-type:luminance" maskUnits="userSpaceOnUse" x="114" y="165" width="20" height="10">
<path d="M114.908 165.363H133.668V174.999H114.908V165.363Z" fill="white"/>
</mask>
<g mask="url(#mask1_6087_66053)">
<path d="M117.97 170.567C120.242 170.38 122.666 170.244 124.822 170.698C125.759 170.891 126.79 171.214 127.445 171.537C127.9 171.762 128.34 172.012 128.758 172.299C128.738 172.283 129.292 172.653 129.052 172.513C129.591 173.044 129.669 172.486 129.292 170.839C129.481 170.703 129.47 170.698 129.271 170.818C129.465 170.729 129.455 170.719 129.245 170.786C129.13 170.813 129.01 170.833 128.895 170.854C128.769 170.875 128.612 170.901 128.355 170.917C127.801 170.959 127.246 170.969 126.691 170.938C125.675 170.886 124.744 170.703 123.665 170.421C122.587 170.14 121.493 169.764 120.436 169.358C120.284 169.3 120.132 169.243 119.986 169.186C120.174 169.274 120.19 169.274 120.033 169.191C119.713 169.045 120.221 169.405 119.954 169.128C119.797 168.967 119.63 168.815 119.478 168.643C119.614 168.831 119.624 168.841 119.509 168.669C119.242 168.169 119.227 168.57 119.457 169.879C119.221 170.119 118.986 170.354 118.745 170.594L118.3 170.713C118.489 170.724 118.504 170.724 118.352 170.708C118.222 170.687 118.216 170.693 118.337 170.713C118.394 170.729 118.452 170.74 118.504 170.755C118.813 170.833 119.111 170.938 119.415 171.037C120.064 171.245 120.708 171.407 121.399 171.438C122.435 171.49 123.425 170.494 123.383 169.462C123.33 168.346 122.509 167.533 121.399 167.48C121.038 167.465 121.388 167.48 121.451 167.496C121.305 167.465 121.163 167.428 121.017 167.387C120.771 167.319 120.53 167.235 120.284 167.157C119.666 166.959 119.033 166.782 118.379 166.756C116.259 166.683 114.955 168.857 116.086 170.672C116.793 171.809 117.813 172.575 119.043 173.055C120.362 173.566 121.708 174.03 123.084 174.364C124.492 174.703 125.958 174.927 127.408 174.922C128.895 174.922 130.831 174.833 131.978 173.754C132.564 173.206 132.883 172.486 132.862 171.683C132.836 170.599 132.093 169.89 131.287 169.279C130.193 168.445 128.968 167.845 127.67 167.387C124.571 166.297 121.195 166.354 117.97 166.625C116.939 166.709 115.934 167.475 115.986 168.602C116.028 169.603 116.861 170.672 117.97 170.583V170.567Z" fill="#FFA59B"/>
</g>
<path d="M40.2388 30.1116C41.0292 28.0987 41.0606 26.0389 40.0504 23.1657C39.0454 20.2924 36.2764 16.9707 33.2613 16.5222C30.2463 16.079 26.9119 18.0188 26.2733 20.9964C25.8598 16.4336 21.0127 12.7937 16.5059 13.6594C11.9938 14.5198 8.11504 18.2065 9.42365 22.5921C5.8904 20.8556 1.78659 24.2555 0.399467 27.9319C-0.987662 31.6134 1.38878 36.2284 5.19422 37.2452C2.85966 38.9191 2.14254 42.2982 3.14232 44.989C4.13686 47.6797 6.57088 49.6665 9.27185 50.6521C13.3914 52.1591 18.2489 51.4656 21.7769 48.8635C21.7769 48.8635 23.1222 48.1856 26.0273 45.0881C26.6293 44.4467 30.6598 48.5141 31.3926 49.046C32.9473 50.1776 38.5952 48.1699 35.4284 42.9501C33.5911 39.9256 31.3665 39.1746 31.4764 38.8148C31.4764 38.8148 37.9619 35.879 40.2388 30.1116Z" fill="white"/>
<path d="M104.241 137.501C104.241 137.501 108.994 142.961 119.196 143.002C135.37 143.07 139.511 133.272 139.511 133.272C139.511 133.272 152.11 138.951 160.234 130.435C168.358 121.925 166.405 111.136 166.405 111.136C172.247 107.652 176.283 101.317 176.958 94.5583C177.638 87.8054 174.943 80.7969 169.918 76.2184C171.216 65.6952 162.134 55.073 151.513 54.6975C150.508 45.6293 144.771 37.218 136.689 32.9629C128.602 28.7025 118.405 28.7234 110.339 33.0098C107.497 30.1261 105.382 27.7743 99.1268 27.2685C88.9563 26.4498 84.0987 33.0098 84.0987 33.0098C76.0325 28.7234 65.8358 28.7025 57.7485 32.9629C49.6666 37.218 43.9296 45.6293 42.9298 54.6975C32.3039 55.073 23.2221 65.6952 24.5203 76.2184C19.4952 80.7916 16.7995 87.8054 17.4799 94.5583C18.1604 101.317 22.1962 107.652 28.0326 111.136C28.0326 111.136 26.0854 121.925 34.2092 130.435C42.3331 138.951 54.9272 133.272 54.9272 133.272C54.9272 133.272 63.475 144.014 75.2421 143.002C85.4126 142.126 90.1969 137.501 90.1969 137.501C90.1969 137.501 95.6355 141.511 104.236 137.501H104.241Z" fill="#FFCFCA"/>
<path d="M46.3956 74.6133C46.4636 68.7937 51.6562 65.0652 57.2675 66.0873C58.5447 66.322 59.7486 65.5502 59.7801 64.184C59.8429 61.4411 60.7641 58.8702 62.8527 57.066C65.3024 54.9384 68.5844 53.9685 71.7617 54.7507C74.2428 55.3608 75.3002 51.5489 72.8138 50.9335C68.3227 49.828 63.8577 51.1056 60.3297 54.0206C57.3094 56.5236 55.9013 60.3043 55.8071 64.184C56.6446 63.5426 57.4821 62.9116 58.3196 62.2754C53.9803 61.4828 49.8084 62.2963 46.4636 65.2895C43.7941 67.6726 42.4697 71.0882 42.4279 74.6133C42.4017 77.158 46.3694 77.158 46.3956 74.6133Z" fill="#FFA59B"/>
<path d="M46.2117 115.658C48.3421 119.657 51.3153 123.302 55.2202 125.691C59.3449 128.22 64.527 129.148 69.1909 127.683C71.6197 126.921 70.5781 123.099 68.1388 123.866C60.1092 126.384 53.1631 120.268 49.635 113.661C48.4363 111.408 45.013 113.41 46.2117 115.658Z" fill="#FFA59B"/>
<path d="M135.244 53.9157C136.427 54.4894 137.584 55.1047 138.694 55.8087C139.222 56.1424 139.735 56.4918 140.233 56.8725C140.013 56.7056 140.248 56.8933 140.342 56.9663C140.463 57.0654 140.583 57.1645 140.704 57.2636C140.96 57.4826 141.206 57.7016 141.452 57.931C141.86 58.3221 142.253 58.7393 142.625 59.1721C142.714 59.2816 142.803 59.3911 142.897 59.5006C143.248 59.9387 142.677 59.1825 143.002 59.6414C143.164 59.8761 143.326 60.1055 143.478 60.3506C143.781 60.8252 144.059 61.3206 144.3 61.8368C144.326 61.8889 144.514 62.4 144.368 61.9828C144.415 62.1184 144.467 62.2488 144.514 62.3843C144.619 62.6764 144.713 62.9736 144.792 63.276C145.064 64.2773 146.215 64.9865 147.231 64.6579C148.252 64.3242 148.911 63.2917 148.618 62.2227C147.095 56.6117 142.258 52.925 137.244 50.5001C136.312 50.0465 135.056 50.2133 134.532 51.2093C134.061 52.0958 134.25 53.436 135.244 53.9157Z" fill="#FFA59B"/>
<path d="M47.5467 97.9741C47.5467 97.9741 46.8662 94.668 52.9748 94.037C59.0782 93.4008 66.0452 95.0069 63.6845 99.6428C61.3185 104.279 46.259 103.147 47.5467 97.9741Z" fill="#FFA59B"/>
<path d="M116.327 97.1351C116.327 97.1351 115.705 93.8186 121.818 93.2919C127.937 92.76 134.878 94.4809 132.434 99.075C129.989 103.669 114.956 102.287 116.327 97.1351Z" fill="#FFA59B"/>
<path d="M54.7486 55.8456C53.9425 56.8833 49.1163 59.037 48.4306 52.1015C47.7449 45.166 56.9523 34.4082 66.144 35.3677C75.3357 36.3272 65.788 42.8037 61.7627 46.0212C57.7322 49.2386 56.6749 53.3686 54.7486 55.8456Z" fill="white"/>
<path d="M130.303 37.9125C128.832 34.888 123.012 34.7003 119.751 35.2009C119.389 35.2531 119.002 35.3365 118.746 35.6024C118.405 35.9518 118.416 36.5411 118.651 36.9739C118.887 37.4015 119.3 37.7039 119.714 37.9699C122.651 39.8367 126.372 40.4312 129.743 39.576C130.146 39.4769 130.612 39.284 130.68 38.8772C130.717 38.6791 130.644 38.4757 130.549 38.2984C129.994 37.2346 128.644 36.6662 127.492 37" fill="white"/>
<path d="M132.021 36.9108C130.958 34.825 128.576 33.7664 126.378 33.3492C124.075 32.9112 121.724 32.9164 119.411 33.2606C118.573 33.3857 117.82 33.683 117.244 34.3244C116.506 35.1379 116.333 36.3164 116.673 37.3437C117.197 38.9393 118.861 39.8728 120.306 40.5246C123.258 41.8595 126.509 42.2559 129.691 41.6144C130.696 41.4111 131.707 41.0513 132.282 40.1387C132.931 39.101 132.706 37.8234 132 36.8848C130.822 35.3152 128.885 34.5955 126.969 35.0805C125.964 35.336 125.258 36.5145 125.588 37.5157C125.923 38.5534 126.948 39.174 128.027 38.8976C128.393 38.809 128.058 38.8768 127.98 38.882C128.084 38.8768 128.194 38.882 128.304 38.8768C128.226 38.882 127.896 38.7725 128.257 38.8715C128.33 38.8924 128.414 38.9237 128.493 38.9393C128.754 38.9915 128.257 38.7777 128.472 38.9289C128.519 38.9654 128.828 39.1323 128.613 38.9967C128.425 38.8768 128.634 39.0176 128.665 39.0436C129.084 39.3774 128.388 38.7777 128.765 39.1427C129.021 39.3982 128.603 40.1022 129.1 38.4544C129.184 38.178 129.262 37.9016 129.346 37.6252C129.178 37.7139 129.163 37.7243 129.294 37.6617C129.498 37.5992 128.938 37.7295 128.838 37.7556C128.576 37.813 128.315 37.8599 128.048 37.9016C128.367 37.8495 128.032 37.9016 127.974 37.9068C127.812 37.9173 127.639 37.9329 127.477 37.9485C126.975 37.9798 126.472 37.9851 125.975 37.959C125.703 37.9433 125.436 37.9173 125.174 37.8912C125.216 37.8912 125.436 37.9277 125.2 37.8912C125.038 37.8651 124.87 37.839 124.703 37.8078C124.211 37.7139 123.724 37.594 123.248 37.4375C122.991 37.3593 122.74 37.2706 122.489 37.1768C122.394 37.1403 122.3 37.1038 122.211 37.0673C122.515 37.1924 121.95 36.9369 121.95 36.9369C121.531 36.7335 121.117 36.5041 120.725 36.2486C120.625 36.186 120.515 36.1182 120.416 36.0452C120.683 36.2538 120.416 36.04 120.395 35.9983C120.5 36.186 120.379 36.1182 120.369 35.967C120.379 36.1286 120.479 36.2486 120.453 36.4363C120.405 36.7909 120.175 36.916 119.945 37.109C119.646 37.3541 119.735 37.1976 119.919 37.1768C120.112 37.1507 120.337 37.1142 120.526 37.0673C120.484 37.0777 120.029 37.1246 120.379 37.0881C120.468 37.0829 120.557 37.0725 120.641 37.0621C120.824 37.0412 121.007 37.0256 121.191 37.0151C121.981 36.9526 122.771 36.9421 123.562 36.9786C123.923 36.9943 124.284 37.0203 124.64 37.0568C124.745 37.0673 124.844 37.0829 124.949 37.0933C124.494 37.0464 124.776 37.0673 124.876 37.0881C125.101 37.1246 125.326 37.1611 125.551 37.2081C125.959 37.2967 126.362 37.3958 126.765 37.5314C126.854 37.5575 126.943 37.594 127.032 37.6252C127.074 37.6409 127.446 37.8286 127.184 37.6826C126.933 37.5418 127.194 37.693 127.257 37.7243C127.362 37.7765 127.461 37.8234 127.556 37.8808C127.728 37.9746 127.885 38.0946 128.058 38.1936C128.247 38.2979 127.896 38.0946 127.906 38.0789C127.912 38.0737 128.179 38.3188 128.189 38.324C128.231 38.3657 128.273 38.4179 128.315 38.4596C128.597 38.7307 128.257 38.4804 128.278 38.3866C128.268 38.4283 128.571 38.8611 128.597 38.9133C129.063 39.8363 130.445 40.1752 131.309 39.6225C132.256 39.0123 132.523 37.9068 132.021 36.916V36.9108Z" fill="white"/>
<path d="M156.465 102.981C155.366 104.103 153.675 107.273 158.171 109.025C162.668 110.772 169.179 106.496 172.058 98.9922C174.937 91.4883 170.938 89.5015 167.714 89.4859C164.489 89.4702 160.898 98.4498 156.47 102.981H156.465Z" fill="#FFBDC5"/>
<path d="M102.321 45.6297C102.645 45.7392 102.97 45.8591 103.289 45.9843C102.964 45.8591 103.326 45.9999 103.446 46.0573C103.572 46.1147 103.702 46.1772 103.828 46.2398C104.42 46.5318 104.99 46.8604 105.54 47.2202C105.681 47.314 105.822 47.4183 105.964 47.5122C106.032 47.5643 106.44 47.8668 106.11 47.6113C106.362 47.8094 106.602 48.0076 106.838 48.2162C107.33 48.6542 107.796 49.1183 108.235 49.6085C108.351 49.7388 108.461 49.8692 108.57 49.9996C108.602 50.0361 108.895 50.3959 108.743 50.2029C108.597 50.0204 108.911 50.4324 108.947 50.4793C109.031 50.594 109.115 50.714 109.193 50.8339C109.581 51.3971 109.931 51.9916 110.24 52.6017C110.303 52.7268 110.366 52.8572 110.429 52.9876C110.455 53.0345 110.664 53.5143 110.57 53.2952C110.465 53.0554 110.643 53.4882 110.664 53.5351C110.727 53.6915 110.785 53.8532 110.837 54.0149C111.062 54.6667 111.235 55.3289 111.371 56.0016C111.575 57.0185 112.847 57.6912 113.815 57.3783C114.899 57.0289 115.417 56.0329 115.197 54.9431C113.978 48.8419 109.267 43.742 103.378 41.8074C102.389 41.484 101.164 42.1828 100.933 43.184C100.687 44.2739 101.263 45.2699 102.321 45.6193V45.6297Z" fill="#FFA59B"/>
<path d="M113.328 60.7516C113.888 60.0946 114.5 59.4792 115.17 58.9265C115.244 58.8691 115.317 58.8065 115.39 58.7492C115.678 58.5093 115.191 58.89 115.39 58.7492C115.568 58.624 115.741 58.4937 115.919 58.3737C116.28 58.1286 116.646 57.8992 117.023 57.6906C117.384 57.4872 117.746 57.3047 118.117 57.1326C118.227 57.0857 118.337 57.0231 118.447 56.9866C118.321 57.0283 118.143 57.1118 118.374 57.0231C118.573 56.9449 118.777 56.8667 118.981 56.7989C119.824 56.5069 120.693 56.2931 121.572 56.1523C122.598 55.9906 123.257 54.6557 122.954 53.717C122.593 52.6011 121.614 52.1631 120.515 52.3404C116.683 52.9401 113.029 55.0051 110.522 57.9566C109.847 58.744 109.685 59.9903 110.522 60.7568C111.26 61.4295 112.605 61.5964 113.328 60.7568V60.7516Z" fill="#FFA59B"/>
<path d="M39.6019 125.498C37.4348 123.115 33.174 116.169 39.717 110.255C46.2653 104.342 56.9436 109.551 58.8489 113.222C58.8489 113.222 64.3294 113.775 68.6426 118.526C68.6426 118.526 78.0489 111.465 87.7012 114.995C97.3587 118.526 97.9241 122.458 100.913 122.943C103.907 123.422 106.404 117.973 113.931 118.62C121.458 119.266 123.672 125.649 123.672 125.649C123.672 125.649 132.99 123.49 134.775 118.364C136.56 113.238 144.966 111.257 149.279 115.261C153.592 119.266 153.509 127.083 147.599 129.19C141.689 131.291 138.339 128.569 137.858 129.19C137.376 129.805 132.157 137.528 122.704 138.555C109.874 139.958 104.802 133.758 104.802 133.758C104.802 133.758 96.9557 136.725 89.5908 133.111C89.5908 133.111 88.4602 133.226 85.4504 134.644C78.8968 137.731 69.0351 138.43 62.8323 134.644C56.64 130.864 55.7187 128.705 54.2845 127.615C53.8291 127.271 53.2847 127.099 52.7194 127.114C50.0289 127.166 43.1822 129.45 39.5914 125.498H39.6019Z" fill="#FFBDC5"/>
<path d="M27.4152 99.8152C29.3362 102.767 31.6969 105.384 34.8742 107.011C38.0673 108.649 41.6528 109.264 45.207 108.81C46.2749 108.675 47.1909 108.002 47.1909 106.834C47.1909 105.869 46.2801 104.717 45.207 104.853C43.5739 105.061 41.8622 105.082 40.3547 104.78C39.6742 104.644 39.0042 104.461 38.3447 104.232C38.1876 104.175 38.0306 104.112 37.8683 104.049C37.7689 104.013 37.4548 103.877 37.7113 103.992C37.4287 103.867 37.1565 103.737 36.8843 103.596C34.3037 102.271 32.4141 100.227 30.8437 97.818C30.2575 96.9263 29.0849 96.5508 28.1323 97.1088C27.2372 97.6302 26.8341 98.9183 27.4152 99.8152Z" fill="#FFA59B"/>
<path d="M158.48 86.8263C159.731 93.5323 155.674 101.062 149.298 103.633C148.309 104.035 147.608 104.952 147.916 106.068C148.178 107.007 149.361 107.857 150.356 107.45C158.856 104.019 163.986 94.789 162.301 85.7729C162.107 84.7247 160.835 84.1251 159.861 84.391C158.757 84.6987 158.281 85.7729 158.48 86.8263Z" fill="#FFA59B"/>
<path d="M31.7331 47.6479C28.1161 44.0915 24.185 40.8636 20.0132 37.9747C19.1547 37.3803 17.7728 37.787 17.3017 38.6839C16.7626 39.6956 17.0976 40.7593 18.0136 41.3903C19.0081 42.0787 19.987 42.7878 20.9501 43.5179C21.0653 43.6013 21.1752 43.6848 21.2851 43.7682C21.5887 44.0029 20.9292 43.4918 21.4526 43.9038C21.6725 44.0706 21.8871 44.2427 22.1069 44.4148C22.5937 44.7955 23.0753 45.1918 23.5569 45.5881C25.4151 47.1264 27.2105 48.7534 28.9326 50.4482C29.6707 51.1782 31.0107 51.2408 31.7383 50.4482C32.4659 49.666 32.5339 48.4301 31.7383 47.6479H31.7331Z" fill="#5E4D5C"/>
<path d="M28.7966 37.8649C30.1942 39.4293 31.5918 40.9989 32.9842 42.5633C33.314 42.9284 33.9107 43.1422 34.387 43.1422C34.8686 43.1422 35.4548 42.9231 35.7951 42.5633C36.1406 42.1827 36.397 41.6873 36.3709 41.1606C36.3447 40.6339 36.1563 40.1698 35.7951 39.7631C34.3975 38.1987 32.9999 36.6291 31.6023 35.0647C31.2778 34.6996 30.681 34.4858 30.1995 34.4858C29.7231 34.4858 29.1369 34.7049 28.7966 35.0647C28.4616 35.4297 28.1894 35.9407 28.2156 36.4674C28.2418 36.9941 28.4355 37.4582 28.7966 37.8649Z" fill="#5E4D5C"/>
<mask id="mask2_6087_66053" style="mask-type:luminance" maskUnits="userSpaceOnUse" x="172" y="39" width="28" height="31">
<path d="M172.529 39.8784H200V69.2473H172.529V39.8784Z" fill="white"/>
</mask>
<g mask="url(#mask2_6087_66053)">
<path d="M182.579 66.4471C183.558 67.4952 184.778 68.1001 186.783 68.3191C188.787 68.5434 191.562 67.8498 192.687 66.1864C193.818 64.5229 193.614 61.9833 192.017 60.7527C194.859 61.8165 198.419 59.9757 199.194 57.0503C199.968 54.1249 198.879 50.7666 195.88 50.2869C197.932 48.686 197.074 45.2756 195.278 43.3983C193.477 41.5263 190.038 41.6149 188.348 43.5861C188.013 41.7192 186.202 40.3269 184.312 40.1496C182.422 39.9723 180.538 40.8536 179.177 42.1729C177.099 44.191 176.131 47.2728 176.675 50.1148C176.675 50.1148 176.691 51.1056 177.711 53.7181C177.921 54.2657 174.34 55.4911 173.812 55.7727C172.697 56.3776 172.278 60.3094 176.298 59.9183C178.627 59.6889 179.711 58.5834 179.894 58.7503C179.894 58.7503 179.789 63.4434 182.585 66.4471H182.579Z" fill="white"/>
</g>
<path d="M174.639 57.055C177.853 55.9078 180.973 54.4946 183.946 52.8103C184.846 52.2992 185.228 50.9956 184.658 50.1039C184.082 49.2122 182.909 48.8471 181.941 49.3947C180.554 50.1769 179.14 50.9069 177.696 51.5744C177.345 51.736 176.994 51.8873 176.638 52.0437C176.565 52.075 175.911 52.3618 176.356 52.1689C176.204 52.2314 176.052 52.294 175.9 52.3566C175.136 52.6643 174.367 52.9615 173.592 53.2379C172.618 53.5872 171.854 54.6041 172.205 55.6731C172.519 56.6274 173.597 57.4304 174.649 57.055H174.639Z" fill="#5E4D5C"/>
<path d="M181.134 56.7579C179.799 57.1386 178.464 57.5245 177.13 57.9051C176.648 58.0407 176.203 58.3797 175.947 58.8125C175.695 59.2349 175.591 59.8658 175.742 60.3404C175.899 60.8201 176.198 61.279 176.653 61.5241C177.114 61.764 177.663 61.8735 178.187 61.7222C179.516 61.3416 180.851 60.9609 182.186 60.5802C182.668 60.4394 183.118 60.1057 183.374 59.6677C183.631 59.2349 183.725 58.6195 183.573 58.145C183.416 57.6653 183.118 57.2011 182.662 56.9613C182.191 56.711 181.652 56.6119 181.134 56.7579Z" fill="#5E4D5C"/>
<path d="M147.08 3.53677C144.525 6.26925 141.976 9.00172 139.427 11.7342C141.725 12.2765 144.023 12.8189 146.321 13.3612C146.876 13.4968 147.53 13.721 147.661 14.2737C147.802 14.863 147.253 15.3636 146.766 15.7182C141.892 19.2224 136.716 22.3043 131.314 24.9168C133.81 22.3617 136.307 19.8065 138.804 17.2461C139.129 16.9124 139.479 16.4743 139.322 16.0363C139.223 15.7547 138.93 15.5826 138.652 15.4627C135.391 14.0026 131.45 15.567 128.058 14.4145C127.723 14.2998 127.372 14.1382 127.199 13.8305C126.854 13.1995 127.529 12.5529 127.99 12.0001C129.717 9.94036 132.434 6.96801 135.465 3.34383C136.072 2.61899 136.878 1.94109 139.793 1.61778C142.704 1.29447 148.687 1.81072 147.08 3.53156V3.53677Z" fill="#E96474"/>
<path d="M146.027 2.48864C143.478 5.22112 140.924 7.9536 138.38 10.6861C137.647 11.4735 137.903 12.9023 139.034 13.1682C141.322 13.7054 143.661 14.159 145.928 14.7952C146.09 14.8265 146.247 14.8787 146.399 14.9412C146.409 14.2529 146.279 14.086 146.017 14.4354C145.729 14.4615 145.19 15.0247 144.965 15.1811C144.033 15.8382 143.086 16.4796 142.128 17.1001C138.416 19.5249 134.553 21.6994 130.57 23.6393C131.167 24.411 131.769 25.1932 132.371 25.9702C133.946 24.3589 135.517 22.7423 137.092 21.1362C137.851 20.354 138.615 19.5771 139.374 18.8001C140.044 18.1117 140.793 17.3921 140.845 16.37C140.95 14.3937 138.6 13.721 137.056 13.4811C135.192 13.1943 133.334 13.3977 131.46 13.3925C130.58 13.3925 129.675 13.3612 128.827 13.1005C128.78 13.0848 128.335 12.9075 128.324 12.9127L128.45 13.2725C128.487 13.6741 128.56 13.7471 128.691 13.4811C128.953 13.382 129.288 12.7615 129.481 12.5321C130.533 11.3014 131.606 10.0916 132.669 8.87659C133.983 7.37999 135.234 5.8208 136.563 4.33984C137.197 3.63065 137.982 3.40121 139.013 3.21348C140.489 2.94753 142.028 2.96318 143.525 3.08833C144.206 3.14047 144.891 3.23434 145.546 3.42206C145.677 3.45857 146.043 3.63065 146.085 3.62022C146.106 3.61501 145.813 2.73895 146.033 2.48343C144.808 3.93832 146.901 6.05025 148.137 4.57972C149.063 3.469 149.053 2.02975 147.781 1.17976C146.682 0.444499 145.221 0.288059 143.939 0.157693C141.112 -0.139541 137.213 -0.212547 134.936 1.76381C133.491 3.02054 132.334 4.7518 131.078 6.19626C129.848 7.60943 128.597 9.00696 127.377 10.4358C126.184 11.8333 124.618 13.8044 126.613 15.3167C128.194 16.5161 130.748 16.3909 132.622 16.3335C133.836 16.297 135.066 16.2032 136.276 16.3492C136.412 16.3648 137.909 16.7455 137.903 16.7455L137.752 16.198C137.647 16.3075 137.532 16.417 137.427 16.5317C137.097 16.7403 136.726 17.2513 136.454 17.5277C134.391 19.6396 132.329 21.7516 130.261 23.8635C129.047 25.1098 130.58 26.9193 132.067 26.1944C137.144 23.7227 142.023 20.8651 146.64 17.6163C147.545 16.9802 148.666 16.3335 149.037 15.2176C149.404 14.1017 148.891 12.9649 147.901 12.3704C146.823 11.729 145.331 11.5986 144.132 11.3118C142.693 10.9729 141.259 10.6339 139.825 10.295C140.044 11.1241 140.264 11.948 140.484 12.7771C143.033 10.0447 145.588 7.30698 148.137 4.5745C149.435 3.18219 147.336 1.07547 146.033 2.47821L146.027 2.48864Z" fill="#E96474"/>
<path d="M155.386 24.9436C154.282 25.5745 153.156 26.169 152.015 26.7113C151.455 26.9825 150.884 27.238 150.314 27.4883C150.314 27.4883 149.89 27.6708 150.12 27.5718C149.984 27.6291 149.843 27.6813 149.707 27.7438C149.382 27.8742 149.058 27.9994 148.733 28.1245C148.136 28.354 147.608 28.865 147.639 29.5585C147.67 30.2104 148.084 30.8153 148.733 30.9926C151.01 31.6131 153.318 32.1137 155.648 32.4996C155.527 31.5975 155.412 30.6953 155.292 29.788C153.711 30.8309 152.125 31.8738 150.549 32.9116C149.9 33.3392 149.565 34.2465 150.015 34.9453C150.434 35.5919 151.355 35.9308 152.052 35.4772C153.632 34.4342 155.213 33.3965 156.794 32.3536C157.297 32.0198 157.584 31.488 157.501 30.8778C157.433 30.3459 157.009 29.7358 156.433 29.642C154.104 29.2509 151.8 28.7503 149.523 28.1297V30.9926C152.057 30.0174 154.522 28.8598 156.883 27.5144C157.558 27.1233 157.846 26.1534 157.417 25.4807C156.977 24.8028 156.103 24.5316 155.381 24.9488L155.386 24.9436Z" fill="#E96474"/>
<path d="M79.4613 71.124C78.3516 70.5504 76.9173 71.1918 76.2107 72.2243C75.5093 73.2568 75.3575 74.5605 75.2685 75.8016C75.1952 76.8341 75.1533 77.9083 75.5773 78.8521C76.0065 79.796 77.0377 80.5469 78.048 80.3018C79.4613 79.9629 79.8172 78.1586 79.8957 76.7141C79.9376 75.9841 79.9742 75.2592 80.0161 74.5292C80.058 73.6636 80.0999 72.751 79.723 71.9688C79.3461 71.1866 78.4039 70.6026 77.5926 70.9259" fill="black"/>
<path d="M80.4615 69.4195C79.1163 68.7781 77.7867 68.8302 76.4467 69.4664C75.3318 69.9983 74.5047 71.0256 74.0336 72.1415C73.5364 73.3096 73.3846 74.5455 73.2903 75.8022C73.1961 77.1424 73.2642 78.4513 73.8086 79.6976C74.8973 82.1902 78.2578 83.2435 80.2993 81.215C81.901 79.6246 81.8487 77.158 81.9638 75.0722C82.0423 73.6121 82.1261 72.032 81.2991 70.744C80.4301 69.3726 78.6871 68.4652 77.0696 69.018C76.0908 69.3569 75.3423 70.3894 75.6877 71.448C76.0018 72.4127 77.0696 73.1897 78.1217 72.8247C78.2945 72.7673 78.3521 72.8142 77.9647 72.809C78.0589 72.809 78.2003 72.8455 77.9542 72.7829C77.6402 72.7047 77.9228 72.7986 77.9961 72.809C78.195 72.8403 77.8338 72.7621 77.8234 72.736C77.8286 72.7569 78.0432 72.8351 78.0485 72.8716C78.0118 72.8507 77.9804 72.8247 77.949 72.8038C77.8181 72.7047 77.8181 72.7099 77.949 72.8247C77.9856 72.9029 78.0328 73.028 77.9647 72.8299C77.86 72.5222 78.0171 72.9394 78.0171 72.9655C78.0171 72.9446 77.8967 72.5431 77.9909 72.9498C78.0066 73.0228 78.0223 73.1115 78.0485 73.1845C78.1427 73.4556 78.038 72.856 78.0485 73.1375C78.0485 73.221 78.0589 73.2992 78.0642 73.3826C78.0799 73.8259 78.0537 74.2743 78.0328 74.7176C77.9856 75.5415 77.9699 76.3758 77.8862 77.1998C77.8757 77.2571 77.8705 77.3197 77.8653 77.3823C77.8496 77.643 77.9438 76.9703 77.8862 77.2258C77.8548 77.3666 77.8338 77.5126 77.8024 77.6534C77.7658 77.7942 77.7344 77.9298 77.6873 78.0654C77.6663 78.128 77.6506 78.1801 77.6297 78.2375C77.5198 78.6025 77.7867 77.982 77.6663 78.1488C77.6402 78.1905 77.4674 78.4356 77.4674 78.493C77.4622 78.3105 77.7553 78.1853 77.5774 78.3574C77.5512 78.3783 77.4256 78.493 77.4256 78.5086C77.4256 78.5191 77.7763 78.2479 77.6088 78.3626C77.5303 78.4148 77.3209 78.493 77.6035 78.3887C77.9438 78.274 77.6663 78.3731 77.6297 78.3731C77.2319 78.3678 77.9804 78.4096 77.7187 78.3783C77.6402 78.3678 77.3418 78.3731 77.6559 78.3887C77.9542 78.4096 77.7187 78.3731 77.6611 78.3731C77.4099 78.3626 77.6768 78.1853 77.7658 78.4252C77.7606 78.4043 77.614 78.3313 77.5878 78.3209C77.3575 78.2218 77.8443 78.5712 77.6663 78.3887C77.6192 78.3418 77.5617 78.2896 77.5145 78.2479C77.2319 77.9976 77.5512 78.3313 77.5564 78.3313C77.4831 78.2948 77.4099 78.1123 77.3732 78.0445C77.3523 78.008 77.2842 77.9089 77.2842 77.862C77.3104 77.9246 77.3366 77.9767 77.368 78.0341L77.3156 77.8829C77.2999 77.7786 77.2633 77.6691 77.2371 77.5648C77.2319 77.5283 77.1795 77.2571 77.2214 77.5074C77.2685 77.7786 77.2214 77.4344 77.2162 77.3666C77.211 77.2832 77.2057 77.205 77.2057 77.1215C77.1952 76.9025 77.2005 76.6783 77.2109 76.4645C77.2267 76.063 77.2581 75.6614 77.2947 75.2599C77.2999 75.1817 77.3104 75.1035 77.3156 75.0252C77.3523 74.6446 77.3052 75.02 77.3052 75.0774C77.3156 74.874 77.3732 74.6602 77.4203 74.4621C77.4727 74.2378 77.5355 74.0084 77.614 73.7894C77.6297 73.7268 77.6559 73.6225 77.6925 73.5704C77.4517 73.878 77.6559 73.6747 77.7239 73.5547C77.7606 73.4869 77.8024 73.4243 77.8391 73.3566C78.0642 72.9498 77.6611 73.5234 77.8129 73.367C77.8757 73.3096 77.9281 73.2418 77.9909 73.1793C78.1427 73.028 78.2526 73.0698 77.9438 73.1897C78.0903 73.1323 78.2526 72.9915 78.3887 72.9133C78.6085 72.7882 78.462 72.9967 78.2788 72.9602C78.3311 72.9707 78.4725 72.9081 78.5248 72.8925C78.8703 72.7829 78.3992 72.9394 78.373 72.8977C78.3835 72.9185 78.6609 72.8977 78.6818 72.8977C78.8755 72.8768 78.4934 72.8925 78.4672 72.8716C78.5248 72.882 78.5876 72.8977 78.6452 72.9185C78.7865 72.9655 78.7289 72.9446 78.4672 72.8403C79.3989 73.2836 80.6447 73.1271 81.1734 72.1311C81.6393 71.2551 81.4613 69.9097 80.4668 69.4351L80.4615 69.4195Z" fill="black"/>
<path d="M121.462 71.124C120.347 70.5504 118.913 71.1918 118.206 72.2243C117.505 73.2568 117.358 74.5605 117.264 75.8016C117.191 76.8341 117.154 77.9083 117.578 78.8521C118.002 79.796 119.033 80.5469 120.044 80.3018C121.457 79.9629 121.818 78.1586 121.897 76.7141C121.933 75.9841 121.97 75.2592 122.012 74.5292C122.054 73.6636 122.096 72.751 121.719 71.9688C121.342 71.1866 120.4 70.6026 119.588 70.9259" fill="black"/>
<path d="M122.457 69.4195C121.112 68.7781 119.782 68.8302 118.447 69.4664C117.332 69.9983 116.5 71.0256 116.029 72.1415C115.537 73.3096 115.38 74.5455 115.286 75.8022C115.191 77.1424 115.265 78.4513 115.809 79.6976C116.898 82.1902 120.253 83.2435 122.295 81.215C123.896 79.6246 123.844 77.158 123.959 75.0722C124.038 73.6121 124.121 72.032 123.3 70.744C122.426 69.3726 120.682 68.4652 119.065 69.018C118.091 69.3569 117.338 70.3894 117.683 71.448C117.997 72.4127 119.07 73.1897 120.117 72.8247C120.29 72.7673 120.347 72.8142 119.96 72.809C120.054 72.809 120.201 72.8455 119.95 72.7829C119.641 72.7047 119.918 72.7986 119.997 72.809C120.19 72.8403 119.829 72.7621 119.819 72.736C119.824 72.7569 120.039 72.8351 120.044 72.8716L119.944 72.8038C119.819 72.7047 119.819 72.7099 119.944 72.8247C119.981 72.9029 120.028 73.028 119.96 72.8299C119.855 72.5222 120.012 72.9394 120.012 72.9655C120.012 72.9446 119.892 72.5431 119.986 72.9498C120.002 73.0228 120.018 73.1115 120.044 73.1845C120.138 73.4556 120.033 72.856 120.044 73.1375C120.044 73.221 120.054 73.2992 120.06 73.3826C120.08 73.8259 120.049 74.2743 120.028 74.7176C119.981 75.5415 119.965 76.3758 119.882 77.1998C119.876 77.2571 119.866 77.3197 119.861 77.3823C119.845 77.643 119.944 76.9703 119.882 77.2258C119.85 77.3666 119.829 77.5126 119.798 77.6534C119.766 77.7942 119.73 77.9298 119.683 78.0654C119.662 78.128 119.646 78.1801 119.625 78.2375C119.515 78.6025 119.782 77.982 119.662 78.1488C119.636 78.1905 119.463 78.4356 119.468 78.493C119.458 78.3105 119.751 78.1853 119.573 78.3574C119.547 78.3783 119.421 78.493 119.421 78.5086C119.421 78.5191 119.772 78.2479 119.604 78.3626C119.526 78.4148 119.316 78.493 119.604 78.3887C119.944 78.274 119.662 78.3731 119.63 78.3731C119.227 78.3678 119.981 78.4096 119.714 78.3783C119.641 78.3678 119.337 78.3731 119.651 78.3887C119.95 78.4096 119.714 78.3731 119.656 78.3731C119.405 78.3626 119.672 78.1853 119.761 78.4252C119.756 78.4043 119.609 78.3313 119.588 78.3209C119.358 78.2218 119.84 78.5712 119.662 78.3887C119.615 78.3418 119.562 78.2896 119.51 78.2479C119.227 77.9976 119.547 78.3313 119.552 78.3313C119.479 78.2948 119.41 78.1123 119.374 78.0445C119.348 78.008 119.28 77.9089 119.28 77.862L119.363 78.0341C119.348 77.982 119.332 77.9298 119.316 77.8829C119.295 77.7786 119.259 77.6691 119.238 77.5648C119.227 77.5283 119.18 77.2571 119.222 77.5074C119.264 77.7786 119.222 77.4344 119.212 77.3666C119.206 77.2832 119.206 77.205 119.201 77.1215C119.196 76.9025 119.196 76.6783 119.206 76.4645C119.222 76.063 119.253 75.6614 119.29 75.2599C119.295 75.1817 119.306 75.1035 119.316 75.0252C119.348 74.6446 119.306 75.02 119.306 75.0774C119.311 74.874 119.374 74.6602 119.416 74.4621C119.468 74.2378 119.531 74.0084 119.609 73.7894C119.63 73.7268 119.651 73.6225 119.688 73.5704C119.452 73.878 119.656 73.6747 119.719 73.5547C119.756 73.4869 119.798 73.4243 119.834 73.3566C120.06 72.9498 119.656 73.5234 119.808 73.367C119.871 73.3096 119.929 73.2418 119.986 73.1793C120.143 73.028 120.253 73.0698 119.939 73.1897C120.091 73.1323 120.253 72.9915 120.389 72.9133C120.604 72.7882 120.457 72.9967 120.274 72.9602C120.326 72.9707 120.468 72.9081 120.52 72.8925C120.866 72.7829 120.395 72.9394 120.368 72.8977C120.379 72.9185 120.656 72.8977 120.677 72.8977C120.871 72.8768 120.489 72.8925 120.463 72.8716C120.525 72.882 120.583 72.8977 120.641 72.9185C120.787 72.9655 120.724 72.9446 120.463 72.8403C121.394 73.2836 122.645 73.1271 123.174 72.1311C123.64 71.2551 123.462 69.9097 122.462 69.4351L122.457 69.4195Z" fill="black"/>
<path d="M75.3202 59.611C76.9219 61.6187 78.6493 63.5324 80.497 65.3211C81.3974 66.1919 82.3186 67.0315 83.2713 67.8449C84.4909 68.8827 85.6373 69.8213 87.3018 69.9308C87.9404 69.9725 88.7465 69.5397 89.0135 68.9505C89.2647 68.4133 89.5422 67.8867 89.851 67.3756C90.1284 66.9272 90.4844 66.4213 90.7094 66.145C91.3585 65.3419 91.5522 64.1217 90.7094 63.3447C89.9819 62.6824 88.6 62.4843 87.8985 63.3447C86.9878 64.4659 86.1974 65.6392 85.5902 66.9532C86.1607 66.6247 86.7313 66.3014 87.3018 65.9729C87.485 66.0094 87.4589 65.999 87.2233 65.9364C87.3803 66.0042 87.3489 65.9833 87.1291 65.8738C87.0139 65.8008 86.8935 65.7226 86.7784 65.6392C86.8988 65.733 86.8674 65.7017 86.6789 65.5505C86.2183 65.1594 85.7524 64.7735 85.3023 64.372C84.449 63.6211 83.6168 62.8441 82.8159 62.0463C81.1461 60.3932 79.581 58.6463 78.1206 56.8107C77.4715 55.9973 75.9849 56.0859 75.3149 56.8107C74.5193 57.6764 74.6188 58.7402 75.3149 59.611H75.3202Z" fill="black"/>
<path d="M109.811 67.9274C110.12 67.6719 110.428 67.4164 110.742 67.1713C110.821 67.1087 110.894 67.0357 110.978 66.9836C110.612 67.2026 110.905 67.0409 110.999 66.9731C111.156 66.8532 111.318 66.728 111.48 66.6133C112.145 66.1231 112.831 65.6538 113.527 65.2054C114.925 64.3084 116.38 63.5054 117.872 62.7858C118.809 62.3321 119.133 60.9241 118.584 60.0794C117.966 59.1147 116.872 58.8852 115.872 59.365C112.674 60.9033 109.722 62.8588 107.005 65.1324C106.204 65.7998 106.262 67.2495 107.005 67.9326C107.853 68.7096 108.957 68.6418 109.811 67.9326V67.9274Z" fill="black"/>
<path d="M92.9245 89.3342C94.542 87.7229 96.3217 86.3462 98.3055 85.2198C99.1588 84.7401 99.8602 84.2968 100.849 84.3438C100.991 84.349 101.143 84.3594 101.289 84.3698C101.378 84.3751 101.472 84.3803 101.561 84.3907C101.389 84.3698 101.378 84.3751 101.53 84.4011C101.928 84.5054 102.289 84.6254 102.655 84.8131C104.964 86.002 106.874 87.6551 108.811 89.3394C109.617 90.0382 110.821 90.132 111.617 89.3394C112.334 88.625 112.433 87.2431 111.617 86.5391C109.167 84.4116 106.492 82.0337 103.43 80.85C102.54 80.5058 101.614 80.4171 100.672 80.3754C99.164 80.3128 97.8711 80.9386 96.5834 81.653C94.2122 82.9567 92.0347 84.6306 90.1189 86.5391C88.3078 88.3434 91.1186 91.1385 92.9245 89.3394V89.3342Z" fill="black"/>
<path d="M71.201 107.24C66.4796 112.658 62.3496 118.582 58.9891 124.939C56.2253 130.164 51.4044 138.356 57.2198 143.274C62.3286 147.597 70.0547 146.246 75.8597 144.322C79.5186 143.112 83.0256 141.511 86.6269 140.15C90.2335 138.779 93.9028 137.569 97.614 136.515C99.666 135.937 101.728 135.405 103.806 134.92C105.754 134.471 108.172 133.564 110.187 133.804C111.716 133.991 112.893 135.238 114.024 136.166C115.254 137.172 116.489 138.043 118.028 138.513C119.703 139.024 121.075 136.74 119.761 135.54C117.201 133.199 114.035 131.921 110.559 131.859C109.24 131.833 108.292 133.397 109.02 134.534C109.983 136.036 111.721 136.985 113.286 137.741C114.856 138.492 116.694 139.321 118.499 139.326C119.075 139.326 119.792 138.998 120.038 138.445L120.049 138.429C120.337 137.783 120.421 136.787 119.766 136.276C119.29 135.9 118.798 135.645 118.259 135.373C117.945 135.212 117.636 135.055 117.332 134.888C117.196 134.815 116.526 134.299 116.903 134.669L117.426 135.926V135.89C117.248 136.307 117.076 136.724 116.903 137.146C119.641 133.673 113.26 131.202 110.611 131.123C109.36 131.092 108.25 132.703 109.072 133.804C110.868 136.208 113.281 137.579 116.28 137.84C118.568 138.038 118.552 134.476 116.28 134.284C114.657 134.137 113.129 133.319 112.15 132.01L110.611 134.685C111.423 134.706 112.061 134.956 112.778 135.321C113.066 135.467 113.354 135.671 113.652 135.785C114.171 135.978 114.05 136.385 114.045 135.655L114.568 134.393C113.611 135.608 113.668 136.797 115.008 137.668C115.422 137.939 115.882 138.148 116.327 138.377C116.568 138.502 117.662 139.112 117.248 138.789L116.971 136.63L116.966 136.651L118.505 135.77C117.364 135.77 116.107 135.154 115.092 134.669C114.16 134.221 112.621 133.559 112.103 132.74L110.564 135.42C113.082 135.467 115.38 136.359 117.243 138.064L118.976 135.092C116.573 134.357 115.055 131.989 112.799 130.93C109.925 129.585 106.68 130.638 103.754 131.296C96.8184 132.855 90.0189 134.972 83.4235 137.605C77.3986 140.014 70.531 143.524 63.8362 142.403C61.355 141.991 58.4709 140.708 58.0626 137.934C57.5967 134.779 59.8109 131.207 61.1718 128.49C64.5533 121.742 68.7722 115.448 73.7293 109.764C75.2263 108.043 72.719 105.514 71.2063 107.246L71.201 107.24Z" fill="#FFA59B"/>
<path d="M90.3695 131.635C87.8674 131.474 85.3497 132.167 83.1407 133.309C81.4605 134.175 79.4504 135.562 79.016 137.523C78.8223 138.399 79.0369 139.27 79.6022 139.963C80.4816 141.043 81.5652 140.964 82.8319 140.688C85.6166 140.083 87.9983 138.138 89.286 135.619C89.8984 134.415 88.8777 132.824 87.4539 133.247C85.0356 133.966 83.1617 135.348 81.6698 137.361C80.7905 138.545 82.2404 140.073 83.5019 139.734C86.92 138.821 89.9769 137.059 92.4685 134.55C93.5416 133.476 92.4685 131.255 90.8929 131.849C89.0242 132.553 87.1451 133.262 85.2711 133.966L86.8467 136.673C88.3752 135.26 89.7204 134.999 91.72 135.536C91.5891 134.55 91.4583 133.57 91.3326 132.579C92.0969 132.95 92.3167 132.97 91.9922 132.642C91.8404 132.454 91.6781 132.277 91.5158 132.105L89.9403 134.811C96.1431 136.36 102.32 138.003 108.47 139.755C114.401 141.444 120.279 143.535 126.309 144.849C131.586 146.002 137.197 146.32 142.196 143.958C147.394 141.491 147.791 136.104 146.074 131.187C143.871 124.867 139.95 119.037 136.7 113.212C135.689 111.392 132.884 113.019 133.904 114.844C136.522 119.537 139.359 124.173 141.683 129.023C142.745 131.234 143.792 133.721 143.839 136.214C143.886 138.889 142.395 140.433 140.023 141.392C135.297 143.306 130.015 142.492 125.226 141.272C119.986 139.937 114.846 138.206 109.643 136.725C103.393 134.942 97.1167 133.268 90.8092 131.693C89.2022 131.286 88.1606 133.205 89.2336 134.394C90.38 135.661 91.3326 136.256 92.9815 135.38C94.222 134.717 93.908 132.777 92.5941 132.423C89.4692 131.578 86.9462 132.188 84.5697 134.389C83.4286 135.442 84.6116 137.674 86.1453 137.095C88.0192 136.386 89.8932 135.682 91.7671 134.973L90.1915 132.266C88.0768 134.389 85.5486 135.849 82.6539 136.615L84.486 138.993C85.4491 137.69 86.7839 136.824 88.3333 136.365L86.5012 133.992C85.7213 135.52 84.5174 136.72 82.879 137.319C82.7743 137.356 81.7745 137.544 81.7536 137.622C81.9944 136.735 82.2038 138.159 82.1671 138.154C82.3608 138.201 81.9368 138.248 82.277 138.039C82.3189 138.013 82.7063 137.528 82.7377 137.491C84.6116 135.604 87.7889 134.707 90.38 134.874C92.4633 135.009 92.4528 131.771 90.38 131.641L90.3695 131.635Z" fill="#FFA59B"/>
</svg>
