<svg width="200" height="157" viewBox="0 0 200 157" fill="none" xmlns="http://www.w3.org/2000/svg">
<mask id="mask0_6087_65876" style="mask-type:luminance" maskUnits="userSpaceOnUse" x="116" y="115" width="24" height="42">
<path d="M116.296 115.611H139.064V157H116.296V115.611Z" fill="white"/>
</mask>
<g mask="url(#mask0_6087_65876)">
<path d="M116.694 119.165C118.86 131.488 122.172 143.581 126.582 155.296C126.99 156.376 128.162 157.016 129.255 156.381C131.599 155.018 133.791 153.399 135.747 151.522C137.338 149.992 139.556 147.863 138.133 145.499C135.094 140.494 128.91 150.469 127.738 152.77C126.681 154.856 129.82 156.696 130.882 154.61C131.583 153.231 132.378 151.9 133.351 150.689C133.88 150.023 134.461 149.394 135.067 148.797C135.292 148.571 135.617 148.356 135.81 148.094C135.936 147.984 136.067 147.869 136.192 147.759C135.564 146.957 135.078 146.81 134.743 147.318C134.188 147.659 133.655 148.493 133.179 148.949C132.624 149.483 132.054 149.992 131.463 150.479C130.202 151.522 128.837 152.424 127.419 153.242C128.313 153.608 129.203 153.97 130.092 154.332C125.682 142.622 122.376 130.524 120.205 118.201C119.802 115.899 116.291 116.874 116.694 119.165Z" fill="#FFA59B"/>
</g>
<mask id="mask1_6087_65876" style="mask-type:luminance" maskUnits="userSpaceOnUse" x="64" y="115" width="25" height="42">
<path d="M64.0645 115.611H88.1713V157H64.0645V115.611Z" fill="white"/>
</mask>
<g mask="url(#mask1_6087_65876)">
<path d="M83.5671 118.196C81.4012 130.519 78.0897 142.612 73.6795 154.327C74.5741 153.966 75.4634 153.599 76.3528 153.237C75.0135 152.461 73.7161 151.612 72.5076 150.637C71.8432 150.102 71.2102 149.536 70.5929 148.949C70.1587 148.53 69.5413 147.565 69.0287 147.319C68.8455 146.994 68.584 147.041 68.2335 147.455C67.5377 147.534 67.386 147.691 67.7731 147.927C67.8516 148.152 68.5526 148.645 68.7043 148.797C69.2484 149.332 69.7715 149.898 70.2581 150.49C71.2991 151.754 72.1466 153.153 72.8895 154.605C73.9515 156.691 77.0904 154.857 76.0337 152.77C74.8618 150.469 68.6729 140.489 65.6386 145.5C64.2104 147.854 66.4286 149.992 68.019 151.518C69.9756 153.394 72.1728 155.019 74.5165 156.377C75.6047 157.011 76.7818 156.377 77.1898 155.292C81.6 143.582 84.9063 131.484 87.0774 119.16C87.4803 116.87 83.9699 115.89 83.5671 118.196Z" fill="#FFA59B"/>
</g>
<path d="M106.408 116.974C106.408 116.974 110.765 121.99 120.125 122.027C134.966 122.09 138.765 113.09 138.765 113.09C138.765 113.09 150.321 118.305 157.771 110.479C165.226 102.659 163.436 92.7464 163.436 92.7464C168.793 89.5437 172.492 83.7202 173.115 77.5139C173.743 71.3025 171.268 64.8656 166.659 60.6618C167.847 50.9908 159.518 41.2254 149.772 40.8795C148.851 32.5504 143.588 24.8188 136.175 20.9032C128.757 16.9929 119.403 17.0086 112 20.9504C109.389 18.3033 107.454 16.1385 101.715 15.6772C92.3818 14.9224 87.9298 20.9504 87.9298 20.9504C80.5272 17.0086 71.1732 16.9929 63.7549 20.9032C56.3418 24.8188 51.0737 32.5504 50.1581 40.8795C40.4118 41.2254 32.078 50.9908 33.2708 60.6618C28.6618 64.8604 26.1873 71.3025 26.8151 77.5139C27.4376 83.7202 31.1363 89.5437 36.4934 92.7464C36.4934 92.7464 34.7042 102.659 42.1591 110.479C49.6141 118.305 61.1653 113.09 61.1653 113.09C61.1653 113.09 69.0073 122.96 79.8052 122.027C89.133 121.22 93.5223 116.974 93.5223 116.974C93.5223 116.974 98.5132 120.659 106.402 116.974H106.408Z" fill="#FFCFCA"/>
<path d="M53.3395 59.1786C53.3971 53.8321 58.163 50.4092 63.3108 51.3475C64.4827 51.5624 65.5865 50.8547 65.6179 49.5915C65.6755 47.0702 66.5177 44.7114 68.4325 43.0498C70.682 41.0999 73.6902 40.2088 76.6041 40.9269C78.8798 41.4878 79.8529 37.981 77.572 37.4202C73.4547 36.4033 69.3532 37.5774 66.1201 40.256C63.3474 42.5571 62.0553 46.0271 61.9715 49.5915L64.2787 47.8407C60.2975 47.1121 56.4627 47.8617 53.3971 50.6136C50.954 52.8047 49.735 55.9392 49.6984 59.1786C49.6722 61.5164 53.3081 61.5164 53.3395 59.1786Z" fill="#FFA59B"/>
<path d="M53.166 96.8932C55.1226 100.573 57.8482 103.922 61.4318 106.119C65.2142 108.441 69.9696 109.295 74.249 107.948C76.4724 107.246 75.5255 103.734 73.2812 104.441C65.9204 106.758 59.5432 101.134 56.3101 95.0638C55.2115 92.9933 52.0674 94.8279 53.166 96.8984V96.8932Z" fill="#FFA59B"/>
<path d="M134.848 40.1613C135.93 40.6907 136.992 41.2516 138.013 41.9015C138.494 42.2056 138.965 42.5306 139.42 42.8817C139.221 42.7245 139.441 42.8975 139.524 42.9656C139.634 43.0547 139.744 43.1491 139.854 43.2382C140.089 43.4374 140.314 43.6418 140.539 43.8515C140.916 44.2131 141.277 44.5958 141.617 44.9942C141.701 45.0938 141.785 45.1934 141.868 45.2929C142.193 45.6966 141.664 45.0047 141.962 45.424C142.109 45.6389 142.261 45.8486 142.402 46.074C142.679 46.5143 142.935 46.9703 143.155 47.4421C143.176 47.4892 143.349 47.9557 143.218 47.5783C143.26 47.6989 143.307 47.8195 143.354 47.9453C143.448 48.2126 143.532 48.4852 143.605 48.763C143.856 49.6803 144.913 50.3355 145.844 50.0315C146.786 49.7275 147.382 48.7787 147.115 47.7933C145.719 42.6406 141.282 39.2492 136.684 37.0215C135.826 36.6074 134.675 36.7594 134.194 37.6767C133.765 38.4892 133.932 39.721 134.848 40.1613Z" fill="#FFA59B"/>
<path d="M61.8608 68.31C61.8608 68.31 61.3638 65.2488 66.9877 64.8977C72.6063 64.5465 78.9365 66.2815 76.5927 70.4486C74.249 74.6158 60.4901 73.0119 61.866 68.31H61.8608Z" fill="#FFA59B"/>
<path d="M126.335 70.3749C126.335 70.3749 125.529 67.3766 131.085 66.4593C136.641 65.542 143.112 66.6271 141.203 71.0091C139.293 75.386 125.446 75.1868 126.335 70.3749Z" fill="#FFA59B"/>
<path d="M60.538 39.6906C59.7951 40.6446 55.3693 42.6207 54.7415 36.2468C54.1085 29.8728 62.5574 19.9869 70.9906 20.8675C79.4238 21.7481 70.6663 27.7028 66.9728 30.6591C63.2741 33.6154 62.3011 37.4104 60.538 39.6906Z" fill="white"/>
<path d="M130.317 25.4532C128.967 22.6699 123.626 22.4969 120.639 22.9582C120.304 23.0106 119.948 23.084 119.713 23.3303C119.399 23.6501 119.409 24.1952 119.629 24.5883C119.843 24.9815 120.225 25.2593 120.602 25.5056C123.296 27.2197 126.707 27.7701 129.804 26.9838C130.176 26.8895 130.599 26.7112 130.662 26.3391C130.699 26.1556 130.626 25.9722 130.542 25.8044C130.034 24.8295 128.795 24.3053 127.738 24.6093" fill="white"/>
<path d="M131.885 24.535C130.912 22.6166 128.725 21.6468 126.711 21.2642C124.597 20.8606 122.442 20.8658 120.318 21.1803C119.554 21.2956 118.858 21.5682 118.33 22.1553C117.655 22.9048 117.498 23.9899 117.807 24.9334C118.288 26.4011 119.816 27.2555 121.139 27.8583C123.844 29.0796 126.831 29.4465 129.75 28.8595C130.671 28.6708 131.597 28.3405 132.126 27.5018C132.722 26.5479 132.513 25.3737 131.869 24.5088C130.786 23.0673 129.013 22.4069 127.255 22.8524C126.334 23.0883 125.686 24.1733 125.984 25.0907C126.287 26.0132 127.234 26.616 128.223 26.3591C128.558 26.2805 128.249 26.3382 128.181 26.3487C128.275 26.3382 128.38 26.3487 128.479 26.3382C128.406 26.3487 128.103 26.2438 128.437 26.3382C128.505 26.3539 128.579 26.3854 128.652 26.4011C128.892 26.443 128.437 26.2491 128.631 26.3906C128.678 26.422 128.955 26.5741 128.762 26.4483C128.589 26.3382 128.777 26.4692 128.809 26.4954C129.196 26.7995 128.552 26.2491 128.903 26.5845C129.138 26.8204 128.751 27.4704 129.206 25.9555C129.285 25.6987 129.358 25.4471 129.437 25.1902C129.28 25.2741 129.264 25.2846 129.384 25.2217C129.573 25.164 129.06 25.2898 128.966 25.3108C128.725 25.3632 128.484 25.4052 128.244 25.4418C128.532 25.3999 128.228 25.4418 128.176 25.4471C128.024 25.4628 127.872 25.4733 127.721 25.489C127.255 25.5152 126.795 25.5205 126.34 25.4943C126.094 25.4838 125.848 25.4628 125.602 25.4366C125.644 25.4366 125.848 25.4681 125.633 25.4366C125.482 25.4156 125.33 25.3894 125.178 25.358C124.723 25.2741 124.278 25.1588 123.839 25.0225C123.603 24.9491 123.373 24.8653 123.143 24.7761C123.054 24.7447 122.97 24.7132 122.887 24.6766C123.164 24.7971 122.646 24.556 122.646 24.556C122.264 24.3725 121.882 24.1576 121.526 23.927C121.432 23.8693 121.333 23.8064 121.244 23.7383C121.485 23.9322 121.244 23.733 121.223 23.6963C121.317 23.8693 121.207 23.8064 121.202 23.6649C121.207 23.8169 121.296 23.9217 121.275 24.0947C121.228 24.425 121.019 24.5403 120.81 24.7185C120.538 24.9439 120.616 24.7971 120.784 24.7761C120.961 24.7552 121.166 24.7237 121.343 24.6766C121.302 24.687 120.883 24.7342 121.207 24.6975C121.291 24.6923 121.37 24.6818 121.448 24.6713C121.615 24.6556 121.783 24.6399 121.95 24.6294C122.677 24.577 123.405 24.5612 124.127 24.5979C124.461 24.6084 124.791 24.6346 125.115 24.6713C125.209 24.6766 125.304 24.6923 125.398 24.7028C124.979 24.6608 125.241 24.6766 125.335 24.6975C125.539 24.7342 125.748 24.7657 125.952 24.8076C126.329 24.8862 126.7 24.9806 127.067 25.1064C127.145 25.1326 127.229 25.1588 127.313 25.1902C127.349 25.206 127.689 25.3789 127.449 25.2427C127.224 25.1169 127.459 25.2531 127.517 25.2846C127.611 25.3318 127.705 25.3737 127.794 25.4261C127.951 25.5152 128.092 25.6253 128.249 25.7144C128.422 25.814 128.103 25.6201 128.113 25.6043C128.118 25.6043 128.359 25.8245 128.369 25.835C128.411 25.8717 128.448 25.9188 128.49 25.9555C128.746 26.2071 128.432 25.9765 128.458 25.8926C128.443 25.9293 128.725 26.3277 128.746 26.3749C129.175 27.224 130.441 27.5333 131.231 27.0248C132.099 26.4692 132.351 25.4471 131.89 24.5403L131.885 24.535Z" fill="white"/>
<path d="M154.314 85.2506C153.304 86.2832 151.755 89.1924 155.883 90.8016C160.006 92.4108 165.975 88.4795 168.617 81.5814C171.259 74.6885 167.591 72.8644 164.63 72.8487C161.674 72.8329 158.384 81.0834 154.319 85.2506H154.314Z" fill="#FFBDC5"/>
<path d="M104.64 32.5505C104.938 32.6449 105.237 32.755 105.529 32.8755C105.231 32.755 105.561 32.886 105.671 32.9384C105.791 32.9908 105.911 33.0485 106.026 33.1062C106.565 33.3735 107.088 33.6775 107.591 34.013C107.721 34.0968 107.852 34.1912 107.983 34.2803C108.046 34.3275 108.417 34.6053 108.119 34.3694C108.349 34.5476 108.569 34.7311 108.783 34.925C109.239 35.3234 109.668 35.7532 110.065 36.204C110.17 36.3246 110.274 36.4399 110.379 36.5657C110.405 36.5971 110.672 36.9274 110.531 36.7492C110.4 36.5867 110.688 36.9641 110.719 37.006C110.798 37.1108 110.871 37.2157 110.949 37.3257C111.3 37.8499 111.624 38.3898 111.907 38.9559C111.964 39.0712 112.022 39.1866 112.079 39.3071C112.1 39.3543 112.299 39.7946 112.21 39.5902C112.111 39.3753 112.278 39.7684 112.294 39.8103C112.351 39.9571 112.404 40.1091 112.456 40.2559C112.66 40.8534 112.822 41.4615 112.948 42.0748C113.131 43.013 114.298 43.6368 115.187 43.3485C116.181 43.0235 116.657 42.1114 116.453 41.1103C115.333 35.5016 111.012 30.8155 105.608 29.0333C104.708 28.7345 103.583 29.3793 103.369 30.3018C103.144 31.303 103.672 32.2203 104.64 32.54V32.5505Z" fill="#FFA59B"/>
<path d="M114.742 46.4409C115.254 45.8381 115.819 45.272 116.432 44.7688C116.5 44.7111 116.568 44.6587 116.636 44.6011C116.902 44.3809 116.452 44.7321 116.636 44.6011C116.798 44.4857 116.955 44.3652 117.122 44.2551C117.452 44.0297 117.786 43.82 118.137 43.6261C118.461 43.4426 118.796 43.2749 119.136 43.1176C119.236 43.0705 119.335 43.0181 119.44 42.9814C119.325 43.0233 119.162 43.0967 119.372 43.0181C119.555 42.9447 119.743 42.8713 119.931 42.8084C120.706 42.5411 121.496 42.3419 122.301 42.2161C123.248 42.0693 123.855 40.8427 123.573 39.9778C123.243 38.9557 122.343 38.5469 121.333 38.7093C117.818 39.265 114.47 41.1625 112.168 43.8725C111.55 44.5958 111.404 45.7438 112.168 46.4461C112.843 47.0647 114.083 47.2167 114.742 46.4461V46.4409Z" fill="#FFA59B"/>
<path d="M47.1038 105.945C45.1158 103.754 41.2079 97.3692 47.2137 91.9335C53.2142 86.4978 63.0129 91.2888 64.7602 94.6645C64.7602 94.6645 69.7877 95.1729 73.748 99.534C73.748 99.534 82.3748 93.0448 91.2317 96.2894C100.089 99.534 100.607 103.151 103.348 103.591C106.095 104.037 108.386 99.0256 115.292 99.6231C122.197 100.215 124.227 106.081 124.227 106.081C124.227 106.081 132.775 104.094 134.413 99.3873C136.05 94.6749 143.762 92.8508 147.722 96.5358C151.677 100.215 151.598 107.402 146.178 109.336C140.759 111.265 137.682 108.765 137.243 109.336C136.798 109.902 132.012 116.999 123.343 117.943C111.567 119.232 106.916 113.535 106.916 113.535C106.916 113.535 99.7225 116.26 92.9634 112.937C92.9634 112.937 91.9223 113.047 89.1653 114.347C83.1543 117.188 74.1037 117.822 68.4171 114.347C62.7356 110.872 61.8881 108.891 60.5698 107.889C60.1565 107.57 59.6542 107.412 59.1363 107.428C56.6723 107.475 50.3892 109.577 47.0933 105.945H47.1038Z" fill="#FFBDC5"/>
<path d="M63.3367 95.3723C66.8262 99.7806 73.0935 101.657 78.4611 100.085C79.4028 99.812 79.9939 98.8108 79.7324 97.8464C79.4708 96.9081 78.4402 96.3001 77.4933 96.5779C76.9387 96.7404 76.3737 96.8819 75.7982 96.9553C76.0494 96.9238 75.6988 96.9553 75.6099 96.9658C75.4844 96.9762 75.3536 96.9867 75.228 96.992C74.9403 97.0077 74.6473 97.0129 74.3596 97.0129C74.0718 97.0024 73.7841 96.992 73.4964 96.9658C73.3342 96.95 73.172 96.9396 73.0151 96.9133C73.2139 96.9396 73.0098 96.9133 72.9261 96.8976C72.3245 96.7823 71.7281 96.6513 71.1474 96.4678C70.1168 96.1376 69.3007 95.7444 68.291 95.063C67.4958 94.5284 66.6378 93.7159 65.9107 92.8038C65.3038 92.0333 63.975 92.1643 63.3367 92.8038C62.5782 93.5639 62.7247 94.607 63.3367 95.3775V95.3723Z" fill="#FFA59B"/>
<path d="M35.9232 82.3365C37.6862 85.0518 39.852 87.4577 42.766 88.9568C45.6956 90.456 48.9863 91.0221 52.2455 90.608C53.2238 90.4822 54.0661 89.8584 54.0661 88.7891C54.0661 87.9033 53.229 86.8444 52.2455 86.9702C50.7441 87.1589 49.1798 87.1799 47.7987 86.9021C47.1709 86.7763 46.5536 86.6086 45.952 86.3936C45.8055 86.3465 45.659 86.2888 45.5178 86.2311C45.4184 86.1945 45.1359 86.0739 45.3713 86.1735C45.1097 86.0634 44.8586 85.9429 44.6075 85.8118C42.2428 84.5957 40.506 82.7139 39.0673 80.5072C38.5337 79.6842 37.456 79.3383 36.5771 79.852C35.761 80.329 35.3895 81.5136 35.9232 82.3365Z" fill="#FFA59B"/>
<path d="M145.843 79.4164C145.257 84.2702 140.742 88.2749 135.908 88.4951C134.548 88.558 133.617 89.9994 134.339 91.2313C135.678 93.5271 134.705 96.4258 132.989 98.2499C130.87 100.504 127.894 101.704 125.1 102.884C124.19 103.272 124.007 104.603 124.446 105.373C124.985 106.317 126.036 106.406 126.936 106.029C130.525 104.514 134.208 102.831 136.567 99.5971C138.707 96.6617 139.361 92.6151 137.478 89.3966C136.955 90.3087 136.431 91.2208 135.908 92.1328C142.898 91.8183 148.647 86.304 149.479 79.4216C149.599 78.4362 148.558 77.608 147.658 77.6028C146.581 77.587 145.958 78.4467 145.843 79.4216V79.4164Z" fill="#FFA59B"/>
<path d="M84.7907 56.1225C83.7706 55.593 82.4522 56.1854 81.8088 57.1341C81.16 58.0776 81.024 59.278 80.9403 60.4207C80.8723 61.3694 80.8357 62.3549 81.2281 63.225C81.6152 64.0899 82.5673 64.7766 83.4881 64.5564C84.7855 64.2471 85.1151 62.5855 85.1883 61.2594C85.2249 60.5884 85.2616 59.9175 85.293 59.2518C85.3348 58.455 85.3714 57.6164 85.0261 56.8982C84.6809 56.1801 83.8177 55.6402 83.0748 55.939" fill="black"/>
<path d="M85.7072 54.5559C84.4726 53.9689 83.2484 54.016 82.0242 54.6031C81.0041 55.0906 80.2403 56.0289 79.8113 57.0563C79.3561 58.1308 79.2096 59.263 79.1259 60.4214C79.037 61.6533 79.105 62.8589 79.602 64.0015C80.6012 66.2869 83.6826 67.2619 85.5555 65.3958C87.0255 63.9334 86.9785 61.669 87.0831 59.7505C87.1563 58.4086 87.2296 56.9567 86.4762 55.772C85.6758 54.514 84.075 53.6806 82.5944 54.189C81.6999 54.4983 81.0093 55.447 81.3284 56.422C81.6161 57.3026 82.5944 58.0207 83.557 57.6853C83.7192 57.6328 83.7715 57.6748 83.4158 57.6695C83.4995 57.6695 83.6355 57.701 83.4053 57.6486C83.1176 57.5752 83.3739 57.6591 83.4472 57.6695C83.6251 57.701 83.2955 57.6276 83.285 57.6014C83.2902 57.6224 83.489 57.6957 83.489 57.7324L83.4001 57.6643C83.285 57.5752 83.285 57.5804 83.4001 57.6853C83.4367 57.7586 83.4786 57.874 83.4158 57.6905C83.3164 57.4074 83.4629 57.7901 83.4629 57.8163C83.4629 57.7901 83.353 57.4284 83.4367 57.8006C83.4524 57.8687 83.4681 57.9473 83.489 58.0155C83.578 58.2619 83.4838 57.7115 83.489 57.9736C83.489 58.0469 83.5047 58.1203 83.5047 58.1989C83.5257 58.6078 83.4943 59.0167 83.4786 59.4255C83.4367 60.1803 83.421 60.9456 83.3426 61.7057C83.3373 61.7581 83.3269 61.8157 83.3269 61.8734C83.3112 62.1145 83.4001 61.4908 83.3426 61.7319C83.3112 61.8577 83.2955 61.994 83.2641 62.125C83.2327 62.2508 83.2013 62.3766 83.1594 62.5024C83.1438 62.5548 83.1228 62.6072 83.1071 62.6597C83.0077 62.9951 83.2536 62.4238 83.1438 62.5758C83.1176 62.6177 82.9607 62.8431 82.9607 62.8955C82.9502 62.7278 83.2222 62.6072 83.06 62.7697C83.0339 62.7907 82.9188 62.8955 82.9188 62.906C82.9188 62.9165 83.2432 62.6701 83.0914 62.775C83.0182 62.8222 82.8246 62.8903 83.0862 62.8012C83.4001 62.6911 83.1438 62.7855 83.1124 62.7855C82.7409 62.775 83.4315 62.8169 83.1856 62.7907C83.1176 62.7802 82.8403 62.7802 83.1333 62.8012C83.421 62.8169 83.1908 62.7855 83.1385 62.7855C82.9031 62.775 83.1542 62.6125 83.2327 62.8274C83.2275 62.8117 83.0914 62.7488 83.0705 62.7383C82.8613 62.6439 83.3059 62.9689 83.1385 62.7959C83.0967 62.754 83.0496 62.7068 83.0025 62.6701C82.7409 62.4395 83.0339 62.7435 83.0444 62.7488C82.9711 62.7121 82.9083 62.5443 82.8769 62.4814C82.856 62.4448 82.7932 62.3556 82.7932 62.3137C82.8142 62.3714 82.8403 62.4185 82.8665 62.471L82.8194 62.3294C82.8037 62.2403 82.7723 62.1355 82.7514 62.0411C82.7409 62.0044 82.6991 61.7581 82.7357 61.9887C82.7775 62.2351 82.7357 61.9206 82.7305 61.8577C82.7252 61.7843 82.72 61.7109 82.72 61.6323C82.7095 61.4279 82.7148 61.2287 82.7252 61.0295C82.7409 60.6626 82.7671 60.2904 82.7985 59.9235C82.8089 59.8501 82.8142 59.7767 82.8194 59.7086C82.856 59.3574 82.8142 59.6981 82.8142 59.7557C82.8194 59.567 82.8769 59.3731 82.9188 59.1896C82.9659 58.98 83.0234 58.7755 83.0914 58.5711C83.1124 58.5135 83.1333 58.4191 83.1647 58.3719C82.945 58.655 83.1333 58.4663 83.1961 58.3562C83.2275 58.2933 83.2693 58.2356 83.3007 58.1727C83.5047 57.8006 83.1385 58.3248 83.2745 58.1832C83.3321 58.1308 83.3844 58.0679 83.442 58.0102C83.578 57.874 83.6826 57.9107 83.3949 58.0207C83.5309 57.9683 83.6826 57.8425 83.8082 57.7639C84.007 57.6486 83.8709 57.8425 83.7035 57.8111C83.7506 57.8215 83.8814 57.7586 83.9285 57.7429C84.2476 57.6486 83.8134 57.7901 83.7872 57.7534C83.7977 57.7691 84.054 57.7534 84.075 57.7534C84.2528 57.7324 83.8971 57.7482 83.8762 57.7272C83.9285 57.7377 83.986 57.7534 84.0436 57.7691C84.1744 57.8163 84.1168 57.7901 83.8762 57.701C84.7289 58.1098 85.8746 57.9631 86.3611 57.051C86.7901 56.2438 86.6227 55.0067 85.7072 54.5664V54.5559Z" fill="black"/>
<path d="M176.777 64.1581C175.871 60.316 178.529 56.6939 182.28 55.8867C184.258 55.4621 185.644 56.631 186.816 58.1092C188.071 59.6869 188.783 61.5897 189.076 63.5711C189.374 65.5734 192.921 65.1226 192.654 63.0836C192.309 60.4942 190.692 58.4656 188.291 57.412C185.895 56.3637 182.693 55.8814 180.13 56.5891C177.791 57.2391 175.966 59.0789 175.165 61.3486C174.302 63.7912 174.993 66.6742 177.158 68.1838C181.998 71.5595 187.831 63.8227 185.586 59.3724C184.435 57.087 181.553 56.5157 179.424 57.7527C177.169 59.0579 176.515 61.9881 177.373 64.3364C178.268 66.7947 180.69 68.6608 183.373 67.6806C185.707 66.8209 188.15 64.1896 188.286 61.6369C188.432 59.0632 186.068 57.0923 183.907 56.1907C181.448 55.1686 178.77 56.0911 177.635 58.539C175.61 62.8792 178.78 68.7551 183.802 68.6765C185.963 68.6451 188.197 67.5181 189.259 65.5787C190.467 63.3666 190.044 60.578 188.647 58.5442C187.219 56.4685 184.807 54.7597 182.181 54.9379C179.575 55.1162 177.342 56.8459 176.97 59.5035C176.227 64.8081 182.4 68.3673 187.056 66.606C189.385 65.7254 190.87 63.4767 190.671 60.9712C190.483 58.518 188.935 56.4895 186.696 55.5145C184.378 54.5029 181.652 54.5658 179.424 55.8081C177.179 57.0556 175.762 59.6188 176.112 62.1925C176.447 64.6247 178.383 66.5798 180.705 67.256C183.154 67.9636 185.974 67.2979 187.967 65.7516C190.164 64.0481 190.677 61.3538 189.515 58.8745C188.987 57.7527 188.092 56.8302 187.135 56.0754C186.073 55.2367 184.875 54.3456 183.541 54.0259C180.674 53.334 178.618 55.6351 178.55 58.3451C178.487 60.6776 179.895 63.2985 182.259 63.9432C184.572 64.5775 187.329 62.9945 187.475 60.4889C187.616 57.889 184.566 55.3416 182.024 56.2012C179.235 57.1395 179.486 60.793 180.967 62.7324C182.573 64.8448 185.623 65.2379 187.261 62.9159C190.739 58.0043 181.773 52.4796 178.874 57.6951C177.812 59.6031 177.917 62.1296 179.125 63.9485C180.444 65.9351 182.693 66.8314 185.032 66.4645C187.308 66.1028 189.453 64.3364 189.803 61.9933C190.185 59.4511 188.118 57.129 186 56.002C183.907 54.8803 181.558 54.7178 179.403 55.7504C178.519 56.175 178.283 57.4435 178.749 58.2402C179.282 59.1418 180.35 59.3148 181.239 58.8902C182.05 58.5023 183.091 58.6281 183.959 59.0422C184.76 59.4196 186.083 60.2845 186.225 61.2699C186.355 62.1558 185.199 62.6905 184.655 62.8372C183.808 63.0679 182.96 62.9159 182.348 62.2239C182.128 61.9723 181.977 61.6474 181.867 61.2647C181.757 60.8611 181.746 60.3631 181.83 60.0381C181.898 59.7551 182.045 59.2991 182.191 59.2414C182.578 59.0894 183.19 59.3567 183.52 59.5349C183.907 59.7498 184.216 60.0015 184.341 60.3631C184.357 60.4155 184.378 60.7038 184.357 60.4627C184.362 60.5413 184.289 60.7563 184.367 60.5623C184.357 60.5833 184.252 60.8873 184.362 60.6829C184.341 60.7196 184.064 61.097 184.216 60.9345C184.378 60.7563 183.986 61.097 184.284 60.9135C184.362 60.8663 184.545 61.1861 184.179 60.8873C184.336 61.0131 184.085 60.8139 184.069 60.8034C183.85 60.6409 183.583 60.1639 183.51 59.7551C183.551 59.9752 183.421 59.2047 183.483 59.4511C183.442 59.2728 183.719 59.1366 183.311 59.493C183.86 59.016 183.033 59.7394 183.049 59.6869C183.07 59.5769 183.834 60.2688 183.865 60.3579C183.865 60.3579 183.839 60.2321 183.855 60.2478C183.85 60.2426 183.698 60.4155 183.839 60.2635C183.954 60.143 183.766 60.3264 183.687 60.3631C183.551 60.4418 183.41 60.4418 183.504 60.447C183.264 60.4365 183.363 60.5361 183.075 60.3736C182.4 59.9805 182.107 58.7906 182.186 58.1983C182.228 57.931 182.343 57.6532 182.395 57.5745C182.521 57.3858 182.427 57.5536 182.38 57.564C182.243 57.6007 182.521 57.4959 182.516 57.4907C183.023 57.6427 183.504 57.9362 183.954 58.235C184.99 58.9164 186.204 59.8023 186.481 61.0865C186.706 62.1244 186.063 62.7691 185.178 63.2566C183.347 64.2735 180.02 64.0952 179.701 61.7103C179.35 59.1104 182.599 58.0358 184.629 58.6019C185.576 58.8692 186.554 59.5507 186.879 60.3841C187.213 61.249 187.135 62.3026 186.403 62.8896C184.828 64.1319 181.532 63.136 180.768 61.4534C180.355 60.5466 180.412 59.5087 181.197 58.9321C182.092 58.2717 183.305 58.5652 184.195 59.1261C185.194 59.7603 185.958 60.8034 186.246 61.9514C186.387 62.4913 186.403 63.0626 186.193 63.5816C186.063 63.9118 185.759 64.2735 185.566 64.4202C184.781 65.0283 183.87 65.1698 183.075 64.9601C182.113 64.7033 181.344 63.9013 180.941 62.9578C180.528 61.9985 180.48 60.9188 180.92 60.0853C181.045 59.8442 181.113 59.7498 181.265 59.6083C181.344 59.5349 181.548 59.4196 181.501 59.4301C182.05 59.3095 182.516 59.493 182.997 59.7656C183.515 60.0539 184.033 60.3998 184.399 60.8716C184.629 61.1704 184.749 61.3538 184.592 61.7994C184.394 62.3655 183.87 62.8896 183.462 63.309C183.075 63.7074 182.536 64.2577 181.956 64.3154C181.673 64.3468 181.501 64.2368 181.249 63.9432C180.988 63.634 180.742 63.1046 180.664 62.659C180.59 62.203 180.643 61.6054 180.878 61.2437C181.098 60.9083 181.438 60.7615 181.72 60.7248C181.872 60.7038 182.019 60.7196 182.155 60.7772C181.935 60.6829 182.306 60.9292 182.217 60.8087C182.526 61.2228 182.552 61.6211 182.437 62.1453C182.186 63.2408 181.249 64.698 180.214 65.2012C179.439 65.5787 178.686 65.0073 178.498 64.069C178.294 63.0574 178.66 62.0143 179.309 61.2647C180.187 60.2426 181.312 59.9123 182.657 59.9281C184.075 59.949 185.665 60.1377 186.947 60.7772C187.831 61.2175 188.882 62.0667 189.018 63.0836L192.591 62.5961C192.178 59.8285 190.912 57.2338 189.06 55.1424C188.202 54.1674 187.166 53.2711 185.974 52.7364C184.477 52.0655 182.903 52.034 181.318 52.3747C175.579 53.6118 171.932 59.4406 173.271 65.1226C173.81 67.3975 177.321 66.4331 176.782 64.1529L176.777 64.1581Z" fill="#FFA59B"/>
<mask id="mask2_6087_65876" style="mask-type:luminance" maskUnits="userSpaceOnUse" x="165" y="33" width="35" height="43">
<path d="M165.849 33.7554H200V75.3538H165.849V33.7554Z" fill="white"/>
</mask>
<g mask="url(#mask2_6087_65876)">
<path d="M192.974 34.8249C191.64 34.2798 190.165 35.1709 189.814 36.5233C189.521 37.6764 190.018 39.0655 190.656 40.0247C191.195 40.832 191.959 41.2618 192.874 41.4977C193.926 41.765 194.899 42.3363 195.94 42.5565C197.316 42.8448 198.723 42.1948 199.22 40.8529C199.702 39.5582 199.095 38.1482 198.326 37.1051C197.672 36.2192 196.835 35.5326 195.741 35.26C194.732 35.0136 193.696 35.1185 192.718 34.6991C191.263 34.0701 189.694 35.0975 190.044 36.7487C190.332 38.101 190.782 39.3957 191.839 40.334C192.848 41.2303 194.229 41.6916 195.391 42.3626C196.186 42.8238 197.457 42.6037 197.876 41.7073C198.122 41.2723 198.007 41.3404 197.536 41.9275H195.7C197.562 40.832 198.038 39.8989 197.138 39.1284C196.95 38.9397 196.756 38.7562 196.563 38.578C196.233 38.274 195.898 37.9857 195.553 37.7027C194.81 37.0946 194.046 36.5285 193.256 35.9886C191.922 35.087 190.154 36.5809 190.583 38.0434C191.111 39.8622 193.021 42.1372 195.072 42.2472C195.809 42.2892 196.479 41.9432 196.971 41.4138C197.201 41.1674 197.452 40.8005 197.588 40.4808C197.625 40.3917 197.714 40.2921 197.735 40.1977C198.153 39.5006 197.447 39.553 195.616 40.355L195.841 40.7533C195.951 41.8489 196.223 42.8186 196.191 43.9613C196.149 45.4394 196.06 46.9229 195.977 48.401C195.836 51.0167 195.668 53.627 195.527 56.2374C195.454 57.5583 195.407 58.8845 195.333 60.2054C195.244 61.7622 194.805 62.4279 193.408 63.1355C191.002 64.3516 188.328 65.4576 185.671 65.9503C182.814 66.485 180.151 67.2346 177.373 68.1257C175.684 68.676 173.994 69.2317 172.288 69.7401C171.781 69.8921 171.268 70.0546 170.75 70.1595C170.436 70.2276 170.123 70.2591 169.803 70.2957C169.647 70.3167 169.463 70.322 169.312 70.3586C168.804 70.4844 168.611 70.1699 169.442 70.605L170.274 71.69C170.808 73.3517 169.453 73.3884 170.436 72.7384C170.745 72.534 170.944 72.2509 171.289 72.0884C172.22 71.6534 173.418 71.7163 174.423 71.6953C176.599 71.6481 178.739 71.4594 180.863 70.9614C185.289 69.9079 189.406 67.8374 193.44 65.7983C192.827 64.75 192.215 63.7016 191.603 62.6585C187.507 64.8391 183.018 65.9608 178.378 65.9975C176.411 66.0185 175.804 69.2631 177.897 69.5724C181.135 70.0494 184.284 68.9172 187.292 67.7954C188.742 67.2555 190.175 66.6527 191.582 65.9975C192.252 65.683 192.922 65.358 193.581 65.0121C194.214 64.6818 195.114 63.9375 195.856 63.9323C198.195 63.9113 198.2 60.2736 195.856 60.2945C194.475 60.3102 193.419 60.9812 192.236 61.6154C190.829 62.3598 189.39 63.0569 187.92 63.665C186.534 64.2363 185.121 64.7447 183.688 65.1955C182.171 65.6673 180.471 66.3015 178.859 66.0657L178.378 69.6353C183.662 69.5934 188.778 68.2777 193.44 65.7931C195.516 64.6871 193.68 61.5997 191.603 62.6533C187.915 64.5141 184.185 66.3907 180.151 67.3866C178.242 67.8583 176.374 68.0103 174.418 68.0523C172.545 68.0942 170.368 68.1519 168.809 69.3155C168.077 69.8607 166.989 70.7203 166.748 71.6376C166.377 73.0214 167.554 74.0226 168.841 74.0331C170.792 74.0488 172.744 73.4146 174.58 72.838C176.981 72.0832 179.372 71.2812 181.778 70.5421C182.631 70.28 183.484 70.0494 184.337 69.8083C185.195 69.5671 183.934 69.8345 185.053 69.6982C186.136 69.5671 187.204 69.3627 188.25 69.0639C190.196 68.5136 192.053 67.7011 193.9 66.8834C195.6 66.1338 197.332 65.3056 198.263 63.6021C199.178 61.9299 198.985 59.7179 199.079 57.8781C199.184 55.7657 199.309 53.6532 199.435 51.5461C199.566 49.3707 199.691 47.2007 199.785 45.0254C199.874 42.9811 199.968 40.7795 198.985 38.9135C198.232 37.4877 196.605 36.235 195.129 37.6345C194.868 37.8809 194.428 38.4627 194.339 38.8401L194.229 39.0341C195.506 38.8925 195.778 38.6514 195.04 38.3159C194.706 37.8285 194.271 37.6974 194.088 37.0736C193.199 37.7551 192.309 38.4417 191.415 39.1232C192.806 40.0667 193.926 41.4977 195.344 42.3573C196.343 42.9601 197.656 42.6875 198.258 41.6654C199.681 39.2332 195.982 37.2361 194.737 39.8675C195.564 39.6526 196.395 39.4324 197.222 39.2123C196.343 38.7038 195.244 38.3526 194.428 37.7393C193.816 37.2833 193.717 36.5285 193.555 35.7737C192.66 36.4604 191.771 37.147 190.881 37.8285C191.938 38.2897 192.922 38.5518 194.067 38.6776C194.35 38.7091 194.747 38.6776 195.014 38.8244C195.281 38.9764 195.417 39.532 195.637 39.6211C195.747 39.9251 195.898 39.8308 196.108 39.3381C196.584 39.0865 196.652 38.9135 196.306 38.8139C196.223 38.6776 195.694 38.5308 195.548 38.4732C195.098 38.295 194.653 38.1639 194.182 38.0538C194.025 38.0172 193.508 37.8599 193.612 37.949C193.769 38.0853 193.56 37.8704 193.612 37.8809C193.555 37.797 193.518 37.7026 193.497 37.6031C193.319 36.9059 192.822 37.147 192.006 38.3317C194.172 39.2175 195.114 35.7003 192.974 34.8249Z" fill="#FFA59B"/>
</g>
<path d="M179.153 64.3572C178.19 64.3991 177.228 64.7766 176.328 65.0648C175.015 65.4894 173.712 65.9455 172.415 66.4172C171.295 66.8208 170.165 67.2297 169.082 67.7276C168.643 67.9321 168.219 68.1732 167.779 68.3881C166.451 69.0486 165.87 70.4796 166.513 71.8424C166.927 72.723 167.554 73.6246 168.507 73.9443C169.731 74.3637 171.169 73.9706 172.169 73.2C173.466 72.1988 174.319 70.3852 172.948 69.0328C172.493 68.5873 171.876 68.3357 171.253 68.2361C170.835 68.168 170.516 68.1522 170.097 68.2466C170.06 68.2518 169.474 68.4038 169.417 68.5663L169.349 68.6135C169.616 68.5192 169.668 68.4982 169.516 68.5401C169.412 68.5506 169.297 68.5873 169.187 68.6135C168.962 68.6764 168.705 68.7603 168.507 68.8756C168.454 68.9018 168.386 68.9909 168.329 69.0066C168.324 69.0066 168.826 68.8127 168.538 68.8861C168.972 68.7708 168.857 68.8546 168.711 68.8651C168.412 68.8913 168.104 68.907 167.816 68.9752C167.12 69.1429 166.466 69.6147 166.294 70.3538C166.063 71.3602 166.628 72.2722 167.523 72.7178C168.826 73.373 170.646 73.4359 171.938 72.7335C173.335 71.9682 174.136 70.1651 173.069 68.7865C171.996 67.4079 170.087 67.4131 168.632 68.1417C167.115 68.8966 165.833 70.9094 167.047 72.4819C168.078 73.8133 169.94 73.7661 171.431 73.4097C172.796 73.0899 174.052 72.3718 175.245 71.6694C176.061 71.182 176.432 70.0078 175.899 69.1796C175.365 68.3567 174.282 68.0107 173.409 68.5244C172.964 68.7865 172.524 69.0486 172.069 69.2844C171.839 69.405 171.609 69.5203 171.373 69.6199C171.593 69.5308 170.986 69.7614 170.924 69.7824C170.683 69.8558 170.442 69.9135 170.196 69.9659C169.841 70.034 170.332 69.9973 169.94 69.9868C169.814 69.9921 169.689 69.9921 169.563 69.9868C169.312 69.9659 169.312 69.9711 169.563 69.9921C169.26 69.8925 169.359 69.9606 169.856 70.2017C169.773 71.5646 169.867 71.9787 170.155 71.4336C170.039 71.5908 170.055 71.5856 170.202 71.4283C170.055 71.5279 170.071 71.5227 170.249 71.4021C170.437 71.3025 170.448 71.292 170.275 71.3654C170.385 71.3235 170.495 71.292 170.604 71.2711C170.196 71.3864 170.803 71.2711 170.777 71.2815C170.646 71.292 170.526 71.2606 170.416 71.1872C170.034 70.9199 169.883 70.5058 169.971 69.9397C169.998 69.8191 170.055 69.709 170.128 69.6094C170.291 69.4836 170.28 69.4784 170.102 69.5885C170.296 69.5151 170.291 69.5046 170.097 69.5623C170.243 69.5623 170.196 69.5623 169.966 69.578C169.83 69.5832 169.694 69.5832 169.553 69.578C169.694 69.6094 169.652 69.6042 169.427 69.557C169.307 69.5308 169.192 69.4994 169.077 69.4574C169.317 69.5203 169.506 69.6723 169.621 69.9239C169.684 70.3904 169.746 70.857 169.809 71.3235L169.814 71.2973C169.537 71.6589 169.255 72.0206 168.977 72.3823C168.705 72.5815 168.496 72.5553 168.742 72.4976C168.951 72.4505 168.308 72.5396 168.548 72.5238C168.821 72.5081 169.15 72.4662 169.406 72.419C169.647 72.3718 169.898 72.3037 170.107 72.1779C170.123 72.1674 170.186 72.1359 170.212 72.1202C169.888 72.267 170.338 72.0993 170.421 72.0783C170.688 71.9997 170.992 71.8948 171.222 71.7376C171.253 71.7114 171.358 71.6642 171.373 71.6327C171.295 71.8267 170.573 71.7585 170.427 71.769C170.526 71.7638 170.641 71.8581 170.735 71.8477C170.087 71.9158 170.578 70.3171 170.144 70.1598C170.207 70.1808 169.93 70.3695 170.139 70.1703C170.05 70.2594 169.757 70.4533 170.013 70.3013C170.019 70.2961 169.558 70.5267 169.799 70.4324C170.008 70.3433 169.684 70.4481 169.637 70.4691C169.464 70.5529 169.951 70.5425 169.563 70.4796C169.38 70.4533 169.396 70.4062 169.605 70.4953C169.558 70.4743 170.28 70.967 170.055 70.7416C170.369 71.0457 170.233 70.9932 170.155 70.8674C170.039 70.6945 169.924 70.5267 169.82 70.3485C169.778 70.2751 169.746 70.186 169.694 70.1179L169.678 70.0759C169.809 70.2699 169.856 70.4796 169.814 70.705V71.0247C169.731 71.334 169.558 71.5646 169.291 71.7166C169.291 71.7166 169.516 71.5803 169.495 71.5908C169.856 71.4021 170.228 71.2501 170.578 71.0509C170.672 70.9932 170.767 70.9408 170.866 70.8989C170.934 70.8622 171.002 70.836 171.07 70.8045C171.421 70.6473 170.62 70.988 171.013 70.8308C171.536 70.6158 172.059 70.4167 172.582 70.2175C173.9 69.73 175.224 69.2635 176.558 68.8179C177.186 68.6083 177.819 68.3986 178.462 68.2099C178.698 68.1417 178.933 68.0736 179.174 68.0159C179.252 67.995 179.336 67.9845 179.414 67.9583C179.749 67.8692 178.875 68.0055 179.137 67.995C180.089 67.9478 181.005 67.1877 180.958 66.1761C180.916 65.2273 180.157 64.31 179.137 64.3572H179.153Z" fill="#FFA59B"/>
<path d="M168.192 72.1461C170.206 72.8799 172.434 71.2235 174.077 70.2591C174.381 70.0808 174.768 69.7821 175.118 69.7034C174.574 69.8292 175.071 69.7401 175.207 69.6877C175.39 69.6196 175.573 69.5619 175.762 69.5043C176.091 69.3942 176.426 69.2998 176.761 69.2055C178.189 68.8176 179.523 68.6079 180.978 68.5293C180.549 67.4967 180.114 66.4588 179.685 65.4209C179.821 65.3056 179.659 65.4472 179.602 65.4838C179.492 65.5468 179.382 65.6097 179.267 65.6621C179.44 65.5834 179.225 65.6673 179.162 65.6883C179.037 65.725 178.916 65.7669 178.791 65.7984C178.205 65.9608 177.603 66.0814 177.007 66.2125C175.751 66.485 174.49 66.7523 173.219 66.9725C173.538 68.1414 173.863 69.3103 174.187 70.4792C176.222 69.976 178.179 69.1583 179.973 68.0733C181.537 67.1298 180.857 64.7343 179.052 64.6871C177.943 64.6557 176.913 64.9911 175.882 65.3738C174.857 65.7564 173.915 66.1076 172.931 66.4745C172.011 66.8153 171.383 67.7011 171.66 68.7075C171.948 69.7506 172.926 70.128 173.899 69.9813C175.071 69.803 176.222 69.541 177.352 69.1898C178.294 68.8962 178.89 67.9213 178.623 66.9515C178.367 66.0237 177.326 65.3895 176.384 65.683C175.249 66.0342 174.103 66.2963 172.931 66.4745C173.251 67.6382 173.575 68.8123 173.899 69.9813C174.81 69.6405 175.715 69.3051 176.625 68.9644C177.431 68.6656 178.268 68.2987 179.052 68.3249C178.749 67.1927 178.44 66.0657 178.137 64.9335C176.531 65.9032 175.045 66.5217 173.219 66.9725C172.267 67.2084 171.692 68.2777 171.948 69.2107C172.23 70.2329 173.214 70.647 174.187 70.4792C175.615 70.2329 177.028 69.9288 178.435 69.6143C179.848 69.3051 181.155 68.9644 182.265 67.9946C183.442 66.9725 182.516 64.8024 180.978 64.8863C178.273 65.0331 175.275 65.4891 172.853 66.7733C172.042 67.1979 171.278 67.7168 170.473 68.1466C170.242 68.2725 170.012 68.3825 169.777 68.4978C169.594 68.587 169.667 68.5241 169.808 68.4821C169.698 68.5188 169.594 68.566 169.484 68.5974C169.296 68.6551 168.835 68.7442 169.301 68.6603C169.233 68.6761 169.144 68.6708 169.081 68.6603C169.609 68.7337 169.301 68.6865 169.165 68.6341C168.244 68.2987 167.172 69.0115 166.926 69.9026C166.643 70.9195 167.271 71.8054 168.192 72.1409V72.1461Z" fill="#FFA59B"/>
<path d="M196.981 35.6687C196.447 35.2913 195.814 35.0083 195.176 34.851C194.438 34.6675 193.596 34.5889 192.848 34.7933C191.912 35.0554 191.116 35.7945 190.881 36.7485C190.682 37.5453 190.823 38.342 191.132 39.0863C191.619 40.2448 192.435 41.2879 193.512 41.9588C194.69 42.6874 196.322 42.8709 197.515 42.0741C198.325 41.5342 198.854 40.6484 198.812 39.6577C198.775 38.8242 198.404 38.1009 197.917 37.4457C197.07 36.2977 195.992 35.2441 194.543 34.9296C193.79 34.7671 192.958 34.7409 192.231 35.0292C191.66 35.2546 191.153 35.5639 190.823 36.1038C190.546 36.5493 190.405 37.105 190.457 37.6344C190.604 39.2279 191.676 40.4701 192.968 41.3245C194.046 42.0374 195.568 42.5511 196.85 42.1737C197.781 41.8959 198.55 41.1358 198.749 40.1714C198.932 39.275 198.702 38.4101 198.273 37.6186C197.645 36.455 196.735 35.4119 195.678 34.6256C194.496 33.745 192.811 33.5144 191.524 34.3216C190.761 34.7986 190.227 35.5482 190.107 36.4445C189.992 37.3041 190.222 38.1481 190.693 38.8819C191.388 39.9827 192.393 40.8318 193.591 41.3403C194.962 41.9169 196.772 42.0532 197.855 40.8109C198.55 40.0194 198.754 39.0496 198.582 38.0275C198.456 37.2832 198.027 36.6384 197.546 36.0723C197.117 35.5691 196.583 35.1603 196.06 34.7671C195.537 34.374 194.962 34.0595 194.339 33.8079C193.769 33.572 193.115 33.4357 192.497 33.5039C191.462 33.6244 190.64 34.0647 190.028 34.9139C189.17 36.1038 189.296 37.8178 190.044 39.0287C190.792 40.2343 191.985 41.1621 193.293 41.6443C194.03 41.9169 194.852 41.9378 195.61 41.7544C196.536 41.529 197.18 40.4282 196.882 39.5162C196.568 38.5517 195.636 38.0065 194.642 38.2477C194.548 38.2686 194.465 38.2843 194.37 38.2948C194.527 38.2739 194.69 38.2529 194.852 38.2319C194.7 38.2477 194.553 38.2424 194.397 38.2319L194.883 38.2948C194.637 38.2634 194.402 38.1952 194.172 38.1009L194.606 38.2896C194.25 38.1376 193.931 37.9331 193.628 37.7025L193.994 37.9856C193.664 37.7235 193.361 37.4404 193.099 37.1154L193.387 37.4824C193.225 37.2727 193.089 37.0473 192.984 36.8062C193.047 36.9477 193.104 37.0945 193.167 37.236C193.094 37.0578 193.047 36.8743 193.015 36.6804L193.083 37.1679C193.062 37.0054 193.062 36.8534 193.083 36.6909L193.015 37.1783C193.042 36.9896 193.083 36.8167 193.157 36.6489C193.094 36.7904 193.036 36.9372 192.974 37.0787C193.026 36.9634 193.089 36.8534 193.167 36.7485L192.885 37.1207C192.953 37.0368 193.021 36.9687 193.099 36.9005L192.733 37.1888C192.822 37.1207 192.911 37.063 193.015 37.0158L192.581 37.1993C192.712 37.1469 192.843 37.105 192.979 37.084L192.497 37.1469C192.665 37.1259 192.832 37.1259 193 37.1416L192.518 37.0787C192.811 37.1154 193.094 37.2045 193.371 37.3199C193.225 37.257 193.083 37.1941 192.937 37.1364C193.429 37.3513 193.873 37.6501 194.297 37.9698L193.931 37.6868C194.349 38.0118 194.752 38.3682 195.082 38.7875L194.799 38.4206C194.92 38.5884 195.03 38.7613 195.118 38.95C195.056 38.8033 194.998 38.6617 194.935 38.515C194.998 38.6722 195.045 38.8295 195.066 38.9972L195.003 38.515C195.014 38.6513 195.014 38.7823 195.003 38.9134L195.066 38.4311C195.05 38.5359 195.024 38.6355 194.993 38.7351C195.05 38.5884 195.113 38.4468 195.176 38.3001C195.134 38.3997 195.087 38.4888 195.024 38.5779L195.307 38.2057C195.239 38.2948 195.166 38.363 195.082 38.4311L195.448 38.1428C195.38 38.19 195.312 38.2267 195.239 38.2634L195.673 38.0799C195.547 38.1323 195.422 38.1638 195.286 38.1848L195.772 38.1218C195.579 38.1428 195.385 38.1376 195.186 38.1166L195.673 38.1795C195.364 38.1323 195.066 38.038 194.778 37.9174L195.213 38.1009C194.867 37.9541 194.548 37.7654 194.25 37.5453L194.616 37.8283C194.302 37.582 194.02 37.3041 193.769 36.9896C193.868 37.1102 193.962 37.236 194.056 37.3566C193.873 37.1154 193.716 36.8638 193.591 36.586C193.654 36.7275 193.716 36.8743 193.779 37.0158C193.722 36.8691 193.675 36.7223 193.654 36.5651L193.716 37.0525C193.706 36.9267 193.706 36.8062 193.716 36.6804L193.654 37.1679C193.669 37.0892 193.69 37.0158 193.716 36.9372C193.654 37.0787 193.591 37.2255 193.528 37.367C193.57 37.2779 193.612 37.1993 193.669 37.1207L193.387 37.4876C193.46 37.3932 193.544 37.3094 193.638 37.236C193.518 37.3303 193.392 37.4247 193.267 37.5191C193.371 37.4509 193.476 37.388 193.586 37.3356L193.151 37.5191C193.293 37.4666 193.434 37.4247 193.586 37.3985C193.429 37.4195 193.267 37.4457 193.104 37.4666C193.256 37.4457 193.397 37.4457 193.549 37.4666L193.062 37.3985C193.24 37.4299 193.413 37.4719 193.58 37.54L193.146 37.3566C193.392 37.4614 193.622 37.6029 193.842 37.7654L193.471 37.4771C193.941 37.8493 194.349 38.2948 194.721 38.7666C194.627 38.646 194.527 38.5202 194.433 38.3997C194.742 38.8033 195.03 39.2279 195.239 39.6891L195.056 39.2541C195.134 39.4428 195.197 39.6315 195.228 39.8411C195.207 39.6786 195.181 39.5162 195.16 39.3537C195.176 39.469 195.176 39.5686 195.16 39.6839L195.228 39.2016C195.213 39.2803 195.197 39.3537 195.166 39.4323L195.349 38.9972C195.312 39.0758 195.275 39.1387 195.223 39.2069C195.323 39.0863 195.417 38.9605 195.511 38.84C195.479 38.8767 195.443 38.9186 195.406 38.95C195.527 38.8557 195.652 38.7613 195.772 38.667C195.689 38.7246 195.61 38.7771 195.516 38.8138C195.657 38.7561 195.804 38.6932 195.95 38.6303C195.851 38.667 195.752 38.688 195.647 38.7089L196.133 38.6408C195.971 38.6565 195.809 38.6513 195.652 38.6355L196.133 38.6984C195.793 38.6513 195.464 38.5464 195.145 38.4101L195.579 38.5988C195.197 38.4311 194.841 38.2214 194.506 37.9698L194.878 38.2529C194.569 38.0118 194.297 37.7444 194.051 37.4352C194.151 37.561 194.245 37.6815 194.339 37.8073C194.187 37.6029 194.062 37.3933 193.957 37.1626L194.145 37.5924C194.088 37.4509 194.046 37.3041 194.025 37.1469L194.088 37.6344C194.083 37.54 194.077 37.4509 194.083 37.3566L194.02 37.8388C194.025 37.7759 194.041 37.7182 194.062 37.6553L193.873 38.0904C193.894 38.038 193.92 37.9856 193.957 37.9384C193.863 38.0589 193.769 38.1848 193.675 38.3106C193.706 38.2686 193.743 38.2267 193.784 38.1952L193.418 38.4783C193.486 38.4311 193.549 38.3892 193.628 38.3577L193.193 38.5412C193.361 38.473 193.528 38.4311 193.711 38.3997L193.225 38.4678C193.439 38.4416 193.654 38.4468 193.868 38.473L193.387 38.4049C193.633 38.4468 193.868 38.515 194.104 38.6093L193.669 38.4259C193.931 38.5412 194.166 38.688 194.391 38.8557C194.271 38.7613 194.145 38.667 194.025 38.5674C194.391 38.8609 194.71 39.2016 194.998 39.5686L194.71 39.2016C194.941 39.5057 195.16 39.8149 195.312 40.1661L195.129 39.7363C195.176 39.8516 195.207 39.9669 195.223 40.0927L195.16 39.6105C195.171 39.7049 195.166 39.7887 195.16 39.8831L195.223 39.4008C195.207 39.4795 195.192 39.5476 195.16 39.6262L195.343 39.1912C195.312 39.2541 195.281 39.3117 195.239 39.3694L195.527 39.0025C195.464 39.0706 195.406 39.1335 195.333 39.1912L195.699 38.9081C195.605 38.9815 195.506 39.0339 195.396 39.0863L195.83 38.8976C195.689 38.9553 195.547 38.9867 195.401 39.0077L195.888 38.9448C195.736 38.9605 195.589 38.9605 195.443 38.9448L195.929 39.0077C195.715 38.9763 195.506 38.9186 195.307 38.8347C195.453 38.8976 195.595 38.9605 195.741 39.0234C195.516 38.9238 195.307 38.798 195.108 38.6513C195.228 38.7456 195.354 38.8452 195.474 38.9396C195.186 38.7142 194.935 38.4573 194.716 38.169C194.81 38.2896 194.904 38.4154 194.998 38.5359C194.747 38.2057 194.527 37.8493 194.365 37.4666C194.428 37.6134 194.485 37.7549 194.548 37.9017C194.465 37.6973 194.407 37.4981 194.37 37.2779L194.433 37.7654C194.417 37.6344 194.412 37.5086 194.428 37.3828L194.36 37.865C194.376 37.7654 194.397 37.6763 194.433 37.582C194.37 37.7235 194.308 37.8702 194.245 38.0118C194.281 37.9436 194.313 37.886 194.355 37.8231L194.067 38.19C194.119 38.1271 194.172 38.0747 194.234 38.0223L193.868 38.3106C193.936 38.2581 194.004 38.2162 194.088 38.1795C193.941 38.2424 193.8 38.3001 193.654 38.363C193.764 38.321 193.868 38.2948 193.983 38.2739L193.502 38.3368C193.774 38.3001 194.046 38.321 194.318 38.3577C194.156 38.3368 193.999 38.3106 193.832 38.2896C194.182 38.342 194.512 38.4364 194.836 38.5779C194.69 38.515 194.548 38.4521 194.402 38.3892C194.663 38.5097 194.909 38.6513 195.145 38.8138C195.506 39.0758 196.128 39.1125 196.547 39.0025C196.97 38.8871 197.426 38.5569 197.635 38.1638C197.855 37.7444 197.97 37.2308 197.818 36.7642C197.666 36.2925 197.389 35.9623 196.981 35.674V35.6687Z" fill="#FFA59B"/>
<path d="M177.158 62.6949C177.143 62.4695 177.143 62.2441 177.158 62.0239C177.164 61.9715 177.169 61.9191 177.174 61.8667C177.174 61.8457 177.206 61.5836 177.179 61.7933C177.158 61.982 177.179 61.7933 177.19 61.7566C177.2 61.6937 177.211 61.6256 177.226 61.5574C177.279 61.3163 177.336 61.0752 177.415 60.8393C177.451 60.7135 177.488 60.5982 177.535 60.4776C177.551 60.4252 177.572 60.3728 177.593 60.3204C177.624 60.2417 177.723 60.0897 177.582 60.3361C177.828 59.9168 178.001 59.4712 178.283 59.0728C178.294 59.0519 178.372 58.9103 178.398 58.9103C178.383 58.9103 178.226 59.1148 178.351 58.9732C178.424 58.8894 178.503 58.8003 178.576 58.7164C178.613 58.6797 178.817 58.5329 178.817 58.491C178.817 58.5277 178.592 58.6325 178.754 58.5539C178.461 58.7059 177.996 58.6692 177.771 58.3966C177.666 58.2184 177.567 58.0402 177.462 57.862C177.462 57.689 177.462 57.6471 177.462 57.7414C177.462 57.7834 177.462 57.8201 177.457 57.862C177.446 58.0769 177.509 57.6471 177.467 57.7886C177.436 57.8987 177.42 58.0192 177.383 58.1346C177.368 58.1922 177.352 58.2499 177.331 58.3075C177.284 58.4386 177.2 58.4858 177.352 58.2813C177.284 58.3757 177.247 58.5067 177.19 58.6063C176.949 59.0676 176.641 59.4922 176.342 59.9168C175.657 60.8917 175.066 61.9296 175.034 63.1509C175.547 62.7578 176.06 62.3699 176.573 61.982C177.007 62.0816 177.174 62.6582 177.117 63.0251C177.216 62.4013 176.954 61.6885 176.269 61.5312C175.683 61.4002 174.883 61.7094 174.773 62.3804C174.705 62.8207 174.715 63.2138 174.951 63.6017C175.165 63.9529 175.526 64.2307 175.924 64.3198C176.703 64.498 177.441 63.9686 177.462 63.1509C177.462 63.0932 177.483 62.7263 177.467 62.957C177.451 63.1824 177.493 62.8574 177.509 62.8049C177.535 62.7001 177.567 62.6005 177.603 62.5009C177.619 62.459 177.645 62.4118 177.655 62.3699C177.635 62.459 177.546 62.6005 177.635 62.4275C177.828 62.0449 178.053 61.6832 178.304 61.332C178.833 60.5615 179.371 59.8172 179.68 58.9208C179.879 58.3285 180.031 57.4898 179.675 56.929C179.398 56.5044 178.927 56.2056 178.414 56.2161C177.928 56.2266 177.514 56.431 177.153 56.735C176.389 57.3588 175.835 58.2971 175.448 59.1934C174.982 60.2942 174.658 61.4945 174.726 62.7054C174.762 63.3344 175.259 63.9476 175.94 63.9162C176.567 63.89 177.19 63.3815 177.153 62.7054L177.158 62.6949Z" fill="white"/>
<path d="M193.042 41.8971C192.085 49.4557 191.807 57.0772 192.205 64.6829C192.33 67.0627 195.584 66.9683 195.846 64.6829C196.186 61.7266 196.526 58.7755 196.861 55.8244C197.185 53.0044 197.431 50.1633 198.08 47.3957C198.608 45.1208 195.098 44.1458 194.569 46.4312C193.884 49.3718 193.617 52.3911 193.277 55.3841C192.916 58.482 192.566 61.5851 192.205 64.6829H195.846C195.443 57.0772 195.72 49.461 196.678 41.9024C196.803 40.9274 195.757 40.0835 194.862 40.0835C193.774 40.0835 193.167 40.9222 193.042 41.9024V41.8971Z" fill="#FFA59B"/>
<path d="M26.6898 65.1228C28.0291 59.446 24.3775 53.6171 18.6437 52.3801C17.0586 52.0394 15.4839 52.0708 13.9877 52.7418C12.7949 53.2764 11.759 54.1728 10.9011 55.1425C9.04911 57.2392 7.78308 59.8286 7.36979 62.6015C8.56258 62.7587 9.75536 62.9212 10.9482 63.0837C11.0842 62.0301 12.209 61.1495 13.1402 60.7197C14.448 60.1169 16.0227 59.9282 17.4509 59.9282C18.7379 59.9282 19.8208 60.2846 20.6526 61.2648C21.3223 62.0511 21.7722 63.2515 21.4007 64.3103C21.0973 65.1804 20.4015 65.5683 19.643 65.1437C18.6437 64.5881 17.6864 63.1309 17.498 62.0144C17.4143 61.5322 17.4562 61.1967 17.7439 60.8088C17.6602 60.9294 18.0316 60.683 17.8119 60.7774C17.8538 60.7564 18.1467 60.7197 17.8956 60.7302C17.9061 60.7302 18.4502 60.7564 18.199 60.7145C18.6071 60.7826 18.8687 60.8927 19.0989 61.2439C19.3081 61.5636 19.3657 62.2136 19.2977 62.6539C19.2244 63.0942 18.9942 63.6184 18.7117 63.9486C18.4345 64.2788 18.2514 64.3679 17.8904 64.2841C16.9487 64.0587 15.6513 62.7011 15.3636 61.7785C15.3165 61.616 15.3165 61.3435 15.3217 61.333C15.3479 61.1967 15.4263 61.0499 15.4891 60.9608C15.8501 60.4471 16.4256 60.0697 16.9644 59.7657C17.3829 59.5351 17.8695 59.2939 18.3612 59.4093C18.4972 59.4407 18.5443 59.4669 18.7013 59.6137C18.8687 59.7657 18.9524 59.8915 19.0884 60.185C19.8574 61.7838 18.8425 64.4466 16.8912 64.9655C16.0907 65.1804 15.0601 64.9603 14.448 64.4675C13.7209 63.8805 13.4541 62.9946 13.7156 61.9567C14.2074 60.0645 16.7813 57.4803 18.7745 58.9375C19.5645 59.5141 19.6011 60.5729 19.2035 61.464C18.7797 62.3918 17.655 62.9999 16.6244 63.2515C15.5885 63.5031 14.2963 63.5293 13.4854 62.8269C12.8315 62.2555 12.7635 61.2229 13.0878 60.4C13.8935 58.3347 17.1109 57.9416 18.9105 59.079C20.9456 60.3685 20.5218 62.9999 18.4135 63.7127C16.6453 64.3155 12.8734 63.3039 13.5168 60.9765C13.8673 59.708 15.0758 58.8536 16.1221 58.1722C16.5302 57.9101 16.9696 57.6114 17.4509 57.5118C17.5399 57.496 17.6864 57.669 17.519 57.496C17.6445 57.6271 17.7282 57.8734 17.7753 58.2037C17.8642 58.8117 17.5608 60.075 16.7918 60.4262C16.6139 60.51 16.6662 60.4786 16.4622 60.4524C16.6348 60.4733 16.3471 60.4052 16.2791 60.3737C16.1954 60.3266 16.0175 60.3004 16.1901 60.3266C16.0646 60.3056 16.075 60.0592 16.1221 60.2689C16.1954 60.5729 16.1169 60.2008 16.1012 60.2008C16.2268 60.206 16.0907 60.3633 16.0855 60.379C16.1431 60.2427 16.2372 60.1012 16.3262 60.0225C16.3889 59.9649 16.9121 59.7395 16.9278 59.6976C16.9278 59.6923 16.8702 59.6818 16.8702 59.6766C16.729 59.5613 16.5825 59.446 16.4308 59.3306C16.4151 59.2258 16.4203 59.231 16.4517 59.3568C16.4726 59.3044 16.436 59.8758 16.457 59.7657C16.3785 60.2008 16.164 60.5834 15.871 60.8245C15.9913 60.7302 15.5728 61.029 15.7821 60.8927C15.6356 60.9923 15.5728 60.856 15.6827 60.9189C15.9757 61.1076 15.5571 60.7511 15.7716 60.9765C15.667 60.8665 15.6304 60.7197 15.599 60.5677C15.6199 60.6673 15.5833 60.8193 15.6042 60.4681C15.599 60.5415 15.4943 60.7511 15.6199 60.3737C15.7507 59.9911 16.1221 59.6923 16.5459 59.4879C16.8441 59.3411 17.4143 59.1 17.7596 59.2415C17.7753 59.2468 17.8642 59.3988 17.9009 59.4564C18.063 59.7133 18.0735 59.7657 18.1572 60.1431C18.5234 61.8152 17.0063 63.3091 15.306 62.8478C14.7619 62.7011 13.5901 62.1507 13.7418 61.2648C13.9197 60.2532 15.2589 59.3726 16.1064 59.0004C16.9487 58.6335 17.9479 58.5287 18.7274 58.9061C19.6116 59.3306 20.6893 59.1472 21.2124 58.2508C21.6832 57.4541 21.4531 56.1856 20.5585 55.761C18.3769 54.7127 15.9704 54.8961 13.8621 56.065C11.7538 57.2339 9.59319 59.7343 10.221 62.3656C10.765 64.6562 12.9257 66.2078 15.1752 66.5066C17.4509 66.8106 19.6586 65.8304 20.8933 63.8752C22.0547 62.0354 22.1541 59.5036 21.0398 57.6218C19.554 55.111 16.3157 55.1425 14.1132 56.715C12.1043 58.146 11.215 60.8822 12.7635 63.0051C14.4847 65.3639 17.6027 64.7453 19.146 62.5595C20.5218 60.6096 20.6212 56.9614 17.8433 56.1646C15.2171 55.4151 12.188 58.0779 12.5281 60.7407C12.8367 63.1361 15.5519 64.6353 17.8015 63.9276C20.1399 63.1833 21.5315 60.6201 21.4112 58.2508C21.2804 55.4832 19.0727 53.1978 16.1744 54.1046C14.8927 54.503 13.7627 55.3417 12.7269 56.1646C11.7643 56.9247 10.9063 57.8734 10.3936 58.9952C9.22698 61.5584 9.928 64.2264 12.1776 65.9038C14.1551 67.3767 17.0115 67.9847 19.3814 67.2247C21.7931 66.4542 23.6608 64.3942 23.8962 61.8414C24.1211 59.3568 22.5935 56.9037 20.4224 55.7558C16.0384 53.4389 9.46763 55.7191 9.27406 61.1967C9.18513 63.7127 10.7441 65.9195 13.1297 66.6953C15.3688 67.4291 18.1938 66.9783 20.1295 65.6574C22.243 64.2159 23.4044 61.8205 22.9597 59.2677C22.5098 56.6678 20.1086 54.9695 17.5451 54.9381C12.5595 54.8699 8.11266 61.139 10.7546 65.6784C11.8637 67.5759 14.0871 68.7029 16.2634 68.6871C18.6437 68.6714 20.8044 67.2404 21.9658 65.1961C23.1324 63.1361 23.3312 60.5991 22.2849 58.45C21.0607 55.9392 18.3037 55.2106 15.8396 56.2904C13.6999 57.2287 11.4818 59.2363 11.6858 61.7733C11.7957 63.2357 12.6432 64.4413 13.5848 65.5106C14.4323 66.4804 15.4787 67.2981 16.7028 67.7279C19.4128 68.6714 21.7774 66.6691 22.6354 64.2264C23.4672 61.8676 22.7139 58.9742 20.4538 57.7109C18.1938 56.4529 15.3479 57.2025 14.2963 59.5875C13.1506 62.1769 14.4323 64.9131 16.164 66.9049C17.859 68.8496 20.6683 69.7355 22.9074 68.1263C25.0524 66.5852 25.6487 63.6708 24.7698 61.2491C23.9276 58.9532 21.9762 57.0715 19.554 56.5368C16.9749 55.9602 13.9458 56.411 11.555 57.4803C9.1642 58.5549 7.65752 60.5729 7.31747 63.0994C7.19715 63.9801 8.1022 64.7925 8.89739 64.8869C9.70305 64.9812 10.7598 64.4885 10.8906 63.5817C11.1888 61.6003 11.9055 59.7133 13.1559 58.1198C14.3173 56.6469 15.7193 55.478 17.6916 55.9025C21.4426 56.7098 24.1002 60.3318 23.1899 64.174C22.6511 66.4489 26.1614 67.4186 26.7003 65.1385L26.6898 65.1228Z" fill="#FFA59B"/>
<path d="M7.95033 38.3376C7.47949 38.0283 7.00342 37.7191 6.53258 37.415L6.39133 37.8082C6.37041 37.8134 6.24485 38.044 6.31809 37.9759C6.49073 37.8134 6.04082 38.0021 5.88911 38.0336C5.45489 38.1227 5.03636 38.2328 4.62308 38.39C4.38242 38.4844 4.04761 38.5787 3.83835 38.7255L3.46168 38.9194C3.83311 39.8682 4.11562 40.1093 4.31965 39.6323C4.5603 39.4908 4.63877 39.0243 4.9265 38.8513C5.16192 38.715 5.47581 38.7412 5.74262 38.6993C6.93541 38.5368 7.95556 38.3166 9.06987 37.8396C8.18052 37.1582 7.29116 36.4715 6.39656 35.7849C6.23962 36.5397 6.13499 37.2892 5.5229 37.7505C4.71201 38.3638 3.61339 38.715 2.72926 39.2234C3.56108 39.4436 4.38766 39.6585 5.21947 39.8787C3.97437 37.2578 0.286138 39.2287 1.69865 41.6766C2.29504 42.7092 3.60816 42.9556 4.61261 42.3632C5.26655 41.9753 5.79494 41.2939 6.36517 40.796C7.0505 40.1879 7.77769 39.648 8.53626 39.1396C7.6469 38.4529 6.75754 37.7662 5.86295 37.0848C5.73739 37.5146 5.55952 37.761 5.23516 38.065L4.91081 38.3271C4.17316 38.6678 4.4452 38.9037 5.7217 39.0452C5.74262 38.8513 5.33979 38.3166 5.21424 38.1332C4.3615 36.8961 2.80774 36.6917 1.74573 37.782C-0.87526 40.471 0.181508 45.6288 0.364611 48.9469C0.584335 52.8677 0.69943 56.8147 1.00286 60.7303C1.14934 62.5649 1.67773 64.1269 3.15302 65.3063C4.69109 66.5329 6.73661 67.23 8.54672 67.9639C10.4458 68.7344 12.3762 69.3634 14.4113 69.6412C14.4479 69.6517 16.0697 69.9033 15.1751 69.7303C15.2692 69.7461 15.3634 69.767 15.4523 69.788C15.9232 69.8928 16.3888 70.0239 16.8492 70.1601C19.1039 70.8049 21.3221 71.5597 23.556 72.2726C25.3556 72.8544 27.1814 73.5463 29.0595 73.8084C30.0692 73.9447 31.4033 74.3168 32.3554 73.756C33.7418 72.933 33.3128 71.371 32.3868 70.438C31.1208 69.1642 29.7867 68.4828 27.9975 68.2364C25.7898 67.9272 23.5612 68.1421 21.3587 67.7385C16.7393 66.8998 12.507 64.7664 8.35316 62.6697C6.27624 61.6161 4.43474 64.7035 6.51689 65.8095C11.1782 68.2941 16.2946 69.6045 21.5785 69.6517C21.4163 68.4618 21.2541 67.272 21.0919 66.0821C19.5643 66.3075 17.9739 65.7361 16.53 65.2906C15.0077 64.8241 13.5062 64.2894 12.0362 63.6814C10.6498 63.1048 9.29483 62.46 7.96602 61.7577C6.63721 61.0605 5.56998 60.3267 4.09469 60.3109C1.7562 60.29 1.7562 63.9277 4.09469 63.9487C4.80618 63.9592 5.5229 64.5777 6.12976 64.9027C6.7837 65.2434 7.45333 65.5789 8.12297 65.8986C9.60349 66.5958 11.1206 67.2405 12.6639 67.8119C15.6668 68.9388 18.8162 70.0606 22.0598 69.5888C24.1314 69.2848 23.5664 66.0349 21.5732 66.0139C16.9329 65.9772 12.4442 64.8503 8.34792 62.6697C7.73583 63.7181 7.12375 64.7664 6.51166 65.8148C10.5452 67.8538 14.6676 69.9243 19.0883 70.9726C21.2175 71.4811 23.3572 71.6645 25.5335 71.7065C26.4752 71.7274 27.5686 71.6593 28.4579 72.0262C28.8555 72.1887 29.0962 72.3774 29.4048 72.6552C30.4407 73.5778 29.3002 72.8859 29.6769 71.7065C29.9541 71.3448 30.2314 70.9831 30.5087 70.6162C31.1103 70.3069 31.1365 70.4275 30.4825 70.3593C30.1372 70.3174 29.7815 70.286 29.4414 70.2283C28.9915 70.1444 28.5573 70.0186 28.1179 69.8928C26.6949 69.484 25.2876 69.0175 23.8803 68.5667C21.3169 67.7385 18.6907 66.6692 16.0278 66.2131C13.365 65.7519 10.9114 65.0757 8.39501 63.9854C7.42194 63.5608 6.1873 63.1677 5.37118 62.4548C4.31965 61.5375 4.59692 59.7239 4.53414 58.4606C4.40858 55.8135 4.24117 53.1717 4.08946 50.5246C3.93775 47.8985 3.60293 45.178 3.75987 42.5415C3.79649 41.9177 4.02145 41.3621 4.10515 40.7645C4.17839 40.6282 4.25687 40.4972 4.33011 40.3661L2.16426 40.1198C2.1381 40.2246 2.37875 40.4972 2.41537 40.5968C2.68741 41.3306 3.46168 42.0225 4.21502 42.2007C6.48027 42.7511 8.81876 39.9416 9.36807 38.0545C9.79706 36.6026 8.03403 35.0982 6.69476 36.005C5.9048 36.5397 5.13576 37.1058 4.39812 37.7138C4.05284 37.9969 3.71802 38.2904 3.38843 38.5892L3.0013 38.9561C1.92884 39.7738 2.34213 40.7697 4.25164 41.9387H2.41537C1.94453 41.3568 1.82944 41.2834 2.07009 41.7185C2.49384 42.6096 3.77034 42.8298 4.5603 42.3737C5.71647 41.708 7.10282 41.2467 8.1125 40.3452C9.16927 39.4069 9.61395 38.1174 9.90692 36.7651C10.2574 35.0982 8.68274 34.0865 7.23361 34.7103C6.29193 35.1139 5.3084 35.0353 4.33011 35.2502C3.27334 35.4861 2.4363 36.0941 1.77189 36.9328C0.945312 37.9811 0.301833 39.344 0.683735 40.6964C1.09179 42.1431 2.58801 42.8664 4.01099 42.5729C5.0259 42.358 5.94665 41.7866 6.97203 41.535C7.86139 41.3149 8.58334 40.9689 9.15358 40.2246C9.86507 39.2916 10.3882 37.8816 10.1737 36.7126C9.91215 35.2764 8.37408 34.2648 6.97726 34.8413C4.8428 35.7167 5.77924 39.2392 7.9451 38.3481L7.95033 38.3376Z" fill="#FFA59B"/>
<path d="M20.8047 67.9944C21.0506 68.0048 20.245 67.8686 20.4908 67.9472C20.5588 67.9682 20.6269 67.9734 20.6949 67.9944C20.8832 68.0363 21.0715 68.0887 21.2546 68.1411C21.7935 68.2984 22.3323 68.4661 22.8607 68.6391C24.1948 69.0794 25.5236 69.5407 26.8419 70.0229C27.4174 70.2326 27.9876 70.4475 28.5526 70.6729C28.6677 70.7148 28.7828 70.762 28.8979 70.8092C29.3164 70.9769 28.673 70.7043 28.8194 70.7725C28.9607 70.8406 29.1019 70.8983 29.238 70.9664C29.442 71.0765 29.6356 71.2075 29.8448 71.3071C30.007 71.3858 30.1744 71.4487 30.3366 71.5273C30.4098 71.564 30.4831 71.6112 30.5563 71.6479C30.7237 71.7579 30.6871 71.7265 30.4517 71.564L30.1378 71.0136C30.0959 70.9035 30.075 70.2536 30.2686 70.0753C30.2215 70.1173 30.1849 70.2326 30.1535 70.2955C30.0645 70.4527 29.9651 70.61 29.8605 70.762C29.8239 70.8144 29.7402 70.9035 29.7245 70.9507C29.8082 70.6834 29.9651 70.6781 29.8396 70.7882C29.7663 70.8564 30.347 70.3846 30.5354 70.4685C30.4464 70.4318 30.0645 70.3846 30.3941 70.4789C30.2895 70.4475 30.1849 70.4265 30.0802 70.3898C30.4307 70.5052 30.0227 70.3374 29.939 70.285C30.2319 70.4632 29.9442 70.2588 29.871 70.2169C29.7873 70.1225 29.7925 70.1435 29.8971 70.2798L29.8082 70.1435C29.6669 70.6834 29.5257 71.2233 29.3844 71.7632C29.1909 71.8366 29.1595 71.8523 29.285 71.8156C29.5518 71.8051 29.5623 71.7841 29.285 71.8051C28.0295 71.889 28.4532 71.4487 28.6625 71.6793C28.7096 71.7317 28.788 71.7632 28.8508 71.7999C28.9868 71.8732 29.2693 71.9938 29.4629 72.0462C29.5152 72.062 29.9808 72.193 29.8082 72.1249C29.6356 72.0515 29.8134 72.1511 29.8134 72.1563C29.8396 72.2664 30.2267 72.3398 30.3994 72.3817C30.6871 72.4498 30.9957 72.476 31.2939 72.5023C31.3724 72.5127 31.6235 72.5442 31.3096 72.5023C31.137 72.476 31.1161 72.476 31.2521 72.497C31.4404 72.5442 31.3463 72.5023 30.9696 72.3712C30.6923 72.0095 30.415 71.6479 30.1378 71.2862L30.143 71.3176C30.2058 70.8511 30.2686 70.3846 30.3313 69.9128C30.4517 69.6612 30.6348 69.504 30.8754 69.4516C30.7603 69.4883 30.6452 69.5197 30.5249 69.5459C30.3 69.5931 30.2529 69.6036 30.3994 69.5669C30.2633 69.5774 30.1221 69.5774 29.9861 69.5669C29.7506 69.5564 29.7088 69.5512 29.8553 69.5512C29.6617 69.4935 29.6565 69.504 29.85 69.5826C29.6669 69.4725 29.6617 69.4778 29.8239 69.5983C29.8971 69.6979 29.9494 69.808 29.9808 69.9286C30.0698 70.4947 29.9233 70.914 29.5362 71.1761C29.4263 71.2495 29.306 71.2809 29.1699 71.2704C29.1647 71.2547 29.7768 71.3596 29.3426 71.26C29.4577 71.2809 29.5675 71.3176 29.6774 71.3543C29.5048 71.2809 29.5152 71.2967 29.7036 71.391C29.8814 71.5116 29.8971 71.5168 29.7506 71.4172C29.8971 71.5797 29.9076 71.5797 29.7977 71.4277C30.0802 71.9676 30.1796 71.5587 30.0959 70.1907C30.5929 69.9495 30.6871 69.8814 30.3889 69.981C30.64 69.96 30.64 69.96 30.3889 69.9757C30.2633 69.981 30.1378 69.981 30.0122 69.9757C29.4943 69.9757 30.2633 70.0544 29.7559 69.9548C29.51 69.9076 29.2693 69.8447 29.0287 69.7713C28.9659 69.7503 28.3591 69.5197 28.5788 69.6141C28.3434 69.5145 28.1132 69.3939 27.883 69.2786C27.4278 69.0375 26.9884 68.7806 26.5437 68.5185C25.7224 68.0311 24.5087 68.3036 24.0535 69.1685C23.5931 70.0491 23.8338 71.1394 24.7075 71.6583C25.7747 72.2926 26.8785 72.9006 28.0661 73.278C29.2536 73.6502 30.8963 73.8494 32.0734 73.2099C33.7318 72.3031 33.6586 70.2064 32.4501 68.9641C31.5032 67.9944 30.1325 67.5069 28.788 67.6851C27.0826 67.9157 25.9107 69.5879 26.6117 71.2442C27.2029 72.6385 28.7724 73.2256 30.1901 73.2151C30.933 73.2099 31.77 73.0736 32.4292 72.7119C33.261 72.2664 33.9673 71.3491 33.6586 70.3479C33.4336 69.635 32.8896 69.1633 32.1781 68.9798C31.9113 68.9117 31.6235 68.9012 31.3515 68.875C31.2835 68.8645 31.1893 68.8697 31.1318 68.8488C31.4247 68.8959 31.5084 68.9012 31.3724 68.875C31.2207 68.8383 31.3044 68.8802 31.6235 69.0008C31.3724 68.9274 31.1213 68.702 30.844 68.6286C30.7446 68.5972 30.6086 68.571 30.504 68.5605C30.1221 68.5081 30.6086 68.6443 30.5668 68.5867C30.2215 68.0835 29.2013 68.1516 28.6991 68.2355C27.1035 68.4923 25.7799 69.9443 26.4757 71.6007C26.9884 72.8063 28.223 73.7393 29.4995 74.0014C30.1482 74.1324 30.8126 74.1586 31.4457 73.9385C32.1258 73.7079 32.5286 73.2623 32.9314 72.691C33.5958 71.7474 34.0143 70.6152 33.4232 69.5145C32.9471 68.6339 31.9897 68.3403 31.1841 67.8843C30.3732 67.4283 29.3792 67.098 28.4742 66.7521C27.0198 66.2122 25.555 65.6932 24.0849 65.211C23.0386 64.8651 21.9086 64.3985 20.7995 64.3461C19.8474 64.3042 18.9371 65.2162 18.9789 66.165C19.0208 67.1871 19.7794 67.9367 20.7995 67.9839L20.8047 67.9944Z" fill="#FFA59B"/>
<path d="M30.7966 68.6405C30.6815 68.6824 30.4879 68.651 30.7442 68.6824C31.0372 68.7243 30.7861 68.6772 30.7129 68.6719C30.4984 68.6405 31.1209 68.7768 30.7913 68.6824C30.7076 68.6614 30.6239 68.6457 30.5402 68.6195C30.4408 68.5933 30.3205 68.5304 30.2159 68.5147C29.9961 68.478 30.5716 68.6877 30.1792 68.5042C29.97 68.3994 29.7659 68.2998 29.5567 68.1949C28.7249 67.7494 27.9454 67.22 27.1136 66.7797C24.6861 65.4954 21.6885 65.0394 18.9838 64.8926C17.4562 64.814 16.5197 66.9736 17.6968 68.001C18.8059 68.9707 20.119 69.3114 21.5263 69.6207C22.9336 69.9352 24.3461 70.2392 25.7743 70.4856C26.7369 70.6533 27.7309 70.2287 28.0134 69.2171C28.2697 68.284 27.6995 67.2147 26.7421 66.9788C24.9216 66.5281 23.4306 65.9095 21.8245 64.9451C21.5211 66.072 21.2124 67.199 20.909 68.3312C21.7042 68.305 22.5307 68.6719 23.3364 68.9707C24.2467 69.3114 25.157 69.6469 26.062 69.9876C26.3864 68.8187 26.7107 67.6445 27.0299 66.4809C25.858 66.3027 24.7123 66.0406 23.577 65.6894C22.6406 65.3958 21.5943 66.0353 21.338 66.9579C21.0711 67.9328 21.6675 68.9026 22.6092 69.1961C23.7445 69.5473 24.8902 69.8094 26.062 69.9876C27.0299 70.1291 28.0186 69.7412 28.3011 68.7191C28.5836 67.6917 27.9558 66.8216 27.0299 66.4809C26.0463 66.114 25.0628 65.747 24.0793 65.3801C23.0487 64.9975 22.0233 64.662 20.909 64.6935C19.1093 64.7459 18.424 67.1361 19.9882 68.0796C21.7774 69.1647 23.7445 69.9824 25.7743 70.4856C26.0986 69.3167 26.423 68.1478 26.7421 66.9788C25.4709 66.7587 24.2101 66.4914 22.9545 66.2188C22.3895 66.093 21.8193 65.9777 21.2595 65.8309C21.1392 65.7995 21.0136 65.7628 20.888 65.7261C20.8567 65.7103 20.5428 65.6055 20.6526 65.6474C20.7573 65.6946 20.4695 65.5531 20.4381 65.5321C20.391 65.5059 20.1033 65.2858 20.2707 65.4273C19.8417 66.4599 19.4075 67.4978 18.9785 68.5304C20.3963 68.609 21.6885 68.8082 23.0801 69.1804C23.4201 69.2695 23.7549 69.3691 24.0845 69.4739C24.2728 69.5316 24.4559 69.5892 24.639 69.6521C24.7071 69.6783 25.3139 69.8985 24.9529 69.757C24.6704 69.6469 25.1727 69.867 25.2721 69.9195C25.4761 70.0295 25.6801 70.1449 25.8789 70.2602C27.5216 71.2247 29.7503 72.8863 31.7644 72.1472C32.6851 71.8117 33.3129 70.9154 33.0357 69.909C32.7898 69.0231 31.7225 68.2998 30.7966 68.6405Z" fill="#FFA59B"/>
<path d="M4.81167 38.809C5.04709 38.6465 5.29297 38.505 5.55454 38.3844C5.40806 38.4473 5.26681 38.5102 5.12033 38.5679C5.44468 38.4316 5.77427 38.3373 6.12478 38.2849L5.63825 38.3478C5.91029 38.3163 6.18233 38.3006 6.45437 38.332L5.97306 38.2691C6.08816 38.2901 6.19279 38.3163 6.30265 38.3582C6.15617 38.2953 6.01492 38.2377 5.86843 38.1748C5.95214 38.2115 6.02015 38.2534 6.08816 38.3006C5.96783 38.2062 5.84228 38.1119 5.72195 38.0175C5.78473 38.0699 5.83181 38.1224 5.88936 38.1853L5.60163 37.8183C5.64348 37.8812 5.67487 37.9389 5.71149 38.007C5.64871 37.8603 5.58593 37.7187 5.52315 37.572C5.55977 37.6716 5.5807 37.7607 5.59639 37.8603L5.52838 37.378C5.54408 37.5038 5.53885 37.6296 5.52315 37.7607C5.54408 37.5982 5.565 37.4357 5.58593 37.2732C5.54931 37.4881 5.49176 37.6925 5.40806 37.897L5.59116 37.4619C5.42899 37.8445 5.20926 38.201 4.95815 38.5312C5.05232 38.4107 5.14648 38.2849 5.24065 38.1643C5.02093 38.4526 4.76981 38.7094 4.48208 38.9348L4.84829 38.6465C4.64949 38.7933 4.44023 38.9191 4.21527 39.0135L4.64949 38.83C4.45069 38.9139 4.24143 38.9715 4.02694 39.003L4.51347 38.9401C4.36699 38.9558 4.2205 38.9558 4.06879 38.9401L4.55532 39.003C4.40884 38.982 4.26759 38.9453 4.12634 38.8929L4.56055 39.0764C4.45069 39.0292 4.35129 38.9768 4.25712 38.9034L4.62333 39.1864C4.55009 39.1288 4.49254 39.0659 4.42976 38.9977L4.7175 39.3647C4.67565 39.3017 4.64426 39.2493 4.61287 39.1864L4.79597 39.6215C4.76458 39.5429 4.74889 39.4747 4.73319 39.3909L4.79597 39.8783C4.78551 39.784 4.78551 39.7001 4.79597 39.6058L4.73319 40.088C4.75412 39.9622 4.78551 39.8469 4.82736 39.7316L4.64426 40.1614C4.79597 39.8102 5.01569 39.5009 5.24588 39.1969L4.95815 39.5638C5.24588 39.1917 5.55977 38.851 5.93121 38.5627L5.56501 38.851C5.78996 38.678 6.02538 38.5365 6.28696 38.4211C6.14047 38.484 5.99922 38.5417 5.85274 38.6046C6.08816 38.5102 6.32358 38.4421 6.56946 38.4002L6.08816 38.4683C6.30265 38.4369 6.51714 38.4369 6.73164 38.4578L6.2451 38.3949C6.42821 38.4211 6.59562 38.4683 6.76303 38.5365C6.61654 38.4736 6.47529 38.4107 6.32881 38.3478C6.40728 38.3897 6.47006 38.4264 6.53807 38.4736C6.41774 38.3792 6.29219 38.2849 6.17186 38.1905C6.21371 38.222 6.25033 38.2586 6.28172 38.3006L5.99922 37.9337C6.03584 37.9808 6.062 38.0333 6.08293 38.0857L5.89459 37.6506C5.91552 37.7135 5.93121 37.7712 5.93644 37.8341L5.87367 37.3466C5.8789 37.4462 5.87367 37.5353 5.86843 37.6296C5.88936 37.4671 5.91029 37.3046 5.93121 37.1422C5.91029 37.2994 5.86843 37.4462 5.81089 37.5877L5.99922 37.1579C5.89982 37.3885 5.76903 37.5982 5.61732 37.8026L5.90505 37.4305C5.65917 37.7397 5.38713 38.007 5.07847 38.2482L5.44991 37.9651C5.11509 38.2167 4.75935 38.4264 4.37745 38.5889L4.81167 38.4054C4.49254 38.5365 4.16296 38.6465 3.82291 38.6937L4.30421 38.6308C4.14203 38.6465 3.98508 38.6518 3.82291 38.636L4.30944 38.699C4.20481 38.6885 4.11064 38.6623 4.00601 38.6256L4.44023 38.809C4.34606 38.7671 4.26759 38.7199 4.18388 38.657L4.55009 38.9453C4.51347 38.9139 4.47685 38.8772 4.44546 38.8352L4.73319 39.2022C4.68088 39.134 4.64426 39.0711 4.60764 38.9925L4.79074 39.4276C4.75935 39.3489 4.74366 39.2755 4.72796 39.1917L4.79597 39.6792C4.78028 39.5638 4.78551 39.4642 4.79597 39.3489L4.72796 39.8312C4.75935 39.6267 4.82213 39.438 4.9006 39.2493L4.7175 39.6792C4.92676 39.2231 5.21449 38.7985 5.52315 38.3949L5.23542 38.7619C5.60686 38.2901 6.01492 37.8445 6.48575 37.4724L6.11432 37.7607C6.33404 37.5929 6.56423 37.4567 6.81011 37.3466L6.37589 37.5353C6.54853 37.4671 6.71594 37.42 6.89381 37.3938L6.40728 37.4567C6.559 37.4409 6.70548 37.4462 6.85196 37.4567L6.37066 37.3938C6.52237 37.4147 6.65839 37.4567 6.80488 37.5143L6.37066 37.3309C6.48052 37.3833 6.58515 37.4462 6.68978 37.5143L6.31835 37.2313C6.41251 37.3046 6.49622 37.3885 6.56946 37.4829L6.28696 37.1159C6.3445 37.1946 6.38636 37.2732 6.42821 37.3623C6.36543 37.2155 6.30265 37.074 6.23987 36.9272C6.26603 37.0059 6.28696 37.0793 6.30265 37.1631C6.28172 37.0006 6.2608 36.8381 6.23987 36.6756C6.25557 36.8014 6.25557 36.922 6.23987 37.0478L6.30265 36.5603C6.27649 36.7176 6.23464 36.8643 6.17709 37.0111L6.36543 36.5813C6.23987 36.8591 6.08293 37.1107 5.89982 37.3518L6.18756 36.9849C5.93644 37.2994 5.65394 37.5772 5.34005 37.8236L5.70626 37.5405C5.40806 37.7607 5.08894 37.9441 4.74366 38.0962L5.17787 37.9127C4.89014 38.0333 4.59717 38.1276 4.28328 38.1748L4.76981 38.1119C4.57102 38.1328 4.38268 38.1381 4.18388 38.1171C4.34606 38.1381 4.50301 38.1591 4.67041 38.18C4.53439 38.1591 4.40884 38.1224 4.28328 38.0752L4.7175 38.2586C4.64426 38.222 4.57625 38.1853 4.50824 38.1381C4.62856 38.2324 4.75412 38.332 4.87444 38.4264C4.79074 38.3582 4.7175 38.2849 4.64949 38.201C4.74365 38.3215 4.83782 38.4473 4.93199 38.5679C4.86921 38.4788 4.82213 38.3949 4.78028 38.2953L4.96338 38.7304C4.93199 38.6308 4.90583 38.526 4.89014 38.4264L4.95292 38.9086C4.93722 38.7723 4.93722 38.6413 4.95292 38.5102L4.89014 38.9925C4.91106 38.8248 4.95815 38.6675 5.02093 38.5102L4.83782 38.9453C4.92676 38.7566 5.03662 38.5836 5.15695 38.4107L4.87444 38.7828C5.20403 38.3635 5.60686 38.007 6.02538 37.6821L5.65917 37.9651C6.08293 37.6454 6.52761 37.3466 7.01937 37.1264L6.58515 37.3151C6.86242 37.1946 7.14493 37.1159 7.43789 37.074C7.28095 37.095 7.11877 37.1159 6.95659 37.1369C7.124 37.1212 7.29141 37.1212 7.45882 37.1422L6.97752 37.0793C7.11354 37.1002 7.24433 37.1422 7.37511 37.1946C7.22863 37.1317 7.08738 37.074 6.9409 37.0111C7.0403 37.0583 7.13446 37.1159 7.2234 37.1841L6.85719 36.8958C6.93567 36.9639 7.00368 37.0321 7.07169 37.1159C6.97752 36.9901 6.88335 36.8696 6.78918 36.7438C6.86766 36.8486 6.93043 36.9587 6.98275 37.074C6.91997 36.9272 6.86242 36.7857 6.79965 36.6389C6.87289 36.8119 6.91474 36.9849 6.9409 37.1684L6.87289 36.6861C6.88858 36.8486 6.88858 37.0006 6.87289 37.1631L6.9409 36.6756C6.91474 36.8696 6.86242 37.053 6.78918 37.2313L6.97229 36.8014C6.86766 37.0426 6.73164 37.268 6.56946 37.4776L6.85719 37.1055C6.59562 37.4357 6.29219 37.724 5.9626 37.9808C6.08293 37.8865 6.20848 37.7921 6.32881 37.6978C6.02538 37.9284 5.70626 38.1328 5.35051 38.2796C5.497 38.222 5.64348 38.1591 5.78473 38.0962C5.55454 38.1905 5.32436 38.2534 5.07324 38.2901C5.23542 38.2691 5.39236 38.2482 5.55977 38.2272C5.40806 38.2377 5.25635 38.2377 5.10463 38.2272L5.58593 38.2901C5.49699 38.2796 5.40806 38.2586 5.31389 38.2377C4.38791 38.0175 3.29975 38.5312 3.0748 39.5114C2.8603 40.4444 3.35207 41.5085 4.34606 41.7444C5.9783 42.1375 7.44835 41.4613 8.67776 40.434C9.7293 39.5638 10.5454 38.2796 10.5245 36.8801C10.514 36.0886 10.2681 35.3442 9.78685 34.7205C9.19569 33.9604 8.36387 33.5883 7.41697 33.4939C6.13524 33.3629 4.84829 34.0391 3.85953 34.7886C2.60919 35.7321 1.45302 36.8486 1.30654 38.4998C1.23853 39.3437 1.54719 40.2138 2.12266 40.8323C2.71382 41.4666 3.58226 41.7654 4.435 41.7706C5.80043 41.7811 7.09784 41.0997 8.11276 40.2348C9.248 39.2703 10.1426 37.7187 9.81824 36.1934C9.49388 34.6943 7.89827 33.6721 6.40728 33.8137C4.93722 33.9604 3.7549 34.8515 2.83938 35.9628C1.85585 37.1474 0.908946 38.5417 1.20714 40.1614C1.38502 41.1154 2.18544 41.8964 3.10619 42.1585C3.82291 42.3629 4.60764 42.2948 5.30866 42.0851C6.50145 41.7182 7.65238 41.0158 8.43711 40.0408C9.03351 39.3122 9.44157 38.5365 9.50435 37.5825C9.53573 37.074 9.40495 36.5236 9.13291 36.0938C8.78239 35.5434 8.28017 35.2289 7.68377 35.0035C6.95659 34.7257 6.10908 34.7572 5.36621 34.9301C4.58671 35.1084 3.92754 35.5225 3.31022 36.0152C2.78706 36.4345 2.37377 36.9639 1.98141 37.5038C1.5158 38.1433 1.14436 38.8877 1.1339 39.6896C1.11821 41.4404 2.75567 42.6879 4.42976 42.5778C5.7638 42.4887 6.98275 41.7758 7.8041 40.7327C8.68823 39.6058 9.43634 38.2115 9.07013 36.7385C8.83994 35.7845 8.03952 35.0402 7.10307 34.7834C6.35497 34.5842 5.51792 34.6523 4.77504 34.8358C4.1368 34.993 3.50378 35.2761 2.9754 35.6587C2.5778 35.9418 2.26914 36.2615 2.13835 36.7438C2.01803 37.1788 2.07034 37.7607 2.32146 38.1486C2.81322 38.9139 3.98508 39.3909 4.81167 38.8038V38.809Z" fill="#FFA59B"/>
<path d="M25.2245 62.6958C25.2873 61.6894 25.0728 60.6463 24.7171 59.7081C24.3352 58.6964 23.8068 57.7214 23.043 56.9457C22.4675 56.3586 21.5991 55.9497 20.8091 56.4005C19.9982 56.8565 19.9982 57.8105 20.1866 58.602C20.4011 59.5193 20.9504 60.3108 21.484 61.0709C21.7508 61.4588 22.0228 61.8414 22.2373 62.2608C22.2635 62.3027 22.2844 62.3446 22.3053 62.3866C22.3576 62.4914 22.3681 62.6434 22.3001 62.3551C22.3315 62.4704 22.389 62.5805 22.4204 62.6906C22.4518 62.7902 22.4675 62.895 22.4937 62.9999C22.5407 63.1571 22.4727 62.6749 22.4884 62.9212C22.4884 62.9946 22.4937 63.0628 22.4989 63.1361C22.5198 63.9539 23.2575 64.4833 24.0317 64.3051C24.4398 64.2159 24.7955 63.9381 25.0048 63.5922C25.2454 63.199 25.2559 62.8059 25.1827 62.3656C25.078 61.7366 24.2672 61.333 23.6917 61.5164C23.0116 61.7366 22.7343 62.3394 22.8442 63.0103C22.7814 62.6434 22.9488 62.0668 23.3883 61.9672C23.9009 62.3551 24.4084 62.7483 24.9211 63.1361C24.8949 61.9096 24.2985 60.8822 23.6184 59.9072C23.3255 59.4879 23.0273 59.0738 22.7814 58.623C22.7291 58.5182 22.682 58.3609 22.6088 58.2666C22.6663 58.3347 22.7029 58.5129 22.6401 58.3242C22.6192 58.2666 22.5983 58.2089 22.5826 58.1565C22.546 58.0412 22.5198 57.9259 22.4937 57.8105C22.4413 57.5694 22.4989 58.0988 22.4989 57.8472L22.4937 57.7791C22.4937 57.6376 22.4937 57.6638 22.4937 57.8472L22.185 58.3819L21.5363 58.6283C21.4421 58.6335 21.3584 58.6178 21.2747 58.5758C21.0864 58.5182 21.3532 58.6492 21.2015 58.5287C21.0445 58.3976 21.2276 58.5601 21.2433 58.5758C21.28 58.6073 21.3166 58.644 21.348 58.6807C21.4264 58.7593 21.4997 58.8484 21.5729 58.9323C21.5991 58.9637 21.7089 59.1053 21.5991 58.9637C21.484 58.8065 21.62 58.9952 21.6462 59.0266C21.7926 59.2258 21.9182 59.4355 22.0385 59.6451C22.1588 59.8548 22.2426 60.1117 22.3681 60.3213C22.3315 60.2584 22.2896 60.1169 22.342 60.2637C22.3629 60.3161 22.3838 60.3685 22.3995 60.4209C22.4466 60.5415 22.4832 60.662 22.5198 60.7826C22.5983 61.0185 22.6611 61.2596 22.7134 61.506C22.7343 61.616 22.7448 61.7523 22.7762 61.8624C22.7448 61.7576 22.75 61.6213 22.7709 61.8152C22.7762 61.8676 22.7762 61.9201 22.7814 61.9725C22.8023 62.2084 22.8023 62.4442 22.7919 62.6801C22.7552 63.3144 23.3778 63.9224 24.0056 63.891C24.6961 63.8647 25.1827 63.3615 25.2193 62.6801L25.2245 62.6958Z" fill="white"/>
<path d="M3.27832 41.8965C4.23045 49.4551 4.51296 57.0766 4.11013 64.6823H7.75127C7.3903 61.5792 7.03978 58.4761 6.67881 55.3783C6.33876 52.3852 6.06672 49.366 5.38662 46.4254C4.85824 44.1505 1.34788 45.1149 1.87627 47.3951C2.51974 50.1627 2.77086 53.0038 3.09521 55.8186C3.43526 58.7749 3.77531 61.726 4.11013 64.6771C4.37171 66.9625 7.62572 67.0673 7.75127 64.6771C8.14887 57.0713 7.8716 49.4551 6.91423 41.8965C6.7939 40.9216 6.16612 40.0776 5.09366 40.0776C4.20953 40.0776 3.15276 40.9163 3.27832 41.8965Z" fill="#FFA59B"/>
<path d="M94.5946 75.4388C102.515 76.959 110.933 74.3433 116.452 68.4202C118.048 66.7114 115.479 64.1324 113.878 65.8465C109.274 70.779 102.222 73.2059 95.5624 71.9269C94.5998 71.7434 93.6006 72.1995 93.3233 73.2006C93.0827 74.0865 93.6268 75.2501 94.5946 75.4336V75.4388Z" fill="black"/>
<path d="M112.853 60.8446C117.912 62.8836 124.116 61.4316 127.841 57.4951C128.516 56.7822 128.553 55.629 127.841 54.9214C127.161 54.24 125.947 54.2033 125.267 54.9214C124.456 55.781 123.907 56.2161 122.856 56.8032C122.604 56.9447 122.348 57.0705 122.092 57.1963C122.034 57.2278 121.82 57.3169 121.998 57.2435C121.851 57.3064 121.699 57.3641 121.553 57.4165C121.009 57.6157 120.454 57.7781 119.894 57.8987C119.643 57.9511 119.392 57.9983 119.141 58.0402C119.01 58.056 119.016 58.056 119.146 58.0402L118.958 58.056C118.832 58.0717 118.702 58.0822 118.576 58.0927C118.006 58.1346 117.43 58.1346 116.855 58.0927C116.729 58.0822 116.604 58.0717 116.473 58.056L116.285 58.0402C116.421 58.056 116.426 58.056 116.295 58.0402C116.044 57.9983 115.793 57.9511 115.547 57.8882C114.956 57.7519 114.38 57.5632 113.815 57.3378C112.905 56.9657 111.817 57.7362 111.576 58.6063C111.294 59.6442 111.932 60.4724 112.848 60.8446H112.853Z" fill="black"/>
<path d="M166.017 34.1647C166.823 36.7384 167.628 39.3121 168.434 41.8858C168.717 42.7926 169.716 43.4688 170.673 43.1543C171.583 42.8608 172.248 41.891 171.944 40.9161C171.139 38.3424 170.333 35.7687 169.527 33.195C169.245 32.2882 168.246 31.6172 167.283 31.9265C166.373 32.22 165.708 33.195 166.017 34.1647Z" fill="#FFD97B"/>
<path d="M179.372 32.9018V39.4907C179.372 40.4447 180.209 41.3567 181.193 41.3096C182.176 41.2676 183.013 40.5128 183.013 39.4907V32.9018C183.013 31.9531 182.176 31.041 181.193 31.0829C180.209 31.1301 179.372 31.8849 179.372 32.9018Z" fill="#FFD97B"/>
<path d="M17.6548 31.8429C17.5188 33.7823 17.388 35.7218 17.252 37.656C17.1892 38.61 18.1361 39.5168 19.0726 39.4749C20.1136 39.4277 20.8199 38.6781 20.8931 37.656C21.0291 35.7218 21.1599 33.7823 21.296 31.8429C21.3587 30.8942 20.4118 29.9873 19.4754 30.024C18.4343 30.0764 17.7281 30.826 17.6548 31.8429Z" fill="#FFD97B"/>
<path d="M29.9903 39.7418C30.3774 39.0761 30.6965 38.358 30.9424 37.6241C31.1883 36.8798 31.3139 36.1145 31.4028 35.3387C31.4499 34.9037 31.1622 34.3428 30.8692 34.0493C30.5553 33.7348 30.0374 33.4989 29.5822 33.5199C29.1114 33.5408 28.6249 33.6928 28.2953 34.0493L28.0075 34.4162C27.8454 34.6992 27.7617 35.0085 27.7564 35.3387C27.7512 35.3964 27.746 35.4593 27.7355 35.5222L27.8035 35.0347C27.6989 35.8105 27.4896 36.5705 27.1914 37.2939L27.3745 36.8588C27.2228 37.2153 27.0449 37.5665 26.8514 37.9019C26.6107 38.3108 26.5375 38.8507 26.663 39.3067C26.7781 39.7313 27.1077 40.1873 27.5001 40.397C27.9238 40.6172 28.4313 40.7325 28.9021 40.5805C29.3573 40.4337 29.7444 40.1611 29.9903 39.7418Z" fill="#FFD97B"/>
<mask id="mask3_6087_65876" style="mask-type:luminance" maskUnits="userSpaceOnUse" x="33" y="0" width="22" height="26">
<path d="M33.2607 0H54.6891V25.7055H33.2607V0Z" fill="white"/>
</mask>
<g mask="url(#mask3_6087_65876)">
<path d="M35.6663 14.5502C36.9114 14.6236 38.1513 14.545 39.3859 14.4401C39.93 14.3982 40.4741 14.3458 41.0182 14.2986C41.2274 14.2776 41.4471 14.2671 41.6564 14.2409C41.7401 14.2357 42.2842 14.2409 41.9232 14.1885L41.1228 13.722C42.1639 14.5292 43.456 14.4821 44.2931 13.3656C44.9418 12.5007 44.9156 11.2636 45.1144 10.3254C45.7213 7.52628 45.5173 4.64333 45.8782 1.81803H42.2371C42.3365 5.20419 42.5458 8.6218 43.0375 11.9818C43.2206 13.245 43.8798 14.7179 45.5016 14.2776C46.3543 14.0522 46.867 13.2503 46.8932 12.4011C46.9245 11.1798 46.1084 10.3725 44.9209 10.2467C44.2617 10.1734 43.7072 10.6608 43.3514 11.1483C42.394 12.4588 43.681 13.9002 44.9104 14.3038C45.7788 14.5869 46.7467 14.6393 47.657 14.6865C49.0695 14.7651 50.4977 14.7494 51.9102 14.6812L51.4289 11.1116C49.1741 11.7773 46.8513 12.3329 44.6436 13.114C43.1317 13.6539 42.9957 15.7977 42.6713 17.1553C42.2214 19.0581 41.7349 21.0237 41.6407 22.9789L45.2138 22.4967C44.8267 19.7186 44.6279 16.909 44.5756 14.1047C44.5599 13.245 44.0106 12.637 43.2416 12.3539C42.0331 11.9031 40.7357 11.7721 39.4644 11.6253C38.5855 11.5257 37.2253 11.4576 36.587 11.164C35.6977 10.7552 34.6305 10.9124 34.0968 11.8193C33.6417 12.6003 33.8562 13.895 34.7508 14.3038C37.1311 15.3941 39.8463 14.9591 42.2737 15.8606C41.829 15.2788 41.3791 14.697 40.9397 14.1099C41.0025 17.2445 41.2745 20.358 41.7087 23.4664C42.0017 25.5736 45.1929 24.9288 45.2818 22.9789C45.3865 20.7145 46.2183 17.8106 46.8775 15.3574C46.4537 15.7768 46.03 16.2066 45.6062 16.6259C47.8715 15.9602 50.1367 15.284 52.3967 14.6183C54.3062 14.0522 54.029 10.9439 51.9154 11.0435C50.9947 11.0907 50.0739 11.1064 49.1532 11.0959C48.4312 11.0907 47.7145 11.0645 46.9926 11.0016C46.5688 10.9701 46.7153 11.0016 46.3229 10.9124C46.234 10.8915 46.1032 10.8338 46.0143 10.8391C45.7527 10.8443 46.0561 10.8391 46.1974 10.9649L46.6682 11.7668L46.6316 11.6463C46.5688 12.1128 46.5113 12.5793 46.4485 13.0511L46.4956 12.9882C45.9724 13.2869 45.4493 13.5857 44.9261 13.8845L45.0046 13.895C44.4814 13.5962 43.9583 13.2974 43.4351 12.9934L43.5031 13.0982L43.252 12.1809C43.2939 11.9818 43.3671 11.7878 43.4613 11.6043C43.8275 11.3265 44.1885 11.0487 44.5494 10.7709H44.539C45.1249 10.9334 45.7161 11.0854 46.3072 11.2427C47.0501 11.9084 46.6996 12.1757 46.642 11.5991C46.6316 11.4628 46.595 11.3161 46.574 11.1798C46.5217 10.86 46.5845 11.2689 46.5531 11.0382C46.438 10.1681 46.3543 9.29274 46.2811 8.42262C46.0823 6.22633 45.941 4.0248 45.8782 1.82328C45.8469 0.83783 45.0621 0.00439453 44.0577 0.00439453C42.9695 0.00439453 42.3627 0.843071 42.2371 1.82328C42.0069 3.62643 42.0174 5.44531 41.8814 7.25895C41.8238 8.10811 41.7035 8.92582 41.5151 9.75402C41.4314 10.1209 41.3477 10.4617 41.3059 10.8391C41.217 11.6044 41.1176 11.2269 41.625 10.9334L43.0271 10.7499L42.9643 10.7395C43.2363 10.8915 43.5031 11.0487 43.7699 11.206C42.6504 10.3411 41.4158 10.6241 40.1079 10.7447C38.6326 10.8705 37.1468 11.0016 35.6663 10.9124C33.3278 10.7762 33.333 14.4139 35.6663 14.5502Z" fill="#FFD97B"/>
</g>
<path d="M148.758 8.61679C148.983 10.1998 149.176 11.6989 149.385 13.4339C149.589 15.1323 149.778 16.8358 149.95 18.5446C150.045 19.4881 150.719 20.4107 151.771 20.3635C152.676 20.3216 153.696 19.5563 153.592 18.5446C153.22 14.9016 152.775 11.2691 152.273 7.64707C152.137 6.70356 150.882 6.10076 150.029 6.37857C148.993 6.71404 148.616 7.60513 148.763 8.61679H148.758Z" fill="#FFD97B"/>
<path d="M146.471 16.0496C147.334 15.8661 148.202 15.7036 149.071 15.5673C149.991 15.4153 150.389 15.3629 151.299 15.2633C153.005 15.0798 154.721 14.9855 156.437 14.9645C157.389 14.954 158.299 14.1363 158.257 13.1456C158.21 12.1707 157.457 11.3163 156.437 11.3268C152.764 11.3687 149.097 11.788 145.503 12.5428C144.572 12.7368 143.944 13.8847 144.237 14.7811C144.551 15.7665 145.477 16.2592 146.476 16.0496H146.471Z" fill="#FFD97B"/>
</svg>
