<svg width="973" height="757" viewBox="0 0 973 757" fill="none" xmlns="http://www.w3.org/2000/svg">
<path d="M683.501 103.952C686.419 103.85 688.55 105.812 690.031 108.424C691.427 110.887 692.527 114.368 693.399 118.731L693.571 119.616L693.573 119.632L693.577 119.649C694.367 124.246 694.845 128.954 695.013 133.773C695.18 138.592 695.031 143.323 694.562 147.965L694.559 147.981L694.558 147.998C693.994 152.828 693.107 156.684 691.804 159.409C690.509 162.119 688.519 164.225 685.601 164.328L651.683 165.517L656.99 318.092C657.062 320.173 655.774 321.698 654.209 322.723C652.658 323.739 650.492 324.518 647.878 325.142C642.614 326.399 634.83 327.184 624.626 327.542C614.421 327.9 606.601 327.661 601.263 326.776C598.612 326.337 596.397 325.711 594.779 324.807C593.147 323.894 591.756 322.462 591.683 320.381L586.376 167.807L551.534 169.028C548.615 169.13 546.485 167.168 545.004 164.556C543.515 161.929 542.363 158.144 541.464 153.365L541.461 153.349L541.458 153.332C540.668 148.735 540.19 144.026 540.022 139.207C539.855 134.388 540.004 129.658 540.473 125.017L540.475 125L540.477 124.983C541.041 120.153 541.927 116.296 543.231 113.571C544.526 110.862 546.516 108.755 549.434 108.652L683.501 103.952ZM740.491 101.646C750.902 101.281 758.882 101.54 764.331 102.475C767.038 102.94 769.297 103.598 770.945 104.548C772.618 105.512 773.987 106.991 774.06 109.094L776.505 179.378L815.37 178.016L812.946 108.347C812.897 106.912 813.52 105.694 814.444 104.742C815.333 103.827 816.553 103.093 817.947 102.478C820.739 101.246 824.785 100.255 829.954 99.4505L829.999 99.4431L830.045 99.4386C835.424 98.8345 840.711 98.4402 845.905 98.2581L845.947 98.2566L845.989 98.2571L861.729 98.3228L861.815 98.3227L861.9 98.3305C867.113 98.7714 871.218 99.4758 874.089 100.509C875.522 101.025 876.79 101.673 877.74 102.523C878.728 103.407 879.435 104.579 879.485 106.014L886.57 309.734C886.644 311.86 885.077 313.233 883.595 314.047C882.038 314.904 879.861 315.569 877.213 316.11C871.874 317.202 863.961 317.917 853.557 318.281C843.154 318.646 835.211 318.488 829.81 317.772C827.13 317.417 824.913 316.906 823.299 316.161C821.764 315.453 820.106 314.193 820.032 312.066L817.641 243.323L778.776 244.685L781.167 313.429C781.241 315.556 779.673 316.928 778.191 317.743C776.634 318.599 774.457 319.264 771.809 319.806C766.471 320.898 758.558 321.612 748.154 321.977C737.751 322.342 729.808 322.183 724.407 321.468C721.727 321.113 719.51 320.602 717.896 319.857C716.361 319.148 714.703 317.888 714.629 315.762L707.522 111.426C707.449 109.324 708.712 107.752 710.314 106.673C711.891 105.611 714.1 104.796 716.768 104.143C722.138 102.829 730.08 102.011 740.491 101.646ZM432.212 241.747L459.143 240.803L444.943 184.92L432.212 241.747ZM551.655 322.71C551.712 324.355 550.422 325.287 549.75 325.683C548.928 326.168 547.838 326.561 546.606 326.901C544.106 327.593 540.451 328.22 535.713 328.8C526.266 329.956 518.711 330.639 513.073 330.836C504.062 331.152 496.911 330.682 491.735 329.335C486.653 328.013 482.82 325.659 481.672 321.684L470.586 283.879L424.944 285.48L417.665 322.342C416.944 326.665 413.329 329.549 408.22 331.399C403.03 333.278 395.706 334.334 386.383 334.661C376.491 335.007 368.988 334.758 363.99 333.854L363.947 333.846L363.904 333.836C361.498 333.298 359.608 332.799 358.289 332.335C357.643 332.108 357.03 331.855 356.541 331.56C356.299 331.414 355.994 331.202 355.725 330.907C355.464 330.622 355.074 330.076 355.046 329.295L355.037 329.02L355.097 328.751L402.36 118.322C402.457 117.594 402.863 117.078 403.169 116.79C403.522 116.458 403.926 116.244 404.241 116.102C404.888 115.811 405.722 115.583 406.64 115.389C408.513 114.992 411.243 114.635 414.773 114.304C421.861 113.64 432.46 113.062 446.544 112.569C460.627 112.075 471.241 111.909 478.357 112.075C481.902 112.157 484.651 112.323 486.547 112.587C487.476 112.716 488.323 112.886 488.988 113.131C489.313 113.25 489.731 113.436 490.107 113.742C490.433 114.008 490.874 114.497 491.02 115.218L551.569 322.183L551.646 322.442L551.655 322.71ZM339.471 327.99C339.515 329.264 338.963 330.335 338.181 331.152C337.432 331.934 336.422 332.547 335.307 333.051C333.074 334.06 329.871 334.869 325.827 335.532C317.786 336.851 310.621 337.626 304.343 337.846C295.161 338.168 288.093 337.902 283.246 336.99C280.838 336.537 278.798 335.893 277.298 334.956C275.781 334.009 274.6 332.602 274.491 330.688L274.49 330.689L264.791 219.608L234.679 334.132L234.671 334.164L234.661 334.194C234.231 335.653 233.026 336.576 231.875 337.172C230.671 337.794 229.112 338.276 227.293 338.663C223.637 339.441 218.465 339.93 211.852 340.162C205.245 340.394 200.111 340.292 196.522 339.822C194.742 339.589 193.207 339.25 192.027 338.744C190.979 338.294 189.691 337.48 189.277 335.997L150.219 222.804L150.186 333.158L150.186 333.193L150.185 333.226C150.103 335.791 148.438 337.692 146.199 339.034C143.973 340.368 140.845 341.376 136.972 342.144L136.945 342.148L136.917 342.153C129.297 343.456 122.843 344.209 117.576 344.394C112.556 344.57 107.624 344.428 102.782 343.969L102.765 343.967L102.749 343.965C97.7154 343.41 93.7153 342.505 90.9225 341.142C88.1208 339.776 86.0261 337.656 86.0894 334.595L86.2096 134.059C86.1634 131.783 87.6147 130.098 89.4367 128.935C91.2746 127.762 93.8754 126.843 97.0732 126.096C103.506 124.595 113.054 123.644 125.621 123.204C133.127 122.941 142.276 123.245 153.052 124.107L153.051 124.108C158.466 124.44 162.847 125.103 166.104 126.155C169.17 127.145 171.744 128.641 172.857 131.032L172.96 131.267L172.967 131.283L172.974 131.301L208.5 221.183L233.624 128.949L233.633 128.915L233.643 128.882C234.297 126.755 236.06 125.183 238.244 123.994C240.459 122.788 243.42 121.802 247.032 120.989C254.27 119.361 264.574 118.332 277.869 117.866C285.58 117.596 294.73 117.9 305.306 118.769L305.305 118.77C310.695 119.101 314.931 119.715 317.891 120.681C319.371 121.164 320.684 121.781 321.67 122.611C322.675 123.458 323.414 124.603 323.494 126.03L323.496 126.03L339.465 327.895L339.469 327.942L339.471 327.99Z" fill="white" stroke="#0084D1" stroke-width="4.28572"/>
<path d="M452.868 389.552C455.82 389.655 457.879 391.667 459.22 394.4C460.541 397.091 461.394 400.879 461.891 405.599C462.618 410.305 462.894 415.103 462.723 419.99C462.553 424.869 461.942 429.628 460.892 434.266C460.067 438.949 458.95 442.677 457.442 445.273C455.913 447.906 453.719 449.77 450.767 449.667L431.16 448.983L427.27 560.259L447.851 560.977C450.788 561.079 452.872 563.075 454.267 565.793C455.648 568.484 456.59 572.281 457.196 577.021C457.924 581.732 458.202 586.534 458.031 591.426C457.86 596.298 457.252 601.052 456.204 605.684C456.201 605.7 456.198 605.715 456.195 605.731C456.194 605.733 456.193 605.736 456.193 605.738C455.257 610.424 454.052 614.146 452.487 616.734C450.905 619.349 448.687 621.194 445.749 621.092L336.358 617.275C333.406 617.172 331.346 615.16 330.005 612.427C328.679 609.725 327.823 605.918 327.327 601.173C326.607 596.484 326.332 591.704 326.502 586.837C326.673 581.964 327.282 577.21 328.33 572.577C329.156 567.886 330.274 564.153 331.783 561.553C333.312 558.92 335.508 557.057 338.459 557.16L358.715 557.867L362.605 446.591L341.7 445.862C338.762 445.76 336.678 443.763 335.283 441.045C333.897 438.343 332.952 434.527 332.346 429.76L332.343 429.74L332.341 429.719C331.839 425.048 331.674 420.282 331.844 415.424C332.014 410.565 332.511 405.823 333.338 401.198L333.341 401.177L333.346 401.157C334.283 396.444 335.492 392.702 337.064 390.104C338.645 387.489 340.864 385.644 343.801 385.746L452.868 389.552ZM553.402 393.059C588.143 394.271 614.533 403.944 632.189 422.408C650.112 440.933 658.185 469.195 656.874 506.713C655.473 546.786 645.868 576.941 627.7 596.787C609.474 616.696 582.958 625.878 548.556 624.678L493.048 622.742C487.251 622.539 482.549 621.071 479.348 617.974C476.105 614.838 474.761 610.384 474.949 605.016L481.757 410.254C481.957 404.515 483.503 399.785 486.658 396.354L486.666 396.345C490.02 392.739 494.249 390.995 499.193 391.168L553.402 393.059ZM543.428 553.781C543.35 556.011 543.368 557.794 543.471 559.152C543.562 560.359 543.713 561.078 543.84 561.449C543.916 561.504 544.104 561.62 544.504 561.746C545.206 561.968 546.284 562.136 547.815 562.19C559.099 562.583 567.522 558.715 573.421 550.693L573.442 550.664C579.609 542.56 583.248 528.522 583.963 508.069C584.322 497.777 583.81 489.356 582.469 482.762C581.123 476.142 578.981 471.556 576.242 468.717L576.217 468.69C570.718 462.793 561.442 459.378 547.85 458.903L546.746 458.865L543.428 553.781ZM825.331 421.915C825.053 429.891 822.211 439.732 816.994 451.358L816.988 451.372C814.396 457.047 812.181 461.506 810.345 464.722C809.429 466.327 808.586 467.66 807.819 468.692C807.089 469.675 806.292 470.574 805.432 471.105L804.359 471.768L803.259 471.151C789.842 463.629 777.86 459.778 767.276 459.409C762.059 459.227 758.499 460.055 756.267 461.546C754.169 462.948 752.971 465.123 752.855 468.461C752.74 471.737 755.291 475.403 762.528 479.184L763.243 479.551L763.275 479.567L763.305 479.584C764.981 480.496 767.407 481.763 770.595 483.388C773.81 485.027 777.436 487.001 781.469 489.306C785.829 491.458 790.353 494.262 795.042 497.7C800.05 500.999 805.306 505.386 810.808 510.833L810.825 510.849C822.385 522.544 827.787 537.625 827.149 555.878C826.325 579.447 819.136 598.685 805.439 613.402C791.606 628.263 770.967 635.248 743.957 634.746L743.923 634.744C730.823 634.287 718.92 632.779 708.228 630.206L708.219 630.204C697.599 627.602 688.347 622.915 680.504 616.132C672.513 609.222 668.537 600.916 668.872 591.307C669.192 582.167 671.18 573.207 674.822 564.437C678.4 555.628 682.254 549.407 686.56 546.346L687.917 545.381L689.188 546.458C693.049 549.731 699.8 554.337 709.537 560.299C719.285 566.144 728.467 569.142 737.106 569.443C741.544 569.598 744.511 568.838 746.348 567.527C748.075 566.295 749.114 564.351 749.221 561.285C749.312 558.694 748.387 556.402 746.261 554.312L746.228 554.28L746.196 554.245C743.959 551.847 739.587 548.898 732.81 545.428C725.995 541.939 720.868 539.26 717.442 537.395L717.396 537.37L717.352 537.342C713.866 535.217 709.251 531.975 703.532 527.645L703.496 527.617L703.461 527.588C697.857 522.956 693.508 518.199 690.484 513.3L690.484 513.299C681.982 500.214 678.151 483.925 678.827 464.579C679.513 444.935 687.378 428.605 702.349 415.724C717.573 402.608 736.972 396.539 760.346 397.354C776.085 397.903 790.6 400.16 803.878 404.143L803.877 404.143C810.498 406.02 815.682 408.162 819.287 410.632C822.893 413.103 825.234 416.132 825.399 419.796L825.402 419.882L825.331 421.915ZM321.883 394.276C321.855 395.079 321.625 395.83 321.254 396.513L321.232 396.553L321.209 396.591L261.867 495.378L323.512 587.101L323.898 587.676L323.874 588.37C323.848 589.107 323.465 589.635 323.379 589.757C323.22 589.982 323.033 590.188 322.864 590.362C322.519 590.718 322.053 591.134 321.503 591.592C320.399 592.513 318.784 593.751 316.681 595.295C306.216 603.765 294.072 610.282 280.274 614.86L280.27 614.861C275.882 616.306 271.492 616.962 267.111 616.81L267.022 616.807L266.933 616.796L259.166 615.875L258.993 615.854L258.826 615.806C251.303 613.644 245.61 608.561 241.737 600.831L241.729 600.815L241.721 600.798L207.75 529.914L205.994 529.852L203.335 605.94C203.261 608.065 201.531 609.255 200.069 609.893C198.491 610.581 196.323 611.052 193.701 611.378C188.413 612.033 180.632 612.168 170.435 611.812L170.378 611.81L170.321 611.805L152.177 610.197L152.121 610.191C146.691 609.565 142.488 608.81 139.607 607.894C138.181 607.44 136.925 606.901 135.99 606.217C135.066 605.54 134.099 604.437 134.154 602.876L141.767 385.067C141.842 382.905 143.515 381.604 145.115 380.857C146.787 380.077 149.09 379.537 151.883 379.162C157.51 378.406 165.788 378.236 176.637 378.615C187.485 378.993 195.73 379.74 201.291 380.886C204.05 381.455 206.311 382.153 207.925 383.048C209.468 383.905 211.046 385.32 210.971 387.481L208.397 461.108L246.53 387.799L246.54 387.781L246.549 387.764C247.302 386.381 248.693 385.5 250.17 384.901C251.691 384.284 253.619 383.839 255.883 383.523C260.42 382.891 266.691 382.731 274.633 383.008C289.058 383.511 300.158 384.522 307.862 386.065C311.703 386.834 314.817 387.758 317.108 388.882C319.318 389.966 321.231 391.469 321.812 393.65L321.894 393.957L321.883 394.276Z" fill="white" stroke="#0084D1" stroke-width="4.28572"/>
<path d="M478.801 339.88C494.342 340.957 506.507 346.908 515.037 357.85C523.554 368.776 527.05 383.195 525.805 400.849C524.559 418.504 519.071 432.301 509.103 441.946C499.12 451.605 486.237 455.82 470.696 454.743C455.155 453.666 442.927 447.712 434.258 436.773L434.253 436.766L434.247 436.759C425.73 425.833 422.234 411.413 423.48 393.759C424.726 376.104 430.213 362.307 440.181 352.662L440.188 352.656L440.194 352.651C450.314 343.013 463.26 338.803 478.801 339.88ZM600.819 348.335C608.913 348.896 614.922 351.331 616.963 356.7L617.147 357.229L617.155 357.251L617.161 357.274C617.618 358.813 617.687 360.841 617.522 363.182C617.351 365.603 616.284 369.675 614.484 375.197L614.167 376.235C612.582 381.348 610.977 385.254 609.316 387.805C608.508 389.045 607.836 390.022 607.312 390.7C607.056 391.031 606.79 391.349 606.532 391.602C606.406 391.725 606.224 391.891 605.998 392.037C605.846 392.135 605.302 392.478 604.547 392.426C604.105 392.395 603.673 392.225 603.526 392.169C603.271 392.072 602.965 391.941 602.621 391.786C601.929 391.475 600.987 391.024 599.809 390.44L599.739 390.405L599.671 390.365C597.667 389.183 595.974 388.626 594.563 388.528C592.54 388.388 591.179 389.037 590.153 390.43C589.011 391.981 588.159 394.643 587.87 398.739L583.683 458.074C583.584 459.479 582.418 460.062 582.098 460.206C581.628 460.419 581.096 460.534 580.623 460.609C579.64 460.765 578.289 460.837 576.641 460.85C573.313 460.875 568.398 460.659 561.935 460.211L561.888 460.207C555.436 459.618 550.555 459.064 547.277 458.546C545.652 458.289 544.343 458.029 543.413 457.755C542.966 457.624 542.479 457.454 542.065 457.218C541.861 457.101 541.559 456.903 541.29 456.59C541.007 456.261 540.657 455.672 540.713 454.882L545.545 386.414L541.94 386.164C538.606 385.933 536.305 383.7 534.884 380.467L534.857 380.407L534.834 380.344C533.625 377.06 533.224 373.222 533.529 368.902C534.079 361.104 535.66 354.982 538.523 350.841C541.503 346.533 545.776 344.521 551.051 344.886C557.916 345.362 563.62 347.921 568 352.623L567.999 352.623C570.703 355.428 572.538 358.48 573.433 361.758C576.353 358.141 579.765 355.172 583.672 352.874L584.203 352.563C589.689 349.406 595.241 347.949 600.819 348.335ZM406.579 292.348C418.173 293.151 428.339 295.965 437.018 300.852C438.235 301.468 438.893 302.592 439.214 303.716C439.541 304.858 439.594 306.214 439.491 307.675C439.277 310.7 437.584 315.146 434.77 320.779C433.335 323.651 431.999 325.973 430.759 327.698C429.58 329.34 428.272 330.758 426.8 331.37L425.697 331.829L424.728 331.133C420.403 328.027 415.92 326.355 411.256 326.032C409.012 325.876 407.589 326.496 406.609 327.628C405.534 328.87 404.715 331.046 404.469 334.526L404.305 336.854L419.82 337.93C421.194 338.025 422.272 338.752 423.015 339.769C423.709 340.719 424.13 341.934 424.399 343.233C424.938 345.842 424.998 349.505 424.674 354.092C424.32 359.115 423.633 363.084 422.51 365.832C421.416 368.512 419.512 370.842 416.444 370.629L404.969 369.834L399.808 442.981C399.741 443.934 399.224 444.629 398.69 445.067C398.19 445.477 397.601 445.732 397.07 445.905C396 446.254 394.584 446.451 392.94 446.558C389.606 446.774 384.742 446.649 378.41 446.211C372.149 445.777 367.367 445.232 364.131 444.56C362.534 444.229 361.17 443.838 360.167 443.344C359.668 443.098 359.124 442.764 358.689 442.287C358.225 441.777 357.82 441.02 357.887 440.076L363.063 366.716L354.78 366.142C353.317 366.041 352.329 365.113 351.745 364.112C351.19 363.161 350.867 361.954 350.667 360.659C350.263 358.039 350.26 354.317 350.593 349.599C350.931 344.811 351.459 341.076 352.228 338.504C352.608 337.234 353.097 336.072 353.776 335.199C354.489 334.284 355.599 333.479 357.077 333.582L365.361 334.156L365.54 331.615C366.612 316.423 370.527 305.499 377.901 299.68C385.228 293.886 394.875 291.537 406.579 292.348ZM475.993 379.671C472.733 379.445 470.376 380.56 468.614 383.044C466.736 385.692 465.441 390.047 464.991 396.422C464.541 402.796 465.212 407.288 466.7 410.169C468.096 412.872 470.274 414.301 473.534 414.527C476.882 414.759 479.294 413.632 481.083 411.151C482.989 408.509 484.3 404.161 484.749 397.791C485.199 391.42 484.511 386.935 482.995 384.055C481.572 381.351 479.342 379.903 475.993 379.671Z" fill="white" stroke="#0084D1" stroke-width="4.28572"/>
</svg>
