<svg width="15" height="20" viewBox="0 0 15 20" fill="none" xmlns="http://www.w3.org/2000/svg">
<path d="M0 7.26594C0 3.23718 3.37403 0 7.5 0C11.626 0 15 3.23718 15 7.26594C15 9.61992 14.0269 11.7437 12.2051 13.0831C12.0794 13.1756 12.0033 13.2902 11.9767 13.4028C11.918 13.6521 11.853 13.941 11.7864 14.251C11.7666 14.3434 11.685 14.4095 11.5905 14.4095H8.45C8.33954 14.4095 8.25 14.32 8.25 14.2095V13.5456L9.29933 11.8975C9.5064 11.5722 9.43313 11.143 9.12989 10.9048L7.33084 9.49196L8.13266 8.23257C8.35512 7.88316 8.2522 7.41958 7.9028 7.19712C7.55339 6.97466 7.0898 7.07757 6.86734 7.42698L5.70068 9.25942C5.4936 9.58466 5.56687 10.0139 5.87011 10.2521L7.66916 11.6649L6.86734 12.9243C6.79071 13.0447 6.75 13.1844 6.75 13.3271V14.2095C6.75 14.32 6.66046 14.4095 6.55 14.4095H3.40949C3.315 14.4095 3.23344 14.3434 3.21359 14.251C3.14697 13.941 3.08199 13.6522 3.02325 13.4028C2.99675 13.2902 2.92064 13.1756 2.7949 13.0831C0.973129 11.7437 0 9.61992 0 7.26594Z" fill="white"/>
<path d="M3.78101 15.9095C3.65644 15.9095 3.56223 16.0223 3.58341 16.145C3.6876 16.749 3.76458 17.2924 3.78682 17.6599C3.84981 18.7011 4.61672 19.5588 5.64223 19.7803L5.83821 19.8227C6.93262 20.0591 8.06738 20.0591 9.16179 19.8227L9.35777 19.7803C10.3833 19.5588 11.1502 18.7011 11.2132 17.6599C11.2354 17.2924 11.3124 16.7491 11.4166 16.145C11.4378 16.0223 11.3436 15.9095 11.219 15.9095H3.78101Z" fill="white"/>
</svg>
