<svg width="200" height="123" viewBox="0 0 200 123" fill="none" xmlns="http://www.w3.org/2000/svg">
<mask id="mask0_6061_44123" style="mask-type:luminance" maskUnits="userSpaceOnUse" x="107" y="87" width="30" height="36">
<path d="M107.334 87.625H136.667V123H107.334V87.625Z" fill="white"/>
</mask>
<g mask="url(#mask0_6061_44123)">
<path d="M109.594 91.4429C112.323 91.6929 115.25 91.9898 117.73 93.245C120.516 94.646 121.813 97.0627 122.245 100.084C122.75 103.61 122.787 107.235 123.021 110.787C123.256 114.302 123.73 117.896 123.62 121.417C123.594 122.183 124.261 122.724 124.974 122.771C127.141 122.912 129.313 122.979 131.48 122.927C133.037 122.891 135.188 122.688 135.391 120.729C135.584 118.948 133.808 118.219 132.334 118.099C130.011 117.912 127.615 118.094 125.302 118.365C123.589 118.563 123.568 121.271 125.302 121.068C126.761 120.901 128.224 120.787 129.693 120.766C130.427 120.755 131.162 120.755 131.896 120.787C132.125 120.797 132.417 120.875 132.636 120.854C132.709 120.865 132.782 120.891 132.844 120.922C133.157 121.094 133.157 120.823 132.839 120.11C132.782 120.078 132.438 120.183 132.344 120.193C131.927 120.24 131.48 120.219 131.068 120.229C130.459 120.24 129.855 120.245 129.25 120.24C127.823 120.224 126.401 120.156 124.98 120.068C125.433 120.516 125.886 120.969 126.339 121.417C126.459 117.459 125.912 113.417 125.651 109.469C125.401 105.662 125.49 101.62 124.584 97.896C123.813 94.7137 121.797 92.1616 118.823 90.7658C115.933 89.4116 112.74 89.021 109.599 88.7293C107.865 88.5731 107.875 91.2814 109.599 91.4377L109.594 91.4429Z" fill="#FFA59B"/>
</g>
<mask id="mask1_6061_44123" style="mask-type:luminance" maskUnits="userSpaceOnUse" x="71" y="87" width="30" height="36">
<path d="M71.3333 87.625H100.666V123H71.3333V87.625Z" fill="white"/>
</mask>
<g mask="url(#mask1_6061_44123)">
<path d="M98.3591 88.7348C95.2133 89.0213 92.0206 89.4119 89.1352 90.7713C86.1612 92.1671 84.1456 94.714 83.3696 97.8963C82.4685 101.62 82.5571 105.662 82.3071 109.469C82.0466 113.422 81.4946 117.464 81.6196 121.422C82.0727 120.969 82.5258 120.521 82.9789 120.068C81.6196 120.157 80.2602 120.224 78.9008 120.24C78.229 120.251 77.5623 120.245 76.8904 120.235C76.5363 120.23 76.1821 120.235 75.8279 120.209C75.781 120.204 75.104 120.12 75.1144 120.115C75.0883 120.396 75.0623 120.683 75.0363 120.964L75.1873 120.896C75.13 120.86 76.2238 120.787 76.0571 120.792C76.7185 120.766 77.38 120.761 78.0415 120.771C79.5831 120.787 81.1196 120.896 82.6508 121.079C84.38 121.282 84.3644 118.573 82.6508 118.37C80.3383 118.099 77.9425 117.917 75.6196 118.105C74.1456 118.224 72.3748 118.954 72.5623 120.735C72.7654 122.693 74.9165 122.896 76.4685 122.933C78.6404 122.985 80.8123 122.922 82.9789 122.782C83.6925 122.735 84.3591 122.198 84.3331 121.428C84.2237 117.902 84.6977 114.308 84.9321 110.792C85.1664 107.24 85.2029 103.615 85.7081 100.094C86.1352 97.0786 87.432 94.6411 90.2237 93.2505C92.7133 92.0057 95.6247 91.6984 98.3591 91.4484C100.083 91.2921 100.099 88.5838 98.3591 88.7401V88.7348Z" fill="#FFA59B"/>
</g>
<path d="M168.15 9.15052C166.692 8.55677 164.921 9.2599 163.843 10.2807C162.765 11.3016 162.265 12.7807 162.546 14.2391C162.806 15.6037 163.832 16.7078 164.942 17.4735C166.233 18.3589 168.051 18.9839 169.525 18.1662C170.999 17.3485 171.051 15.6349 170.796 14.1922C170.666 13.463 170.395 12.7495 170.051 12.0932C169.728 11.4682 169.301 10.8068 168.77 10.338C168.114 9.75469 167.338 9.41615 166.457 9.3849C165.562 9.35365 164.634 9.73907 164.15 10.5203C163.369 11.7964 163.838 13.6609 164.53 14.8693C164.926 15.5516 165.546 16.4057 166.275 16.7651C167.416 17.3328 168.754 16.713 169.056 15.4734C169.457 13.8328 168.504 12.0359 167.27 11.0047C166.843 10.6453 166.327 10.4995 165.785 10.7234C165.249 10.9526 165.004 11.4057 164.952 11.963C164.817 13.5047 165.759 14.8068 166.937 15.687C167.364 16.0047 168.244 15.9057 168.582 15.4734C168.926 15.0255 169.192 14.562 169.171 13.9734C169.15 13.3797 168.905 12.9005 168.52 12.4839C168.035 11.963 167.082 11.9578 166.598 12.4839C166.088 13.0412 166.082 13.8432 166.598 14.4005C166.499 14.2495 166.483 14.2339 166.556 14.3537C166.504 14.2807 166.473 14.1974 166.468 14.1089C166.431 13.8693 166.52 13.7339 166.66 13.5568C167.207 13.4891 167.754 13.4162 168.301 13.3432C168.551 13.5307 168.239 13.2807 168.192 13.2391C168.114 13.1662 168.046 13.0776 167.968 13.0047C167.905 12.9318 167.921 12.9578 168.015 13.0776C167.973 13.0203 167.937 12.9682 167.895 12.9109C167.843 12.8276 167.796 12.7391 167.749 12.6505C167.593 12.3901 167.812 12.9057 167.733 12.6193C167.702 12.5255 167.681 12.4318 167.655 12.3432C167.567 12.0672 167.645 12.5984 167.65 12.3328C167.655 12.2078 167.65 12.0828 167.66 11.9578C166.89 12.2755 166.119 12.5984 165.348 12.9162C165.53 13.0724 165.707 13.2339 165.869 13.4109C165.89 13.4318 165.968 13.5047 165.973 13.5359C165.973 13.5359 165.838 13.338 165.921 13.4682C165.999 13.5828 166.077 13.6922 166.145 13.812C166.197 13.9005 166.239 13.9891 166.285 14.0776C166.364 14.2182 166.239 13.9891 166.244 13.9839C166.244 13.9891 166.291 14.1089 166.296 14.1245C166.332 14.2339 166.364 14.338 166.384 14.4526C166.395 14.4995 166.405 14.5464 166.41 14.5932C166.452 14.7651 166.405 14.338 166.4 14.5151C166.4 14.6141 166.41 14.7078 166.41 14.8016C166.41 14.8641 166.379 15.0724 166.416 14.8484C166.447 14.6453 166.426 14.7807 166.416 14.8224C166.41 14.838 166.546 14.5464 166.473 14.6766C166.405 14.8016 166.572 14.5464 166.567 14.5516C166.739 14.3849 166.947 14.3172 167.176 14.3172C167.285 14.3172 167.629 14.3172 167.681 14.4891C167.66 14.4266 167.504 14.3224 167.452 14.2703C167.374 14.187 167.296 14.1037 167.223 14.0203C167.176 13.963 167.129 13.9057 167.077 13.8484C167.093 13.8641 167.202 14.0307 167.124 13.9057C167.062 13.7964 166.983 13.6974 166.916 13.588C166.864 13.4995 166.812 13.4057 166.765 13.312C166.744 13.2807 166.676 13.1714 166.671 13.1245C166.671 13.1297 166.754 13.3589 166.707 13.2078C166.624 12.9839 166.551 12.7599 166.499 12.5255C166.499 12.5099 166.483 12.3901 166.473 12.3797C166.483 12.3849 166.499 12.6453 166.489 12.4943C166.483 12.3901 166.473 12.2912 166.468 12.1922C166.468 12.0776 166.473 11.963 166.478 11.8484C166.483 11.6141 166.437 12.1193 166.499 11.8068C166.53 11.6662 166.463 11.9109 166.457 11.9214C166.41 12.0047 166.327 12.0672 166.239 12.1193C166.447 12.0047 165.994 12.1609 166.233 12.1089C166.28 12.0984 166.327 12.088 166.369 12.0724C166.515 12.0307 166.259 12.1037 166.244 12.0932C166.254 12.0984 166.379 12.088 166.395 12.088C166.66 12.0932 166.431 12.1349 166.374 12.0724C166.405 12.1037 166.608 12.1245 166.655 12.1401C166.874 12.1974 166.489 12.0255 166.697 12.1662C166.723 12.1818 166.879 12.2599 166.874 12.2703C166.869 12.2859 166.687 12.1037 166.796 12.213C166.874 12.2912 166.963 12.3641 167.041 12.4474C167.072 12.4839 167.103 12.5203 167.134 12.5568C167.233 12.6609 167.067 12.4787 167.067 12.4682C167.067 12.5359 167.249 12.7234 167.296 12.7912C167.452 13.0203 167.588 13.2599 167.718 13.5099C167.744 13.562 167.765 13.6141 167.791 13.6662C167.801 13.6818 167.884 13.8589 167.822 13.7182C167.754 13.5724 167.832 13.7495 167.838 13.7703C167.858 13.8224 167.879 13.8745 167.9 13.9318C167.989 14.1818 168.062 14.4318 168.119 14.6922C168.145 14.8172 168.181 14.9526 168.187 15.0776C168.176 14.8328 168.176 15.0412 168.187 15.1609C168.202 15.3693 168.155 15.5984 168.181 15.7964C168.181 15.7859 168.249 15.5099 168.202 15.6297C168.187 15.6609 168.181 15.7078 168.176 15.7443C168.166 15.7807 168.145 15.8224 168.14 15.8589C168.124 15.9839 168.187 15.7287 168.207 15.7182C168.181 15.7287 167.999 16.0516 168.14 15.8484C168.275 15.6557 168.145 15.8172 168.14 15.8328C168.072 15.9943 168.114 15.7547 168.218 15.7755C168.202 15.7755 168.114 15.838 168.098 15.8432C167.957 15.937 168.338 15.7964 168.15 15.8172C168.124 15.8172 168.015 15.8693 167.989 15.8537C167.973 15.8432 168.254 15.8537 168.072 15.838C168.02 15.8328 167.692 15.838 167.858 15.8432C168.025 15.8537 167.848 15.8432 167.817 15.838C167.723 15.8172 167.629 15.7912 167.541 15.7651C167.431 15.7339 167.322 15.6922 167.213 15.6609C167.067 15.6141 167.265 15.6818 167.285 15.687C167.233 15.6662 167.187 15.6453 167.14 15.6193C166.91 15.5099 166.687 15.3849 166.473 15.2495C166.41 15.213 166.187 15.1037 166.166 15.0412C166.166 15.0464 166.353 15.1974 166.233 15.0984C166.197 15.062 166.155 15.0307 166.119 14.9995C165.942 14.8484 165.775 14.687 165.624 14.5151C165.593 14.4787 165.562 14.4422 165.53 14.4057C165.426 14.2964 165.593 14.4839 165.593 14.4891C165.593 14.4318 165.473 14.312 165.437 14.2599C165.384 14.1714 165.327 14.0776 165.28 13.9839C165.265 13.9526 165.249 13.8901 165.223 13.8641C165.265 13.9109 165.312 14.1141 165.259 13.9422C165.228 13.8276 165.197 13.713 165.16 13.6037C165.098 13.3849 165.176 13.8693 165.155 13.5568C165.15 13.4526 165.155 13.3484 165.155 13.2391C165.16 13.0047 165.155 13.2964 165.14 13.3328C165.16 13.2859 165.16 13.2078 165.176 13.1505C165.197 13.0516 165.239 12.9474 165.265 12.8432C165.301 12.7078 165.223 12.9422 165.213 12.9474C165.254 12.9057 165.291 12.7964 165.322 12.7391C165.374 12.6401 165.437 12.5464 165.499 12.4474C165.52 12.4214 165.619 12.3016 165.509 12.4266C165.379 12.5828 165.572 12.3641 165.603 12.3328C165.687 12.2443 165.77 12.1609 165.864 12.0828C165.905 12.0464 165.947 12.0151 165.989 11.9787C165.916 12.0412 165.843 12.0828 165.963 12.0099C166.072 11.9422 166.187 11.8745 166.301 11.8172C166.327 11.8016 166.483 11.7182 166.322 11.8016C166.16 11.8797 166.364 11.7859 166.4 11.7755C166.53 11.7287 166.66 11.687 166.801 11.6609C166.812 11.6609 166.952 11.6349 166.952 11.6349C166.952 11.6609 166.666 11.6505 166.9 11.6505C166.952 11.6505 167.004 11.6505 167.051 11.6505C167.088 11.6505 167.119 11.6505 167.155 11.6557C167.259 11.6662 167.223 11.6557 167.041 11.6401C167.051 11.6609 167.384 11.7391 167.421 11.7547C168.077 12.0203 168.937 11.463 169.088 10.8068C169.265 10.0255 168.848 9.42656 168.14 9.14531L168.15 9.15052Z" fill="#FFA59B"/>
<path d="M105.13 91.4842C105.13 91.4842 108.38 95.2134 115.354 95.2446C126.411 95.2915 129.244 88.5936 129.244 88.5936C129.244 88.5936 137.854 92.4738 143.406 86.6508C148.963 80.8331 147.63 73.4529 147.63 73.4529C151.619 71.0727 154.38 66.7394 154.843 62.1196C155.307 57.4998 153.463 52.7081 150.031 49.5779C150.916 42.38 144.708 35.1195 137.447 34.8591C136.76 28.6612 132.838 22.906 127.312 19.9945C121.786 17.083 114.817 17.0987 109.302 20.031C107.359 18.057 105.911 16.4476 101.635 16.1039C94.6819 15.5414 91.3642 20.031 91.3642 20.031C85.8486 17.0987 78.8799 17.083 73.3486 19.9945C67.8226 22.906 63.9008 28.6612 63.2185 34.8591C55.9581 35.1195 49.7446 42.38 50.6352 49.5779C47.1977 52.7029 45.3591 57.4998 45.8227 62.1196C46.2862 66.7394 49.0466 71.0727 53.0362 73.4529C53.0362 73.4529 51.7029 80.8331 57.2549 86.6508C62.8122 92.4738 71.4216 88.5936 71.4216 88.5936C71.4216 88.5936 77.2653 95.9373 85.3069 95.2446C92.26 94.6457 95.5309 91.4842 95.5309 91.4842C95.5309 91.4842 99.2496 94.2238 105.13 91.4842Z" fill="#FFCFCA"/>
<path d="M65.5891 48.4796C65.636 44.5004 69.1829 41.9535 73.0214 42.6514C73.8912 42.8077 74.7141 42.2817 74.7349 41.3442C74.7818 39.4692 75.412 37.7139 76.8339 36.4796C78.511 35.0264 80.7558 34.3598 82.9276 34.8962C84.6203 35.3129 85.3443 32.7035 83.6464 32.2869C80.5787 31.5316 77.5214 32.4066 75.1152 34.3962C73.0474 36.1098 72.0839 38.6931 72.0214 41.3442C72.5943 40.9119 73.1672 40.4744 73.7402 40.0421C70.7714 39.5004 67.9173 40.0577 65.6308 42.1046C63.8079 43.7348 62.9016 46.0681 62.8756 48.4796C62.8548 50.2192 65.5683 50.2192 65.5891 48.4796Z" fill="#FFA59B"/>
<path d="M65.4584 76.5472C66.9168 79.2816 68.948 81.7712 71.6199 83.4066C74.4376 85.1358 77.9844 85.7712 81.1667 84.7712C82.8282 84.2451 82.1198 81.6357 80.448 82.1618C74.9636 83.8805 70.2136 79.6982 67.8022 75.1826C66.9845 73.6409 64.6407 75.0055 65.4584 76.5472Z" fill="#FFA59B"/>
<path d="M126.322 34.3287C127.129 34.7193 127.926 35.1412 128.681 35.6203C129.04 35.8495 129.395 36.0891 129.733 36.3495C129.582 36.2349 129.744 36.3651 129.811 36.412C129.889 36.4797 129.973 36.5474 130.056 36.6151C130.233 36.7662 130.4 36.9172 130.566 37.0735C130.848 37.3443 131.113 37.6255 131.369 37.9224C131.431 37.9953 131.493 38.0735 131.556 38.1464C131.796 38.4485 131.405 37.9328 131.624 38.2453C131.733 38.4068 131.848 38.563 131.952 38.7297C132.16 39.0526 132.348 39.3912 132.514 39.7453C132.53 39.7818 132.66 40.1308 132.561 39.8443C132.592 39.9381 132.629 40.0266 132.66 40.1203C132.733 40.3183 132.796 40.5214 132.848 40.7297C133.035 41.412 133.822 41.8964 134.52 41.6724C135.223 41.4485 135.665 40.7401 135.462 40.0058C134.421 36.1724 131.119 33.6516 127.691 31.9901C127.051 31.6828 126.197 31.7974 125.837 32.4797C125.514 33.0839 125.639 34.0005 126.322 34.3287Z" fill="#FFA59B"/>
<path d="M71.9379 55.2705C71.9379 55.2705 71.5681 52.9944 75.7556 52.7288C79.9483 52.4684 84.6618 53.76 82.917 56.8642C81.167 59.9632 70.9171 58.7705 71.9431 55.2705H71.9379Z" fill="#FFA59B"/>
<path d="M119.984 56.8077C119.984 56.8077 119.38 54.5785 123.52 53.8962C127.661 53.2139 132.484 54.0212 131.062 57.2816C129.64 60.5421 119.323 60.391 119.984 56.8077Z" fill="#FFA59B"/>
<path d="M70.953 33.9744C70.4009 34.6827 67.1041 36.1566 66.6301 31.4118C66.1614 26.6723 72.4582 19.3129 78.7395 19.9691C85.0259 20.6254 78.4999 25.0577 75.7447 27.2556C72.9947 29.4587 72.2655 32.2764 70.953 33.9744Z" fill="white"/>
<path d="M122.949 23.3804C121.944 21.3127 117.964 21.1825 115.735 21.5262C115.49 21.5627 115.22 21.62 115.048 21.8023C114.813 22.0419 114.824 22.4429 114.985 22.7398C115.147 23.0314 115.428 23.2398 115.709 23.4169C117.72 24.6981 120.261 25.1044 122.569 24.521C122.845 24.4533 123.157 24.3179 123.209 24.0419C123.235 23.9064 123.183 23.7658 123.115 23.646C122.74 22.9221 121.813 22.5262 121.027 22.7554" fill="white"/>
<path d="M124.12 22.6982C123.396 21.2711 121.766 20.5472 120.261 20.2607C118.688 19.9638 117.079 19.9638 115.501 20.2034C114.928 20.2867 114.412 20.4899 114.016 20.9274C113.516 21.4847 113.396 22.2919 113.631 22.9951C113.985 24.0836 115.126 24.7242 116.115 25.167C118.131 26.0784 120.35 26.3545 122.527 25.9117C123.214 25.7763 123.907 25.5315 124.297 24.9013C124.745 24.193 124.589 23.3232 124.105 22.6774C123.303 21.6044 121.98 21.1149 120.667 21.4482C119.98 21.6201 119.501 22.4274 119.725 23.1097C119.954 23.8232 120.652 24.2451 121.391 24.0576C121.641 23.9951 121.412 24.042 121.36 24.0472C121.433 24.042 121.506 24.0472 121.579 24.042C121.527 24.0472 121.303 23.969 121.547 24.0367C121.6 24.0524 121.657 24.0732 121.709 24.0836C121.886 24.1201 121.547 23.9742 121.693 24.0784C121.73 24.1045 121.938 24.2138 121.792 24.1201C121.662 24.042 121.808 24.1357 121.829 24.1565C122.115 24.3857 121.636 23.9742 121.896 24.2242C122.073 24.3961 121.782 24.8805 122.12 23.7555C122.178 23.5628 122.235 23.3753 122.292 23.1826C122.178 23.2451 122.167 23.2555 122.256 23.2086C122.396 23.167 122.016 23.2555 121.943 23.2711C121.766 23.3128 121.584 23.344 121.402 23.3753C121.62 23.3388 121.391 23.3753 121.355 23.3753C121.24 23.3857 121.126 23.3961 121.016 23.4065C120.672 23.4274 120.329 23.4326 119.985 23.4117C119.803 23.4013 119.62 23.3857 119.438 23.3649C119.469 23.3701 119.62 23.3909 119.459 23.3701C119.344 23.3492 119.235 23.3336 119.12 23.3128C118.782 23.2451 118.448 23.1617 118.12 23.0576C117.948 23.0055 117.777 22.943 117.605 22.8753C117.542 22.8545 117.475 22.8284 117.412 22.8024C117.62 22.8909 117.235 22.7138 117.235 22.7138C116.948 22.5732 116.667 22.4169 116.396 22.2451C116.329 22.2034 116.256 22.1565 116.188 22.1044C116.37 22.2451 116.188 22.0992 116.172 22.0732C116.245 22.2034 116.162 22.1565 116.157 22.0524C116.162 22.1617 116.23 22.2451 116.214 22.3701C116.178 22.6149 116.021 22.6982 115.865 22.8336C115.662 23.0003 115.725 22.8909 115.844 22.8753C115.98 22.8597 116.131 22.8388 116.261 22.8024C116.235 22.8128 115.922 22.844 116.162 22.818C116.225 22.8128 116.282 22.8076 116.344 22.8024C116.469 22.7867 116.589 22.7763 116.719 22.7659C117.256 22.7294 117.797 22.719 118.339 22.7451C118.584 22.7555 118.834 22.7711 119.073 22.7972C119.146 22.8024 119.214 22.818 119.287 22.8232C118.975 22.7867 119.167 22.8024 119.235 22.818C119.391 22.844 119.547 22.8701 119.698 22.9013C119.98 22.9586 120.256 23.0315 120.527 23.1201C120.589 23.1409 120.652 23.1617 120.709 23.1826C120.74 23.1982 120.995 23.3232 120.813 23.2242C120.646 23.1305 120.823 23.2295 120.865 23.2555C120.933 23.2867 121.001 23.3232 121.068 23.3597C121.188 23.4274 121.292 23.5055 121.412 23.5732C121.537 23.6461 121.303 23.5055 121.308 23.4951C121.313 23.4899 121.495 23.6565 121.501 23.667C121.532 23.693 121.558 23.7242 121.589 23.7555C121.782 23.943 121.547 23.7711 121.563 23.7086C121.553 23.7347 121.761 24.0315 121.777 24.0628C122.1 24.6982 123.042 24.9274 123.636 24.5524C124.282 24.1357 124.464 23.3753 124.12 22.6982Z" fill="white"/>
<path d="M140.828 67.8807C140.078 68.6463 138.921 70.813 142 72.0109C145.072 73.2036 149.52 70.2818 151.489 65.1515C153.458 60.0213 150.723 58.662 148.52 58.6515C146.317 58.6411 143.864 64.7765 140.833 67.8807H140.828Z" fill="#FFBDC5"/>
<path d="M103.818 28.6614C104.042 28.7343 104.26 28.8124 104.479 28.901C104.255 28.8124 104.505 28.9114 104.583 28.9479C104.672 28.9895 104.76 29.0312 104.849 29.0781C105.25 29.276 105.641 29.4999 106.016 29.7499C106.115 29.8124 106.213 29.8802 106.307 29.9479C106.354 29.9843 106.63 30.1927 106.406 30.0156C106.578 30.151 106.745 30.2864 106.906 30.427C107.24 30.7239 107.562 31.0416 107.859 31.3802C107.937 31.4687 108.016 31.5572 108.088 31.6458C108.109 31.6718 108.312 31.9218 108.203 31.7864C108.109 31.6614 108.323 31.9427 108.349 31.9739C108.406 32.0572 108.458 32.1354 108.516 32.2187C108.781 32.6041 109.021 33.0104 109.229 33.427C109.276 33.5104 109.318 33.5989 109.359 33.6875C109.375 33.7239 109.521 34.052 109.453 33.901C109.385 33.7395 109.505 34.0364 109.521 34.0625C109.562 34.1718 109.604 34.2812 109.641 34.3958C109.792 34.8385 109.911 35.2916 110.005 35.75C110.146 36.4479 111.01 36.9062 111.672 36.6927C112.411 36.4531 112.771 35.776 112.62 35.0312C111.786 30.8541 108.562 27.3697 104.536 26.0416C103.865 25.8229 103.026 26.302 102.87 26.9895C102.698 27.7343 103.094 28.4166 103.818 28.651V28.6614Z" fill="#FFA59B"/>
<path d="M111.342 39.001C111.728 38.5531 112.144 38.1312 112.603 37.7562C112.65 37.7145 112.702 37.6728 112.754 37.6312C112.952 37.4697 112.618 37.7301 112.754 37.6312C112.874 37.5478 112.993 37.4541 113.113 37.376C113.363 37.2093 113.613 37.0531 113.868 36.9072C114.113 36.7718 114.363 36.6468 114.618 36.527C114.691 36.4958 114.764 36.4541 114.842 36.4281C114.759 36.4541 114.634 36.5114 114.79 36.4541C114.931 36.3968 115.072 36.3447 115.207 36.2978C115.785 36.0999 116.379 35.9541 116.978 35.8551C117.681 35.7458 118.134 34.8343 117.926 34.1937C117.676 33.4281 117.009 33.126 116.254 33.2458C113.634 33.6624 111.139 35.0739 109.421 37.0895C108.962 37.626 108.853 38.4801 109.421 39.0062C109.926 39.4645 110.848 39.5791 111.342 39.0062V39.001Z" fill="#FFA59B"/>
<path d="M60.9374 83.276C59.4583 81.6458 56.5468 76.8958 61.0208 72.8541C65.4999 68.8072 72.7968 72.3749 74.0988 74.8854C74.0988 74.8854 77.8436 75.2604 80.7967 78.5104C80.7967 78.5104 87.2238 73.6822 93.8227 76.0937C100.422 78.5104 100.812 81.1979 102.854 81.5312C104.896 81.8593 106.609 78.1302 111.755 78.5729C116.901 79.0156 118.411 83.3802 118.411 83.3802C118.411 83.3802 124.781 81.901 126 78.401C127.224 74.8958 132.968 73.5364 135.916 76.276C138.869 79.0156 138.807 84.3593 134.765 85.802C130.729 87.2395 128.437 85.3802 128.109 85.802C127.781 86.2239 124.213 91.5052 117.75 92.2083C108.979 93.1666 105.515 88.927 105.515 88.927C105.515 88.927 100.151 90.9531 95.1144 88.4843C95.1144 88.4843 94.3383 88.5625 92.2863 89.5312C87.8019 91.6458 81.0624 92.1198 76.8228 89.5312C72.5884 86.9479 71.9582 85.4739 70.9791 84.7291C70.6666 84.4895 70.2968 84.375 69.9061 84.3802C68.0728 84.4218 63.3905 85.9791 60.9374 83.276Z" fill="#FFBDC5"/>
<path d="M73.036 75.4116C75.6402 78.6929 80.3068 80.0887 84.3068 78.9221C85.0099 78.7137 85.4526 77.9689 85.2547 77.2554C85.062 76.5575 84.2912 76.1043 83.5881 76.3127C83.1714 76.4325 82.7495 76.5314 82.3224 76.5887C82.5099 76.5627 82.2495 76.5887 82.1818 76.5991C82.0881 76.6043 81.9943 76.6148 81.8954 76.62C81.6818 76.6304 81.4683 76.6356 81.2547 76.6304C81.036 76.6252 80.8224 76.6148 80.6089 76.5991C80.4891 76.5887 80.3693 76.5783 80.2495 76.5575C80.4006 76.5783 80.2443 76.5575 80.187 76.5471C79.7339 76.4637 79.2912 76.3648 78.8589 76.2241C78.0881 75.9845 77.4787 75.6877 76.7287 75.1825C76.135 74.7866 75.4995 74.1825 74.9579 73.5002C74.5048 72.9273 73.5152 73.0262 73.036 73.5002C72.4735 74.0679 72.5829 74.8439 73.036 75.4168V75.4116Z" fill="#FFA59B"/>
<path d="M52.6101 65.7134C53.9226 67.7342 55.5424 69.5207 57.7142 70.6353C59.8913 71.7551 62.3444 72.1769 64.7767 71.8644C65.5007 71.7707 66.1309 71.3123 66.1309 70.5103C66.1309 69.854 65.5059 69.0675 64.7767 69.1561C63.6569 69.3019 62.4902 69.3175 61.459 69.1092C60.9955 69.0155 60.5319 68.8905 60.084 68.729C59.9746 68.6925 59.8705 68.6509 59.7611 68.6092C59.6882 68.5832 59.4746 68.4894 59.6517 68.5675C59.459 68.4842 59.2715 68.3905 59.084 68.2967C57.3184 67.3957 56.0267 65.9946 54.9538 64.3488C54.558 63.7342 53.7559 63.479 53.0997 63.8592C52.4903 64.2186 52.2142 65.0988 52.6153 65.7134H52.6101Z" fill="#FFA59B"/>
<path d="M134.522 63.5368C134.084 67.1462 130.719 70.1306 127.121 70.292C126.105 70.3389 125.412 71.4118 125.949 72.3285C126.949 74.0368 126.225 76.1931 124.943 77.5524C123.365 79.2295 121.147 80.1254 119.068 81.0004C118.386 81.2868 118.251 82.2764 118.579 82.8493C118.98 83.5524 119.766 83.6202 120.433 83.3389C123.105 82.2139 125.85 80.9587 127.61 78.5524C129.209 76.3702 129.693 73.3597 128.287 70.9639C127.902 71.641 127.511 72.3233 127.121 73.0004C132.329 72.766 136.61 68.6618 137.235 63.5368C137.324 62.8076 136.548 62.193 135.876 62.1878C135.068 62.1774 134.605 62.818 134.522 63.5368Z" fill="#FFA59B"/>
<path d="M145 56.4739C148.537 57.5833 152.365 56.5208 155.266 54.3437C157.479 52.6926 159.641 50.6926 161.375 48.5364C163.432 45.9843 164.849 43.0676 165.771 39.927C166.766 36.5624 167.542 33.052 168.073 29.5832C168.662 25.7239 168.755 21.8384 168.755 17.9426C168.755 16.203 166.047 16.1978 166.042 17.9426C166.042 21.1301 166.01 24.328 165.641 27.4947C165.297 30.453 164.62 33.3645 163.922 36.2499C163.156 39.4114 162.25 42.4843 160.458 45.2343C159.104 47.3124 157.302 49.026 155.458 50.6614C152.74 53.0676 149.469 55.0416 145.724 53.8645C144.057 53.3385 143.344 55.9531 145.005 56.4739H145Z" fill="#FFA59B"/>
<path d="M141.02 9.24533H193.775C194.004 9.24533 194.202 9.32346 194.369 9.49012C194.53 9.65158 194.614 9.8495 194.614 10.0787V15.2193C194.614 15.4537 194.53 15.6516 194.369 15.813C194.202 15.9745 194.004 16.0578 193.775 16.0578H141.02C140.791 16.0578 140.593 15.9745 140.426 15.813C140.265 15.6516 140.182 15.4537 140.182 15.2193V10.0787C140.182 9.8495 140.265 9.65158 140.426 9.49012C140.593 9.32346 140.791 9.24533 141.02 9.24533Z" fill="#816B7D"/>
<path d="M89.0252 46.2032C88.2648 45.8074 87.2804 46.2501 86.8013 46.9532C86.3221 47.6563 86.2179 48.5522 86.1554 49.4011C86.1034 50.1042 86.0773 50.8386 86.369 51.4845C86.6606 52.1303 87.3638 52.6407 88.0565 52.4792C89.02 52.2449 89.27 51.0105 89.3221 50.0209C89.3481 49.5261 89.3742 49.0261 89.4002 48.5313C89.4315 47.9376 89.4575 47.3126 89.2023 46.7761C88.9419 46.2449 88.3013 45.8438 87.744 46.0626" fill="black"/>
<path d="M89.7078 45.0368C88.7859 44.5993 87.8745 44.6358 86.963 45.0681C86.2026 45.4327 85.6349 46.1306 85.312 46.8962C84.9734 47.6983 84.8693 48.5368 84.8068 49.4014C84.7391 50.3181 84.7859 51.2139 85.1609 52.0629C85.9057 53.766 88.1974 54.49 89.5932 53.0993C90.6922 52.0108 90.6557 50.3285 90.7338 48.9014C90.7859 47.9014 90.8432 46.8233 90.2807 45.9431C89.6817 45.0056 88.4942 44.3858 87.3849 44.7608C86.7182 44.9899 86.2078 45.6983 86.4422 46.4222C86.6557 47.0837 87.3901 47.6149 88.1088 47.3649C88.2234 47.3233 88.2651 47.3597 87.9995 47.3545C88.062 47.3545 88.1609 47.3806 87.989 47.3337C87.7807 47.2816 87.9682 47.3441 88.0203 47.3545C88.1557 47.3754 87.9109 47.3233 87.9005 47.3024C87.9057 47.3181 88.0515 47.3702 88.0567 47.3962L87.989 47.3493C87.9005 47.2816 87.9005 47.2868 87.989 47.3649C88.0151 47.417 88.0463 47.5056 87.9995 47.3702C87.9265 47.1566 88.0359 47.4431 88.0359 47.4639C88.0359 47.4431 87.9526 47.1722 88.0151 47.4483C88.0255 47.5004 88.0359 47.5577 88.0567 47.6097C88.1192 47.792 88.0463 47.3858 88.0567 47.5785C88.0567 47.6358 88.062 47.6879 88.0672 47.7452C88.0776 48.0524 88.062 48.3545 88.0463 48.6566C88.0151 49.2243 88.0047 49.792 87.9474 50.3545C87.9422 50.3962 87.9318 50.4379 87.9318 50.4795C87.9213 50.6618 87.989 50.1983 87.9474 50.3754C87.9213 50.4691 87.9109 50.5681 87.8849 50.667C87.864 50.766 87.8432 50.8545 87.812 50.9483C87.7963 50.99 87.7807 51.0264 87.7703 51.0681C87.6922 51.3181 87.8797 50.891 87.7963 51.0056C87.7755 51.0316 87.6609 51.2035 87.6609 51.24C87.6557 51.115 87.8536 51.0316 87.7338 51.1462C87.7182 51.1618 87.6297 51.24 87.6297 51.2504C87.6297 51.2556 87.8693 51.0733 87.7547 51.1514C87.7026 51.1879 87.5568 51.24 87.7547 51.1722C87.989 51.0889 87.7963 51.1618 87.7703 51.1618C87.4995 51.1514 88.0099 51.1827 87.8276 51.1618C87.7807 51.1566 87.5724 51.1566 87.7859 51.1722C87.989 51.1827 87.8328 51.1618 87.7911 51.1618C87.6193 51.1514 87.8015 51.0316 87.864 51.1931C87.8588 51.1775 87.7599 51.1306 87.7443 51.1254C87.588 51.0525 87.9161 51.292 87.7963 51.167C87.7651 51.1358 87.7234 51.1045 87.6922 51.0733C87.4995 50.9014 87.7182 51.1306 87.7234 51.1306C87.6713 51.1045 87.6193 50.9795 87.5984 50.9327C87.5828 50.9066 87.5359 50.8389 87.5359 50.8129C87.5515 50.8493 87.5724 50.8858 87.588 50.9275L87.5568 50.8233C87.5411 50.7504 87.5203 50.6774 87.5047 50.6045C87.4995 50.5785 87.463 50.3962 87.4943 50.5681C87.5255 50.7504 87.4943 50.516 87.489 50.4691C87.4838 50.4118 87.4838 50.3597 87.4786 50.3024C87.4734 50.1514 87.4786 50.0004 87.4838 49.8545C87.4943 49.5785 87.5151 49.3024 87.5411 49.0316C87.5463 48.9795 87.5515 48.9222 87.5568 48.8702C87.5828 48.6097 87.5515 48.8649 87.5515 48.9066C87.5568 48.766 87.5984 48.6202 87.6297 48.4847C87.6609 48.3285 87.7078 48.1722 87.7599 48.0264C87.7703 47.9795 87.7859 47.9066 87.812 47.8754C87.6505 48.0837 87.7911 47.9483 87.8328 47.8649C87.8588 47.8181 87.8901 47.7764 87.9161 47.7295C88.0672 47.4483 87.7911 47.8389 87.8953 47.7347C87.937 47.6931 87.9734 47.6462 88.0203 47.6045C88.1245 47.5056 88.1974 47.5316 87.9838 47.6149C88.088 47.5733 88.1974 47.4795 88.2911 47.4222C88.437 47.3389 88.338 47.4795 88.213 47.4587C88.2495 47.4639 88.3484 47.4222 88.3797 47.4066C88.6192 47.3337 88.2963 47.4431 88.2755 47.417C88.2859 47.4274 88.4734 47.417 88.489 47.417C88.6245 47.3962 88.3588 47.4118 88.3432 47.3962C88.3849 47.4066 88.4265 47.417 88.463 47.4274C88.562 47.4639 88.5203 47.4431 88.3432 47.3754C88.9786 47.6774 89.8328 47.5733 90.1922 46.891C90.5151 46.292 90.3901 45.3702 89.7078 45.0472V45.0368Z" fill="black"/>
<path d="M117.735 46.2032C116.975 45.8074 115.996 46.2501 115.511 46.9532C115.032 47.6563 114.928 48.5522 114.865 49.4011C114.818 50.1042 114.792 50.8386 115.079 51.4845C115.371 52.1303 116.079 52.6407 116.766 52.4792C117.735 52.2449 117.98 51.0105 118.032 50.0209C118.058 49.5261 118.084 49.0261 118.11 48.5313C118.141 47.9376 118.167 47.3126 117.912 46.7761C117.657 46.2449 117.011 45.8438 116.454 46.0626" fill="black"/>
<path d="M118.417 45.0368C117.495 44.5993 116.589 44.6358 115.672 45.0681C114.912 45.4327 114.344 46.1306 114.021 46.8962C113.683 47.6983 113.579 48.5368 113.516 49.4014C113.449 50.3181 113.495 51.2139 113.87 52.0629C114.615 53.766 116.912 54.49 118.308 53.0993C119.402 52.0108 119.365 50.3285 119.443 48.9014C119.495 47.9014 119.553 46.8233 118.99 45.9431C118.396 45.0056 117.204 44.3858 116.1 44.7608C115.428 44.9899 114.917 45.6983 115.152 46.4222C115.37 47.0837 116.1 47.6149 116.818 47.3649C116.933 47.3233 116.975 47.3597 116.709 47.3545C116.771 47.3545 116.87 47.3806 116.704 47.3337C116.49 47.2816 116.678 47.3441 116.735 47.3545C116.87 47.3754 116.62 47.3233 116.615 47.3024C116.62 47.3181 116.766 47.3702 116.766 47.3962L116.699 47.3493C116.61 47.2816 116.61 47.2868 116.699 47.3649C116.725 47.417 116.756 47.5056 116.709 47.3702C116.636 47.1566 116.745 47.4431 116.745 47.4639C116.745 47.4431 116.662 47.1722 116.725 47.4483C116.735 47.5004 116.751 47.5577 116.766 47.6097C116.829 47.792 116.761 47.3858 116.766 47.5785C116.766 47.6358 116.777 47.6879 116.777 47.7452C116.792 48.0524 116.771 48.3545 116.756 48.6566C116.725 49.2243 116.714 49.792 116.657 50.3545C116.652 50.3962 116.646 50.4379 116.641 50.4795C116.631 50.6618 116.699 50.1983 116.657 50.3754C116.631 50.4691 116.62 50.5681 116.6 50.667C116.574 50.766 116.553 50.8545 116.521 50.9483C116.506 50.99 116.495 51.0264 116.48 51.0681C116.407 51.3181 116.589 50.891 116.506 51.0056C116.485 51.0316 116.37 51.2035 116.37 51.24C116.365 51.115 116.568 51.0316 116.443 51.1462C116.428 51.1618 116.339 51.24 116.339 51.2504C116.339 51.2556 116.579 51.0733 116.469 51.1514C116.412 51.1879 116.271 51.24 116.464 51.1722C116.699 51.0889 116.506 51.1618 116.485 51.1618C116.209 51.1514 116.725 51.1827 116.542 51.1618C116.49 51.1566 116.282 51.1566 116.501 51.1722C116.704 51.1827 116.542 51.1618 116.501 51.1618C116.329 51.1514 116.516 51.0316 116.574 51.1931C116.568 51.1775 116.469 51.1306 116.454 51.1254C116.297 51.0525 116.626 51.292 116.506 51.167C116.475 51.1358 116.438 51.1045 116.402 51.0733C116.209 50.9014 116.428 51.1306 116.433 51.1306C116.381 51.1045 116.334 50.9795 116.308 50.9327C116.292 50.9066 116.245 50.8389 116.245 50.8129L116.303 50.9275L116.266 50.8233C116.256 50.7504 116.23 50.6774 116.214 50.6045C116.209 50.5785 116.172 50.3962 116.204 50.5681C116.235 50.7504 116.204 50.516 116.199 50.4691C116.193 50.4118 116.193 50.3597 116.188 50.3024C116.188 50.1514 116.188 50.0004 116.193 49.8545C116.204 49.5785 116.225 49.3024 116.251 49.0316C116.256 48.9795 116.261 48.9222 116.266 48.8702C116.292 48.6097 116.261 48.8649 116.261 48.9066C116.266 48.766 116.308 48.6202 116.339 48.4847C116.376 48.3285 116.417 48.1722 116.469 48.0264C116.485 47.9795 116.501 47.9066 116.527 47.8754C116.36 48.0837 116.501 47.9483 116.542 47.8649C116.574 47.8181 116.6 47.7764 116.626 47.7295C116.777 47.4483 116.501 47.8389 116.605 47.7347C116.646 47.6931 116.688 47.6462 116.73 47.6045C116.834 47.5056 116.907 47.5316 116.693 47.6149C116.797 47.5733 116.907 47.4795 117.001 47.4222C117.152 47.3389 117.047 47.4795 116.922 47.4587C116.959 47.4639 117.058 47.4222 117.094 47.4066C117.329 47.3337 117.006 47.4431 116.99 47.417C116.995 47.4274 117.183 47.417 117.199 47.417C117.334 47.3962 117.068 47.4118 117.053 47.3962C117.094 47.4066 117.136 47.417 117.178 47.4274C117.271 47.4639 117.23 47.4431 117.053 47.3754C117.688 47.6774 118.542 47.5733 118.907 46.891C119.225 46.292 119.1 45.3702 118.417 45.0472V45.0368Z" fill="black"/>
<path d="M169.214 19.2501C169.626 19.1772 170.011 19.0053 170.396 18.8438C170.74 18.6928 171.079 18.5157 171.396 18.3178C172.136 17.8647 172.896 17.2917 173.355 16.5365C173.475 16.3334 173.579 16.099 173.631 15.8646C173.662 15.7032 173.693 15.5313 173.683 15.3646C173.678 15.1928 173.662 15.0157 173.6 14.8594C173.464 14.5157 173.308 14.2396 172.98 14.0469C172.688 13.8803 172.256 13.8074 171.933 13.9115C171.605 14.0209 171.287 14.224 171.12 14.5313C170.959 14.8334 170.85 15.2449 170.985 15.5782C171.001 15.6146 171.011 15.6563 171.016 15.7032L170.969 15.3386C170.975 15.3959 170.975 15.4428 170.964 15.4949L171.016 15.1355C171.006 15.198 170.985 15.2605 170.959 15.323C171.006 15.2136 171.053 15.1094 171.1 15.0001C171.047 15.1251 170.975 15.2396 170.891 15.349C170.959 15.2553 171.032 15.1615 171.105 15.073C170.896 15.3386 170.646 15.5574 170.381 15.7657C170.475 15.6928 170.568 15.6199 170.657 15.5521C170.146 15.9428 169.589 16.2709 168.995 16.5209L169.318 16.3803C169.053 16.4949 168.777 16.5886 168.495 16.6407C168.178 16.6928 167.839 16.9949 167.683 17.2605C167.511 17.5522 167.443 17.9792 167.547 18.3022C167.652 18.6303 167.855 18.948 168.167 19.1147C168.506 19.2917 168.834 19.3178 169.214 19.2501Z" fill="#FFA59B"/>
<path d="M93.1393 59.2661C98.6757 61.5995 105.197 61.0786 110.165 57.6203C110.764 57.2036 111.04 56.4328 110.65 55.7661C110.301 55.1776 109.4 54.8599 108.795 55.2817C104.691 58.1411 99.1653 58.8911 94.5091 56.9276C93.8372 56.6463 93.056 56.7244 92.6549 57.4119C92.3216 57.9797 92.4622 58.9797 93.1445 59.2661H93.1393Z" fill="black"/>
<path d="M107.458 54.9996C108.291 56.958 110.041 58.4475 112.036 59.1402C112.353 59.2496 112.796 59.1663 113.083 58.9996C113.364 58.8382 113.63 58.5152 113.702 58.1923C113.88 57.4371 113.478 56.7757 112.76 56.5257C112.635 56.484 112.51 56.4371 112.39 56.385L112.713 56.5257C112.208 56.3121 111.734 56.0361 111.301 55.708C111.39 55.7757 111.484 55.8486 111.577 55.9163C111.145 55.583 110.755 55.1975 110.416 54.7705C110.489 54.859 110.557 54.9527 110.63 55.0413C110.296 54.609 110.015 54.1402 109.801 53.635C109.682 53.3486 109.281 53.0934 108.994 53.0152C108.666 52.9267 108.234 52.9632 107.947 53.1507C107.656 53.3382 107.4 53.6142 107.322 53.9632L107.275 54.3225C107.275 54.5621 107.338 54.7913 107.463 55.0048L107.458 54.9996Z" fill="black"/>
<mask id="mask2_6061_44123" style="mask-type:luminance" maskUnits="userSpaceOnUse" x="175" y="0" width="25" height="25">
<path d="M175.333 0H200V24.9584H175.333V0Z" fill="white"/>
</mask>
<g mask="url(#mask2_6061_44123)">
<path d="M200.006 12.2549C200.006 13.057 199.927 13.8539 199.771 14.6455C199.615 15.4372 199.381 16.2028 199.073 16.9476C198.761 17.6924 198.386 18.3955 197.938 19.0674C197.49 19.7393 196.98 20.3539 196.407 20.9268C195.839 21.4945 195.219 22.0049 194.547 22.4528C193.875 22.9007 193.167 23.2757 192.422 23.583C191.677 23.8903 190.907 24.1247 190.115 24.281C189.323 24.4372 188.526 24.5153 187.719 24.5153C186.912 24.5153 186.11 24.4372 185.318 24.281C184.526 24.1247 183.761 23.8903 183.016 23.583C182.271 23.2757 181.563 22.9007 180.891 22.4528C180.219 22.0049 179.599 21.4945 179.026 20.9268C178.459 20.3539 177.948 19.7393 177.5 19.0674C177.052 18.3955 176.672 17.6924 176.365 16.9476C176.052 16.2028 175.823 15.4372 175.667 14.6455C175.506 13.8539 175.427 13.057 175.427 12.2549C175.427 11.4476 175.506 10.6507 175.667 9.85906C175.823 9.0726 176.052 8.30177 176.365 7.56218C176.672 6.81739 177.052 6.10906 177.5 5.43718C177.948 4.77051 178.459 4.15072 179.026 3.58301C179.599 3.01009 180.219 2.50489 180.891 2.05697C181.563 1.60905 182.271 1.22884 183.016 0.921551C183.761 0.61426 184.526 0.379883 185.318 0.223633C186.11 0.0673822 186.912 -0.0107422 187.719 -0.0107422C188.526 -0.0107422 189.323 0.0673822 190.115 0.223633C190.907 0.379883 191.677 0.61426 192.422 0.921551C193.167 1.22884 193.875 1.60905 194.547 2.05697C195.219 2.50489 195.839 3.01009 196.407 3.58301C196.98 4.15072 197.49 4.77051 197.938 5.43718C198.386 6.10906 198.761 6.81739 199.073 7.56218C199.381 8.30177 199.615 9.0726 199.771 9.85906C199.927 10.6507 200.006 11.4476 200.006 12.2549Z" fill="#5E4D5C"/>
</g>
<mask id="mask3_6061_44123" style="mask-type:luminance" maskUnits="userSpaceOnUse" x="133" y="0" width="28" height="25">
<path d="M134 0H160.666V24.9584H134V0Z" fill="white"/>
</mask>
<g mask="url(#mask3_6061_44123)">
<path d="M159.651 12.2549C159.651 13.057 159.573 13.8539 159.417 14.6455C159.261 15.4372 159.026 16.2028 158.719 16.9476C158.406 17.6924 158.031 18.3955 157.584 19.0674C157.136 19.7393 156.625 20.3539 156.052 20.9268C155.485 21.4945 154.86 22.0049 154.193 22.4528C153.521 22.9007 152.813 23.2757 152.068 23.583C151.323 23.8903 150.552 24.1247 149.761 24.281C148.969 24.4372 148.172 24.5153 147.365 24.5153C146.558 24.5153 145.755 24.4372 144.964 24.281C144.172 24.1247 143.407 23.8903 142.662 23.583C141.917 23.2757 141.209 22.9007 140.537 22.4528C139.865 22.0049 139.245 21.4945 138.672 20.9268C138.104 20.3539 137.594 19.7393 137.146 19.0674C136.698 18.3955 136.318 17.6924 136.011 16.9476C135.698 16.2028 135.469 15.4372 135.308 14.6455C135.151 13.8539 135.073 13.057 135.073 12.2549C135.073 11.4476 135.151 10.6507 135.308 9.85906C135.469 9.0726 135.698 8.30177 136.011 7.56218C136.318 6.81739 136.698 6.10906 137.146 5.43718C137.594 4.77051 138.104 4.15072 138.672 3.58301C139.245 3.01009 139.865 2.50489 140.537 2.05697C141.209 1.60905 141.917 1.22884 142.662 0.921551C143.407 0.61426 144.172 0.379883 144.964 0.223633C145.755 0.0673822 146.558 -0.0107422 147.365 -0.0107422C148.172 -0.0107422 148.969 0.0673822 149.761 0.223633C150.552 0.379883 151.323 0.61426 152.068 0.921551C152.813 1.22884 153.521 1.60905 154.193 2.05697C154.86 2.50489 155.485 3.01009 156.052 3.58301C156.625 4.15072 157.136 4.77051 157.584 5.43718C158.031 6.10906 158.406 6.81739 158.719 7.56218C159.026 8.30177 159.261 9.0726 159.417 9.85906C159.573 10.6507 159.651 11.4476 159.651 12.2549Z" fill="#5E4D5C"/>
</g>
<path d="M139.542 10.6824C139.604 10.3542 139.677 10.0313 139.776 9.70841C139.818 9.56257 139.87 9.41153 139.922 9.2657C139.948 9.19799 139.974 9.12507 140.005 9.05215C140.068 8.88549 140.011 9.06257 139.974 9.12507C140.13 8.86986 140.235 8.56778 140.38 8.30736C140.531 8.04694 140.682 7.81257 140.849 7.57819C140.886 7.52611 140.922 7.47924 140.953 7.42715C141.052 7.29174 140.781 7.64069 140.938 7.44799C141.037 7.3334 141.13 7.21361 141.235 7.09903C141.427 6.88028 141.63 6.67715 141.844 6.47923C141.943 6.38548 142.047 6.29694 142.151 6.2084C142.208 6.15632 142.271 6.11465 142.328 6.06257C142.458 5.9584 142.104 6.22403 142.307 6.0834C142.557 5.90632 142.807 5.73444 143.073 5.5834C143.688 5.22402 143.958 4.34381 143.563 3.72923C143.167 3.11465 142.365 2.86465 141.708 3.24485C139.255 4.67194 137.438 7.16674 136.932 9.96361C136.802 10.6563 137.12 11.4532 137.875 11.6303C138.542 11.7761 139.412 11.4272 139.547 10.6824H139.542Z" fill="white"/>
<path d="M138.948 16.8853C140.698 16.8853 140.698 14.177 138.948 14.177C137.203 14.177 137.203 16.8853 138.948 16.8853Z" fill="white"/>
<path d="M180.796 14.1201C179.203 10.719 180.614 6.69821 183.749 4.85446C185.255 3.96904 183.89 1.62529 182.38 2.51591C180.317 3.72945 178.755 5.63571 177.958 7.89092C177.072 10.3753 177.348 13.1201 178.453 15.4847C178.765 16.1461 179.718 16.3128 180.307 15.9691C180.989 15.5732 181.109 14.7816 180.796 14.1201Z" fill="white"/>
<path d="M161.86 9.92719C161.819 10.8178 161.777 11.7084 161.735 12.5939L164.402 12.2345C164.116 11.3387 164.063 10.7189 164.183 9.7449C163.959 10.1303 163.735 10.5209 163.511 10.9116C163.574 10.8699 163.642 10.8334 163.709 10.797C163.767 10.7605 163.834 10.7293 163.897 10.698C164.152 10.5574 163.756 10.7189 163.881 10.698C163.907 10.6928 164.168 10.6199 164.173 10.6095L163.975 10.6303C164.126 10.6303 164.084 10.6147 163.85 10.5886L163.662 10.5001C163.407 10.3022 163.449 10.3282 163.777 10.5834C164.11 10.7605 164.449 10.8022 164.824 10.7189C164.97 10.6876 165.116 10.6407 165.267 10.6095C165.412 10.573 165.574 10.5418 165.73 10.5157C165.777 10.5053 165.949 10.4428 165.996 10.4689C165.793 10.4949 165.767 10.5001 165.923 10.4845C165.97 10.4793 166.017 10.4741 166.063 10.4689C166.256 10.4532 166.449 10.4428 166.636 10.4532C166.694 10.4532 167.006 10.4428 166.772 10.4532C166.553 10.4689 166.86 10.4897 166.923 10.5001C167.142 10.5314 166.725 10.3386 166.871 10.4897C166.938 10.5574 167.037 10.6147 167.116 10.6668C167.376 10.8334 167.662 10.9324 167.975 10.9428C169.089 10.9845 169.621 9.69802 169.121 8.82302C168.98 8.57302 168.767 8.34906 168.574 8.14073C168.256 8.90636 167.933 9.67719 167.616 10.448C168.095 10.448 168.579 10.4636 169.058 10.4949C169.261 10.5053 169.464 10.5209 169.668 10.5418C169.709 10.547 169.928 10.547 169.944 10.573C169.918 10.5261 169.621 10.5209 169.938 10.573C170.1 10.6043 170.256 10.6303 170.412 10.6772C170.48 10.6928 170.548 10.7189 170.615 10.7345C170.839 10.7918 170.293 10.5626 170.548 10.7241C171.152 11.0939 172.069 10.8751 172.402 10.2345C172.756 9.57302 172.563 8.78136 171.918 8.38552C171.147 7.91677 170.115 7.86469 169.246 7.80219C168.704 7.76052 168.157 7.73969 167.616 7.7449C166.397 7.7501 165.881 9.19802 166.657 10.0574C166.699 10.1043 166.746 10.1564 166.787 10.2084C166.866 10.2918 166.949 10.4689 166.72 10.1147C166.886 10.3803 166.662 10.0678 166.621 9.58344L167.022 8.62511L167.011 8.63552C167.329 8.50531 167.652 8.3699 167.97 8.23969H167.949C168.178 8.30219 168.407 8.35948 168.636 8.42198C168.464 8.34906 168.334 8.21365 168.183 8.1199C167.975 8.0001 167.72 7.90636 167.485 7.85427C167.006 7.7449 166.506 7.72406 166.017 7.77094C165.376 7.82823 164.725 7.9324 164.1 8.11469C164.537 8.22927 164.98 8.34906 165.418 8.46365C164.464 7.62511 163.199 7.91677 162.204 8.53656C161.464 9.00531 161.407 9.84386 161.412 10.6459C161.418 11.4272 161.548 12.2137 161.782 12.9584C162.246 14.422 164.376 14.1355 164.449 12.5939C164.485 11.7084 164.527 10.8178 164.569 9.92719C164.6 9.22407 163.923 8.54698 163.214 8.57823C162.449 8.60948 161.892 9.17198 161.855 9.92719H161.86Z" fill="#FFA59B"/>
<path d="M164.64 10.1039C164.776 11.031 165 11.9424 165.302 12.8279C165.416 13.1664 165.614 13.4581 165.922 13.6404C166.213 13.8122 166.646 13.88 166.968 13.7758C167.297 13.6716 167.614 13.4685 167.781 13.156C167.942 12.8435 168.036 12.4581 167.916 12.1143C167.614 11.2237 167.39 10.3122 167.26 9.38515C167.213 9.07265 166.896 8.7289 166.635 8.57786C166.344 8.40599 165.916 8.33307 165.588 8.43724C165.26 8.54661 164.942 8.74974 164.776 9.06224L164.64 9.38515C164.578 9.61953 164.578 9.86432 164.64 10.1039Z" fill="#FFA59B"/>
<path d="M167.541 9.78166C167.552 9.82853 167.557 9.88062 167.567 9.92749L167.515 9.56812C167.583 10.0733 167.583 10.5785 167.625 11.0837C167.651 11.4379 167.692 11.7973 167.765 12.141C167.838 12.5004 167.973 12.8233 168.119 13.1515C168.244 13.4431 168.635 13.6983 168.927 13.7765C169.25 13.865 169.687 13.8233 169.973 13.6358C170.26 13.4535 170.52 13.1723 170.598 12.8285L170.645 12.4692C170.645 12.2244 170.583 11.9952 170.458 11.7869L170.437 11.74L170.578 12.0629C170.453 11.7556 170.38 11.4379 170.333 11.115L170.38 11.4744C170.276 10.6723 170.286 9.85978 170.161 9.0577C170.114 8.7452 169.802 8.40145 169.541 8.25041C169.25 8.07853 168.817 8.00561 168.494 8.10978C168.166 8.21916 167.848 8.42228 167.682 8.73478C167.635 8.84416 167.593 8.94832 167.546 9.0577C167.479 9.29728 167.479 9.53687 167.546 9.77645L167.541 9.78166Z" fill="#FFA59B"/>
<path d="M170.411 10.0524C170.448 10.1097 170.479 10.167 170.505 10.2347L170.37 9.91175C170.417 10.0315 170.448 10.1565 170.464 10.2867L170.417 9.92737C170.469 10.3128 170.484 10.7034 170.51 11.094C170.542 11.5107 170.573 11.9222 170.604 12.3336C170.635 12.6982 170.74 13.0263 171.005 13.292C171.24 13.5263 171.625 13.7034 171.964 13.6878C172.312 13.6722 172.677 13.5576 172.922 13.292C173.156 13.0368 173.349 12.6878 173.318 12.3336C173.276 11.7815 173.234 11.2347 173.193 10.6826C173.141 9.99508 173.125 9.29195 172.75 8.68258C172.568 8.39091 172.276 8.15654 171.943 8.06279C171.604 7.96904 171.182 8.01591 170.896 8.1982C170.604 8.3857 170.349 8.66695 170.271 9.0107C170.193 9.35966 170.214 9.73987 170.411 10.0524Z" fill="#FFA59B"/>
<path d="M165.87 9.90119C165.875 10.396 165.943 10.9324 166.24 11.3439C166.443 11.6252 166.651 11.8491 166.953 12.021C167.255 12.1981 167.583 12.2762 167.932 12.2918C168.588 12.3283 169.26 12.0054 169.604 11.4481C170.031 10.7658 169.875 9.87515 169.318 9.31265C168.719 8.7189 167.74 8.45848 167.026 9.00535C166.453 9.44806 166.187 10.2814 166.448 10.9689C166.682 11.5835 167.125 12.021 167.724 12.271C168.151 12.4481 168.609 12.5627 169.078 12.521C169.698 12.4637 170.297 12.2449 170.729 11.7762C171.042 11.4376 171.312 10.9949 171.375 10.5262C171.427 10.172 171.448 9.81265 171.24 9.48452C171.047 9.19285 170.776 8.94806 170.427 8.86473C169.875 8.7241 169.338 8.87515 168.932 9.27098C168.687 9.51056 168.531 9.85431 168.474 10.1876C168.401 10.5679 168.38 10.8699 168.463 11.2449C168.536 11.5783 168.74 11.922 168.984 12.1564C169.641 12.7814 170.698 12.8491 171.38 12.2293C171.943 11.7241 172.031 10.8231 171.812 10.1304C171.651 9.60952 171.229 9.23452 170.682 9.1616C170.146 9.08869 169.62 9.33869 169.333 9.80744C168.958 10.4168 168.937 11.271 169.354 11.8752C169.516 11.2554 169.677 10.6408 169.844 10.021C169.604 10.1616 169.37 10.3751 169.24 10.6199C169.073 10.9376 169.005 11.3126 169.104 11.6668C169.193 11.9793 169.432 12.3179 169.724 12.4741C170.354 12.8022 171.229 12.6564 171.583 11.9897L171.599 11.9533C171.526 12.047 171.458 12.1408 171.385 12.2293C171.401 12.2085 171.422 12.1877 171.443 12.172L171.167 12.3856L171.208 12.3595C171.807 12.0158 172.104 11.1147 171.693 10.5106C171.661 10.4689 171.641 10.4272 171.615 10.3804C171.661 10.4845 171.708 10.5939 171.755 10.7033C171.734 10.6512 171.724 10.6095 171.713 10.5574C171.729 10.6772 171.745 10.797 171.76 10.922C171.755 10.8699 171.755 10.8231 171.76 10.7762C171.745 10.896 171.724 11.0106 171.708 11.1356C171.719 11.0679 171.734 11.0106 171.76 10.9429L171.625 11.2658C171.635 11.2345 171.656 11.2033 171.672 11.1772C170.844 11.0731 170.021 10.9637 169.193 10.8543C169.219 10.9324 169.234 11.0106 169.245 11.0887L169.198 10.7293C169.203 10.8283 169.203 10.922 169.193 11.021L169.24 10.6616C169.229 10.7137 169.219 10.7606 169.203 10.8074L169.338 10.4845L169.318 10.5262C169.385 10.4376 169.458 10.3439 169.531 10.2554C169.51 10.2814 169.49 10.3074 169.458 10.3231L169.734 10.1147L169.698 10.1304C169.807 10.0887 169.911 10.0418 170.021 9.99494C169.995 10.0054 169.969 10.0158 169.943 10.0158C170.062 10.0001 170.182 9.98452 170.302 9.9689C170.276 9.97411 170.245 9.97411 170.219 9.9689L170.578 10.0158C170.531 10.0106 170.495 10.0001 170.453 9.98452L170.776 10.1251C170.734 10.1043 170.698 10.0887 170.661 10.0626L170.932 10.2762C170.896 10.2449 170.87 10.2189 170.838 10.1824C170.911 10.271 170.979 10.3647 171.052 10.4533C171.021 10.4116 171 10.3751 170.974 10.3283C171.021 10.4376 171.068 10.5418 171.115 10.6512C171.094 10.6043 171.083 10.5626 171.078 10.5158L171.125 10.8751C171.115 10.7918 171.115 10.7137 171.125 10.6304C171.109 10.7501 171.094 10.8699 171.078 10.9897C171.094 10.8804 171.115 10.771 171.151 10.6616L171.016 10.9845C171.026 10.9637 171.042 10.9376 171.062 10.9168L170.849 11.1929L170.875 11.1616L170.604 11.3751L170.635 11.3543L170.312 11.4897L170.349 11.4793L169.984 11.5262H170.021C169.906 11.5054 169.786 11.4897 169.661 11.4741L169.703 11.4845C169.385 10.9272 169.073 10.3751 168.755 9.81786C168.74 9.93244 168.713 10.0366 168.672 10.1408C168.713 10.0314 168.76 9.92723 168.807 9.81786C168.766 9.91161 168.713 10.0001 168.651 10.0783L168.865 9.80744C168.807 9.87515 168.745 9.93765 168.672 9.99494L168.948 9.7814C168.87 9.83869 168.792 9.88556 168.703 9.92723C168.812 9.88036 168.917 9.83348 169.026 9.78661C168.922 9.82827 168.823 9.85431 168.713 9.86994L169.078 9.81786C168.943 9.83348 168.812 9.82827 168.677 9.81265L169.036 9.85952C168.891 9.83348 168.745 9.79702 168.609 9.73452L168.932 9.86994C168.833 9.82827 168.745 9.77619 168.661 9.71369L168.937 9.92723C168.885 9.88556 168.838 9.83869 168.797 9.78661L169.01 10.0626C168.979 10.021 168.953 9.97931 168.927 9.93244L169.062 10.2554C169.042 10.2033 169.031 10.1616 169.021 10.1043L169.068 10.4689C169.062 10.4116 169.062 10.3647 169.073 10.3126L169.021 10.6772C169.026 10.6408 169.036 10.6095 169.052 10.5783C169.005 10.6876 168.963 10.7918 168.917 10.9012C168.927 10.8647 168.948 10.8387 168.969 10.8074L168.755 11.0835C168.771 11.0626 168.786 11.047 168.802 11.0314L168.531 11.2449L168.562 11.2293L167.88 11.4168L167.932 11.4064L167.573 11.3595C167.609 11.3647 167.646 11.3751 167.682 11.3908L167.359 11.2554C167.443 11.2918 167.516 11.3335 167.594 11.3856C167.5 11.3127 167.406 11.2449 167.318 11.172C167.37 11.2137 167.417 11.2606 167.458 11.3074C167.385 11.2189 167.318 11.1251 167.245 11.0366C167.26 11.0574 167.276 11.0835 167.292 11.1147C167.245 11.0054 167.198 10.9012 167.156 10.7918C167.167 10.8179 167.172 10.8491 167.182 10.8804L167.13 10.5158C167.135 10.547 167.141 10.5731 167.135 10.6043L167.182 10.2449C167.182 10.2762 167.177 10.3022 167.167 10.3335L167.302 10.0106C167.292 10.0366 167.276 10.0626 167.26 10.0887C167.328 10.0001 167.401 9.9064 167.469 9.81265C167.453 9.83869 167.432 9.85952 167.406 9.88036C167.5 9.80744 167.594 9.73452 167.682 9.66681C167.646 9.69286 167.615 9.70848 167.578 9.72931L167.901 9.5939C167.844 9.61473 167.792 9.63035 167.729 9.64077L168.088 9.58869C168.031 9.59911 167.969 9.59911 167.906 9.58869L168.266 9.64077C168.187 9.63035 168.115 9.60952 168.042 9.57827L168.365 9.71369C168.318 9.69286 168.276 9.66681 168.229 9.63556L168.505 9.84911C168.453 9.80744 168.406 9.76056 168.365 9.70848C168.437 9.80223 168.505 9.89598 168.578 9.98452C168.542 9.93244 168.51 9.88556 168.484 9.82306C168.531 9.93244 168.573 10.0418 168.62 10.146C168.583 10.0626 168.562 9.97411 168.547 9.88556C168.562 10.0054 168.583 10.1251 168.594 10.2449C168.583 10.1304 168.578 10.021 168.578 9.9064C168.578 9.55744 168.432 9.19285 168.182 8.94806C167.948 8.71369 167.562 8.5366 167.224 8.55223C166.495 8.58348 165.859 9.14598 165.865 9.9064L165.87 9.90119Z" fill="#FFA59B"/>
<path d="M163.854 9.35374C163.885 9.55686 163.916 9.74957 163.947 9.9527L163.984 9.82249C164.005 9.75478 164.02 9.69228 164.046 9.62457C164.067 9.54645 164.072 9.54124 164.057 9.59853C163.974 9.63499 163.968 9.74436 163.828 9.75999C163.645 9.77561 163.515 9.56207 163.692 9.75999C163.614 9.67666 163.781 9.84853 163.786 9.85374C163.984 10.0412 164.192 10.2287 164.39 10.4214C164.817 10.8381 165.505 10.9371 166.031 10.6298C166.52 10.3485 166.859 9.66103 166.656 9.10374L166.604 8.96832V9.68707C166.604 9.68707 166.526 9.77041 166.536 9.77041C166.546 9.77041 166.703 9.61416 166.599 9.7027C166.609 9.69228 166.796 9.5777 166.682 9.63499C166.765 9.59332 166.901 9.61416 166.75 9.60374C166.614 9.59853 166.724 9.59332 166.713 9.60374C166.739 9.58291 166.718 9.61936 166.744 9.65061C166.885 9.81728 166.656 9.49957 166.776 9.68186C166.838 9.7704 166.89 9.86416 166.942 9.95791C167.213 10.4214 167.765 10.6819 168.296 10.6037C168.776 10.5256 169.343 10.161 169.421 9.63499C169.442 9.50999 169.468 9.24436 169.395 9.49436C169.51 9.37978 169.531 9.35895 169.453 9.43186C169.364 9.4579 169.364 9.4527 169.458 9.42665C169.578 9.41624 169.77 9.37457 169.546 9.37457C169.708 9.41624 169.734 9.42665 169.619 9.3954C169.427 9.29124 169.333 9.09853 169.343 8.82249C169.401 9.36936 169.635 9.84332 170.177 10.0569C170.645 10.2496 171.302 10.1923 171.656 9.78082C171.671 9.7652 171.916 9.48916 171.927 9.49957C171.963 9.54124 171.708 9.59853 171.677 9.59332C171.463 9.58811 171.156 9.27561 171.078 9.09332C171.135 9.22874 171.062 8.71832 171.057 8.92665C171.046 9.28082 171.057 9.63499 171.026 9.98916C171.01 10.2079 170.984 10.4319 170.958 10.6558C170.927 10.9527 171 10.4162 170.953 10.7339C170.937 10.8381 170.921 10.9423 170.901 11.0464C170.875 11.2131 170.843 11.3798 170.807 11.5412C170.786 11.6142 170.765 11.6819 170.75 11.7548C170.697 12.0308 170.885 11.4944 170.802 11.6454C170.458 12.2912 170.635 13.1142 171.286 13.4944C171.901 13.8537 172.802 13.661 173.145 13.01C173.406 12.51 173.494 11.9527 173.572 11.3954C173.677 10.7027 173.77 9.99957 173.781 9.29645C173.791 8.47874 173.572 7.65061 172.833 7.18707C171.791 6.54123 170.484 6.99957 169.744 7.85894C170.515 8.18186 171.286 8.49957 172.057 8.81728C171.739 5.88498 167.229 6.14019 166.812 8.91103C167.635 8.80165 168.463 8.69749 169.291 8.58811C168.645 7.47874 167.604 6.71832 166.265 6.9579C165.057 7.17665 163.546 8.46311 164.046 9.82249C164.802 9.38499 165.557 8.94228 166.312 8.50478C165.89 8.09332 165.458 7.6402 164.942 7.34332C164.265 6.94228 163.406 6.97873 162.724 7.32769C161.609 7.88499 160.843 9.58811 161.52 10.7183C161.895 11.3485 162.739 11.5777 163.375 11.2079C164.01 10.8381 164.239 9.98395 163.864 9.35374H163.854Z" fill="#FFA59B"/>
<path d="M32.5834 11.7602C32.6771 11.7185 32.7709 11.6925 32.8646 11.6612C33.1198 11.5831 32.8177 11.6925 32.7969 11.6612C32.8021 11.6716 32.9323 11.656 32.9479 11.656C33 11.656 33.3177 11.656 33.125 11.6508C32.9531 11.6508 33.1042 11.6456 33.1511 11.656C33.2344 11.6769 33.3177 11.6977 33.4011 11.7185C33.5 11.7446 33.599 11.7862 33.6979 11.8175C33.8542 11.8644 33.6042 11.7862 33.6094 11.7758C33.6094 11.7758 33.7344 11.8383 33.7448 11.8435C33.8438 11.8956 33.9375 11.9581 34.0365 12.0154C34.0573 12.031 34.1927 12.1144 34.0625 12.031C33.9323 11.9425 34.1094 12.0675 34.1354 12.0935C34.2136 12.1612 34.2917 12.2289 34.3646 12.3071C34.4115 12.3539 34.4531 12.4112 34.5 12.4581C34.6146 12.5675 34.4323 12.3852 34.4479 12.3748C34.4531 12.3696 34.7865 12.906 34.7865 12.9581C34.7865 12.9633 34.6979 12.6977 34.7344 12.8487C34.7448 12.8956 34.7656 12.9373 34.7761 12.9789C34.8073 13.0675 34.8229 13.156 34.8438 13.2446C34.9011 13.4841 34.8333 12.9789 34.8438 13.2914C34.849 13.3956 34.8438 13.4998 34.8386 13.6091C34.9011 13.3591 34.8281 13.8591 34.8386 13.6091C34.8073 13.7081 34.7813 13.8071 34.75 13.906C34.75 13.9164 34.7083 14.031 34.7083 14.031C34.6979 14.0258 34.8281 13.7758 34.7552 13.9112C34.6979 14.0154 34.6458 14.1248 34.5833 14.2289C34.5365 14.3071 34.4792 14.38 34.4323 14.4581C34.3542 14.5831 34.4896 14.3748 34.5 14.3748C34.474 14.38 34.4219 14.4633 34.4063 14.4842C34.2552 14.6612 34.0938 14.8227 33.9167 14.9737C33.8802 15.005 33.8386 15.0362 33.7969 15.0675C33.6667 15.1769 33.7969 15.1352 33.8281 15.0467C33.8073 15.1039 33.6198 15.1925 33.5677 15.2237C33.3542 15.3644 33.1354 15.4894 32.9063 15.6039C32.8073 15.6508 32.6094 15.7185 32.8334 15.6456C32.7292 15.6821 32.625 15.7237 32.5156 15.755C32.3854 15.7914 32.2552 15.8175 32.125 15.8487C31.9584 15.8852 32.2084 15.8331 32.2084 15.8383C32.1823 15.8644 32.0156 15.8435 31.9844 15.8435C31.7136 15.8539 32.1615 15.88 31.9011 15.8331C31.6198 15.7862 32.1146 15.9164 31.8177 15.8019C31.6875 15.7498 31.9271 15.8644 31.9167 15.8904C31.9219 15.8748 31.8281 15.8227 31.8281 15.8019C31.8229 15.6717 31.9063 15.9529 31.9115 15.9217C31.9115 15.9164 31.8229 15.7654 31.8073 15.7498C31.724 15.6612 31.875 15.8644 31.8646 15.8956C31.8698 15.8748 31.8334 15.8071 31.8281 15.781C31.8177 15.7237 31.7709 15.4581 31.7969 15.6925C31.8229 15.9477 31.7969 15.6248 31.7969 15.5675C31.7969 15.4529 31.7969 15.3331 31.8073 15.2133C31.8125 15.1352 31.8229 14.7498 31.8073 15.0727C31.8125 14.9685 31.8438 14.8539 31.8646 14.7446C31.9167 14.4841 31.9896 14.2289 32.0729 13.9789C32.1146 13.8696 32.1511 13.7654 32.1979 13.656C32.1094 13.8748 32.2084 13.6404 32.25 13.5571C32.375 13.3123 32.5156 13.0675 32.6667 12.8383C32.7396 12.7237 32.8229 12.6144 32.9011 12.4998C32.9844 12.38 32.8386 12.5883 32.8334 12.5935C32.8542 12.5883 32.9115 12.4998 32.9271 12.4841C32.9896 12.4112 33.0573 12.3435 33.1302 12.2758C33.1354 12.2706 33.2344 12.1769 33.2396 12.1769C33.1094 12.2758 33.0834 12.2966 33.1667 12.2394C33.1979 12.2185 33.224 12.2029 33.2552 12.1873C33.2656 12.1769 33.3906 12.1039 33.3959 12.1091C33.4063 12.1196 33.1511 12.1873 33.3021 12.1508C33.3959 12.13 33.4896 12.1039 33.5781 12.0779C33.7604 12.0258 33.3281 12.0779 33.5156 12.0883C33.5573 12.0883 33.6146 12.0883 33.6615 12.0831C33.7136 12.0831 33.849 12.1144 33.6771 12.0727C33.4792 12.0258 33.6875 12.0831 33.7292 12.0935C34.0313 12.1716 33.5781 12.0102 33.7656 12.1144C33.6719 12.0623 33.4636 11.8956 33.4948 11.7602C33.4896 11.781 33.5261 11.8748 33.5313 11.8904C33.6042 12.0414 33.4896 11.7446 33.5261 11.755C33.5573 11.7706 33.5417 12.0883 33.5417 12.1404C33.5417 12.2446 33.5313 12.3435 33.5261 12.4425C33.5104 12.7029 33.5781 12.2185 33.5208 12.4789C33.4688 12.7081 33.4063 12.9321 33.3229 13.1612C33.3125 13.1925 33.2396 13.3435 33.3125 13.1873C33.4011 13.0102 33.2656 13.2758 33.25 13.3123C33.1927 13.4216 33.1302 13.5258 33.0677 13.6352C33 13.7394 32.9219 13.8435 32.8542 13.9477C33.0156 13.7029 32.7709 14.0414 32.7136 14.1039C32.625 14.2029 32.5313 14.2966 32.4323 14.3904C32.4167 14.4112 32.3386 14.4633 32.3281 14.4894C32.3906 14.3175 32.7136 14.3175 32.8334 14.3175C33.0625 14.3175 33.2709 14.3852 33.4427 14.5519C33.4844 14.5883 33.599 14.8019 33.5156 14.6404C33.5052 14.6248 33.6354 14.9216 33.5886 14.7862C33.5417 14.6612 33.599 15.1092 33.6042 14.8539C33.6042 14.7394 33.6094 14.63 33.6094 14.5154C33.6042 14.3696 33.5938 14.63 33.5886 14.6404C33.6094 14.5935 33.6094 14.505 33.6198 14.4529C33.6511 14.3279 33.6927 14.2029 33.7292 14.0779C33.7396 14.0466 33.7969 13.8904 33.7344 14.0571C33.6667 14.2237 33.75 14.0258 33.7656 13.9946C33.8281 13.8696 33.8958 13.755 33.974 13.6404C34 13.5987 34.0313 13.5571 34.0573 13.5154C34.1615 13.3591 34.0469 13.4737 34.0365 13.5362C34.0469 13.4529 34.2761 13.2706 34.3333 13.2185C34.4375 13.1144 34.5521 13.0154 34.6615 12.9164C33.8906 12.5987 33.1198 12.281 32.349 11.9633C32.3542 12.0675 32.3646 12.1769 32.3594 12.2862C32.3594 12.3331 32.3542 12.38 32.349 12.4269C32.3802 12.2394 32.3854 12.1977 32.3646 12.3019C32.3334 12.406 32.3073 12.5154 32.2761 12.6196C32.2084 12.88 32.4063 12.4008 32.2604 12.656C32.2136 12.7446 32.1667 12.8279 32.1094 12.9112C32.0729 12.9685 32.0365 13.0258 31.9948 13.0779L32.0729 12.9685C32.0469 13.0519 31.9167 13.1404 31.8542 13.2029C31.8125 13.2446 31.4531 13.5362 31.7031 13.3435L33.349 13.5571C33.4844 13.7341 33.5729 13.8696 33.5365 14.1091C33.5313 14.1977 33.5052 14.281 33.4479 14.3539C33.5261 14.2341 33.5104 14.2498 33.4115 14.4008C33.8906 13.88 33.9636 12.9894 33.4115 12.4841C32.8854 12.005 32.0052 11.9269 31.4896 12.4841C31.1094 12.8956 30.8438 13.4008 30.8386 13.9737C30.8334 14.5466 31.0729 15.0154 31.4271 15.4737C31.7604 15.9008 32.6354 16.0102 33.0729 15.6873C34.25 14.8071 35.1927 13.505 35.0521 11.9633C35 11.4112 34.75 10.9477 34.2188 10.7237C33.6875 10.4998 33.1667 10.6456 32.7396 11.005C31.6198 11.9373 30.8229 13.3748 30.8802 14.8539C30.9167 15.7914 31.3906 16.6977 32.3698 16.9373C33.3646 17.1873 34.1719 16.5675 34.7656 15.8539C35.6979 14.7394 36.3698 13.2914 36.2292 11.8019C36.1302 10.7498 35.6302 9.92685 34.6146 9.54664C33.9375 9.29144 33.1094 9.33831 32.4427 9.59873C30.9219 10.1873 30.0052 11.7394 29.4792 13.2133C29.0417 14.4373 28.7917 16.1456 29.5677 17.2914C31.5 20.1456 35.9948 17.656 37.1146 15.2342C37.8542 13.6404 37.5885 11.9164 36.4531 10.5831C35.4115 9.35914 33.4323 8.51018 31.8594 9.15081C31.2031 9.41123 30.6719 10.0623 30.9115 10.8123C31.1198 11.4425 31.8802 12.0414 32.5834 11.7602Z" fill="#FFA59B"/>
<path d="M54.2918 53.8642C50.9897 54.9006 47.7605 53.4631 45.2762 51.2913C43.4637 49.7079 41.6251 48.0933 40.1876 46.1454C38.3699 43.6767 37.2449 40.8381 36.4897 37.8798C35.6981 34.7652 34.9429 31.6142 34.4897 28.4266C34.0002 24.9579 33.9741 21.4371 33.9689 17.9423C33.9689 16.1975 31.2554 16.1975 31.2554 17.9423C31.2554 21.3694 31.3075 24.8069 31.745 28.2131C32.1929 31.6558 32.9793 35.0412 33.8283 38.4006C34.6512 41.6767 35.896 44.8902 37.9272 47.6194C39.547 49.7965 41.5262 51.6142 43.5626 53.385C46.6928 56.1038 50.8855 57.7652 55.0105 56.4684C56.672 55.9475 55.9584 53.3329 54.2918 53.859V53.8642Z" fill="#FFA59B"/>
<path d="M58.9952 16.0578H6.24015C6.01098 16.0578 5.81307 15.9745 5.6464 15.813C5.48494 15.6516 5.40161 15.4537 5.40161 15.2193V10.0787C5.40161 9.8495 5.48494 9.65158 5.6464 9.49012C5.81307 9.32346 6.01098 9.24533 6.24015 9.24533H58.9952C59.2243 9.24533 59.4223 9.32346 59.5889 9.49012C59.7504 9.65158 59.8337 9.8495 59.8337 10.0787V15.2193C59.8337 15.4537 59.7504 15.6516 59.5889 15.813C59.4223 15.9745 59.2243 16.0578 58.9952 16.0578Z" fill="#816B7D"/>
<path d="M31.5205 16.64C31.2393 16.5879 30.9685 16.4941 30.7028 16.3796L31.0257 16.5202C30.432 16.2702 29.8695 15.9421 29.3591 15.5514L29.6351 15.765C29.3695 15.5566 29.1195 15.3379 28.9164 15.0723L29.1299 15.3483C29.0466 15.2389 28.9737 15.1243 28.9216 14.9993L29.057 15.3223C29.031 15.2598 29.0153 15.2025 29.0049 15.1348C29.0205 15.2546 29.0362 15.3743 29.0518 15.4941C29.0466 15.4421 29.0414 15.3952 29.0518 15.3379L28.9997 15.7025C29.0101 15.6608 29.0205 15.6139 29.0362 15.5775C29.1612 15.2754 29.057 14.8014 28.8955 14.5306C28.7341 14.2546 28.4112 13.9837 28.0883 13.9108C27.7393 13.8327 27.3487 13.8483 27.0414 14.0462C26.9476 14.1191 26.8539 14.1921 26.7653 14.2598C26.5987 14.4264 26.4841 14.6296 26.4164 14.8587C26.3799 14.9577 26.3747 15.0566 26.3591 15.1608C26.3435 15.2806 26.3278 15.3691 26.3331 15.4837C26.3643 15.8483 26.4424 16.1035 26.6091 16.4368C26.781 16.791 27.0674 17.1035 27.3539 17.3691C27.9685 17.9421 28.708 18.4264 29.4737 18.7754C29.8955 18.9681 30.3382 19.166 30.8018 19.2494C31.1664 19.3119 31.5101 19.3066 31.8487 19.1139C32.1299 18.9473 32.3955 18.6244 32.4684 18.3014C32.5466 17.9577 32.5309 17.5671 32.333 17.2598C32.1507 16.9785 31.8643 16.6973 31.5205 16.64Z" fill="#FFA59B"/>
<mask id="mask4_6061_44123" style="mask-type:luminance" maskUnits="userSpaceOnUse" x="0" y="0" width="25" height="25">
<path d="M0 0H24.6666V24.9584H0V0Z" fill="white"/>
</mask>
<g mask="url(#mask4_6061_44123)">
<path d="M24.5888 12.255C24.5888 13.0571 24.5107 13.854 24.3492 14.6456C24.193 15.4373 23.9586 16.2029 23.6513 16.9477C23.344 17.6925 22.9638 18.3957 22.5159 19.0675C22.068 19.7394 21.5575 20.354 20.9898 20.9269C20.4169 21.4946 19.7971 22.005 19.1253 22.453C18.4534 22.9009 17.7451 23.2759 17.0003 23.5832C16.2555 23.8905 15.4846 24.1248 14.6982 24.2811C13.9065 24.4373 13.1044 24.5155 12.2972 24.5155C11.4899 24.5155 10.693 24.4373 9.90133 24.2811C9.10967 24.1248 8.33884 23.8905 7.59405 23.5832C6.84926 23.2759 6.14093 22.9009 5.46906 22.453C4.79718 22.005 4.17739 21.4946 3.60969 20.9269C3.03677 20.354 2.52636 19.7394 2.07844 19.0675C1.63053 18.3957 1.25553 17.6925 0.943031 16.9477C0.63574 16.2029 0.401365 15.4373 0.245116 14.6456C0.0888663 13.854 0.0107422 13.0571 0.0107422 12.255C0.0107422 11.4477 0.0888663 10.6509 0.245116 9.85918C0.401365 9.07273 0.63574 8.30189 0.943031 7.56231C1.25553 6.81751 1.63053 6.10918 2.07844 5.4373C2.52636 4.77064 3.03677 4.15084 3.60969 3.58313C4.17739 3.01022 4.79718 2.50501 5.46906 2.05709C6.14093 1.60917 6.84926 1.22897 7.59405 0.921673C8.33884 0.614382 9.10967 0.380005 9.90133 0.223755C10.693 0.0675043 11.4899 -0.0106201 12.2972 -0.0106201C13.1044 -0.0106201 13.9065 0.0675043 14.6982 0.223755C15.4846 0.380005 16.2555 0.614382 17.0003 0.921673C17.7451 1.22897 18.4534 1.60917 19.1253 2.05709C19.7971 2.50501 20.4169 3.01022 20.9898 3.58313C21.5575 4.15084 22.068 4.77064 22.5159 5.4373C22.9638 6.10918 23.344 6.81751 23.6513 7.56231C23.9586 8.30189 24.193 9.07273 24.3492 9.85918C24.5107 10.6509 24.5888 11.4477 24.5888 12.255Z" fill="#5E4D5C"/>
</g>
<mask id="mask5_6061_44123" style="mask-type:luminance" maskUnits="userSpaceOnUse" x="39" y="0" width="27" height="25">
<path d="M39.3333 0H65.9998V24.9584H39.3333V0Z" fill="white"/>
</mask>
<g mask="url(#mask5_6061_44123)">
<path d="M64.9421 12.255C64.9421 13.0571 64.8639 13.854 64.7025 14.6456C64.5462 15.4373 64.3119 16.2029 64.0046 16.9477C63.6973 17.6925 63.3171 18.3957 62.8691 19.0675C62.4212 19.7394 61.9108 20.354 61.3431 20.9269C60.7702 21.4946 60.1504 22.005 59.4785 22.453C58.8067 22.9009 58.0983 23.2759 57.3535 23.5832C56.6088 23.8905 55.8431 24.1248 55.0515 24.2811C54.2598 24.4373 53.4577 24.5155 52.6504 24.5155C51.8431 24.5155 51.0463 24.4373 50.2546 24.2811C49.4629 24.1248 48.6921 23.8905 47.9473 23.5832C47.2025 23.2759 46.4942 22.9009 45.8223 22.453C45.1505 22.005 44.5307 21.4946 43.963 20.9269C43.39 20.354 42.8796 19.7394 42.4317 19.0675C41.9838 18.3957 41.6088 17.6925 41.2963 16.9477C40.989 16.2029 40.7546 15.4373 40.5984 14.6456C40.4421 13.854 40.364 13.0571 40.364 12.255C40.364 11.4477 40.4421 10.6509 40.5984 9.85918C40.7546 9.07273 40.989 8.30189 41.2963 7.56231C41.6088 6.81751 41.9838 6.10918 42.4317 5.4373C42.8796 4.77064 43.39 4.15084 43.963 3.58313C44.5307 3.01022 45.1505 2.50501 45.8223 2.05709C46.4942 1.60917 47.2025 1.22897 47.9473 0.921673C48.6921 0.614382 49.4629 0.380005 50.2546 0.223755C51.0463 0.0675043 51.8431 -0.0106201 52.6504 -0.0106201C53.4577 -0.0106201 54.2598 0.0675043 55.0515 0.223755C55.8431 0.380005 56.6088 0.614382 57.3535 0.921673C58.0983 1.22897 58.8067 1.60917 59.4785 2.05709C60.1504 2.50501 60.7702 3.01022 61.3431 3.58313C61.9108 4.15084 62.4212 4.77064 62.8691 5.4373C63.3171 6.10918 63.6973 6.81751 64.0046 7.56231C64.3119 8.30189 64.5462 9.07273 64.7025 9.85918C64.8639 10.6509 64.9421 11.4477 64.9421 12.255Z" fill="#5E4D5C"/>
</g>
<path d="M63.0883 9.96322C62.5779 7.17155 60.7602 4.67155 58.3071 3.24446C57.6977 2.89029 56.7967 3.083 56.4529 3.73404C56.1092 4.37988 56.2863 5.2028 56.9425 5.58301C57.1925 5.72884 57.4373 5.88509 57.6717 6.05696C57.8279 6.16634 57.7758 6.09863 57.6508 6.03613C57.7186 6.06738 57.7758 6.12988 57.8331 6.17676C57.9373 6.2653 58.0415 6.35384 58.1404 6.44759C58.3644 6.65592 58.5831 6.86947 58.7811 7.09863C58.8748 7.19759 58.9633 7.30697 59.0519 7.41113C59.1873 7.58301 59.13 7.44238 59.0363 7.3903C59.0883 7.42155 59.1352 7.52572 59.1717 7.5778C59.505 8.05176 59.781 8.55697 60.0258 9.08301C60.104 9.24447 59.906 8.77051 60.0154 9.05697C60.0363 9.11426 60.0571 9.16634 60.0779 9.22364C60.1352 9.36947 60.1821 9.5153 60.2238 9.66114C60.3279 9.99447 60.4113 10.3382 60.4738 10.6872C60.5988 11.3851 61.4894 11.8434 62.1404 11.6299C62.8904 11.3851 63.2237 10.7132 63.0883 9.96322Z" fill="white"/>
<path d="M61.0674 16.8853C62.8122 16.8853 62.8122 14.177 61.0674 14.177C59.3174 14.177 59.3174 16.8853 61.0674 16.8853Z" fill="white"/>
<path d="M21.5633 15.4845C22.6675 13.1199 22.9435 10.3803 22.0581 7.89072C21.2613 5.6355 19.6988 3.73446 17.6363 2.51571C16.1259 1.63029 14.7613 3.96884 16.2665 4.85425C19.4019 6.70322 20.8133 10.7188 19.2196 14.1199C18.9071 14.7814 19.0321 15.5782 19.7092 15.9689C20.2925 16.3126 21.2508 16.1511 21.5633 15.4845Z" fill="white"/>
<path d="M35.4483 9.92737C35.4847 10.818 35.5264 11.7086 35.5681 12.594C35.6358 14.1201 37.766 14.4326 38.2295 12.9586C38.4639 12.2138 38.5993 11.4274 38.6045 10.6461C38.6097 9.83883 38.5628 9.0107 37.8128 8.53674C36.818 7.91695 35.5524 7.62529 34.5941 8.46383C35.0316 8.34924 35.4743 8.22945 35.9118 8.11487C35.292 7.93258 34.641 7.82841 33.9951 7.77112C33.5056 7.72424 33.0056 7.74508 32.5264 7.85445C32.292 7.90654 32.042 8.00549 31.8337 8.12008C31.6774 8.21383 31.5472 8.34924 31.3806 8.42216C31.6097 8.35966 31.8337 8.29716 32.0629 8.23466H32.042C32.3649 8.37008 32.6826 8.50549 33.0056 8.6357L32.9951 8.62529C33.1306 8.94299 33.2608 9.26591 33.391 9.58362C33.3597 9.9482 33.1149 10.3909 33.292 10.1097C33.0785 10.4534 33.1462 10.2972 33.2243 10.2086C33.2712 10.1565 33.3129 10.1045 33.3597 10.0524C34.1358 9.1982 33.6149 7.75028 32.4014 7.74508C31.8545 7.73987 31.3129 7.75549 30.7712 7.79716C29.8962 7.85966 28.865 7.91174 28.0993 8.3857C27.4952 8.75549 27.2087 9.60966 27.6097 10.2347C28.0004 10.8388 28.8181 11.1149 29.4639 10.719C29.7087 10.5732 29.2504 10.7763 29.3702 10.7451C29.4379 10.7295 29.5004 10.7034 29.5629 10.6826C29.7347 10.6305 29.9014 10.5992 30.0785 10.5732C30.3754 10.5211 30.0941 10.5263 30.0733 10.568C30.0837 10.5524 30.3285 10.542 30.3493 10.5367C30.5524 10.5159 30.7504 10.5003 30.9535 10.4899C31.4327 10.4586 31.917 10.443 32.4014 10.443C32.0785 9.67737 31.7608 8.90133 31.4379 8.1357C31.2504 8.34404 31.0524 8.56279 30.9066 8.79716C30.3545 9.693 30.9379 10.9378 32.042 10.9378C32.3545 10.9378 32.641 10.8284 32.9014 10.6617C32.9743 10.6149 33.0785 10.5524 33.141 10.4847C33.2816 10.3492 32.891 10.542 33.0941 10.4951C33.1201 10.4899 33.3233 10.4586 33.3389 10.4378C33.1201 10.4638 33.0889 10.469 33.2399 10.4534L33.3337 10.4482C33.542 10.4378 33.7504 10.4482 33.9535 10.4638C34.0004 10.469 34.3337 10.5055 34.1097 10.4742C33.8806 10.443 34.2035 10.4951 34.2451 10.5003C34.417 10.5263 34.5837 10.5628 34.7556 10.6045C34.9014 10.6357 35.0472 10.6826 35.1983 10.7138C35.5524 10.792 35.9222 10.7659 36.2451 10.5784C36.5472 10.344 36.6097 10.292 36.4378 10.4274C36.3597 10.5003 36.2712 10.5524 36.1722 10.5836C35.9326 10.6045 35.891 10.6201 36.042 10.6201L35.8493 10.5992C35.8493 10.6149 36.0628 10.6617 36.0993 10.6722C36.3701 10.7503 35.8701 10.5472 36.0889 10.6722C36.1566 10.7034 36.2243 10.7347 36.2868 10.7711C36.3649 10.8128 36.4378 10.8545 36.5108 10.9013L35.8389 9.73466C35.8962 10.1878 35.9066 10.6357 35.8806 11.0888C35.8806 11.1305 35.8597 11.3232 35.8753 11.1826C35.8649 11.2815 35.8441 11.3805 35.8233 11.4795C35.7712 11.7347 35.7035 11.9795 35.6253 12.2295C36.516 12.3492 37.4014 12.4638 38.2868 12.5888C38.2503 11.6982 38.2087 10.8076 38.167 9.92216C38.1358 9.21383 37.568 8.53674 36.8128 8.56799C36.1045 8.59925 35.417 9.16175 35.4535 9.92216L35.4483 9.92737Z" fill="#FFA59B"/>
<path d="M32.7602 9.38513C32.6248 10.3122 32.4008 11.2237 32.0987 12.1143C31.9894 12.432 32.0675 12.8695 32.2342 13.156C32.4008 13.4372 32.7237 13.7028 33.0467 13.7758C33.3956 13.8591 33.7862 13.8383 34.0935 13.6403C34.4008 13.4424 34.5987 13.1768 34.7185 12.8278C35.0154 11.9424 35.2394 11.031 35.3748 10.1039C35.4321 9.9268 35.4425 9.7445 35.4008 9.56221C35.3904 9.38513 35.3383 9.21846 35.2394 9.06221C35.0727 8.78096 34.7498 8.51013 34.4269 8.43721C34.0779 8.35909 33.6925 8.37471 33.38 8.57784C33.1092 8.75492 32.8071 9.04659 32.7602 9.38513Z" fill="#FFA59B"/>
<path d="M29.8538 9.0619C29.7288 9.86399 29.7444 10.6713 29.635 11.4734L29.6871 11.114C29.6403 11.4369 29.5673 11.7598 29.4423 12.0619C29.484 11.9525 29.5309 11.8484 29.5778 11.739L29.5569 11.7859C29.458 11.9421 29.4059 12.1088 29.3955 12.2911C29.3538 12.4682 29.3642 12.6504 29.4215 12.8275C29.5048 13.1452 29.7496 13.4838 30.0413 13.64C30.359 13.8067 30.7392 13.89 31.0882 13.7755C31.4007 13.6765 31.76 13.4682 31.9007 13.1557C32.0465 12.8223 32.1767 12.4994 32.2496 12.1452C32.3225 11.7963 32.3642 11.4421 32.3955 11.0879C32.4371 10.5827 32.4371 10.0723 32.4996 9.56711L32.4527 9.92649C32.458 9.87961 32.4632 9.83274 32.4736 9.78066C32.5309 9.60357 32.5361 9.42128 32.4996 9.2442C32.4892 9.0619 32.4371 8.89524 32.3382 8.73899C32.1715 8.45774 31.8486 8.19211 31.5257 8.11919C31.1767 8.03586 30.7861 8.0567 30.4788 8.25461C30.2027 8.4317 29.9111 8.72336 29.859 9.0619H29.8538Z" fill="#FFA59B"/>
<path d="M27.2607 8.68228C26.8857 9.29166 26.8752 9.99478 26.8232 10.6823C26.7815 11.2344 26.7346 11.7812 26.693 12.3333C26.6721 12.6615 26.8648 13.0625 27.094 13.2917C27.318 13.5208 27.7138 13.7031 28.0523 13.6875C28.4013 13.6719 28.7659 13.5573 29.0107 13.2917C29.2659 13.0156 29.3804 12.7083 29.4065 12.3333C29.4377 11.9219 29.469 11.5104 29.5002 11.0937C29.5315 10.7031 29.5471 10.3125 29.5992 9.92707L29.5471 10.2864C29.5679 10.1562 29.5992 10.0312 29.6461 9.91145L29.5054 10.2344C29.5367 10.1667 29.5679 10.1094 29.6044 10.0521C29.7815 9.7552 29.8284 9.33853 29.7398 9.0052C29.6513 8.6927 29.4117 8.35415 29.1148 8.1979C28.4534 7.84895 27.6565 8.03645 27.2607 8.68228Z" fill="#FFA59B"/>
<path d="M31.4327 9.90115C31.4327 10.0157 31.4327 10.1303 31.4171 10.2397L31.464 9.88032C31.4483 9.96886 31.4275 10.0574 31.391 10.1459L31.5317 9.82302C31.5056 9.88032 31.4692 9.92719 31.4327 9.97928L31.6462 9.70844C31.6046 9.75532 31.5577 9.80219 31.5108 9.84386L31.7817 9.63032C31.74 9.66157 31.6983 9.68761 31.6515 9.70844L31.9744 9.57302C31.8962 9.60427 31.8285 9.62511 31.7452 9.63552L32.1098 9.58865C32.0473 9.58865 31.9848 9.58865 31.9223 9.58865L32.2817 9.63552C32.2244 9.62511 32.1671 9.60948 32.115 9.58865L32.4379 9.72407C32.3962 9.70844 32.365 9.68761 32.3285 9.66157L32.6046 9.87511C32.5837 9.85428 32.5629 9.83344 32.5421 9.81261L32.7556 10.0834C32.74 10.0574 32.7244 10.0314 32.7139 10.0053C32.7556 10.1147 32.8025 10.2189 32.8494 10.3282C32.8389 10.297 32.8337 10.2709 32.8285 10.2397L32.8754 10.6043C32.8754 10.573 32.8754 10.5418 32.8806 10.5157L32.8337 10.8751C32.8389 10.8439 32.8442 10.8178 32.8598 10.7866L32.7244 11.1095C32.7348 11.0834 32.7504 11.0574 32.7712 11.0314C32.6983 11.1199 32.6254 11.2137 32.5577 11.3074C32.5994 11.2501 32.641 11.2084 32.6983 11.1668C32.6046 11.2397 32.5108 11.3074 32.4223 11.3803C32.4952 11.3282 32.5733 11.2866 32.6514 11.2501L32.3285 11.3855C32.365 11.3699 32.4014 11.3595 32.4431 11.3543L32.0785 11.4064L32.1358 11.4116L31.4483 11.2241L31.4848 11.2397C31.391 11.172 31.3025 11.0991 31.2087 11.0262C31.2296 11.0418 31.2452 11.0574 31.2556 11.0782L31.0473 10.8022C31.0681 10.8334 31.0837 10.8647 31.0994 10.8959L30.9587 10.573C30.9744 10.6043 30.9848 10.6355 30.99 10.672C30.9744 10.5522 30.9587 10.4324 30.9431 10.3074C30.9483 10.3647 30.9483 10.4064 30.9431 10.4637L30.9952 10.1043C30.9848 10.1564 30.9692 10.2032 30.9483 10.2501L31.089 9.92719C31.0629 9.97407 31.0369 10.0157 31.0056 10.0574L31.2192 9.78136C31.1775 9.83344 31.1306 9.88032 31.0785 9.92198C31.1671 9.84907 31.2608 9.78136 31.3546 9.70844C31.2712 9.77094 31.1827 9.82303 31.0837 9.8699L31.4067 9.72927C31.266 9.78657 31.1254 9.82823 30.9744 9.85428L31.339 9.8074C31.2035 9.82303 31.0733 9.82823 30.9379 9.81261L31.2973 9.86469C31.1879 9.84907 31.089 9.82302 30.99 9.78136L31.3129 9.92198C31.2244 9.88032 31.141 9.83865 31.0629 9.78136L31.339 9.98969C31.2712 9.9324 31.2087 9.8699 31.1515 9.80219L31.3598 10.073C31.3025 9.9949 31.2504 9.90636 31.2087 9.81261L31.3442 10.1355C31.3025 10.0314 31.2712 9.92719 31.2556 9.81261C30.9431 10.3699 30.6254 10.922 30.3129 11.4793L30.3494 11.4689L29.99 11.5209H30.0265C29.9067 11.5053 29.7869 11.4897 29.6671 11.4741L29.7035 11.4897L29.3806 11.3491L29.4119 11.3751C29.3233 11.3022 29.2296 11.2345 29.1358 11.1616L29.1671 11.1876L28.9535 10.9168C28.9692 10.9376 28.9848 10.9584 28.9952 10.9845L28.8598 10.6616C28.9015 10.7657 28.9223 10.8803 28.9379 10.9897L28.891 10.6303C28.8963 10.7084 28.8963 10.7918 28.891 10.8699L28.9379 10.5105C28.9275 10.5574 28.9171 10.6043 28.9015 10.6459L29.0369 10.323C29.016 10.3699 28.9952 10.4116 28.964 10.4532L29.1723 10.1772C29.1463 10.2137 29.115 10.2449 29.0785 10.2709L29.3546 10.0574C29.3181 10.0834 29.2817 10.1043 29.24 10.1199C29.3494 10.073 29.4535 10.0314 29.5629 9.98448C29.516 10.0001 29.4796 10.0105 29.4327 10.0157L29.7973 9.96886C29.766 9.96886 29.74 9.96886 29.7087 9.96886L30.0733 10.0157C30.0473 10.0157 30.0212 10.0053 29.99 9.9949C30.0994 10.0418 30.2087 10.0834 30.3181 10.1303L30.2817 10.1095C30.3702 10.1824 30.464 10.2501 30.5577 10.323C30.5265 10.3074 30.5056 10.2814 30.4848 10.2501L30.6983 10.5262L30.6775 10.4845L30.8129 10.8074C30.7973 10.7553 30.7817 10.7137 30.7765 10.6616L30.8233 11.0209C30.8077 10.922 30.8077 10.823 30.8181 10.7241C30.8025 10.8439 30.7817 10.9637 30.766 11.0834C30.7817 11.0053 30.7973 10.9324 30.8233 10.8543C29.9952 10.9637 29.1671 11.0678 28.3442 11.1772C28.3598 11.2032 28.3754 11.2345 28.391 11.2657C28.3442 11.1564 28.2973 11.0522 28.2556 10.9428C28.2765 11.0053 28.2973 11.0678 28.3025 11.1303L28.2556 10.7709C28.2556 10.823 28.2556 10.8647 28.2504 10.9168L28.2973 10.5574C28.2869 10.6095 28.2765 10.6512 28.2608 10.698L28.3963 10.3751C28.3754 10.4272 28.3494 10.4637 28.3181 10.5105C28.1358 10.7762 28.0838 11.2501 28.1827 11.5522C28.2921 11.8855 28.4952 12.1824 28.8025 12.3595L28.8442 12.3855L28.5681 12.172C28.589 12.1876 28.6098 12.2084 28.6254 12.2293L28.4119 11.9532L28.4327 11.9897C28.7608 12.6147 29.6879 12.8595 30.2869 12.4741C30.9223 12.0626 31.1254 11.2918 30.7712 10.6251C30.6462 10.3803 30.4067 10.1616 30.1723 10.0262C30.3337 10.6407 30.4952 11.2605 30.6619 11.8751C31.0733 11.2762 31.0577 10.422 30.6827 9.8074C30.3962 9.33865 29.8702 9.08865 29.3285 9.16157C28.7869 9.23448 28.365 9.60948 28.2035 10.1303C27.9848 10.8282 28.0785 11.6876 28.615 12.2189C29.2765 12.8751 30.3806 12.7762 31.0317 12.1564C31.2712 11.922 31.4587 11.5991 31.5473 11.2709C31.641 10.9116 31.615 10.573 31.5473 10.2137C31.4952 9.91678 31.3754 9.64594 31.1879 9.40636C30.8077 8.91157 30.1931 8.71365 29.589 8.86469C29.2765 8.94281 28.9275 9.19803 28.7765 9.48448L28.641 9.8074C28.5733 10.047 28.5733 10.2866 28.641 10.5262C28.766 11.4272 29.5317 12.1824 30.3806 12.4324C30.8702 12.5678 31.4327 12.5522 31.9171 12.4116C32.5004 12.2449 32.9952 11.922 33.3442 11.422C33.7452 10.8439 33.7504 10.0522 33.3962 9.45323C33.1306 9.00011 32.6619 8.71886 32.1306 8.69802C31.766 8.67719 31.391 8.81261 31.089 9.00532C30.4171 9.43761 30.0317 10.1772 30.2087 10.9793C30.3494 11.6095 30.9275 12.1199 31.5525 12.2397C32.266 12.3699 33.016 12.1928 33.5264 11.6512C33.9848 11.1616 34.1358 10.547 34.141 9.89594C34.1462 9.18761 33.5108 8.50531 32.7869 8.54177C32.0577 8.57302 31.4327 9.13552 31.4275 9.89594L31.4327 9.90115Z" fill="#FFA59B"/>
<path d="M38.5051 10.724C39.177 9.5938 38.4165 7.88026 37.302 7.32817C36.6145 6.98963 35.8332 6.96359 35.1509 7.31255C34.6041 7.58859 34.1457 8.08338 33.7134 8.50526C34.4686 8.94276 35.2239 9.38547 35.9791 9.82297C36.4791 8.4688 34.9686 7.17192 33.7603 6.96359C32.4218 6.72921 31.3801 7.47921 30.7343 8.58859C31.5624 8.69797 32.3905 8.80213 33.2187 8.91151C32.802 6.14588 28.2864 5.88546 27.9687 8.82297C28.7395 8.50526 29.5103 8.18234 30.2812 7.86463C29.5468 7.01046 28.2812 6.56255 27.2447 7.16151C26.4687 7.60942 26.2343 8.45838 26.2447 9.29693C26.2603 9.98443 26.3489 10.6667 26.4426 11.349C26.5208 11.9167 26.6093 12.4948 26.8853 13.0157C27.2239 13.6615 28.1249 13.8594 28.7395 13.5001C29.3957 13.1198 29.5676 12.2969 29.2239 11.6511C29.1405 11.4844 29.3228 12.0001 29.2864 11.7917C29.276 11.7188 29.2499 11.6511 29.2343 11.5834C29.1874 11.4063 29.1562 11.2292 29.1249 11.0521C29.1041 10.948 29.0885 10.8438 29.0728 10.7396C29.0155 10.3751 29.1041 11.0313 29.0676 10.6615C29.0416 10.4376 29.0155 10.2188 28.9999 9.99484C28.9687 9.63547 28.9791 9.28651 28.9687 8.93234C28.9635 8.70838 28.8853 9.27088 28.953 9.09901C28.8645 9.32818 28.6614 9.56255 28.4062 9.58859C28.3385 9.5938 28.1614 9.52609 28.1353 9.5313C28.0728 9.47401 28.0937 9.49484 28.1978 9.5938C28.2603 9.65109 28.3176 9.7188 28.3697 9.7813C28.7187 10.1876 29.3905 10.2657 29.8541 10.0626C30.3853 9.83338 30.6249 9.38547 30.6874 8.82817C30.6926 9.10422 30.5989 9.29693 30.4062 9.40109C30.2916 9.42713 30.3176 9.42193 30.4843 9.38026C30.2603 9.38026 30.4478 9.42192 30.5728 9.43234C30.6614 9.45838 30.6666 9.45838 30.578 9.43755C30.4999 9.36463 30.5155 9.38547 30.6353 9.50005C30.5624 9.24484 30.5884 9.51568 30.6041 9.63547C30.6822 10.1511 31.2603 10.5521 31.7343 10.6042C32.2655 10.6719 32.8072 10.4376 33.0832 9.95838C33.1301 9.88547 33.1718 9.81776 33.2187 9.74484C33.2603 9.67192 33.2916 9.57818 33.2395 9.70318C33.2551 9.66151 33.3541 9.52609 33.2603 9.65109C33.328 9.55213 33.4374 9.60422 33.2759 9.61463C33.1457 9.61984 33.3332 9.65109 33.3645 9.67193C33.5207 9.77088 33.2759 9.66151 33.4426 9.72922C33.578 9.78651 33.4322 9.76568 33.4218 9.69276V8.97401L33.3749 9.10942C32.8853 10.4323 34.7291 11.3178 35.6405 10.4271C35.8176 10.2553 35.9947 10.0782 36.1822 9.91151C36.2186 9.88026 36.3593 9.75005 36.3541 9.75526C36.3176 9.77609 36.3332 9.76568 36.3957 9.72401C36.5363 9.64588 36.4738 9.6563 36.1978 9.76568C36.0832 9.75526 36.0676 9.69276 35.9791 9.64588L35.9582 9.56776C35.9843 9.63547 36.0051 9.69797 36.0259 9.76568C36.1457 10.1771 35.9061 9.81255 36.1718 9.36463C35.7968 9.99484 36.0311 10.849 36.6613 11.2188C37.2916 11.5834 38.1353 11.3594 38.5155 10.7292L38.5051 10.724Z" fill="#FFA59B"/>
</svg>
