<svg width="20" height="26" viewBox="0 0 20 26" fill="none" xmlns="http://www.w3.org/2000/svg">
<path fill-rule="evenodd" clip-rule="evenodd" d="M3.38395 7.30791L3.84136 11.4247L2.91573 11.4986C1.62494 11.6016 0.570935 12.5719 0.361691 13.8498C-0.120564 16.795 -0.120564 19.799 0.361691 22.7442C0.570935 24.0221 1.62494 24.9924 2.91573 25.0955L4.91057 25.2547C8.06009 25.5061 11.2247 25.5061 14.3742 25.2547L16.369 25.0955C17.6598 24.9924 18.7138 24.0221 18.923 22.7442C19.4053 19.799 19.4053 16.795 18.923 13.8498C18.7138 12.5719 17.6598 11.6016 16.369 11.4986L15.4432 11.4247L15.9007 7.30791C15.9546 6.82261 15.9546 6.33282 15.9007 5.84752L15.8703 5.57433C15.5483 2.67647 13.2702 0.383593 10.3745 0.0429206C9.88803 -0.0143069 9.39657 -0.0143069 8.91014 0.0429205C6.01442 0.383593 3.73629 2.67647 3.4143 5.57432L3.38395 5.84752C3.33003 6.33282 3.33003 6.82261 3.38395 7.30791ZM10.1408 2.02922C9.80961 1.99026 9.475 1.99026 9.14382 2.02922C7.17232 2.26116 5.62129 3.82223 5.40207 5.79519L5.37172 6.06838C5.3341 6.4069 5.3341 6.74854 5.37172 7.08705L5.83678 11.2726C8.37119 11.1101 10.9134 11.1101 13.4478 11.2726L13.9129 7.08705C13.9505 6.74853 13.9505 6.4069 13.9129 6.06838L13.8825 5.79519C13.6633 3.82223 12.1123 2.26116 10.1408 2.02922ZM9.64233 16.297C8.53776 16.297 7.64233 17.1924 7.64233 18.297C7.64233 19.4016 8.53776 20.297 9.64233 20.297C10.7469 20.297 11.6423 19.4016 11.6423 18.297C11.6423 17.1924 10.7469 16.297 9.64233 16.297Z" fill="#90A1B9"/>
</svg>
