<svg width="200" height="170" viewBox="0 0 200 170" fill="none" xmlns="http://www.w3.org/2000/svg">
<path d="M97.9638 36.6265C111.714 31.8563 121.943 35.2532 135.917 39.3159C149.897 43.3839 162.006 55.1455 164.027 69.5341C165.819 82.3154 159.866 94.8469 153.235 105.922C146.605 117.002 138.954 127.983 136.803 140.707C135.376 149.129 135.98 158.982 129.631 164.704C123.402 170.312 113.521 168.845 105.922 165.302C98.3284 161.76 91.3335 156.454 83.0626 155.101C75.5989 153.879 67.8124 156.027 60.4477 154.295C47.7184 151.304 39.9787 137.826 27.7077 133.3C20.2806 130.553 11.9003 131.37 4.19183 129.887C1.0772 129.284 0.0876083 125.346 2.51993 123.307C16.5201 111.592 33.6036 103.711 47.7757 92.0795C63.5675 79.111 75.2187 61.9185 86.6408 44.9861C86.6408 44.9861 91.0158 39.0402 97.9638 36.6265Z" fill="#E96474"/>
<mask id="mask0_6061_45276" style="mask-type:luminance" maskUnits="userSpaceOnUse" x="0" y="32" width="167" height="139">
<path d="M0 32.8351H166.002V170.001H0V32.8351Z" fill="white"/>
</mask>
<g mask="url(#mask0_6061_45276)">
<path d="M98.2449 37.636C105.886 35.0246 113.63 34.8477 121.495 36.5124C125.547 37.3655 129.516 38.5411 133.485 39.7012C136.896 40.6947 140.188 41.7872 143.334 43.4674C149.199 46.5886 154.376 51.1091 158.011 56.6908C161.907 62.673 163.704 69.5917 163.209 76.7131C162.063 93.401 150.647 106.942 143.006 121.102C139.334 127.9 136.475 135.032 135.448 142.726C134.589 149.166 134.714 156.714 130.589 162.129C126.256 167.815 118.641 168.158 112.24 166.478C104.912 164.559 98.7553 159.913 91.9271 156.839C88.4218 155.258 84.7864 154.118 80.9426 153.785C76.6561 153.416 72.3591 153.91 68.0726 153.952C64.2236 153.983 60.4371 153.546 56.885 152.022C53.9422 150.758 51.2495 148.953 48.7338 146.992C43.6244 143.023 39.0358 138.351 33.4889 134.965C30.4836 133.139 27.2388 131.823 23.796 131.094C19.8012 130.252 15.7074 130.054 11.6501 129.737C9.51982 129.576 7.3948 129.383 5.2854 129.019C3.87392 128.774 2.56661 128.306 2.26453 126.73C1.96244 125.201 2.96766 124.28 4.05622 123.39C5.67082 122.064 7.32709 120.789 9.01461 119.557C15.5355 114.776 22.4471 110.573 29.2805 106.26C36.0722 101.979 42.8067 97.5626 48.9891 92.4283C55.1662 87.2939 60.7444 81.4833 65.8903 75.3294C70.9945 69.2275 75.6873 62.7979 80.2238 56.2694C82.5051 52.9818 84.7499 49.6733 86.9895 46.3545C87.177 46.0736 87.3593 45.7823 87.5572 45.5066C87.5833 45.4805 87.6666 45.3609 87.5677 45.491C87.4583 45.6418 87.6614 45.3817 87.6927 45.3453C87.8125 45.1944 87.9322 45.0488 88.0572 44.9031C88.7135 44.1384 89.4166 43.4102 90.1562 42.7235C92.4948 40.5283 95.2188 38.7232 98.2501 37.636C99.5105 37.1886 98.9688 35.165 97.6928 35.6228C93.0729 37.2718 88.651 40.4606 85.7499 44.4558C83.3228 47.8006 81.1197 51.3172 78.7655 54.714C76.4113 58.1213 74.0102 61.4974 71.5362 64.811C66.5414 71.506 61.208 77.9668 55.286 83.8606C49.3016 89.8221 42.6869 94.9824 35.6608 99.6642C28.6451 104.341 21.3689 108.627 14.348 113.309C10.8688 115.624 7.45209 118.048 4.1708 120.639C2.84787 121.684 1.22806 122.688 0.530131 124.285C0.0144997 125.461 -0.0011255 126.808 0.472839 127.999C1.82702 131.386 6.06666 131.318 9.14482 131.625C13.4365 132.046 17.7699 132.124 22.02 132.884C25.8013 133.555 29.3065 134.856 32.5774 136.869C35.4524 138.637 38.0723 140.781 40.6452 142.96C45.6869 147.241 50.6922 151.845 56.9475 154.295C64.9997 157.453 73.4841 154.998 81.802 155.975C90.0312 156.938 96.9271 162.046 104.167 165.615C110.297 168.637 117.719 170.754 124.5 168.726C127.745 167.753 130.537 165.776 132.527 163.04C134.49 160.345 135.506 157.073 136.12 153.837C136.771 150.394 137.027 146.893 137.469 143.418C137.98 139.418 138.948 135.521 140.365 131.75C146.308 115.91 158.407 103.16 163.386 86.8726C165.694 79.3245 166.251 71.1626 163.704 63.6094C161.527 57.1642 157.428 51.4628 152.277 47.0515C149.647 44.7991 146.751 42.8431 143.657 41.2722C140.376 39.6075 136.938 38.5307 133.422 37.5059C125.709 35.2535 117.797 32.949 109.672 33.2923C105.584 33.464 101.568 34.3015 97.698 35.6228C96.4271 36.0598 96.974 38.0781 98.2553 37.6412L98.2449 37.636Z" fill="#E96474"/>
</g>
<path d="M103.642 95.6229C98.736 102.573 91.8297 108.586 89.9078 117.221C89.0275 121.191 89.4651 125.149 91.2255 128.817C92.9026 132.323 95.5901 135.277 98.3922 137.92C98.486 137.192 98.585 136.458 98.6787 135.73C96.6006 136.76 94.6214 137.972 92.7672 139.371C91.1578 140.594 88.9234 142.056 88.1161 143.975C87.3296 145.858 88.5171 147.585 90.4286 147.949C91.9026 148.23 93.3922 147.778 94.6578 147.039C97.1162 145.609 99.111 143.184 100.512 140.745C101.007 139.876 101.585 138.846 101.627 137.816C101.684 136.271 100.403 135.87 99.0954 136.001C94.8245 136.427 92.3922 140.287 91.2724 144.058C90.9755 145.057 91.9755 146.087 92.9911 145.775C96.361 144.729 98.9183 142.269 100.174 138.997C100.58 137.941 99.3975 137.067 98.4547 137.28C94.6943 138.128 91.7463 140.802 90.314 144.334C89.8609 145.447 91.1213 146.181 92.0328 146.051C95.538 145.551 98.3402 143.112 99.6423 139.881C100.314 138.217 97.611 137.493 96.9495 139.143C95.9964 141.509 93.7672 143.008 91.288 143.361L93.0068 145.078C94.0745 142.441 96.4599 140.589 99.1995 139.97C98.6266 139.397 98.0537 138.825 97.4808 138.253C96.5849 140.578 94.6162 142.347 92.2463 143.08C92.8193 143.653 93.3974 144.225 93.9703 144.797C94.413 143.309 95.0276 141.816 96.0485 140.62C96.5485 140.042 97.1266 139.533 97.8193 139.195C98.0641 139.08 98.3141 138.986 98.5745 138.914C98.8714 138.83 99.486 138.877 99.7256 138.747C99.1058 137.514 98.8089 137.171 98.835 137.722C98.8714 137.509 98.8766 137.483 98.8454 137.65C98.7933 137.743 98.7725 137.92 98.7412 138.024C98.6162 138.399 98.4235 138.758 98.1995 139.148C97.6474 140.146 96.9964 141.093 96.2516 141.957C95.4651 142.883 94.5901 143.777 93.5641 144.438C93.0797 144.745 92.5693 145.026 92.0068 145.161C91.7255 145.229 90.7984 145.421 90.6317 145.12C90.314 144.558 94.4391 141.577 94.8401 141.291C96.4964 140.094 98.2568 139.044 100.09 138.139C100.887 137.738 100.996 136.531 100.371 135.943C97.7256 133.452 95.2255 130.721 93.6422 127.407C92.0328 124.046 91.887 120.353 92.9078 116.795C95.1318 109.028 101.533 103.447 106.064 97.0274C107.101 95.5604 104.679 94.1663 103.648 95.6229H103.642Z" fill="#FFA59B"/>
<path d="M145.403 88.4857C145.148 95.68 141.971 102.292 138.2 108.284C134.216 114.615 129.617 120.519 126.018 127.089C125.132 128.707 124.262 130.341 123.497 132.016C122.794 133.561 122.705 134.944 123.075 136.593C123.778 139.756 125.361 142.711 127.512 145.13C128.429 146.16 129.742 146.696 131.033 145.931C132.247 145.208 132.413 143.668 132.523 142.388C132.762 139.439 131.736 136.411 129.814 134.175C128.83 133.025 127.439 131.88 125.835 131.912C124.153 131.948 123.195 133.436 123.346 135.002C123.7 138.674 125.814 142.347 128.049 145.192C128.887 146.259 130.32 145.244 130.434 144.204C130.835 140.573 129.054 137.259 127.278 134.227C126.476 132.853 124.33 133.764 124.726 135.298C125.288 137.488 126.205 139.548 127.465 141.426C128.215 142.539 130.07 142.165 130.07 140.719C130.07 137.92 128.965 135.288 126.955 133.332C125.663 132.078 123.684 134.05 124.976 135.309C126.471 136.76 127.273 138.638 127.273 140.719C128.137 140.485 129.007 140.25 129.872 140.016C128.736 138.321 127.924 136.531 127.419 134.559C126.564 134.913 125.715 135.272 124.861 135.631C126.408 138.274 127.986 141.036 127.632 144.204C128.429 143.876 129.226 143.543 130.023 143.216C128.314 141.041 127.064 138.523 126.356 135.855C126.294 135.61 126.215 135.35 126.169 135.095L126.116 134.846C126.174 134.481 126.122 134.435 125.971 134.695C126.346 134.695 126.747 135.08 127.012 135.303C127.903 136.063 128.59 137.067 129.054 138.138C129.492 139.153 129.726 140.276 129.752 141.374C129.762 141.925 129.736 142.477 129.637 143.018C129.601 143.216 129.502 143.47 129.486 143.679C129.564 143.502 129.695 143.465 129.867 143.569C129.695 143.387 129.523 143.2 129.361 143.013C127.71 141.124 126.528 138.825 125.898 136.401C125.528 134.97 125.616 134.029 126.257 132.708C126.913 131.35 127.606 130.013 128.33 128.686C129.742 126.096 131.283 123.573 132.913 121.107C136.2 116.155 139.799 111.395 142.695 106.198C145.737 100.742 147.976 94.7801 148.195 88.4857C148.257 86.6858 145.46 86.691 145.403 88.4857Z" fill="#FFA59B"/>
<path d="M126.276 101.038C126.276 101.038 130.021 104.507 137.172 103.769C148.506 102.598 150.667 95.4194 150.667 95.4194C150.667 95.4194 159.917 98.4522 164.964 91.8769C170.016 85.2964 167.834 77.8836 167.834 77.8836C171.662 75.0017 174.006 70.2575 173.97 65.4717C173.938 60.6859 171.522 55.9729 167.657 53.1431C167.772 45.6678 160.605 38.9105 153.136 39.4463C151.751 33.1675 147.1 27.7003 141.115 25.323C135.131 22.9509 127.985 23.7312 122.657 27.3413C120.448 25.5362 118.792 24.0485 114.37 24.1629C107.182 24.3502 104.281 29.3181 104.281 29.3181C98.302 26.92 91.1613 27.669 85.8175 31.2636C80.4789 34.8582 77.0935 41.1837 77.0778 47.6134C69.6663 48.6746 64.1037 56.8052 65.8069 64.0828C62.6349 67.6669 61.2756 72.7857 62.2651 77.4674C63.2495 82.1492 66.5517 86.29 70.9059 88.2927C70.9059 88.2927 70.3538 95.9968 76.6924 101.355C83.0258 106.708 91.4165 101.787 91.4165 101.787C91.4165 101.787 98.2187 108.674 106.38 107.077C113.438 105.699 116.443 102.099 116.443 102.099C116.443 102.099 120.558 104.497 126.276 101.043V101.038Z" fill="#FFCFCA"/>
<path d="M81.0211 61.4563C80.844 59.6252 81.2607 57.8669 82.5524 56.4988C84.0785 54.881 86.0368 54.3712 88.2035 54.5325C88.9171 54.5845 89.6671 53.851 89.6046 53.1383C89.4327 51.1668 89.8337 49.2005 91.2244 47.7543C92.74 46.1833 94.9015 45.1377 97.1307 45.4446C97.8755 45.5487 98.6307 45.2678 98.8495 44.4719C99.0318 43.8216 98.6255 42.8593 97.8755 42.7552C94.6984 42.3183 91.6879 43.3639 89.4118 45.6215C87.417 47.5983 86.5681 50.3449 86.8077 53.1435C87.2764 52.6754 87.74 52.2124 88.2087 51.7442C85.3441 51.5309 82.5732 52.4153 80.5784 54.5273C78.8076 56.3948 77.9794 58.9021 78.2242 61.4563C78.2971 62.2054 78.8128 62.8556 79.6201 62.8556C80.3232 62.8556 81.094 62.2106 81.0211 61.4563Z" fill="#FFA59B"/>
<path d="M83.8959 89.9679C85.7136 92.6313 88.0574 95.0554 91.0209 96.4287C94.2658 97.9269 97.8804 98.135 101.177 96.6992C101.87 96.3975 102.026 95.3831 101.683 94.7901C101.261 94.0774 100.464 93.989 99.771 94.2907C94.5262 96.5692 89.1563 92.7353 86.3126 88.5581C85.3073 87.0808 82.8854 88.4749 83.9011 89.9679H83.8959Z" fill="#FFA59B"/>
<path d="M141.883 40.1958C142.31 40.3466 142.732 40.5027 143.148 40.6795C143.393 40.7784 142.857 40.5495 143.273 40.7316C143.362 40.7732 143.45 40.8096 143.534 40.846C143.752 40.9448 143.966 41.0489 144.174 41.1529C144.976 41.5535 145.752 42.0112 146.461 42.5575C146.346 42.4742 146.403 42.5158 146.482 42.5783C146.565 42.6459 146.648 42.7135 146.732 42.7863C146.877 42.9112 147.018 43.0412 147.159 43.1765C147.456 43.4574 147.732 43.7591 147.992 44.0712C148.054 44.1441 148.169 44.3001 148.054 44.1441C148.117 44.2273 148.179 44.3157 148.242 44.4041C148.351 44.5602 148.456 44.7215 148.555 44.8879C148.664 45.07 148.763 45.2573 148.862 45.4497C148.898 45.5278 148.935 45.6058 148.971 45.6786C149.148 46.0584 148.877 45.4289 149.028 45.8191C149.294 46.4953 149.982 47.0415 150.747 46.7919C151.409 46.5786 152.008 45.8035 151.726 45.0752C151.002 43.2389 149.815 41.6575 148.258 40.4403C146.56 39.119 144.643 38.2242 142.622 37.5011C141.935 37.2514 141.065 37.7768 140.903 38.4739C140.726 39.2594 141.143 39.9253 141.877 40.1906L141.883 40.1958Z" fill="#FFA59B"/>
<path d="M98.1779 68.0262C98.1779 68.0262 97.2769 65.8258 101.423 64.5981C105.569 63.3704 110.605 63.5837 109.569 67.1003C108.532 70.6168 97.9592 71.7768 98.1779 68.0314V68.0262Z" fill="#FFA59B"/>
<path d="M140.543 59.178C140.543 59.178 139.678 56.962 143.845 55.8019C148.017 54.6471 153.043 54.9436 151.949 58.4445C150.85 61.9402 140.261 62.9234 140.543 59.178Z" fill="#FFA59B"/>
<path d="M85.4433 47.5301C84.9589 48.3156 81.7401 50.1883 80.7349 45.3765C79.7297 40.5699 85.3652 32.3352 91.8809 32.3144C98.3914 32.2936 92.1934 37.5579 89.6152 40.1121C87.0371 42.6715 86.6048 45.647 85.4485 47.5301H85.4433Z" fill="white"/>
<path d="M137.012 29.2714C135.757 27.2635 131.663 27.5704 129.418 28.1634C129.168 28.231 128.902 28.3195 128.741 28.5223C128.527 28.7928 128.579 29.2038 128.777 29.4899C128.98 29.7708 129.288 29.9529 129.6 30.1037C131.798 31.1962 134.449 31.3314 136.746 30.4783C137.022 30.3794 137.33 30.2078 137.35 29.9165C137.361 29.776 137.293 29.6408 137.215 29.5211C136.746 28.8189 135.757 28.5171 134.975 28.8397" fill="white"/>
<path d="M138.219 28.5695C137.235 27.0557 135.522 26.5199 133.803 26.3638C132.256 26.2234 130.631 26.4107 129.131 26.7956C128.501 26.9621 127.896 27.2534 127.532 27.8152C127.115 28.4758 127.126 29.3029 127.464 29.9896C127.99 31.0508 129.256 31.545 130.318 31.8987C132.391 32.5958 134.766 32.6114 136.844 31.9247C137.49 31.7115 138.131 31.4358 138.496 30.8219C138.985 29.9844 138.683 29.022 138.063 28.351C137.219 27.4458 135.777 27.0557 134.6 27.4979C133.917 27.7476 133.381 28.4498 133.626 29.2145C133.844 29.8804 134.615 30.4578 135.344 30.1873C135.417 30.1561 135.49 30.1405 135.563 30.1145C135.667 30.0728 135.772 30.1301 135.532 30.1093C135.584 30.1145 135.652 30.0936 135.704 30.1093C135.897 30.1769 135.475 30.0364 135.673 30.104C135.782 30.1405 136.053 30.2653 135.824 30.1301C135.891 30.1717 135.959 30.2081 136.027 30.2497C135.787 30.104 136.068 30.2705 136.048 30.2861L136.084 30.3277L136.011 30.2289C135.907 29.5734 136.011 29.4642 136.35 29.1313C136.313 29.1677 136.089 29.2561 136.376 29.1365C136.287 29.1781 136.188 29.2041 136.1 29.2353C135.751 29.3498 135.391 29.4434 135.032 29.5162C134.933 29.5318 134.839 29.5526 134.74 29.5682C134.501 29.6099 134.917 29.5474 134.678 29.5787C134.506 29.5995 134.334 29.6151 134.162 29.6255C133.766 29.6463 133.376 29.6463 132.985 29.6203C132.886 29.6151 132.787 29.6047 132.693 29.5943C132.693 29.5943 132.454 29.5682 132.584 29.5839C132.735 29.6047 132.438 29.563 132.407 29.5578C132.334 29.5422 132.261 29.5318 132.188 29.5162C131.808 29.4382 131.428 29.3394 131.058 29.2145C130.964 29.1781 130.87 29.1469 130.782 29.1157C130.761 29.1053 130.532 29.0168 130.704 29.0897C130.547 29.0272 130.396 28.9492 130.245 28.8764C130.11 28.8088 129.969 28.7359 129.85 28.6423C130.032 28.7932 129.87 28.6423 129.844 28.6059C129.917 28.6943 129.969 28.7567 129.985 28.8764C130.016 29.0637 129.761 29.6255 129.532 29.5891C129.62 29.6047 129.85 29.4954 129.954 29.4694C130.199 29.407 130.449 29.3498 130.699 29.3081C130.818 29.2821 130.933 29.2613 131.053 29.2457C131.183 29.2249 131.438 29.1937 131.152 29.2249C131.438 29.1885 131.73 29.1625 132.021 29.1417C132.574 29.1053 133.131 29.1001 133.683 29.1469C133.756 29.1521 133.829 29.1625 133.902 29.1677C134.251 29.1989 133.709 29.1261 133.902 29.1677C134.058 29.1989 134.209 29.2197 134.365 29.2561C134.501 29.2821 134.631 29.3186 134.761 29.355C134.824 29.3758 134.891 29.3966 134.954 29.4174C134.995 29.433 135.272 29.5058 135.058 29.4486C134.886 29.4018 135.027 29.433 135.068 29.4538C135.141 29.4902 135.209 29.5214 135.277 29.563C135.308 29.5787 135.636 29.7607 135.626 29.7815C135.62 29.7971 135.365 29.5422 135.553 29.7295C135.594 29.7711 135.641 29.8075 135.683 29.8492C135.673 29.8388 135.803 29.9792 135.803 29.9792C135.787 29.9896 135.605 29.6931 135.792 29.9792C136.188 30.593 137.048 30.9052 137.704 30.4838C138.313 30.0884 138.631 29.2301 138.204 28.5747L138.219 28.5695Z" fill="white"/>
<path d="M160.251 72.9166C159.568 73.7853 158.62 76.1366 161.902 77.0209C165.183 77.9105 169.423 74.42 170.87 68.9475C172.318 63.4698 169.37 62.3826 167.11 62.6115C164.85 62.8456 163.011 69.4053 160.251 72.9166Z" fill="#FFBDC5"/>
<path d="M116.127 33.4495C116.424 33.5171 116.721 33.5951 117.007 33.6992C117.08 33.7252 117.148 33.7564 117.221 33.7772C117.461 33.8708 116.924 33.6419 117.169 33.7564C117.294 33.8136 117.424 33.876 117.549 33.9384C117.81 34.0737 118.06 34.2246 118.299 34.391C118.362 34.4326 118.424 34.4794 118.487 34.5211C118.721 34.6823 118.226 34.313 118.445 34.4899C118.565 34.5887 118.679 34.6823 118.794 34.7864C119.013 34.984 119.216 35.1921 119.409 35.4158C119.455 35.473 119.502 35.5302 119.554 35.5927C119.695 35.7695 119.539 35.6031 119.497 35.5198C119.57 35.6499 119.679 35.7695 119.763 35.8944C119.929 36.1493 120.075 36.4146 120.211 36.6903C120.242 36.7527 120.268 36.8307 120.304 36.8984L120.226 36.7007C120.242 36.7475 120.263 36.7943 120.278 36.8411C120.336 36.9868 120.388 37.1324 120.429 37.2781C120.653 37.97 121.414 38.4902 122.153 38.2509C122.888 38.0116 123.362 37.2781 123.127 36.5342C122.231 33.694 119.804 31.3843 116.867 30.7548C116.158 30.604 115.325 30.9681 115.148 31.7276C114.992 32.4299 115.362 33.283 116.127 33.4443V33.4495Z" fill="#FFA59B"/>
<path d="M122.565 39.4257C122.643 39.3113 122.726 39.1968 122.809 39.0824L122.591 39.3633C122.95 38.9003 123.367 38.4894 123.835 38.1304C123.742 38.2032 123.643 38.2761 123.549 38.3489C124.018 37.9952 124.528 37.6987 125.065 37.4698L124.731 37.6154C125.013 37.4958 125.299 37.3969 125.591 37.3189C126.299 37.1316 126.799 36.3201 126.57 35.6023C126.335 34.8896 125.606 34.4266 124.846 34.6295C122.919 35.1497 121.263 36.3774 120.148 38.0212C119.95 38.3073 119.914 38.7703 120.002 39.0928C120.096 39.4205 120.346 39.769 120.648 39.9303C121.356 40.3048 122.117 40.0759 122.559 39.4257H122.565Z" fill="#FFA59B"/>
<path d="M78.3868 101.314C76.293 100.44 70.7409 95.5552 75.3815 89.2608C79.0743 84.2617 92.3401 87.9863 93.9547 90.4156C93.9547 90.4156 97.8297 90.3896 101.21 93.3964C101.21 93.3964 107.267 87.7366 114.293 89.4845C121.325 91.2323 122.018 93.9478 124.148 94.0622C126.278 94.1767 127.622 90.1659 132.945 90.0515C138.263 89.9423 140.299 94.2495 140.299 94.2495C140.299 94.2495 146.664 92.0334 147.523 88.3088C148.388 84.5842 154.127 82.5555 157.45 85.042C160.778 87.5233 161.304 93.0114 157.325 94.9257C153.346 96.8453 150.794 95.191 150.502 95.6592C150.216 96.1274 147.143 101.933 140.596 103.369C131.716 105.314 127.695 101.35 127.695 101.35C127.695 101.35 122.424 104.019 116.991 102.042C116.991 102.042 116.21 102.208 114.21 103.431C109.856 106.084 102.996 107.317 98.3714 105.132C93.7464 102.947 92.9338 101.506 91.8505 100.846C91.5067 100.643 91.0588 100.403 90.7151 100.611C88.913 101.704 85.1421 104.123 78.392 101.309L78.3868 101.314Z" fill="#FFBDC5"/>
<path d="M69.7558 80.5573C71.3236 82.482 73.1725 84.0062 75.4955 84.9217C77.8132 85.8373 80.506 85.9101 82.9852 85.3275C84.73 84.9113 83.9904 82.2219 82.2404 82.6381C80.1674 83.1271 78.2039 82.9918 76.2403 82.2323C76.1413 82.1959 76.0684 82.1595 76.209 82.2219C76.1309 82.1855 76.0528 82.1491 75.9799 82.1179C75.8184 82.0451 75.6622 81.967 75.5111 81.889C75.0476 81.6497 74.6049 81.3844 74.1934 81.0723C73.2559 80.3752 72.4642 79.4857 71.7298 78.5858C71.2559 78.0031 70.2506 78.0916 69.7558 78.5858C69.1725 79.1632 69.2767 79.9695 69.7558 80.5573Z" fill="#FFA59B"/>
<path d="M160.391 61.2952C161.844 66.1279 159.537 71.6211 155.089 74.0036C153.506 74.8516 154.917 77.2601 156.501 76.4122C162.016 73.4626 164.881 66.5336 163.089 60.5566C162.574 58.8399 159.876 59.5682 160.391 61.2952Z" fill="#FFA59B"/>
<path d="M160.35 15.0445C160.522 16.2618 160.673 17.4114 160.835 18.7379C160.991 20.0436 161.132 21.3545 161.267 22.6602C161.34 23.3833 161.856 24.0907 162.663 24.0543C163.361 24.0231 164.142 23.4405 164.064 22.6602C163.777 19.8668 163.434 17.0837 163.048 14.3006C162.944 13.5776 161.981 13.1198 161.329 13.3279C160.533 13.588 160.241 14.2694 160.356 15.0445H160.35Z" fill="#FFD97B"/>
<path d="M158.596 20.7462C159.258 20.6058 159.924 20.4809 160.596 20.3717C161.299 20.2624 161.607 20.2208 162.305 20.1428C163.617 20.0023 164.93 19.9295 166.247 19.9139C166.977 19.9087 167.68 19.2793 167.648 18.5198C167.612 17.7707 167.034 17.1152 166.247 17.1256C163.43 17.1517 160.612 17.4742 157.851 18.0568C157.138 18.2076 156.653 19.0868 156.877 19.7734C157.122 20.5277 157.831 20.9075 158.596 20.7462Z" fill="#FFD97B"/>
<path d="M165.621 52.4676C165.199 53.8461 166.324 55.2767 167.777 55.2507C169.34 55.2299 170.47 53.6953 171.439 52.6705C173.71 50.2724 175.819 47.7078 177.756 45.034C181.605 39.7176 184.72 33.8914 187.069 27.7635C188.418 24.2522 189.481 20.642 190.277 16.9642C190.658 15.2163 187.96 14.4673 187.585 16.2255C186.085 23.1545 183.595 29.8339 180.163 36.045C178.465 39.109 176.548 42.0585 174.434 44.8519C173.35 46.2825 172.21 47.6662 171.017 49.0083C170.423 49.6742 169.819 50.3348 169.199 50.9798C168.933 51.2556 168.668 51.5313 168.402 51.8018C168.236 51.9682 168.069 52.1347 167.897 52.2959C167.418 52.5352 167.558 52.8422 168.319 53.2115C168.85 51.4896 166.152 50.7562 165.621 52.4676Z" fill="#FFA59B"/>
<path d="M185.898 10.8827C187.497 11.6058 189.263 11.9544 191.018 11.8971C191.58 11.8763 192.289 11.6943 192.388 11.1376C192.435 10.8827 192.325 10.6174 192.2 10.3886C190.945 8.12571 187.971 7.47026 185.388 7.59511C184.955 7.61591 184.507 7.65753 184.132 7.87081C183.398 8.28177 183.153 9.19731 182.971 10.014C182.612 11.663 182.273 13.4993 183.132 14.9559C183.872 16.2148 185.315 16.8494 186.674 17.4008C188.778 18.2539 191.096 19.0915 193.263 18.4256C196.008 17.5829 197.502 14.6334 198.221 11.8503C198.502 10.7423 198.716 9.56665 198.419 8.45863C198.122 7.35061 197.19 6.34143 196.039 6.29461C195.836 6.28941 195.607 6.29461 195.466 6.14896C195.325 5.9981 195.351 5.76401 195.362 5.56114C195.398 4.6768 194.862 3.79247 194.06 3.41273C193.258 3.03298 192.237 3.17864 191.575 3.76646C191.383 2.8093 190.424 2.11224 189.445 2.08102C188.471 2.04981 187.534 2.60642 186.955 3.39192C185.992 4.69761 186.065 6.73158 187.268 7.82399" fill="#FFA59B"/>
<mask id="mask1_6061_45276" style="mask-type:luminance" maskUnits="userSpaceOnUse" x="180" y="0" width="20" height="21">
<path d="M180.667 0H200V20.8495H180.667V0Z" fill="white"/>
</mask>
<g mask="url(#mask1_6061_45276)">
<path d="M185.193 12.0892C187.183 12.9579 189.793 13.7278 191.975 13.1608C193.027 12.8851 193.85 12.0112 193.787 10.8823C193.73 9.86795 192.975 8.87957 192.246 8.22933C190.787 6.93404 188.886 6.38263 186.97 6.22657C186.084 6.15375 185.1 6.11733 184.24 6.34102C183.105 6.63753 182.365 7.46984 181.954 8.52064C181.225 10.3725 180.824 12.9527 181.553 14.8514C182.365 16.9738 184.318 17.9362 186.303 18.7425C188.516 19.6424 190.944 20.4487 193.35 19.8453C195.235 19.3771 196.725 18.0558 197.777 16.4692C199.011 14.5965 199.866 12.1048 199.954 9.86795C200.001 8.6715 199.715 7.48545 198.991 6.52829C198.621 6.0289 198.162 5.60754 197.61 5.31623C197.381 5.19138 197.116 5.08734 196.86 5.01451C196.668 4.9729 196.47 4.94169 196.272 4.92088C196.001 4.87926 195.97 4.88447 196.173 4.94689L196.678 5.44628L196.584 5.27461L196.772 5.97688C196.699 5.2538 196.72 4.60356 196.397 3.9169C196.074 3.23544 195.537 2.63722 194.876 2.26788C193.438 1.46677 191.819 1.8101 190.589 2.78287C191.365 2.99095 192.147 3.19383 192.923 3.40191C192.131 0.389967 188.433 0.00502099 186.376 1.95056C184.464 3.75564 184.417 6.97565 186.282 8.81715C187.563 10.0812 189.543 8.10968 188.261 6.8404C187.579 6.16935 187.496 5.01451 188.069 4.23942C188.558 3.56837 189.933 3.01176 190.23 4.14579C190.522 5.2486 191.777 5.38385 192.569 4.75962C192.918 4.48391 193.49 4.57235 193.761 4.90007C193.996 5.19138 193.944 5.42547 193.964 5.774C193.99 6.26819 194.126 6.78318 194.485 7.14212C195.053 7.70913 195.798 7.46984 196.402 7.83918C196.938 8.1669 197.142 8.85877 197.168 9.44659C197.23 10.8927 196.688 12.5418 196.063 13.8318C195.47 15.0595 194.668 16.256 193.412 16.8802C191.839 17.6657 190.006 17.1507 188.449 16.5993C187.178 16.1467 185.444 15.6421 184.553 14.5549C183.579 13.3637 184.058 11.5118 184.381 10.1645C184.506 9.66507 184.568 9.11887 185.136 9.00962C185.808 8.88478 186.621 8.96281 187.287 9.04604C188.589 9.2125 190.058 9.69108 190.834 10.8147L190.891 10.9083C191.053 11.2933 191.178 11.1528 191.266 10.4766C191.204 10.435 191.105 10.5338 191.027 10.5078C190.631 10.3725 190.001 10.5078 189.563 10.461C188.558 10.3673 187.537 10.0916 186.61 9.68588C185.923 9.38416 185.11 9.483 184.699 10.1853C184.355 10.7783 184.506 11.7927 185.204 12.0944L185.193 12.0892Z" fill="#FFA59B"/>
</g>
<path d="M191.112 6.89727C191.117 6.85565 191.117 6.81404 191.122 6.77242C191.122 6.74641 191.154 6.52793 191.128 6.7204C191.107 6.89207 191.128 6.73601 191.133 6.69959C191.138 6.64757 191.149 6.59555 191.159 6.53833C191.195 6.36147 191.237 6.1846 191.289 6.00773C191.346 5.82046 191.414 5.63839 191.482 5.46153C191.529 5.33148 191.393 5.6592 191.451 5.52915C191.477 5.48233 191.498 5.43551 191.518 5.3835C191.56 5.30026 191.602 5.21183 191.649 5.1234C191.737 4.96214 191.831 4.80608 191.93 4.65522C191.982 4.57199 192.034 4.49396 192.091 4.41593C192.112 4.38472 192.206 4.26507 192.107 4.38992C191.998 4.52517 192.117 4.37431 192.143 4.3483C192.393 4.04659 192.669 3.77609 192.966 3.52639C193.393 3.17786 193.357 2.40797 192.966 2.04904C192.513 1.63288 191.935 1.67449 191.487 2.04904C190.029 3.24549 189.175 5.03496 189.013 6.89727C188.961 7.44868 189.529 7.96887 190.06 7.94806C190.669 7.91685 191.06 7.48509 191.107 6.89727H191.112Z" fill="#E96474"/>
<path d="M194.704 9.57209C194.757 9.42123 194.809 9.27558 194.871 9.12992L194.767 9.37962C195.001 8.83341 195.309 8.31841 195.673 7.83983L195.512 8.05311C195.866 7.60054 196.277 7.18959 196.741 6.83065L196.527 6.99712C196.569 6.9659 196.611 6.93469 196.652 6.89828C196.882 6.73182 197.059 6.55495 197.137 6.27404C197.204 6.02435 197.173 5.69142 197.033 5.46774C196.887 5.24405 196.673 5.05158 196.402 4.98916C196.137 4.92673 195.819 4.92673 195.595 5.0932C194.887 5.61339 194.293 6.20121 193.767 6.91388C193.293 7.54852 192.939 8.26639 192.678 9.01548C192.501 9.53567 192.887 10.1807 193.413 10.3056C193.996 10.4356 194.512 10.1287 194.704 9.57209Z" fill="#E96474"/>
<path d="M184.131 8.7086C185.063 7.95952 186.641 7.75665 187.855 7.74624C189.292 7.73064 190.735 8.1624 191.803 9.14557C192.246 9.55132 192.886 10.2016 192.782 10.8674C192.694 11.4396 192.027 11.7778 191.516 11.8454C190.673 11.965 189.803 11.6321 189.032 11.3408C188.173 11.0131 187.329 10.6437 186.423 10.4773C185.865 10.3784 185.287 10.6333 185.131 11.2108C184.99 11.7205 185.303 12.3968 185.865 12.5008C187.683 12.8286 189.266 13.947 191.157 13.9574C192.897 13.9626 194.694 12.8494 194.865 11.0079C195.037 9.19759 193.527 7.637 192.089 6.76827C190.714 5.93596 189.1 5.59263 187.501 5.66546C185.787 5.74348 184.006 6.13363 182.647 7.23125C182.209 7.59018 182.277 8.34447 182.647 8.71381C183.079 9.14557 183.688 9.07274 184.131 8.71381V8.7086Z" fill="#E96474"/>
<path d="M192.481 12.8375C192.867 13.212 193.273 13.5501 193.768 13.7634C194.335 13.9975 194.934 14.0183 195.533 13.9091C196.512 13.7374 197.335 13.082 198.023 12.4057C198.414 12.0208 198.44 11.3081 198.023 10.9232C197.606 10.5434 196.96 10.5122 196.544 10.9232C196.414 11.0532 196.278 11.1833 196.137 11.3029C196.091 11.3445 195.986 11.4694 195.924 11.4798C196.049 11.3861 196.065 11.3757 195.976 11.4433C195.94 11.4694 195.898 11.4954 195.861 11.5214C195.726 11.615 195.585 11.6878 195.445 11.7659C195.346 11.8127 195.361 11.8075 195.507 11.7451C195.466 11.7607 195.419 11.7763 195.377 11.7919C195.288 11.8231 195.2 11.8491 195.111 11.8699C195.065 11.8803 195.018 11.8907 194.976 11.8959C195.137 11.8751 195.163 11.8751 195.049 11.8855C194.955 11.8855 194.861 11.8855 194.773 11.8907C194.549 11.8959 194.997 11.9479 194.778 11.8959C194.757 11.8907 194.512 11.8335 194.518 11.8231C194.658 11.8855 194.679 11.8959 194.575 11.8439C194.533 11.8231 194.492 11.8023 194.455 11.7763C194.413 11.7503 194.372 11.7295 194.335 11.7034C194.247 11.6358 194.257 11.6514 194.382 11.7399C194.32 11.7295 194.216 11.5942 194.169 11.5526C194.101 11.4902 194.028 11.4277 193.96 11.3601C193.565 10.9804 192.867 10.9388 192.481 11.3601C192.101 11.7711 192.059 12.4369 192.481 12.8375Z" fill="#E96474"/>
<path d="M115.772 51.3796C114.954 51.0571 113.995 51.6137 113.579 52.394C113.162 53.1691 113.157 54.095 113.188 54.9741C113.214 55.7024 113.266 56.4619 113.636 57.0861C114.006 57.7156 114.787 58.1629 115.475 57.9184C116.438 57.5751 116.553 56.2798 116.495 55.2602C116.469 54.7505 116.443 54.2355 116.417 53.7205C116.381 53.1118 116.339 52.4668 116.016 51.9466C115.693 51.4264 114.99 51.0883 114.449 51.3744" fill="black"/>
<path d="M116.344 50.1108C115.355 49.7622 114.422 49.8975 113.537 50.4437C112.792 50.9015 112.292 51.6818 112.042 52.4985C111.797 53.3152 111.771 54.2307 111.803 55.1203C111.839 56.067 111.985 56.9826 112.459 57.8149C113.412 59.4743 115.844 59.9633 117.12 58.3871C118.12 57.149 117.902 55.4272 117.824 53.955C117.766 52.925 117.709 51.8118 117.032 50.9691C116.318 50.0796 115.027 49.5698 113.938 50.0796C113.282 50.3917 112.834 51.172 113.157 51.8898C113.448 52.5401 114.256 53.0031 114.964 52.6701C115.079 52.6129 115.126 52.6441 114.855 52.6701C114.917 52.6649 115.021 52.6753 114.844 52.6493C114.62 52.6233 114.823 52.6649 114.876 52.6649C115.016 52.6701 114.756 52.6441 114.751 52.6285C114.756 52.6441 114.912 52.6805 114.917 52.7065L114.844 52.6649C114.745 52.6025 114.745 52.6077 114.844 52.6805C114.876 52.7326 114.917 52.8158 114.855 52.6805C114.756 52.4725 114.896 52.7534 114.902 52.7742C114.902 52.7534 114.787 52.4829 114.881 52.7586C114.896 52.8106 114.917 52.873 114.938 52.9198C115.027 53.1019 114.907 52.6909 114.933 52.8886C114.938 52.9458 114.954 53.0031 114.964 53.0603C115.011 53.3672 115.027 53.6793 115.042 53.9914C115.073 54.5741 115.12 55.1567 115.126 55.7445C115.126 55.7861 115.126 55.8277 115.126 55.8745C115.136 56.0566 115.152 55.578 115.126 55.7601C115.115 55.8589 115.115 55.9682 115.105 56.067C115.089 56.1659 115.073 56.2647 115.053 56.3635C115.047 56.4051 115.037 56.4468 115.027 56.4884C114.975 56.7537 115.12 56.2959 115.047 56.426C115.032 56.452 114.928 56.6444 114.938 56.6809C114.917 56.556 115.115 56.4468 115.001 56.5768C114.985 56.5976 114.902 56.6861 114.902 56.6965C114.902 56.7017 115.126 56.4884 115.021 56.5768C114.975 56.6236 114.829 56.6913 115.021 56.5976C115.251 56.4936 115.063 56.582 115.042 56.5872C114.761 56.6132 115.287 56.5872 115.1 56.582C115.047 56.582 114.839 56.6028 115.058 56.5976C115.277 56.5872 115.1 56.5768 115.063 56.582C114.881 56.5924 115.058 56.4468 115.141 56.608C115.131 56.5976 115.027 56.556 115.011 56.5508C114.839 56.4988 115.204 56.7069 115.063 56.5924C115.027 56.5612 114.99 56.5352 114.948 56.504C114.73 56.3531 114.98 56.5612 114.985 56.5612C114.933 56.5404 114.865 56.4208 114.839 56.3739C114.818 56.3479 114.761 56.2855 114.761 56.2543L114.829 56.3687L114.782 56.2647C114.761 56.1919 114.73 56.1138 114.704 56.0462C114.693 56.0254 114.641 55.8381 114.688 56.0098C114.74 56.1919 114.683 55.9578 114.672 55.911C114.662 55.8537 114.657 55.7965 114.646 55.7393C114.626 55.5884 114.61 55.4324 114.6 55.2815C114.579 54.9954 114.568 54.7145 114.568 54.4284C114.568 54.3764 114.568 54.3192 114.568 54.2619C114.563 53.9914 114.563 54.2567 114.563 54.3036C114.553 54.1579 114.579 54.0018 114.594 53.8614C114.615 53.6949 114.641 53.5337 114.678 53.3724C114.688 53.3308 114.693 53.2528 114.714 53.2163C114.573 53.4452 114.698 53.2892 114.735 53.2007C114.756 53.1487 114.782 53.1019 114.803 53.0499C114.928 52.7482 114.688 53.1799 114.787 53.0603C114.823 53.0135 114.86 52.9562 114.896 52.9094C114.995 52.795 115.073 52.8158 114.865 52.9198C114.964 52.8678 115.068 52.7586 115.157 52.6961C115.297 52.5869 115.214 52.7482 115.084 52.7378C115.12 52.7378 115.214 52.6805 115.251 52.6649C115.485 52.5661 115.167 52.7118 115.141 52.6857C115.157 52.6961 115.344 52.6649 115.36 52.6597C115.495 52.6233 115.23 52.6701 115.209 52.6545C115.251 52.6597 115.292 52.6649 115.339 52.6753C115.438 52.7013 115.396 52.6857 115.209 52.6337C115.891 52.8782 116.756 52.6701 117.053 51.9367C117.308 51.2812 117.084 50.3553 116.35 50.0952L116.344 50.1108Z" fill="black"/>
<path d="M142.423 43.7536C141.6 43.431 140.642 43.9928 140.225 44.7679C139.814 45.5482 139.803 46.469 139.835 47.3481C139.861 48.0764 139.918 48.8359 140.283 49.4653C140.652 50.0896 141.434 50.5369 142.121 50.2924C143.085 49.9491 143.199 48.659 143.147 47.6394C143.116 47.1244 143.09 46.6094 143.064 46.0996C143.033 45.4858 142.986 44.846 142.668 44.3258C142.34 43.8056 141.637 43.4675 141.095 43.7536" fill="black"/>
<path d="M142.99 42.4841C142 42.1355 141.068 42.2708 140.183 42.8222C139.443 43.2748 138.938 44.0603 138.693 44.8718C138.433 45.7301 138.417 46.6092 138.448 47.4988C138.485 48.4455 138.631 49.3559 139.11 50.1882C140.058 51.8528 142.49 52.3418 143.766 50.7604C144.766 49.5275 144.547 47.8057 144.469 46.3335C144.417 45.3035 144.355 44.1903 143.677 43.3476C142.964 42.4529 141.672 41.9483 140.584 42.4581C139.927 42.765 139.48 43.5453 139.802 44.2631C140.094 44.9134 140.907 45.3764 141.61 45.0434C141.724 44.9914 141.771 45.0174 141.5 45.0434C141.563 45.0382 141.672 45.0538 141.49 45.0278C141.266 44.9966 141.469 45.0382 141.521 45.0382C141.667 45.0486 141.407 45.0226 141.396 45.0018C141.401 45.0174 141.558 45.0538 141.563 45.0799L141.49 45.0382C141.391 44.9758 141.391 44.981 141.49 45.0538C141.521 45.1059 141.563 45.1891 141.5 45.0538C141.407 44.8458 141.547 45.1267 141.547 45.1475C141.547 45.1319 141.433 44.8614 141.526 45.1371C141.547 45.1839 141.563 45.2463 141.584 45.2983C141.672 45.4752 141.552 45.0642 141.578 45.2619C141.589 45.3191 141.599 45.3764 141.61 45.4336C141.657 45.7457 141.672 46.0578 141.688 46.3699C141.719 46.9526 141.771 47.5352 141.776 48.1178C141.776 48.1594 141.776 48.2062 141.776 48.2478C141.782 48.4351 141.802 47.9513 141.776 48.1386C141.761 48.2374 141.761 48.3415 141.75 48.4403C141.74 48.5444 141.724 48.6432 141.703 48.742C141.693 48.7837 141.683 48.8201 141.672 48.8669C141.625 49.1322 141.766 48.6744 141.693 48.7993C141.677 48.8305 141.578 49.0177 141.584 49.0594C141.563 48.9293 141.761 48.8201 141.646 48.9501C141.631 48.9709 141.552 49.0594 141.552 49.0698C141.552 49.0802 141.776 48.8617 141.672 48.9553C141.62 48.9969 141.474 49.0646 141.672 48.9761C141.896 48.8669 141.709 48.9605 141.688 48.9605C141.407 48.9865 141.938 48.9605 141.745 48.9553C141.693 48.9553 141.485 48.9813 141.703 48.9709C141.922 48.9605 141.745 48.9553 141.709 48.9553C141.532 48.9709 141.709 48.8253 141.787 48.9865C141.782 48.9709 141.672 48.9345 141.657 48.9293C141.485 48.8721 141.849 49.0854 141.714 48.9709C141.677 48.9397 141.636 48.9085 141.594 48.8825C141.375 48.7264 141.631 48.9345 141.631 48.9397C141.578 48.9189 141.516 48.7941 141.485 48.7472C141.464 48.7264 141.412 48.6588 141.407 48.6276L141.474 48.742L141.427 48.638C141.412 48.5652 141.375 48.4923 141.355 48.4247C141.344 48.3987 141.287 48.2114 141.334 48.3831C141.391 48.5704 141.328 48.3311 141.318 48.2895C141.313 48.2322 141.302 48.175 141.292 48.1178C141.271 47.9617 141.256 47.8057 141.245 47.6548C141.224 47.3739 141.219 47.0878 141.214 46.8069C141.214 46.7497 141.214 46.6925 141.214 46.6404C141.214 46.3699 141.209 46.6352 141.209 46.6769C141.198 46.5312 141.224 46.3803 141.245 46.2347C141.261 46.0734 141.287 45.907 141.323 45.7509C141.334 45.7041 141.339 45.6261 141.365 45.5896C141.219 45.8237 141.349 45.6677 141.386 45.574C141.407 45.5272 141.427 45.4752 141.448 45.4232C141.578 45.1215 141.334 45.5532 141.433 45.4336C141.474 45.3868 141.506 45.3347 141.547 45.2879C141.641 45.1683 141.724 45.1891 141.511 45.2983C141.61 45.2463 141.714 45.1371 141.802 45.0694C141.948 44.9654 141.86 45.1215 141.73 45.1111C141.766 45.1111 141.86 45.0538 141.896 45.0434C142.131 44.9394 141.813 45.0851 141.792 45.059C141.802 45.0746 141.99 45.0382 142.011 45.0382C142.141 45.0018 141.875 45.0486 141.855 45.033C141.896 45.0382 141.943 45.0434 141.985 45.0538C142.089 45.0747 142.042 45.059 141.855 45.0122C142.542 45.2515 143.401 45.0486 143.698 44.31C143.959 43.6597 143.73 42.7286 142.995 42.4737L142.99 42.4841Z" fill="black"/>
<path d="M123.355 59.8336C129.371 61.3213 135.918 59.5683 140.381 55.2714C141.678 54.023 139.699 52.0514 138.402 53.2947C134.663 56.8996 129.142 58.3874 124.095 57.1389C122.35 56.7072 121.605 59.4018 123.355 59.8283V59.8336Z" fill="black"/>
<path d="M53.8398 104.799C55.7565 102.152 58.4753 101.267 60.3451 101.314C62.767 101.376 64.767 102.88 65.1264 104.721C65.1993 105.106 65.2254 105.528 65.4649 105.845C65.6733 106.115 66.0066 106.261 66.3243 106.402C66.9285 106.677 67.5379 106.995 67.9598 107.515C68.3764 108.035 68.5535 108.794 68.2358 109.377C67.9129 109.96 67.0014 110.178 66.5483 109.689C67.1004 110.407 67.1421 111.473 66.6577 112.233C66.1681 112.992 65.1785 113.398 64.2983 113.2C64.7097 113.939 64.491 114.964 63.8139 115.469C63.1368 115.973 62.0899 115.895 61.4962 115.297C61.6524 115.989 60.9545 116.634 60.2461 116.691C59.5378 116.753 58.8711 116.405 58.2565 116.051C55.7252 114.61 53.1471 112.665 52.5221 109.824C51.9023 107 53.7252 103.853 56.4909 102.979" fill="#FFA59B"/>
<path d="M55.047 105.501C56.6356 103.373 59.7554 101.839 62.2658 103.212C62.8023 103.504 63.2815 103.904 63.5627 104.45C63.9065 105.116 63.8336 105.896 64.2607 106.547C64.8075 107.384 65.7346 107.535 66.5055 108.071C66.6253 108.154 66.7503 108.237 66.8388 108.357C66.8857 108.419 66.9638 108.669 67.0003 108.679C67.1617 108.752 66.7711 108.586 67.1513 108.555C67.2138 108.549 67.8909 109.007 67.5367 108.695C66.4117 107.717 64.3961 108.997 65.344 110.391C65.7242 110.948 65.6044 112.004 64.6669 111.847C63.4325 111.639 62.5471 112.753 63.0888 113.897C63.2763 114.287 62.7659 114.552 62.4846 114.303C61.6773 113.59 59.9481 113.991 60.0939 115.291C60.1512 115.775 60.1564 115.26 60.1825 115.265C60.1304 115.255 60.0575 115.322 59.9846 115.296C59.6096 115.172 59.3023 115.036 58.9585 114.844C58.2658 114.454 57.5835 114.027 56.9377 113.554C55.8074 112.737 54.7189 111.686 54.1564 110.386C53.1512 108.06 54.4533 105.132 56.8595 104.32C58.5523 103.748 57.8231 101.048 56.1147 101.631C51.7241 103.119 49.7032 108.321 52.0313 112.347C53.1824 114.334 55.0939 115.791 57.0366 116.951C58.1408 117.611 59.3856 118.308 60.7242 118.017C61.9533 117.746 63.0419 116.607 62.8961 115.291C62.0992 115.619 61.3023 115.952 60.5054 116.28C61.6669 117.304 63.3804 117.528 64.6617 116.56C65.9534 115.582 66.1669 113.892 65.5055 112.493C64.9794 113.174 64.4534 113.855 63.9273 114.542C65.4221 114.792 66.9222 114.324 67.7972 113.023C68.6045 111.821 68.568 110.172 67.7555 108.981C67.0263 109.543 66.2919 110.11 65.5628 110.672C66.6097 111.582 68.1618 111.567 69.1201 110.511C70.0628 109.481 69.9378 107.894 69.167 106.812C68.7347 106.209 68.1357 105.756 67.4795 105.413C67.219 105.277 66.9326 105.111 66.6513 105.017C66.4274 104.866 66.4169 104.877 66.6149 105.054C66.5732 104.898 66.5419 104.742 66.5159 104.586C66.2971 103.498 65.7919 102.526 64.9794 101.761C63.245 100.122 60.7762 99.6384 58.4846 100.112C56.0679 100.616 54.0835 102.156 52.6355 104.097C52.1824 104.7 52.5366 105.657 53.1355 106.006C53.8491 106.422 54.5991 106.11 55.047 105.501Z" fill="#FFA59B"/>
<path d="M61.8345 104.503C62.897 105.59 64.3866 106.214 65.9075 106.24C66.4544 106.245 66.9804 105.751 66.9544 105.189C66.9283 104.617 66.496 104.154 65.9075 104.144C65.7252 104.144 65.5481 104.128 65.3658 104.107L65.6471 104.144C65.2148 104.087 64.8033 103.972 64.3971 103.806L64.6523 103.915C64.2668 103.748 63.9127 103.54 63.5845 103.285L63.7981 103.452C63.6262 103.317 63.4648 103.176 63.3137 103.02C62.9335 102.63 62.2095 102.609 61.8345 103.02C61.4439 103.441 61.4231 104.081 61.8345 104.503Z" fill="#E96474"/>
<path d="M73.0207 70.3516C67.0571 73.5248 62.5987 78.8308 59.1664 84.5425C56.1195 89.6196 53.4528 94.9308 53.6559 100.996C53.7497 103.748 54.4163 106.885 56.682 108.695C58.0726 109.803 60.0622 107.847 58.6612 106.718C56.9893 105.387 56.5414 103.176 56.458 101.137C56.3591 98.8219 56.682 96.4758 57.3955 94.2702C58.2601 91.5912 59.781 89.0162 61.1977 86.5973C62.755 83.9339 64.4998 81.3693 66.5571 79.0649C68.8228 76.5315 71.4165 74.3623 74.427 72.7601C76.0156 71.9174 74.6041 69.5036 73.0155 70.3516H73.0207Z" fill="#FFA59B"/>
<path d="M70.3703 90.337C72.0109 92.6571 74.6933 93.916 77.2922 94.8784C81.1933 96.3193 85.3496 97.0632 89.4591 97.6198C99.079 98.9203 108.48 97.0008 118.017 95.95C122.986 95.4038 127.975 95.1489 132.944 94.5298C139.871 93.6663 147.106 92.782 153.684 90.3578C159.324 88.2771 164.934 84.901 169.148 80.5573C170.403 79.2673 168.424 77.2957 167.168 78.5858C163.918 81.9359 159.752 84.6097 155.548 86.576C149.257 89.5099 142.043 90.5035 135.225 91.4347C130.954 92.0225 126.673 92.475 122.371 92.7664C113.329 93.375 104.407 95.539 95.3133 95.3101C90.3862 95.1853 85.3809 94.3842 80.6465 93.0317C78.0423 92.2878 74.4432 91.2734 72.7818 88.9221C71.7557 87.4656 69.3338 88.8597 70.3703 90.3318V90.337Z" fill="#5E4D5C"/>
<path d="M127.995 83.6169C131.865 83.6377 135.615 81.2968 137.141 77.7179L135.23 78.2172C138.87 80.5269 143.735 80.5009 147.339 78.1288C148.834 77.1456 147.433 74.7267 145.928 75.7203C143.115 77.5722 139.485 77.619 136.641 75.8087C136.058 75.4446 135.016 75.6319 134.73 76.3133C133.568 79.0235 130.98 80.8442 127.995 80.8286C126.198 80.8182 126.198 83.6117 127.995 83.6221V83.6169Z" fill="#FFA59B"/>
<path d="M182.788 71.444C183.741 71.496 184.694 71.4388 185.642 71.3608C186.064 71.3244 186.481 71.2828 186.897 71.2464C187.059 71.2359 187.226 71.2255 187.387 71.2047C187.455 71.1995 187.866 71.2047 187.595 71.1631C187.387 71.0435 187.184 70.9238 186.976 70.8042C187.778 71.4232 188.767 71.3868 189.413 70.5337C189.913 69.8678 189.892 68.9211 190.043 68.198C190.512 66.0548 190.356 63.844 190.632 61.6747H187.835C187.913 64.2757 188.075 66.8975 188.45 69.4725C188.59 70.44 189.095 71.5689 190.34 71.2359C190.996 71.0591 191.392 70.4452 191.408 69.795C191.434 68.8534 190.809 68.2344 189.898 68.1408C189.387 68.0836 188.965 68.4581 188.689 68.8326C187.955 69.8366 188.944 70.9394 189.887 71.2516C190.554 71.47 191.299 71.5117 191.997 71.5481C193.08 71.6053 194.174 71.5949 195.262 71.5429C195.142 70.6273 195.017 69.717 194.892 68.8014C193.163 69.3164 191.377 69.7378 189.684 70.3412C188.517 70.7574 188.413 72.396 188.168 73.4416C187.825 74.8981 187.444 76.4067 187.377 77.9101L190.121 77.5355C189.819 75.4079 189.668 73.2543 189.632 71.1007C189.616 70.44 189.194 69.9771 188.606 69.7586C187.679 69.4101 186.679 69.3112 185.705 69.202C185.028 69.1239 183.986 69.0667 183.496 68.843C182.809 68.5309 181.991 68.6506 181.585 69.3476C181.231 69.9459 181.397 70.9394 182.085 71.2516C183.913 72.0891 185.996 71.7561 187.861 72.448C187.517 72.0006 187.179 71.5533 186.835 71.1059C186.887 73.5092 187.095 75.8969 187.429 78.2794C187.653 79.8972 190.106 79.403 190.174 77.9101C190.252 76.1726 190.892 73.9462 191.398 72.0631C191.075 72.3856 190.746 72.7133 190.424 73.0358C192.158 72.5208 193.898 72.0058 195.637 71.496C197.106 71.0591 196.887 68.6766 195.267 68.7546C194.559 68.7858 193.851 68.7962 193.142 68.791C192.59 68.7858 192.038 68.7702 191.486 68.7234C191.163 68.6922 191.273 68.7234 190.97 68.6506C190.903 68.635 190.799 68.5933 190.736 68.5933C190.533 68.5986 190.767 68.5933 190.877 68.6922C190.996 68.8951 191.116 69.1031 191.236 69.306L191.21 69.2176C191.163 69.5765 191.116 69.9303 191.069 70.2944L191.106 70.2424C190.705 70.4713 190.299 70.7001 189.898 70.9342L189.96 70.9394C189.559 70.7105 189.158 70.4765 188.757 70.2476L188.804 70.3308C188.741 70.0915 188.679 69.8574 188.611 69.6233C188.648 69.4725 188.705 69.3216 188.778 69.1864C189.054 68.9679 189.335 68.7546 189.611 68.5413H189.601C190.054 68.6662 190.507 68.7858 190.96 68.9055C191.533 69.4153 191.262 69.6233 191.215 69.176C191.21 69.0719 191.179 68.9627 191.163 68.8586C191.127 68.609 191.168 68.9263 191.148 68.7442C191.059 68.0784 190.996 67.4125 190.939 66.7414C190.788 65.056 190.679 63.3706 190.632 61.6747C190.606 60.9205 190.002 60.2806 189.231 60.2806C188.398 60.2806 187.929 60.9257 187.835 61.6747C187.658 63.0637 187.663 64.4578 187.564 65.8467C187.517 66.5022 187.424 67.1264 187.278 67.7662C187.215 68.0419 187.153 68.3072 187.116 68.5933C187.054 69.1812 186.976 68.8899 187.366 68.6714C187.72 68.6194 188.08 68.5777 188.444 68.5257L188.392 68.5205C188.601 68.635 188.804 68.7598 189.012 68.8743C188.153 68.2136 187.205 68.4321 186.2 68.5205C185.064 68.6194 183.923 68.7182 182.788 68.6506C180.991 68.5465 180.996 71.34 182.788 71.444Z" fill="#FFD97B"/>
<path d="M123.407 92.2259C121.407 92.5588 119.798 93.979 118.699 95.6072C118.126 96.4551 117.693 97.3863 117.282 98.3174C116.865 99.285 116.355 100.294 116.381 101.381C116.407 102.484 116.933 103.597 117.943 104.123C119.016 104.685 120.23 104.445 121.282 103.967C123.121 103.124 124.329 101.35 125.048 99.5295C125.475 98.4423 125.735 97.2874 125.923 96.143C126.115 94.9413 126.152 93.6929 125.464 92.6317C124.772 91.5705 122.798 91.8826 122.86 93.3339C122.949 95.4303 122.996 97.5267 123.121 99.6231C123.24 101.595 123.865 103.727 125.881 104.518C126.766 104.867 127.777 104.799 128.615 104.357C129.516 103.884 130.001 102.952 130.147 101.98C130.433 100.034 130.194 97.9741 129.475 96.143C128.756 94.3119 127.313 92.0126 124.99 92.2207C124.235 92.2831 123.589 92.8137 123.589 93.6148C123.589 94.3171 124.23 95.0766 124.99 95.009C125.089 94.9934 125.193 94.9934 125.298 94.9934C125.178 94.9726 125.199 94.983 125.365 95.0194C125.188 94.9465 125.548 95.1078 125.584 95.1338C125.719 95.2222 126.001 95.5084 126.105 95.6436C126.574 96.273 126.871 97.0481 127.089 97.7972C127.329 98.6139 127.459 99.4306 127.47 100.279C127.475 100.632 127.464 101.152 127.423 101.413C127.402 101.553 127.329 101.829 127.298 101.891C127.324 101.834 127.115 102 127.303 101.907C127.433 101.844 126.855 102 127.126 101.954C126.954 101.948 126.928 101.948 127.053 101.969C126.98 101.954 126.907 101.933 126.834 101.907C126.772 101.881 126.558 101.72 126.464 101.6C126.042 101.033 125.954 100.299 125.912 99.5243C125.798 97.4643 125.74 95.3991 125.652 93.3339C124.787 93.5732 123.917 93.8073 123.048 94.0414C123.266 94.3743 123.272 94.5304 123.261 94.9153C123.251 95.3627 123.183 95.6592 123.094 96.1222C122.912 97.0325 122.699 97.9585 122.339 98.8168C121.985 99.6751 121.542 100.325 120.891 100.908C120.485 101.272 119.787 101.693 119.344 101.683C119.126 101.678 119.167 101.584 119.282 101.704C119.23 101.652 119.178 101.433 119.188 101.537C119.157 101.178 119.245 100.882 119.37 100.523C119.688 99.6283 120.11 98.744 120.568 97.9169C121.386 96.4239 122.48 95.1962 124.147 94.9205C124.891 94.7957 125.308 93.8749 125.121 93.2039C124.907 92.4132 124.152 92.1011 123.402 92.2259H123.407Z" fill="#5E4D5C"/>
</svg>
