<svg width="200" height="159" viewBox="0 0 200 159" fill="none" xmlns="http://www.w3.org/2000/svg">
<path d="M29.2768 106.665C33.6697 111.661 37.5424 114.199 43.9951 115.815C48.6139 116.973 59.1127 115.546 60.6996 113.699C61.9344 121.49 65.9858 129.051 72.6119 133.305C79.238 137.559 88.5282 137.89 94.7654 133.084C95.4118 132.589 96.0686 132.02 96.8725 131.894C98.3596 131.662 99.5839 132.968 100.63 134.052C105.669 139.291 113.325 141.855 120.497 140.707C127.665 139.554 134.144 134.716 137.291 128.161C139.225 132.225 143.392 135.137 147.869 135.558C152.346 135.974 156.97 133.889 159.629 130.251C160.159 129.53 160.648 128.714 161.447 128.314C162.393 127.835 163.517 128.045 164.563 128.203C177.216 130.125 189.927 121.669 195.649 110.203C197.509 106.47 198.781 102.29 198.287 98.1516C197.882 94.7611 196.112 91.4179 193.337 89.5331C192.491 88.954 192.433 87.7589 193.206 87.085C198.135 82.7837 200.773 75.8973 199.8 69.4006C198.755 62.4668 193.652 56.3228 187.084 53.9536C186.632 53.7904 186.496 53.2482 186.811 52.8902C191.987 46.9778 192.927 37.638 188.897 30.8623C184.946 24.2181 176.57 20.617 169.029 22.1227C168.288 22.2701 167.584 21.7226 167.521 20.975C167.064 15.6365 164.111 10.5349 159.65 7.55501C155.12 4.53301 149.172 3.78541 144.028 5.52279C143.292 5.77024 142.493 5.7018 141.858 5.26482C140.807 4.54881 139.104 3.42741 137.591 2.66401C130.618 -0.863402 116.782 -1.68998 108.801 5.21217C107.818 6.06507 106.415 6.22828 105.317 5.53859C97.0617 0.321176 86.5629 -1.2372 77.1676 1.44784C67.0472 4.34874 58.4348 12.1091 54.5044 21.8858C53.9421 23.2809 53.4692 24.7919 53.4429 26.2766C53.4219 27.4138 52.5917 28.3562 51.4567 28.4089C45.0933 28.7247 38.8298 31.5204 34.6996 36.3692C30.0808 41.8025 28.4571 49.7892 31.0897 56.4281C21.8468 63.1407 19.1669 77.3925 25.3359 87.0166C25.3359 87.0166 22.8714 99.3941 29.2716 106.665H29.2768Z" fill="#FFCFCA"/>
<path d="M40.5527 65.8157C40.5527 65.8157 39.7014 62.6411 45.5709 61.6671C51.4455 60.6931 58.2818 61.8461 56.2693 66.4844C54.2515 71.1279 39.6121 70.9173 40.5527 65.8157Z" fill="#FFA59B"/>
<path d="M113.256 78.6663C113.256 78.6663 112.399 75.4916 118.274 74.5176C124.148 73.5437 130.985 74.6966 128.967 79.3349C126.954 83.9785 112.315 83.7679 113.256 78.6663Z" fill="#FFA59B"/>
<path d="M148.892 43.9611C154.294 44.9351 157.578 50.0788 155.939 55.391C155.135 58.0076 158.729 59.2396 160.147 57.1705C162.113 54.3012 166.201 56.902 167.914 58.592C170.231 60.8822 172.753 64.4833 170.583 67.6738C168.912 70.1377 172.901 72.4437 174.556 70.0061C181.182 60.2609 163.558 44.0664 156.175 54.8435C157.578 55.4331 158.981 56.028 160.384 56.623C162.712 49.0785 157.93 40.9233 150.122 39.5229C148.897 39.3018 147.636 39.8546 147.289 41.1287C146.985 42.2448 147.662 43.7453 148.892 43.9664V43.9611Z" fill="#FFA59B"/>
<path d="M128.963 117.695L128.112 117.553C125.174 117.052 124.123 120.911 126.893 121.996C136.298 125.692 147.57 123.196 154.711 116.094C156.812 114.004 153.56 110.745 151.453 112.835C145.378 118.879 136.041 120.664 128.112 117.547C127.707 119.027 127.297 120.511 126.893 121.991L127.739 122.138C128.968 122.344 130.219 121.812 130.571 120.527C130.876 119.422 130.198 117.9 128.968 117.689L128.963 117.695Z" fill="#FFA59B"/>
<path d="M62.4862 31.3103C62.502 31.2577 62.5755 30.8944 62.6386 30.8734C62.502 31.1787 62.4862 31.2208 62.5861 30.9892L62.6544 30.847C62.8015 30.5575 62.9591 30.2732 63.143 30.0099C63.2324 29.8678 63.327 29.7309 63.4268 29.5993C63.7526 29.136 63.1063 29.9573 63.4899 29.5256C63.7211 29.2623 63.9523 28.9938 64.1992 28.7411C64.4515 28.4884 64.7299 28.2304 65.0032 27.9882C65.1398 27.8619 65.2869 27.7461 65.4341 27.625C65.4761 27.5881 65.8912 27.267 65.6443 27.4512C65.4131 27.6302 65.8965 27.2722 65.949 27.2301C66.1067 27.1196 66.2643 27.009 66.4272 26.8984C66.753 26.6826 67.0788 26.472 67.4151 26.2667C68.0561 25.8771 68.713 25.5138 69.3856 25.1768C69.7324 25.0031 70.0844 24.8399 70.4417 24.682C70.5048 24.6504 71.0986 24.4082 70.5889 24.6135C70.7623 24.5451 70.9357 24.4714 71.1143 24.4029C72.3755 23.9133 73.6681 23.5132 74.9975 23.271C76.1851 23.0551 76.9628 21.5441 76.6054 20.4333C76.1903 19.1592 75.0448 18.5958 73.7732 18.8275C70.5994 19.3961 67.4676 20.7755 64.7562 22.4918C61.8872 24.3029 59.1075 26.751 58.046 30.0889C57.6835 31.2366 58.4769 32.6529 59.654 32.9266C60.9098 33.2109 62.0921 32.5423 62.481 31.3156L62.4862 31.3103Z" fill="#FFA59B"/>
<path d="M74.1027 75.4506C81.2806 80.8681 91.5954 81.6525 99.4353 77.1827C100.507 76.5667 101.127 75.3453 100.586 74.1397C100.113 73.092 98.6314 72.3707 97.5489 72.9867C91.0752 76.6826 82.7991 76.2614 76.8299 71.7442C74.46 69.9594 71.7486 73.6658 74.1027 75.4506Z" fill="black"/>
<path d="M66.6485 50.9431C65.3611 50.2692 63.6954 51.0221 62.8809 52.2225C62.0612 53.4228 61.8878 54.9444 61.7827 56.3922C61.6986 57.5926 61.6513 58.8456 62.1452 59.9459C62.6392 61.041 63.8372 61.915 65.009 61.6359C66.6485 61.2411 67.0636 59.1351 67.1529 57.4504C67.2002 56.6028 67.2422 55.7551 67.2895 54.9075C67.3421 53.8967 67.3894 52.8384 66.9532 51.9224C66.5171 51.0116 65.4189 50.3324 64.4783 50.7062" fill="black"/>
<path d="M67.8098 48.952C66.2492 48.2096 64.7043 48.2675 63.1542 49.0099C61.8615 49.6311 60.8947 50.821 60.3534 52.1214C59.7754 53.4849 59.5968 54.9222 59.4917 56.3911C59.3761 57.9495 59.4602 59.4763 60.0907 60.9294C61.3571 63.8303 65.2508 65.0622 67.6206 62.6931C69.4808 60.8399 69.4177 57.9705 69.5491 55.5382C69.6384 53.8377 69.7382 52.0003 68.7819 50.4945C67.773 48.8993 65.75 47.8411 63.8741 48.4886C62.7391 48.8782 61.872 50.0786 62.2714 51.3158C62.634 52.4372 63.8741 53.3428 65.0931 52.9216C65.2928 52.8532 65.3611 52.9111 64.9145 52.9005C65.0196 52.9005 65.1877 52.9427 64.8987 52.8742C64.5361 52.7847 64.8619 52.89 64.9513 52.9005C65.1825 52.9427 64.7568 52.8479 64.7463 52.8163C64.7568 52.8426 65.0038 52.9321 65.0091 52.9795L64.8935 52.8953C64.7463 52.7795 64.7463 52.7847 64.8935 52.9216C64.9355 53.0111 64.988 53.1585 64.9092 52.9269C64.7884 52.5689 64.9723 53.0532 64.9723 53.0901C64.9723 53.0585 64.8357 52.5952 64.9408 53.0638C64.9565 53.1533 64.9775 53.2533 65.0091 53.3375C65.1142 53.6534 64.9933 52.9532 65.0091 53.2849C65.0091 53.3796 65.0248 53.4744 65.0248 53.5744C65.0511 54.0904 65.0143 54.6116 64.988 55.1276C64.9355 56.0858 64.9145 57.0545 64.8199 58.0179C64.8094 58.0864 64.7989 58.1601 64.7989 58.2285C64.7779 58.5339 64.8882 57.7494 64.8199 58.0495C64.7831 58.2127 64.7568 58.3812 64.7201 58.5444C64.6833 58.7129 64.6412 58.8708 64.5887 59.0288C64.5677 59.0972 64.5467 59.1604 64.5204 59.2288C64.3943 59.6553 64.7043 58.9287 64.5677 59.1235C64.5309 59.1709 64.3365 59.4605 64.3365 59.5237C64.326 59.3131 64.6675 59.1657 64.4626 59.3657C64.431 59.392 64.2839 59.5237 64.2839 59.5395C64.2839 59.5553 64.6938 59.2394 64.4994 59.371C64.41 59.4342 64.1631 59.5237 64.4941 59.4078C64.8882 59.271 64.5677 59.3868 64.5256 59.3868C64.058 59.3762 64.9302 59.4289 64.6255 59.392C64.5361 59.3815 64.1893 59.3815 64.5519 59.4078C64.8987 59.4289 64.6255 59.3868 64.5572 59.3868C64.2682 59.371 64.5782 59.1709 64.678 59.4447C64.6728 59.4184 64.5046 59.3394 64.4783 59.3289C64.2104 59.2078 64.7726 59.6184 64.5624 59.4026C64.5099 59.3447 64.4468 59.2867 64.389 59.2394C64.058 58.9445 64.4311 59.3341 64.4416 59.3394C64.3522 59.292 64.2682 59.0814 64.2314 59.0024C64.2051 58.9551 64.121 58.8445 64.121 58.7919C64.1526 58.8603 64.1841 58.9235 64.2156 58.9919L64.1631 58.8129C64.1368 58.6918 64.0948 58.5602 64.0685 58.4444C64.058 58.4023 64.0054 58.0811 64.0527 58.3759C64.1053 58.6918 64.0527 58.2917 64.0422 58.2127C64.037 58.118 64.0317 58.0232 64.0317 57.9232C64.0212 57.6705 64.0264 57.4125 64.037 57.1598C64.058 56.6912 64.0895 56.2279 64.1368 55.7593C64.142 55.6698 64.1526 55.5751 64.1631 55.4856C64.2051 55.0433 64.1473 55.475 64.1473 55.5487C64.1578 55.3118 64.2314 55.0591 64.2839 54.8275C64.3417 54.5642 64.4153 54.301 64.5046 54.043C64.5256 53.9746 64.5519 53.8482 64.5992 53.7903C64.3207 54.1483 64.5572 53.9114 64.6307 53.7745C64.678 53.6955 64.7253 53.6166 64.7673 53.5376C65.0248 53.0638 64.5572 53.7324 64.7358 53.5534C64.8094 53.4849 64.8724 53.406 64.9408 53.3323C65.1194 53.1585 65.2455 53.2059 64.8882 53.3428C65.0616 53.2796 65.2455 53.1164 65.4084 53.0216C65.6554 52.8742 65.4872 53.1217 65.2718 53.0796C65.3348 53.0901 65.4977 53.0164 65.5608 52.9953C65.9602 52.8742 65.4189 53.0532 65.3821 53.0058C65.3979 53.0322 65.7184 53.0058 65.7447 53.0058C65.9707 52.9795 65.524 53.0006 65.4925 52.9743C65.5661 52.99 65.6344 53.0058 65.7027 53.0322C65.8708 53.0901 65.7973 53.0585 65.4977 52.9427C66.5749 53.4586 68.0252 53.2743 68.6348 52.1161C69.176 51.0895 68.9711 49.5258 67.8098 48.9677V48.952Z" fill="black"/>
<path d="M113.14 61.0351C111.847 60.3612 110.181 61.1141 109.367 62.3144C108.547 63.5148 108.379 65.0363 108.274 66.4842C108.184 67.6845 108.137 68.9376 108.631 70.0379C109.125 71.133 110.323 72.0069 111.495 71.7279C113.134 71.333 113.549 69.2271 113.639 67.5424C113.686 66.6948 113.733 65.8471 113.775 64.9995C113.828 63.9886 113.875 62.9304 113.439 62.0196C113.003 61.1035 111.91 60.4244 110.969 60.7982" fill="black"/>
<path d="M114.297 59.0502C112.737 58.3079 111.192 58.3658 109.642 59.1081C108.349 59.7241 107.387 60.9192 106.841 62.2196C106.294 63.52 106.084 65.0205 105.979 66.4893C105.869 68.0477 105.948 69.5745 106.583 71.0276C107.845 73.9285 111.738 75.1605 114.108 72.7913C115.968 70.9381 115.905 68.0688 116.037 65.6364C116.126 63.9359 116.226 62.0985 115.269 60.5928C114.26 58.9975 112.237 57.9393 110.362 58.5869C109.227 58.9765 108.36 60.1769 108.759 61.4141C109.121 62.5355 110.362 63.441 111.581 63.0198C111.78 62.9514 111.849 63.0093 111.402 62.9988C111.507 62.9988 111.675 63.0409 111.386 62.9725C111.024 62.8777 111.349 62.983 111.439 62.9988C111.67 63.0356 111.25 62.9461 111.234 62.9145C111.244 62.9409 111.491 63.0304 111.497 63.0778L111.381 62.9935C111.234 62.8777 111.234 62.883 111.381 63.0198C111.423 63.1093 111.476 63.2568 111.397 63.0251C111.276 62.6671 111.46 63.1515 111.46 63.1831C111.46 63.1567 111.323 62.6934 111.428 63.162C111.449 63.2515 111.465 63.3515 111.497 63.4358C111.607 63.7517 111.486 63.0514 111.497 63.3831C111.497 63.4779 111.512 63.5726 111.512 63.6727C111.539 64.1886 111.502 64.7046 111.476 65.2258C111.423 66.184 111.407 67.1527 111.307 68.1109C111.302 68.1846 111.286 68.2583 111.286 68.3268C111.265 68.6321 111.381 67.8477 111.307 68.1478C111.271 68.311 111.25 68.4794 111.208 68.6426C111.171 68.8111 111.129 68.9691 111.076 69.127C111.055 69.1955 111.034 69.2586 111.008 69.3271C110.882 69.7535 111.197 69.027 111.055 69.2218C111.024 69.2692 110.824 69.5535 110.824 69.6219C110.813 69.4113 111.155 69.2639 110.95 69.464C110.919 69.4903 110.771 69.6219 110.771 69.6377C110.771 69.6482 111.181 69.3376 110.987 69.4692C110.898 69.5324 110.656 69.6219 110.982 69.5008C111.381 69.3692 111.055 69.485 111.013 69.485C110.545 69.4745 111.418 69.5271 111.113 69.4903C111.024 69.4745 110.677 69.4797 111.039 69.5008C111.386 69.5271 111.118 69.485 111.05 69.485C110.756 69.4692 111.066 69.2639 111.171 69.5429C111.16 69.5166 110.992 69.4376 110.966 69.4218C110.698 69.306 111.26 69.7167 111.05 69.5008C110.997 69.4429 110.934 69.385 110.877 69.3376C110.545 69.0428 110.919 69.4324 110.929 69.4376C110.84 69.3902 110.761 69.1797 110.719 69.1007C110.693 69.0533 110.614 68.9427 110.614 68.8901L110.708 69.0902L110.651 68.9059C110.63 68.7901 110.588 68.6584 110.561 68.5426C110.545 68.4952 110.493 68.1793 110.54 68.4742C110.593 68.7848 110.54 68.3899 110.535 68.311C110.524 68.2162 110.519 68.1214 110.519 68.0214C110.509 67.7687 110.514 67.5107 110.524 67.258C110.545 66.7894 110.577 66.3209 110.624 65.8576C110.63 65.7681 110.64 65.6733 110.651 65.5785C110.693 65.1416 110.64 65.5733 110.64 65.647C110.645 65.4101 110.719 65.1574 110.771 64.9257C110.829 64.6625 110.903 64.3992 110.992 64.1412C111.013 64.0728 111.039 63.9464 111.087 63.8885C110.808 64.2465 111.045 64.0096 111.118 63.8727C111.166 63.7938 111.213 63.7148 111.255 63.6358C111.512 63.162 111.05 63.8306 111.223 63.6516C111.297 63.5779 111.36 63.4989 111.433 63.4305C111.607 63.2568 111.738 63.3041 111.376 63.441C111.549 63.3779 111.738 63.2146 111.896 63.1199C112.148 62.9725 111.975 63.2199 111.765 63.1778C111.822 63.1883 111.99 63.1146 112.048 63.0936C112.453 62.9725 111.906 63.1515 111.87 63.1041C111.885 63.1304 112.206 63.1041 112.232 63.1041C112.458 63.0778 112.012 63.0988 111.98 63.0725C112.054 63.0883 112.122 63.1041 112.19 63.1304C112.358 63.1831 112.285 63.1567 111.985 63.0356C113.062 63.5516 114.513 63.3726 115.122 62.2143C115.663 61.1877 115.459 59.6188 114.303 59.066L114.297 59.0502Z" fill="black"/>
<path d="M87.4136 42.5925C88.2491 34.9006 94.15 28.2617 101.538 26.2347C103.057 25.8241 103.551 24.1657 102.915 22.8495C100.214 17.2898 106.357 12.1725 110.045 9.06624C112.321 7.14985 109.047 3.90147 106.793 5.80207C101.139 10.5614 95.1326 17.3425 98.937 25.1765C99.3994 24.0446 99.8566 22.9179 100.314 21.786C90.8028 24.3921 83.872 32.8315 82.8158 42.5872C82.4952 45.5355 87.1036 45.5092 87.4188 42.5872L87.4136 42.5925Z" fill="#FFA59B"/>
<path d="M144.552 19.2746C141.368 18.4902 138.026 18.4954 134.863 19.3957C133.313 19.8432 131.783 20.496 130.401 21.3331C130.086 21.5279 129.587 21.7596 129.351 22.0281L128.951 22.3282C129.266 22.4914 129.582 22.6546 129.897 22.8178C129.976 22.6809 128.179 21.2647 127.979 21.1068C123.381 17.474 116.934 15.2418 111.259 17.553C110.098 18.0216 109.304 19.0798 109.651 20.3907C109.94 21.4858 111.332 22.4703 112.483 21.9965C117.743 19.859 122.772 22.5967 126.75 26.1715C129.492 28.6459 132.088 25.3607 134.663 24.3183C137.427 23.2021 140.454 23.0021 143.338 23.7128C146.228 24.4183 147.442 19.9696 144.563 19.2641L144.552 19.2746Z" fill="#FFA59B"/>
<path d="M123.771 126.861C132.036 129.662 140.002 125.087 146.739 120.723C149.214 119.117 146.907 115.121 144.411 116.737C138.741 120.417 132.01 124.792 124.99 122.413C122.179 121.46 120.97 125.914 123.771 126.856V126.861Z" fill="#FFA59B"/>
<path d="M183.007 50.8851C184.037 49.1951 184.946 46.7154 185.004 44.8201C185.061 42.8247 184.82 40.861 184.588 38.8761C184.189 35.454 182.355 32.3267 180.075 29.5364C180.017 29.4627 179.938 29.3943 179.875 29.3205C179.134 28.4519 178.12 27.6937 177.51 27.3041C174.358 25.2719 171.347 24.4769 167.395 25.3877C163.77 26.2248 163.102 28.8362 164.489 32.2899C165.152 33.9325 166.465 35.1223 167.684 36.4017C168.888 37.6547 169.917 39.0341 170.8 40.503C171.652 41.9087 172.35 43.3775 172.876 44.9254C173.459 46.6365 173.69 48.4791 174.599 50.0849C176.607 53.6544 180.821 54.4652 183.007 50.8851Z" fill="white"/>
<path d="M189.796 64.1519C190.6 66.0051 191.146 68.1794 190 69.9695C189.417 70.8803 188.508 71.6489 187.436 71.8911C186.291 72.1544 185.224 71.9543 184.184 71.4541C182.502 70.6539 181.498 68.827 181.178 67.058C181.02 66.1788 180.884 65.2364 180.878 64.3361C180.878 62.9831 181.498 61.7775 182.633 61.0404C183.59 60.4191 184.741 60.3191 185.839 60.5139C186.748 60.6718 187.688 61.0246 188.351 61.6458C188.881 62.1407 189.202 62.7936 189.796 64.1519Z" fill="white"/>
<path d="M49.6431 49.5262C50.116 47.3624 50.7938 46.4042 52.449 45.0195C54.1305 43.6138 57.3989 42.2924 56.4583 39.5073C55.5335 36.7749 51.7449 37.8383 49.9688 38.9597C47.9038 40.2601 45.8387 42.2555 45.0873 44.572C44.4094 46.6621 44.4725 47.0781 44.6827 48.5785C44.7878 49.2893 45.1714 50.6055 46.1487 51.3794C46.1487 51.3794 47.1156 52.2797 48.2401 51.9164C49.3593 51.5531 49.4697 50.2948 49.6378 49.5262H49.6431Z" fill="white"/>
<path d="M120.329 48.9413C119.252 49.3256 118.879 50.326 118.811 51.4158C118.695 53.09 120.109 54.3746 121.217 55.4118C122.421 56.5332 123.719 57.5651 125.069 58.5022C125.658 58.9023 126.262 59.3393 126.903 59.6552C128.106 60.2501 129.341 59.6236 129.793 58.4127C130.066 57.6809 129.945 56.9017 129.793 56.1594C129.641 55.4433 129.383 54.7589 129.084 54.0956C128.532 52.8636 127.686 51.7159 126.682 50.8156C125.642 49.8785 124.171 49.0677 122.741 48.7834C121.538 48.5412 120.897 48.736 120.329 48.9413ZM121.88 51.5105C121.88 51.5105 121.88 51.5158 121.88 51.5211C121.88 51.5105 121.88 51.5105 121.874 51.5053C121.874 51.5 121.874 51.5053 121.874 51.5C121.874 51.5 121.874 51.5 121.88 51.5053V51.5105ZM126.892 57.444C126.892 57.444 126.892 57.4598 126.887 57.465C126.85 57.5387 126.866 57.4966 126.892 57.444Z" fill="white"/>
<path d="M67.32 12.304C67.32 12.304 66.742 10.9878 68.7177 8.86608C70.6934 6.7391 76.5839 3.50652 80.7876 2.81683C84.9913 2.12714 87.44 2.343 87.0249 5.38079C86.6045 8.42384 79.1061 9.1925 76.6207 9.96642C74.1352 10.7351 68.4497 14.3941 67.32 12.304Z" fill="white"/>
<path d="M37.59 104.079C37.59 104.079 31.978 97.0719 39.1979 92.2862C46.4178 87.5111 52.6971 95.3609 54.3628 97.2509C56.0338 99.141 60.5423 99.5885 67.3207 99.0357C74.1045 98.4829 78.0087 107.607 82.1704 109.244C86.332 110.876 89.0277 111.266 94.9286 107.528C100.824 103.79 107.566 108.649 112.017 111.103C116.473 113.556 127.182 114.519 132.237 109.939C137.292 105.359 135.526 105.09 138.374 103.669C141.227 102.252 146.24 104.995 153.082 103.19C159.923 101.379 166.502 93.9867 168.977 89.0958C173.722 79.7349 183.233 81.1775 187.605 85.0735C191.115 88.2007 193.222 94.2605 191.856 103.069C190.49 111.871 181.063 123.943 171.116 124.186C161.163 124.428 162.535 123.606 162.535 123.606C162.535 123.606 158.673 130.335 150.271 130.151C141.868 129.961 139.94 124.828 137.654 125.407C135.368 125.981 129.683 135.289 117.298 136.842C104.912 138.401 98.1707 127.618 98.1707 127.618C98.1707 127.618 88.7807 131.167 79.8793 129.477C70.9727 127.787 63.9263 113.819 64.4412 112.061C64.4412 112.061 59.4178 112.108 56.2913 108.612C56.2913 108.612 43.9271 113.051 37.59 104.079Z" fill="#FFBDC5"/>
<path d="M77.9655 86.2639C75.0176 90.3546 74.5973 95.8932 76.3418 100.568C77.1878 102.822 78.4279 104.838 79.9518 106.697C80.7137 107.623 81.5492 108.492 82.4425 109.287C82.8891 109.687 83.3568 110.066 83.8244 110.445C84.0977 110.65 84.3709 110.866 84.6389 111.087C84.6704 109.682 84.518 109.303 84.187 109.961C83.5039 110.582 83.0572 112.304 82.8313 113.162C82.5213 114.373 82.3794 115.684 82.4214 116.937C82.5108 119.306 83.1623 121.649 84.2868 123.733C86.6146 128.066 90.8499 131.057 95.2217 133.052C97.9016 134.274 100.24 130.299 97.5495 129.072C93.8713 127.398 90.2088 125.081 88.2593 121.406C87.2767 119.543 86.7985 117.326 87.0876 115.231C87.3503 113.346 89.0738 111.761 88.9004 109.876C88.7165 107.881 86.5726 106.86 85.2537 105.623C83.7193 104.18 82.3952 102.558 81.4125 100.689C79.3685 96.8198 79.3422 92.192 81.938 88.5909C83.6773 86.1796 79.6838 83.8789 77.9655 86.2639Z" fill="#FFA59B"/>
<path d="M28.8825 77.8199C27.4165 82.2634 27.8736 86.7648 30.0753 90.8871C32.2034 94.8726 35.7556 97.8893 39.9593 99.474C41.1206 99.911 42.4815 98.9897 42.7915 97.8683C43.1436 96.5731 42.3502 95.4675 41.1836 95.0305C38.178 93.8933 35.6137 91.4873 34.0531 88.5654C32.4925 85.6381 32.2087 82.4213 33.3279 79.0466C33.7168 77.862 32.876 76.53 31.72 76.2089C30.4694 75.8614 29.2819 76.6353 28.8878 77.8199H28.8825Z" fill="#FFA59B"/>
<path d="M67.0991 72.8071C59.1751 76.7873 49.2596 73.3336 44.6145 65.9944C39.7855 58.3657 40.0324 46.7305 46.3433 39.9284C51.9815 33.8476 63.0057 31.7417 70.0312 36.5695C73.0211 38.6228 75.5958 41.3499 77.2248 44.6141C79.3529 48.8838 79.2478 53.7064 78.281 58.271C77.4717 62.1301 76.011 65.926 73.184 68.7532C71.4237 70.5116 69.2798 71.6751 67.0991 72.8123C64.4665 74.1812 66.7943 78.1614 69.4216 76.7925C71.9491 75.4763 74.403 74.0548 76.4418 72.0174C79.458 68.9901 81.3444 65.0204 82.3953 60.9086C83.7826 55.4543 84.1662 49.5577 82.059 44.2403C80.325 39.86 77.2826 36.2905 73.5623 33.4685C69.2062 30.1675 63.9516 29.0724 58.555 29.5568C53.2846 30.0253 48.918 31.8206 44.7774 35.1322C35.9443 42.1976 34.7305 56.3862 39.3914 66.0734C44.6986 77.0979 58.3659 82.3521 69.4216 76.7978C72.07 75.4658 69.7422 71.4856 67.0991 72.8123V72.8071Z" fill="#5E4D5C"/>
<path d="M123.987 85C116.063 88.9802 106.147 85.5212 101.502 78.1873C96.6785 70.5586 96.9203 58.9235 103.236 52.1213C108.875 46.0405 119.894 43.9346 126.919 48.7571C129.914 50.8157 132.484 53.5376 134.113 56.807C136.241 61.0768 136.136 65.8993 135.174 70.4639C134.36 74.323 132.904 78.1136 130.077 80.9461C128.317 82.7045 126.173 83.8628 123.987 85C121.36 86.3741 123.682 90.3543 126.309 88.9854C128.842 87.664 131.296 86.2477 133.33 84.2103C136.351 81.183 138.237 77.2133 139.283 73.1015C140.676 67.6472 141.054 61.7506 138.952 56.4279C137.218 52.0529 134.176 48.4834 130.45 45.6614C126.099 42.3551 120.845 41.2653 115.448 41.7444C110.178 42.2183 105.806 44.0136 101.665 47.3251C92.8321 54.3905 91.6236 68.5738 96.2792 78.261C101.586 89.2908 115.254 94.5451 126.309 88.9907C128.958 87.6587 126.63 83.6785 123.987 85.0052V85Z" fill="#5E4D5C"/>
<path d="M35.0731 41.8026C35.0521 41.7447 35.0364 41.6815 35.0258 41.6236L35.1099 42.2396C35.0994 42.1448 35.0994 42.0606 35.1099 41.9711L35.0258 42.5818C35.0416 42.4923 35.0626 42.4133 35.0889 42.3291L34.8577 42.8766C34.905 42.7661 34.9628 42.6608 35.0311 42.5607C34.9155 42.7134 34.7946 42.8713 34.6738 43.0293C34.7736 42.8977 34.884 42.7924 35.0101 42.6923C34.8577 42.8134 34.7001 42.9345 34.5424 43.0556C34.679 42.9608 34.8209 42.8819 34.9733 42.8187L34.4268 43.0503C34.5477 43.0082 34.6738 42.9714 34.8052 42.9451L34.1904 43.0293C34.3638 43.0082 34.5214 43.0082 34.6896 43.0293L34.08 42.9451C34.2639 42.9819 34.4426 43.0293 34.6212 43.0977L34.0748 42.8608C34.3953 42.9977 34.6843 43.1767 34.9628 43.3926C34.8104 43.2715 34.6475 43.1504 34.4951 43.0293C35.2623 43.6295 35.9191 44.3613 36.6706 44.9825C37.2696 45.4827 37.8476 45.9881 38.4098 46.5251C39.2769 47.3622 40.8112 47.457 41.6677 46.5251C42.4979 45.6196 42.5978 44.156 41.6677 43.2609C41.1212 42.7345 40.5537 42.2396 39.9705 41.7605C39.2453 41.1656 38.6148 40.4653 37.8896 39.8757C36.5917 38.8175 34.9418 37.9961 33.2445 38.5805C31.4107 39.207 30.0497 41.0445 30.6277 43.0346C30.964 44.1875 32.2619 45.0299 33.46 44.6403C34.6317 44.2613 35.4305 43.0451 35.0626 41.8026H35.0731Z" fill="#5E4D5C"/>
<path d="M119.193 125.081C105.479 134.842 90.5923 142.771 76.8829 152.532C77.9286 152.806 78.9795 153.085 80.0305 153.364C78.412 149.773 75.7637 144.629 71.5757 143.64C69.6683 143.192 67.7083 144.034 66.752 145.745C65.6695 147.683 66.3158 149.905 67.1198 151.8C68.218 154.396 69.8049 158.081 72.8526 158.865C75.0701 159.434 76.8672 158.102 78.4278 156.717C78.9848 156.222 79.3001 155.18 79.0216 154.475C78.4173 152.932 77.7184 151.547 76.3154 150.594C75.1436 149.81 73.83 149.331 72.6845 148.478C70.693 147.004 68.5753 149.778 69.5369 151.632C70.4985 153.485 71.7491 154.769 73.3781 155.907C74.8546 156.944 76.8199 155.549 76.8409 153.922C76.8724 151.247 75.9476 148.941 74.2398 146.92C73.2047 145.688 70.6247 146.251 70.3934 147.936C69.889 151.605 70.7875 154.911 73.231 157.723C75.1752 159.966 78.4225 156.696 76.4836 154.464C75.2382 153.027 74.5709 151.073 74.8336 149.162C73.5515 149.499 72.2694 149.841 70.9872 150.178C71.912 151.268 72.2536 152.511 72.2378 153.922C73.3886 153.258 74.5446 152.595 75.7006 151.932C74.7128 151.242 74.0612 150.368 73.5094 149.31C72.4638 150.357 71.4128 151.41 70.3619 152.463C71.8069 153.532 73.893 153.927 74.5867 155.696L75.1752 153.458C74.7863 153.806 74.5551 153.995 74.3975 154.117C74.2241 154.243 74.0297 154.332 73.8457 154.438C74.1295 154.28 73.6934 154.332 74.0612 154.396C73.893 154.369 74.0244 154.511 73.8247 154.264C73.2888 153.601 72.8211 153.006 72.4007 152.248C71.7964 151.147 71.3708 150.01 70.8979 148.857C70.8191 148.62 70.7718 148.383 70.7665 148.13C70.4407 148.099 70.3882 148.104 70.6194 148.157C70.9662 148.073 71.6073 148.762 71.8385 148.978C73.7091 150.752 75.0018 153.369 76.0474 155.685C76.5309 156.754 78.2596 157.181 79.195 156.517C92.9096 146.751 107.796 138.822 121.511 129.061C123.901 127.356 121.605 123.354 119.183 125.081H119.193Z" fill="#FFA59B"/>
<path d="M29.3453 107.987C22.1202 109.456 14.9476 111.172 7.84333 113.141C8.81018 113.883 9.78229 114.626 10.7544 115.368C10.7912 114.505 10.9436 114.468 11.3377 113.699C11.8631 112.667 11.8263 111.567 11.4217 110.493C11.2536 110.051 11.0382 109.63 10.849 109.198C10.8595 109.229 11.096 109.819 10.9436 109.414C10.8069 109.077 10.6913 108.729 10.5547 108.392C10.1291 107.324 9.67195 106.25 9.0519 105.276C7.60687 102.996 5.00582 100.558 2.21561 102.327C-0.984466 104.359 -0.206779 108.124 1.3591 110.925C2.74107 113.394 4.49612 115.868 7.2443 116.89C8.65254 117.411 10.2605 117.237 11.2063 115.963C12.1469 114.684 11.984 113.131 11.4901 111.741C10.9961 110.351 10.334 108.861 9.57736 107.518C8.81544 106.171 7.87486 104.328 6.46136 103.57C4.93751 102.754 3.04059 103.491 2.4363 105.102C1.91084 106.529 2.30494 108.324 2.5414 109.793C2.95651 112.399 4.39629 116.447 7.14446 117.385C9.01512 118.016 10.9541 116.774 11.1012 114.778C11.1905 113.552 11.18 111.899 10.7544 110.74C10.3235 109.577 9.19377 108.782 7.92215 109.129C6.80291 109.44 5.87809 110.793 6.31423 111.967C6.56645 112.646 6.58747 113.936 6.49814 114.784L6.81342 113.62L6.63476 113.936L7.465 113.104L7.19701 113.262C7.58585 113.157 7.9747 113.052 8.36354 112.946C8.90477 112.92 8.87849 113.22 8.44236 112.546C8.29523 112.315 8.15335 112.078 8.01673 111.835C7.72247 111.298 7.49652 110.767 7.32838 110.177C7.16548 109.619 7.05513 109.056 6.97106 108.482C6.92902 108.176 6.90275 107.871 6.87122 107.566C6.85546 107.355 6.96055 106.307 6.67155 106.876L5.84657 107.703L6.09353 107.534C5.70469 107.639 5.3211 107.745 4.93226 107.85L5.30008 107.871L4.13881 107.55C4.54342 107.824 4.85869 108.608 5.11617 109.024C5.49451 109.63 5.83606 110.256 6.15659 110.893C6.42458 111.425 6.67155 111.962 6.88173 112.52C7.00259 112.825 7.06039 113.331 7.24956 113.568C7.62263 114.036 5.75724 113.841 7.80129 112.878L8.96257 112.562C7.29685 112.646 5.70995 109.335 5.09515 108.171C4.81666 107.655 4.62749 107.176 4.50663 106.608C4.49087 106.539 4.60647 106.292 4.60122 106.276C4.84818 106.102 4.72733 106.065 4.23865 106.176C3.7342 106.086 3.62385 106.118 3.9076 106.265C3.96015 106.465 4.50138 106.808 4.638 106.981C4.94277 107.35 5.18974 107.776 5.4262 108.197C6.08828 109.393 6.35627 110.809 7.07615 111.972C7.55958 112.757 6.92377 111.367 7.29159 111.499C7.26532 111.488 6.95004 112.03 6.92377 112.078C6.36678 113.104 6.19337 114.21 6.15134 115.363C6.08828 116.869 7.66993 117.974 9.06241 117.585C16.1719 115.616 23.3393 113.894 30.5644 112.425C33.465 111.841 32.2406 107.392 29.3453 107.982V107.987Z" fill="#FFA59B"/>
<path d="M140.148 68.0736C144.583 66.7784 149.102 65.7728 153.679 65.1463C155.938 64.841 158.214 64.6251 160.489 64.4882C161.556 64.4251 162.617 64.3724 163.689 64.3514C164.046 64.3461 164.414 64.325 164.772 64.3514C165.586 64.4198 165.061 64.404 165.061 64.4198C164.94 65.6623 166.201 66.7258 167.362 66.7258C168.707 66.7258 169.543 65.6623 169.664 64.4198C169.942 61.5768 167.246 59.9184 164.751 59.7499C161.955 59.5604 159.018 59.9342 156.243 60.229C150.374 60.8503 144.583 61.9769 138.924 63.6301C136.081 64.4567 137.29 68.9107 140.143 68.0736H140.148Z" fill="#5E4D5C"/>
<path d="M80.2999 62.3612C85.0921 64.9251 90.3941 65.8254 95.7643 65.0725C96.9571 64.9041 97.719 63.3141 97.367 62.2348C96.9414 60.9186 95.8169 60.4448 94.5347 60.6238C94.9183 60.5711 94.046 60.6764 93.9672 60.6817C93.7308 60.7027 93.4891 60.7185 93.2526 60.7343C92.6956 60.7659 92.1386 60.7765 91.5869 60.7659C90.331 60.7396 89.6637 60.6712 88.639 60.4816C87.5408 60.2763 86.4583 59.9867 85.3969 59.6182C84.3355 59.2497 83.7417 58.9812 82.6225 58.381C81.5663 57.8124 80.0687 58.0809 79.4749 59.2075C78.9127 60.2816 79.1702 61.7557 80.3052 62.3612H80.2999Z" fill="#5E4D5C"/>
<path d="M26.9231 82.1783C26.3346 81.1832 13.4082 58.9026 10.1293 58.1708C6.85037 57.439 2.85159 58.7289 5.40009 64.5675C7.95385 70.4009 17.1705 87.8379 18.915 92.8079C19.1935 93.6029 30.9849 118.416 37.7056 128.909C39.7024 132.036 41.6046 130.883 42.8972 130.762C45.8188 130.488 82.2177 119.09 85.8592 117.263C89.4954 115.441 89.8632 114.709 90.2258 111.061C90.5936 107.418 80.0318 69.1111 77.1207 65.4626C74.2044 61.8193 72.3863 61.4508 68.7448 63.6409C65.1033 65.8311 29.5872 86.7008 26.9178 82.173L26.9231 82.1783Z" fill="#B6C9E0"/>
<path d="M50.4156 117.421C50.4156 117.421 49.2439 116.168 48.2087 112.009C47.7621 110.219 49.5118 109.287 50.216 108.587C51.2301 107.581 74.03 100.332 74.03 100.332C74.03 100.332 77.372 98.9943 78.7119 102.122C80.0518 105.249 80.8505 107.392 80.8505 107.392C80.8505 107.392 82.9103 111.024 77.4087 113.315C72.9003 115.194 63.3578 117.879 57.7249 119.706C55.4496 120.443 52.5438 122.338 50.4156 117.421Z" fill="white"/>
<path d="M49.2184 95.551C53.9002 93.6926 58.5821 91.8288 63.264 89.9651C63.9419 89.6966 64.6197 89.4281 65.2976 89.1596C66.4483 88.7015 67.2575 87.617 66.9002 86.3219C66.6007 85.2215 65.2345 84.2475 64.068 84.7108C59.3913 86.5746 54.7042 88.433 50.0223 90.302C49.3445 90.5653 48.6666 90.8391 47.9888 91.1076C46.838 91.5656 46.0288 92.6449 46.3861 93.9453C46.6856 95.0456 48.0571 96.0143 49.2184 95.551Z" fill="white"/>
<path d="M52.816 102.527C55.1963 101.616 57.5767 100.7 59.957 99.7892C60.2986 99.6575 60.6349 99.5259 60.9712 99.3996C61.5492 99.1784 62.0273 98.8889 62.3479 98.3413C62.6421 97.8465 62.7577 97.1147 62.5843 96.5618C62.2323 95.4668 60.9554 94.4875 59.7521 94.9508C57.3717 95.8669 54.9914 96.783 52.6058 97.6938C52.2695 97.8201 51.9279 97.9518 51.5916 98.0781C51.0189 98.3045 50.5407 98.5888 50.2149 99.1363C49.9259 99.6312 49.805 100.363 49.9837 100.916C50.3358 102.016 51.6126 102.99 52.816 102.527Z" fill="white"/>
<path d="M26.5693 89.612C27.9198 93.6659 28.8761 97.8409 29.9428 101.974C31.3931 107.576 33.0746 113.114 35.0818 118.547C36.1012 121.301 40.5467 120.111 39.5168 117.321C37.5147 111.887 35.828 106.359 34.383 100.747C33.311 96.6142 32.3599 92.4445 31.0095 88.3906C30.0742 85.5897 25.6287 86.7901 26.5693 89.612Z" fill="white"/>
<path d="M143.23 88.9648C139.835 96.9251 131.013 100.3 123.294 102.606C115.091 105.054 105.817 104.707 97.4197 103.443C95.4229 103.143 93.4419 102.748 91.5082 102.153C88.8231 101.327 85.8175 100.51 83.3373 102.322C82.0551 103.259 81.866 104.712 82.8749 105.944C84.2095 107.592 86.3114 107.908 88.3082 107.697C89.9056 107.523 92.3069 106.597 93.773 107.507C93.9569 106.102 94.1408 104.696 94.3247 103.29C92.0915 104.222 89.6954 105.096 87.2572 105.18C86.0855 105.222 84.9347 104.97 83.7734 104.98C82.7645 104.991 82.0131 105.165 81.0515 105.07C80.2318 104.991 79.4856 105.575 79.0653 106.212C78.0511 107.744 79.1231 109.903 80.5576 110.719C82.1392 111.609 84.2568 111.282 85.9804 111.098C89.7952 110.682 93.6154 109.74 96.5632 107.144C97.9609 105.917 96.9258 102.948 94.9343 103.206C90.8462 103.743 87.005 105.149 83.0062 106.075C80.1109 106.744 81.3405 111.145 84.2253 110.519C85.9646 110.145 87.7144 110.777 89.4484 110.445C91.813 109.998 91.461 106.639 89.4484 106.002C86.1748 104.954 83.0483 104.443 80.2318 106.797C78.7342 108.05 79.9323 110.877 81.8607 110.729C86.8158 110.361 91.7184 110.108 96.0955 107.507C98.644 105.996 96.332 102.006 93.773 103.522C90.121 105.696 85.9856 105.812 81.8607 106.123L83.4897 110.056C84.7245 109.024 86.9052 110.029 88.2293 110.45V106.002C88.2504 106.002 86.674 105.812 86.2431 105.791C85.1449 105.738 84.0782 105.844 83.0062 106.081L84.2306 110.524C87.8037 109.698 91.2875 108.302 94.9395 107.823C94.3983 106.512 93.8518 105.196 93.3106 103.885C91.8656 105.159 89.9424 105.738 88.0927 106.133C87.2205 106.323 86.3377 106.46 85.4496 106.544C84.9399 106.591 84.4302 106.623 83.9153 106.649L83.3846 106.67C82.754 106.57 82.691 106.649 83.1901 106.897C83.1113 107.486 83.0325 108.081 82.9537 108.676L83.043 108.545C82.3809 108.924 81.7188 109.303 81.0568 109.682C81.7872 109.755 82.8223 109.634 83.7734 109.598C85.1554 109.545 86.4953 109.871 87.8878 109.761C90.5572 109.54 93.0899 108.771 95.5543 107.744C97.3251 107.002 97.9189 104.659 96.1008 103.527C94.3247 102.427 92.3385 102.48 90.347 102.769C89.1752 102.932 86.9998 103.759 86.1327 102.685L85.6651 106.307C87.3886 105.049 90.0475 106.586 91.8918 107.055C93.9044 107.56 95.9589 107.876 98.0135 108.15C102.722 108.76 107.493 108.997 112.243 108.86C121.418 108.597 131.018 106.012 138.737 100.911C142.373 98.5046 145.484 95.3457 147.207 91.2971C148.358 88.5962 144.396 86.2429 143.235 88.9648H143.23Z" fill="#FFA59B"/>
<path d="M17.8961 81.5571C17.4967 80.0672 16.7138 78.6825 15.6471 77.5664C15.0481 76.9452 14.2231 76.3713 13.3876 76.5924L15.6471 77.5664C15.1689 77.2716 13.7974 75.2394 12.3524 75.7606C11.827 75.9554 11.5117 76.5503 11.4749 77.1136C11.4434 77.6717 11.6903 78.1982 11.9321 78.6983C12.7623 80.4041 13.3823 81.5203 15.2109 83.4788C15.6471 83.9421 15.9519 83.8789 16.5404 84.1105C16.7558 84.1948 17.481 84.1685 17.6806 84.0579C17.8172 83.9789 17.8961 83.8262 17.9486 83.6788C18.1851 82.9997 18.08 82.2468 17.8961 81.5571Z" fill="#FFA59B"/>
<path d="M20.1172 80.9415C19.6653 79.3199 18.8718 77.8774 17.8262 76.5664C17.3217 75.9399 16.7385 75.3871 16.0659 74.9449C15.0727 74.2973 13.9272 74.1183 12.7765 74.3657C11.8937 74.55 11.2421 75.4345 11.1265 76.2821C11.0162 77.1298 11.3997 78.2196 12.2247 78.5776C12.9761 78.904 13.7276 79.2304 14.4842 79.5568C15.078 79.8095 15.6087 79.9675 16.2603 79.7885C16.7963 79.6411 17.3743 79.2252 17.637 78.7303C18.2518 77.572 17.884 76.2874 16.812 75.5767C16.6281 75.4503 17.3795 76.0768 17.0643 75.7557C16.9854 75.6819 16.9066 75.6082 16.833 75.5293C16.6281 75.3187 16.4284 75.1133 16.2183 74.9238C15.5352 74.3078 14.7312 73.7076 13.8169 73.4918C12.5558 73.197 11.1896 73.4813 10.2753 74.4395C9.27162 75.4819 8.96159 77.0139 9.33993 78.3933C9.58164 79.2725 10.0651 80.136 10.4907 80.9415C10.7955 81.5048 11.1265 82.0471 11.4943 82.5683C12.0408 83.3317 12.6346 84.0635 13.2651 84.7585C13.6225 85.1533 14.006 85.5482 14.4842 85.8009C14.9204 86.0325 15.4038 86.1642 15.8714 86.3116C17.08 86.6959 18.5881 86.4379 19.4761 85.5219C20.6216 84.3478 20.4955 82.3998 20.1172 80.9415C19.8124 79.7727 18.4567 78.9514 17.2849 79.3305C16.1079 79.7148 15.3512 80.9204 15.677 82.1682C15.7191 82.3314 15.7453 82.4999 15.7926 82.6631C15.8609 82.9 15.7664 82.4104 15.7664 82.4051C15.7558 82.4946 15.7821 82.6052 15.7874 82.6947C15.7874 82.7947 15.7453 83.3633 15.7926 82.9526C15.8347 82.5946 15.8084 82.8579 15.7769 82.9263C15.5352 83.4738 16.5756 82.026 16.5178 82.0681C16.9329 81.7733 17.1063 81.8523 16.8751 81.8944C16.8225 81.9049 17.5004 81.847 17.2639 81.8418C17.1483 81.8418 17.038 81.8576 16.9171 81.8523C16.481 81.8418 17.1746 81.8839 17.1799 81.8944C17.1431 81.826 16.8383 81.7838 16.7595 81.7575C16.7069 81.7417 16.4547 81.6364 16.4284 81.6575C16.4232 81.6628 16.9329 81.8786 16.7647 81.7996C16.6807 81.7575 16.4862 81.6048 16.7858 81.8312C17.1168 82.0787 16.749 81.7523 16.6754 81.6733C16.5335 81.5206 16.4022 81.3732 16.2708 81.2205C16.0554 80.9836 15.8504 80.7414 15.6508 80.494C15.3407 80.1096 15.8977 80.8309 15.6718 80.5256C15.5824 80.3992 15.4879 80.2781 15.3985 80.1518C14.8205 79.3305 14.3529 78.4407 13.9167 77.5352C13.9272 77.5509 13.7801 77.2719 13.7854 77.2614C13.7959 77.2456 13.943 77.7089 13.8694 77.4562C13.8274 77.3193 13.7959 77.0666 13.7223 76.9508C13.7696 77.0297 13.7276 77.4878 13.7748 77.1087C13.7748 77.0824 13.654 77.6615 13.7328 77.4404C13.7486 77.3983 13.7748 77.3193 13.7801 77.2772C13.6172 77.6247 13.5752 77.7194 13.6592 77.5615C13.675 77.5299 13.6908 77.493 13.717 77.4614C13.7959 77.2614 13.5174 77.7089 13.5226 77.7036C13.7381 77.4404 13.3335 77.83 13.3124 77.851C13.3755 77.7984 13.5962 77.7089 13.2336 77.8774C12.7712 78.0827 13.4911 77.8879 12.9446 77.9563C12.3981 78.03 13.2809 78.0353 12.7134 77.9563C12.2457 77.8879 12.6976 77.9827 12.8185 78.0195C13.0707 78.088 12.3141 77.7563 12.54 77.9037C12.5926 77.9405 12.6556 77.9669 12.7134 78.0037C12.7975 78.0564 13.2021 78.3512 12.85 78.0827C12.498 77.8089 12.8816 78.1195 12.9656 78.1933C13.055 78.2775 13.1495 78.367 13.2389 78.4565C13.6487 78.8566 14.006 79.241 14.4842 79.5621C15.2619 78.2354 16.0343 76.9086 16.812 75.5819C16.0554 75.2555 15.3039 74.9291 14.5473 74.6027C14.3634 76.0084 14.1847 77.4141 14.0008 78.8198C13.6277 78.8514 13.5331 78.8672 13.717 78.8566C13.901 78.8566 13.8064 78.8408 13.4333 78.804C13.4963 78.8145 13.5594 78.8303 13.6225 78.8461C13.7959 78.8987 13.717 78.8619 13.386 78.7355C13.4385 78.804 13.6698 78.8935 13.7486 78.9356C14.1006 79.1304 13.4806 78.6881 13.675 78.8724C13.8642 79.0567 14.0481 79.2199 14.2162 79.4147C14.3108 79.52 14.4001 79.6253 14.4895 79.7306C14.8153 80.1149 14.1952 79.2989 14.4685 79.7095C14.747 80.1202 15.0412 80.5624 15.2672 81.031C15.3302 81.1521 15.3828 81.289 15.4511 81.41C15.1463 80.8678 15.367 81.2152 15.4301 81.3785C15.5299 81.6417 15.6087 81.9102 15.6875 82.1787C16.0081 83.3422 17.327 84.1793 18.5145 83.7897C19.7021 83.4054 20.4745 82.1945 20.1225 80.952L20.1172 80.9415Z" fill="#FFA59B"/>
</svg>
